<svg id="Buildings" xmlns="http://www.w3.org/2000/svg" viewBox="0 0 1826.98 500.43"><defs><style>.cls-1{fill:#999;stroke:#999;}.cls-1,.cls-3,.cls-5,.cls-6{stroke-linecap:round;}.cls-1,.cls-4,.cls-6{stroke-linejoin:round;}.cls-1,.cls-3,.cls-4{stroke-width:0.5px;}.cls-2{fill:#fff;}.cls-3,.cls-4,.cls-5,.cls-6{fill:none;}.cls-3{stroke:#666;}.cls-3,.cls-5{stroke-miterlimit:10;}.cls-4{stroke:#3fa9f5;}.cls-5,.cls-6{stroke:#000;}</style></defs><title>Docklands F3</title><rect class="cls-1" x="643.87" y="305.8" width="105.2" height="28.67"/><polygon class="cls-2" points="784.52 260.65 784.52 252.48 680.1 252.48 680.1 260.65 664.5 260.65 664.5 252.48 559.9 252.48 559.9 260.65 544.3 260.65 544.3 252.48 502.85 252.48 502.85 244.4 521.77 224.98 822.1 224.98 841.42 244.3 841.42 252.48 800.12 252.48 800.12 260.65 784.52 260.65"/><path class="cls-2" d="M899,627.23l9.59,9.59,9.59,9.59v7.82h-41.3v8.17h-15.1v-8.17H756.85v8.17h-15.1v-8.17H636.65v8.17h-15.1v-8.17H580.1V646.5L591.36,635l7.52-7.72H899m.21-.5H598.67L579.6,646.3v8.43h41.45v8.17h16.1v-8.17h104.1v8.17h16.1v-8.17H861.27v8.17h16.1v-8.17h41.3V646.2L899.2,626.73Z" transform="translate(-77 -402)"/><path class="cls-1" d="M1755.9,844.59l-57.45,1.48q2.37,20.16,4.75,40.33l-6.4,12.87-27.21-1.08q-8.19-61.26-16.39-122.52c1-1.63,2.09-3.25,3.13-4.87l36.2-1.8a6.08,6.08,0,0,1,2.22,4.5,6,6,0,0,1-3.25,5.25l3.25,29.81,61.52-.11q-.48-22.65-.94-45.32l1.8-2.2,36.27,1a6,6,0,0,1,3.25,5,6.05,6.05,0,0,1-4.05,5.8v34.88l55.77-12.21-10.54-44.36,1.57-3.51,34.9-7.4a5.72,5.72,0,0,1,1.1,10.53l28.08,110-5.58,17.9-23.9.5q-8.54-25.25-17.08-50.48l-64.32,15.19V888.4l-10.47,13.53-24.8-8.8Q1756.61,868.86,1755.9,844.59Z" transform="translate(-77 -402)"/><path class="cls-1" d="M1511.33,807.47l50.57,4,.95-31.45,43.7,4.57a5.83,5.83,0,0,1,1.73,4.51,5.9,5.9,0,0,1-2.58,4.32q-4.54,46-9.1,91.95l-11.07,14.8-24.73-7.4,1.8-45.6-61.8-6.73q-2.46,14-4.93,28l-13.2,12.4-20.8-12.4,8.73-45.17-9.22-3.84q4.24-9.23,8.48-18.46H1476q1.66-12.93,3.32-25.87l36.11,7.79a7.42,7.42,0,0,1-.65,9.28Q1513,799.83,1511.33,807.47Z" transform="translate(-77 -402)"/><path class="cls-1" d="M1453.77,836l-41.69-19.15c1.27-2.73,2.55-5.45,3.82-8.18l-7.26-3.45q7.6-16.53,15.2-33.08l48.94,22.48Q1463.27,815.34,1453.77,836Z" transform="translate(-77 -402)"/><circle class="cls-1" cx="1114" cy="321" r="21.5"/><circle class="cls-1" cx="1077" cy="348" r="21.5"/><circle class="cls-1" cx="912.61" cy="348.52" r="21.5"/><circle class="cls-1" cx="876.39" cy="320.48" r="21.5"/><circle class="cls-1" cx="815" cy="320" r="21.5"/><circle class="cls-1" cx="778" cy="347" r="21.5"/><circle class="cls-1" cx="578.39" cy="319.48" r="21.5"/><circle class="cls-1" cx="614.61" cy="347.52" r="21.5"/><circle class="cls-1" cx="303" cy="362" r="21.5"/><circle class="cls-1" cx="340" cy="335" r="21.5"/><polygon class="cls-2" points="362.75 290.25 362.75 281.25 331.75 281.25 331.75 272.34 325.69 266.28 339.34 252.58 401.67 252.58 415.41 266.32 409.47 272.26 409.47 281.25 379.25 281.25 379.25 290.25 362.75 290.25"/><path class="cls-2" d="M478.57,654.83l4.52,4.51,9,9L489.39,671l-3,3-.14.15V683H456v9H440v-9H409v-8.76l-.14-.15L405.78,671l-2.73-2.73,8.9-8.94,4.5-4.51h62.12m.21-.5H416.24l-13.9,13.95,6.16,6.17v9h31v9h17v-9h30.22v-9.13l6-6-14-14Z" transform="translate(-77 -402)"/><polygon class="cls-2" points="182.57 363.25 52.75 367.24 52.75 363.16 36.67 368.19 0.84 250.75 208.31 250.75 221.17 294.25 207.25 294.25 207.25 302.59 245.98 351.25 223.38 351.25 202.45 376.17 182.57 363.25"/><path class="cls-2" d="M285.13,653l6.39,21.64L297.83,696H284v8.67l.11.14,19.5,24.5L322.46,753H300.27l-.15.18-10.5,12.5L279.4,777.84l-9.63-6.26-10-6.5-.13-.08h-.16l-65,2L130,769v-4.16l-.65.2-8,2.5-7.52,2.35L96,711.35,78.18,653h207m.37-.5H77.5l36,118,16-5v4l130-4,20,13,21-25h23l-39-49v-8h14q-6.5-22-13-44Z" transform="translate(-77 -402)"/><rect class="cls-1" x="675.48" y="231.97" width="6.8" height="4.35"/><rect class="cls-1" x="662.03" y="231.97" width="6.72" height="4.35"/><rect class="cls-1" x="800.37" y="245.63" width="1.93" height="7.11"/><rect class="cls-1" x="782.28" y="245.63" width="1.99" height="7.11"/><rect class="cls-1" x="680.53" y="245.63" width="1.74" height="7.1"/><rect class="cls-1" x="662.03" y="245.63" width="2.22" height="7.1"/><rect class="cls-1" x="560.15" y="245.6" width="2.25" height="7.13"/><rect class="cls-1" x="541.72" y="245.6" width="2.33" height="7.13"/><rect class="cls-1" x="541.72" y="238.89" width="5.35" height="6.71"/><path class="cls-1" d="M1489.8,628.33H1479l-3.36,6.49-5.52-2.73-10.55,20.73,5.9,3-.6,1.28c-13.85-2.64-29-6.17-45-10.92a466.34,466.34,0,0,1-44.35-15.58v-107h13.4v-10h-1.73V505.4h1.73V474h22.42v5.45h83.3V474h53.1v10.05h8.45V474h32.73v30.5h-4.58v7.05h4.58V542.7h-4.58V549h4.58v31.4h-6.53l-24.27,47.73-1.13-.56h-47.5V625.3h-19.7Z" transform="translate(-77 -402)"/><path class="cls-1" d="M1364.2,553.1H1259.7V505.93h-9.37V478.47h9.37v-39h104.5Z" transform="translate(-77 -402)"/><path class="cls-1" d="M899.67,607.73H886.2v19H872.75v3.19H866v-3.19H752.47v3.94H745.8v-3.94H632.37V630h-6.64v-3.27H611.5v-19h-12v-80h-102V474.5l21.23,9v-6.06a175,175,0,0,0,121.07-.84v6.27l.28-.1a182.39,182.39,0,0,0,19.42-8.23v112.1h59.23V566.2h6.74V548.53h-6.74V479.67h45.94q-2.45,13.33-4.87,26.66h15.6q-4.6,25.71-9.2,51.4h-8.87v8.47h22.4v20.47H839.3V485.2h22.35v-8.15h16.22v8.15h21.8Z" transform="translate(-77 -402)"/><rect class="cls-1" x="795.75" y="224.73" width="6.55" height="3.19"/><rect class="cls-1" x="782.28" y="224.73" width="6.67" height="3.19"/><rect class="cls-1" x="675.48" y="224.73" width="6.8" height="3.93"/><rect class="cls-1" x="662.03" y="224.73" width="6.77" height="3.93"/><rect class="cls-1" x="555.37" y="224.73" width="6.67" height="3.27"/><rect class="cls-1" x="541.95" y="224.73" width="6.78" height="3.27"/><path class="cls-1" d="M478.78,654.33H416.24V519.9a34.19,34.19,0,0,1,6.89-21.14c2-2.59,10.57-12.87,24.32-12.66,13,.2,20.92,9.59,23,12a36.28,36.28,0,0,1,8.33,21.75Z" transform="translate(-77 -402)"/><path class="cls-1" d="M458.55,675.55l0,8h-2v-7.92h-4.92v-4.33h7Z" transform="translate(-77 -402)"/><path class="cls-1" d="M444.58,675.58H439.5v7.92h-2.07V671.25h7.15Z" transform="translate(-77 -402)"/><path class="cls-1" d="M129.5,765.5l-16,5-22.58-74H284.5v8l39,49h-23l-21,25-20-13-130,4Z" transform="translate(-77 -402)"/><rect class="cls-1" x="16.17" y="250.52" width="4.55" height="13.2"/><rect class="cls-1" x="184.78" y="267.47" width="7.02" height="5.3"/><path class="cls-1" d="M115.9,625.52H97.5v-103h52v59h56v-59h51v59h43l-7-22h12l4,13h3v-50h52v68l-13,13h-37l-29,22h-6.57v27H261.8q3.49-13.5,7-27Z" transform="translate(-77 -402)"/><rect class="cls-1" x="23.55" y="0.5" width="281.9" height="102"/><line class="cls-3" x1="207.38" y1="294.5" x2="13.92" y2="294.5"/><line class="cls-3" x1="202.53" y1="294.5" x2="202.53" y2="272.77"/><line class="cls-3" x1="202.53" y1="272.77" x2="215.08" y2="272.77"/><line class="cls-3" x1="207.63" y1="272.77" x2="207.63" y2="279.2"/><line class="cls-3" x1="207.63" y1="279.2" x2="217.07" y2="279.2"/><line class="cls-3" x1="184.8" y1="250.5" x2="200.93" y2="250.5"/><line class="cls-3" x1="198.77" y1="250.5" x2="198.77" y2="272.77"/><line class="cls-3" x1="202.53" y1="272.77" x2="134.7" y2="272.77"/><line class="cls-3" x1="134.7" y1="272.77" x2="130.8" y2="259.53"/><line class="cls-3" x1="130.8" y1="259.53" x2="130.8" y2="250.5"/><line class="cls-3" x1="130.8" y1="259.53" x2="20.72" y2="259.53"/><line class="cls-3" x1="20.72" y1="270.3" x2="20.72" y2="250.5"/><line class="cls-3" x1="16.07" y1="250.5" x2="16.07" y2="278"/><line class="cls-3" x1="20.72" y1="270.3" x2="16.07" y2="270.3"/><line class="cls-3" x1="16.07" y1="272.65" x2="7.22" y2="272.65"/><line class="cls-3" x1="19.18" y1="278" x2="8.89" y2="278"/><line class="cls-3" x1="202.53" y1="277.93" x2="134.7" y2="277.93"/><line class="cls-3" x1="130.88" y1="285.78" x2="130.88" y2="294.5"/><line class="cls-3" x1="134.7" y1="277.93" x2="130.88" y2="285.78"/><line class="cls-3" x1="130.88" y1="285.78" x2="21.57" y2="285.78"/><line class="cls-3" x1="19.18" y1="278" x2="21.57" y2="285.78"/><line class="cls-3" x1="21.57" y1="285.78" x2="21.57" y2="294.5"/><line class="cls-3" x1="30.03" y1="285.78" x2="30.03" y2="294.5"/><line class="cls-3" x1="38.43" y1="285.78" x2="38.43" y2="294.5"/><line class="cls-3" x1="46.77" y1="285.78" x2="46.77" y2="294.5"/><line class="cls-3" x1="55.23" y1="285.78" x2="55.23" y2="294.5"/><line class="cls-3" x1="63.67" y1="285.78" x2="63.67" y2="294.5"/><line class="cls-3" x1="72.07" y1="285.78" x2="72.07" y2="294.5"/><line class="cls-3" x1="80.43" y1="285.78" x2="80.43" y2="294.5"/><line class="cls-3" x1="88.83" y1="285.78" x2="88.83" y2="294.5"/><line class="cls-3" x1="97.23" y1="285.78" x2="97.23" y2="294.5"/><line class="cls-3" x1="105.67" y1="285.78" x2="105.67" y2="294.5"/><line class="cls-3" x1="114.03" y1="285.78" x2="114.03" y2="294.5"/><line class="cls-3" x1="122.43" y1="285.78" x2="122.43" y2="294.5"/><line class="cls-3" x1="126.63" y1="264.78" x2="31.92" y2="264.78"/><line class="cls-3" x1="31.92" y1="280.53" x2="31.92" y2="264.78"/><line class="cls-3" x1="31.92" y1="280.53" x2="126.63" y2="280.53"/><line class="cls-3" x1="126.63" y1="280.53" x2="126.63" y2="264.78"/><line class="cls-3" x1="115.87" y1="264.78" x2="115.87" y2="280.53"/><line class="cls-3" x1="94.9" y1="264.78" x2="94.9" y2="280.53"/><line class="cls-3" x1="73.87" y1="264.78" x2="73.87" y2="280.53"/><line class="cls-3" x1="52.83" y1="264.78" x2="52.83" y2="280.53"/><line class="cls-3" x1="122.45" y1="259.53" x2="122.45" y2="250.5"/><line class="cls-3" x1="114.03" y1="259.53" x2="114.03" y2="250.5"/><line class="cls-3" x1="105.57" y1="259.53" x2="105.57" y2="250.5"/><line class="cls-3" x1="97.25" y1="259.53" x2="97.25" y2="250.5"/><line class="cls-3" x1="88.82" y1="259.53" x2="88.82" y2="250.5"/><line class="cls-3" x1="80.4" y1="259.53" x2="80.4" y2="250.5"/><line class="cls-3" x1="72.05" y1="259.53" x2="72.05" y2="250.5"/><line class="cls-3" x1="63.6" y1="259.53" x2="63.6" y2="250.5"/><line class="cls-3" x1="55.22" y1="259.53" x2="55.22" y2="250.5"/><line class="cls-3" x1="46.8" y1="259.53" x2="46.8" y2="250.5"/><line class="cls-3" x1="38.42" y1="259.53" x2="38.42" y2="250.5"/><line class="cls-3" x1="30.02" y1="259.53" x2="30.02" y2="250.5"/><line class="cls-3" x1="177.05" y1="277.93" x2="177.05" y2="294.5"/><line class="cls-3" x1="156.05" y1="277.93" x2="156.05" y2="294.5"/><line class="cls-3" x1="147.6" y1="272.77" x2="147.6" y2="250.5"/><line class="cls-3" x1="164.5" y1="272.77" x2="164.5" y2="250.5"/><line class="cls-3" x1="179.2" y1="258.98" x2="179.2" y2="272.77"/><line class="cls-3" x1="164.5" y1="262" x2="179.2" y2="262"/><line class="cls-3" x1="179.2" y1="258.98" x2="184.78" y2="258.98"/><line class="cls-3" x1="184.78" y1="272.77" x2="184.78" y2="250.5"/><line class="cls-3" x1="180.3" y1="258.98" x2="180.3" y2="250.5"/><line class="cls-3" x1="191.8" y1="272.77" x2="191.8" y2="250.5"/><line class="cls-3" x1="191.8" y1="259.6" x2="184.8" y2="259.6"/><line class="cls-3" x1="184.78" y1="267.47" x2="191.8" y2="267.47"/><line class="cls-3" x1="339.24" y1="252.33" x2="401.78" y2="252.33"/><rect class="cls-3" x="367.35" y="278.03" width="7.55" height="6.8"/><line class="cls-3" x1="362.5" y1="281.5" x2="362.5" y2="273.58"/><line class="cls-3" x1="367.57" y1="273.58" x2="362.5" y2="273.58"/><line class="cls-3" x1="367.57" y1="269.25" x2="367.57" y2="273.58"/><line class="cls-3" x1="374.57" y1="272.2" x2="367.57" y2="272.2"/><line class="cls-3" x1="374.57" y1="273.58" x2="374.57" y2="272.2"/><line class="cls-3" x1="379.5" y1="281.5" x2="379.5" y2="273.58"/><line class="cls-3" x1="374.57" y1="273.58" x2="379.5" y2="273.58"/><line class="cls-3" x1="374.57" y1="272.2" x2="374.57" y2="269.25"/><line class="cls-3" x1="374.57" y1="269.25" x2="381.55" y2="269.25"/><line class="cls-3" x1="381.55" y1="269.25" x2="381.55" y2="281.43"/><line class="cls-3" x1="367.57" y1="269.25" x2="360.43" y2="269.25"/><line class="cls-3" x1="360.43" y1="281.5" x2="360.43" y2="269.25"/><line class="cls-3" x1="362.5" y1="269.25" x2="362.5" y2="263.13"/><line class="cls-3" x1="379.8" y1="269.25" x2="379.8" y2="263.13"/><line class="cls-3" x1="360.43" y1="263.13" x2="381.55" y2="263.13"/><line class="cls-3" x1="381.55" y1="252.33" x2="381.55" y2="263.13"/><line class="cls-3" x1="360.43" y1="263.13" x2="360.43" y2="252.33"/><line class="cls-3" x1="367.57" y1="263.13" x2="367.57" y2="252.33"/><line class="cls-3" x1="378.06" y1="263.13" x2="378.06" y2="252.33"/><line class="cls-3" x1="367.57" y1="259.55" x2="378.06" y2="259.55"/><line class="cls-3" x1="372.57" y1="252.33" x2="372.57" y2="259.55"/><line class="cls-3" x1="534.5" y1="224.73" x2="541.95" y2="224.73"/><line class="cls-3" x1="535.33" y1="224.73" x2="535.33" y2="235.5"/><line class="cls-3" x1="541.95" y1="224.73" x2="541.95" y2="235.5"/><line class="cls-3" x1="548.73" y1="235.5" x2="522.67" y2="235.5"/><line class="cls-3" x1="522.67" y1="235.5" x2="516.88" y2="229.65"/><line class="cls-3" x1="528.67" y1="224.73" x2="528.67" y2="235.5"/><line class="cls-3" x1="541.95" y1="228" x2="562.03" y2="228"/><line class="cls-3" x1="562.03" y1="224.73" x2="662.03" y2="224.73"/><line class="cls-3" x1="562.03" y1="228" x2="562.03" y2="224.73"/><line class="cls-3" x1="662.03" y1="228.67" x2="662.03" y2="224.73"/><rect class="cls-3" x="548.6" y="249.82" width="7.37" height="6.72"/><line class="cls-4" x1="551.3" y1="249.82" x2="553.27" y2="249.82"/><line class="cls-3" x1="544.05" y1="252.73" x2="544.05" y2="245.6"/><line class="cls-3" x1="544.05" y1="245.6" x2="549.4" y2="245.6"/><line class="cls-3" x1="549.4" y1="243.75" x2="549.4" y2="245.6"/><line class="cls-3" x1="555.38" y1="243.75" x2="549.4" y2="243.75"/><line class="cls-3" x1="555.38" y1="245.6" x2="555.38" y2="231.4"/><line class="cls-3" x1="560.15" y1="245.6" x2="555.38" y2="245.6"/><line class="cls-3" x1="560.15" y1="252.73" x2="560.15" y2="245.6"/><line class="cls-3" x1="560.15" y1="245.6" x2="562.4" y2="245.6"/><line class="cls-3" x1="562.4" y1="245.6" x2="562.4" y2="252.73"/><line class="cls-3" x1="544.05" y1="245.6" x2="541.72" y2="245.6"/><line class="cls-3" x1="541.72" y1="238.89" x2="541.72" y2="252.73"/><line class="cls-3" x1="642.15" y1="231.4" x2="555.38" y2="231.4"/><line class="cls-3" x1="558.06" y1="228" x2="558.06" y2="231.4"/><line class="cls-3" x1="522.05" y1="238.89" x2="547.06" y2="238.89"/><line class="cls-3" x1="547.06" y1="245.6" x2="547.06" y2="238.89"/><line class="cls-3" x1="546.31" y1="238.89" x2="546.31" y2="235.5"/><line class="cls-3" x1="548.73" y1="228" x2="548.73" y2="235.5"/><line class="cls-3" x1="522.05" y1="252.73" x2="522.05" y2="238.89"/><line class="cls-3" x1="532.03" y1="238.89" x2="532.03" y2="252.73"/><line class="cls-3" x1="522.05" y1="242.23" x2="515.32" y2="242.23"/><line class="cls-3" x1="515.32" y1="252.73" x2="515.32" y2="242.23"/><line class="cls-3" x1="515.32" y1="242.23" x2="509.9" y2="236.8"/><line class="cls-3" x1="568.7" y1="224.73" x2="568.7" y2="252.73"/><line class="cls-3" x1="602.1" y1="224.73" x2="602.1" y2="252.73"/><line class="cls-3" x1="622.3" y1="228.5" x2="622.3" y2="252.73"/><line class="cls-3" x1="642.15" y1="224.73" x2="642.15" y2="252.73"/><line class="cls-3" x1="682.28" y1="228.67" x2="642.15" y2="228.67"/><line class="cls-3" x1="682.28" y1="224.73" x2="782.28" y2="224.73"/><line class="cls-3" x1="782.28" y1="227.93" x2="802.3" y2="227.93"/><line class="cls-3" x1="795.75" y1="227.92" x2="795.75" y2="234.72"/><line class="cls-3" x1="802.3" y1="224.73" x2="809.2" y2="224.73"/><line class="cls-3" x1="682.28" y1="224.73" x2="682.28" y2="252.73"/><rect class="cls-1" x="668.75" y="249.8" width="7.38" height="6.75"/><rect class="cls-3" x="668.75" y="249.8" width="7.38" height="6.75"/><line class="cls-3" x1="680.53" y1="252.73" x2="680.53" y2="245.63"/><line class="cls-3" x1="682.28" y1="245.63" x2="674.82" y2="245.63"/><line class="cls-3" x1="664.25" y1="252.73" x2="664.25" y2="245.63"/><line class="cls-3" x1="662.03" y1="231.97" x2="662.03" y2="252.73"/><line class="cls-3" x1="662.03" y1="245.63" x2="669.55" y2="245.63"/><line class="cls-3" x1="652.13" y1="228.67" x2="652.13" y2="252.73"/><line class="cls-3" x1="652.13" y1="242.35" x2="662.03" y2="242.35"/><line class="cls-3" x1="658.05" y1="231.97" x2="668.8" y2="231.97"/><line class="cls-3" x1="658.05" y1="231.97" x2="658.05" y2="228.67"/><line class="cls-3" x1="668.8" y1="242.85" x2="668.8" y2="231.97"/><line class="cls-3" x1="669.55" y1="242.85" x2="668.8" y2="242.85"/><line class="cls-3" x1="669.55" y1="245.63" x2="669.55" y2="242.85"/><line class="cls-3" x1="686.28" y1="231.97" x2="675.48" y2="231.97"/><line class="cls-3" x1="675.48" y1="231.97" x2="675.48" y2="242.85"/><line class="cls-3" x1="675.48" y1="242.85" x2="674.82" y2="242.85"/><line class="cls-3" x1="674.82" y1="245.63" x2="674.82" y2="242.85"/><line class="cls-3" x1="669.55" y1="243.79" x2="674.82" y2="243.79"/><line class="cls-3" x1="662.03" y1="239.72" x2="668.8" y2="239.72"/><line class="cls-3" x1="662.03" y1="236.32" x2="668.8" y2="236.32"/><line class="cls-3" x1="675.48" y1="236.32" x2="682.28" y2="236.32"/><line class="cls-3" x1="675.48" y1="239.72" x2="682.28" y2="239.72"/><line class="cls-3" x1="686.28" y1="229.3" x2="686.28" y2="231.97"/><line class="cls-3" x1="686.28" y1="229.3" x2="775.6" y2="229.3"/><line class="cls-3" x1="775.6" y1="229.3" x2="775.6" y2="233.03"/><line class="cls-3" x1="775.6" y1="233.03" x2="788.95" y2="233.03"/><line class="cls-3" x1="788.95" y1="239.78" x2="788.95" y2="233.03"/><line class="cls-3" x1="782.28" y1="239.78" x2="788.95" y2="239.78"/><line class="cls-3" x1="782.28" y1="224.73" x2="782.28" y2="252.73"/><line class="cls-3" x1="784.27" y1="252.73" x2="784.27" y2="245.63"/><line class="cls-3" x1="782.28" y1="245.63" x2="789.67" y2="245.63"/><line class="cls-3" x1="787.35" y1="239.78" x2="787.35" y2="245.63"/><line class="cls-3" x1="789.67" y1="244.85" x2="789.67" y2="245.63"/><line class="cls-3" x1="794.89" y1="244.85" x2="789.67" y2="244.85"/><line class="cls-3" x1="794.89" y1="245.63" x2="794.89" y2="244.85"/><line class="cls-3" x1="794.89" y1="245.63" x2="802.3" y2="245.63"/><line class="cls-3" x1="800.37" y1="252.73" x2="800.37" y2="245.63"/><line class="cls-3" x1="802.3" y1="252.73" x2="802.3" y2="224.73"/><line class="cls-3" x1="797.23" y1="245.63" x2="797.23" y2="239.78"/><line class="cls-3" x1="795.75" y1="234.72" x2="802.3" y2="234.72"/><line class="cls-3" x1="795.75" y1="231.33" x2="802.3" y2="231.33"/><line class="cls-3" x1="802.3" y1="239.78" x2="795.75" y2="239.78"/><rect class="cls-3" x="788.88" y="249.82" width="7.37" height="6.73"/><line class="cls-3" x1="698.85" y1="229.3" x2="698.85" y2="252.73"/><line class="cls-3" x1="715.5" y1="229.3" x2="715.5" y2="252.73"/><line class="cls-3" x1="742.25" y1="224.73" x2="742.25" y2="229.3"/><line class="cls-3" x1="748.9" y1="229.3" x2="748.9" y2="252.73"/><line class="cls-3" x1="765.6" y1="229.3" x2="765.6" y2="252.73"/><path class="cls-1" d="M965.8,447" transform="translate(-77 -402)"/><line class="cls-5" x1="522.5" y1="175.23" x2="522.5" y2="125.77"/><line class="cls-5" x1="582.5" y1="184.67" x2="582.5" y2="72.57"/><line class="cls-5" x1="800.37" y1="252.73" x2="841.67" y2="252.73"/><line class="cls-5" x1="680.53" y1="252.73" x2="784.27" y2="252.73"/><line class="cls-5" x1="560.15" y1="252.73" x2="664.25" y2="252.73"/><line class="cls-5" x1="560.15" y1="260.9" x2="560.15" y2="252.73"/><line class="cls-5" x1="544.05" y1="260.9" x2="560.15" y2="260.9"/><line class="cls-5" x1="544.05" y1="252.73" x2="544.05" y2="260.9"/><line class="cls-5" x1="502.6" y1="252.73" x2="544.05" y2="252.73"/><line class="cls-5" x1="534.5" y1="224.73" x2="521.67" y2="224.73"/><line class="cls-5" x1="534.5" y1="224.73" x2="534.5" y2="205.73"/><line class="cls-5" x1="522.5" y1="205.73" x2="534.5" y2="205.73"/><line class="cls-5" x1="522.5" y1="174.73" x2="522.5" y2="205.73"/><line class="cls-5" x1="420.5" y1="72.5" x2="420.5" y2="125.77"/><line class="cls-5" x1="362.5" y1="281.5" x2="331.5" y2="281.5"/><line class="cls-5" x1="362.5" y1="289.5" x2="362.5" y2="281.5"/><line class="cls-5" x1="362.5" y1="290.5" x2="362.5" y2="289.5"/><line class="cls-5" x1="379.5" y1="281.5" x2="379.5" y2="290.5"/><line class="cls-5" x1="362.5" y1="290.5" x2="379.5" y2="290.5"/><line class="cls-5" x1="305.5" y1="102.5" x2="305.5" y2="0.5"/><line class="cls-5" x1="23.5" y1="0.5" x2="305.5" y2="0.5"/><line class="cls-5" x1="23.5" y1="102.5" x2="23.5" y2="0.5"/><line class="cls-5" x1="204.5" y1="102.5" x2="23.5" y2="102.5"/><line class="cls-5" x1="305.5" y1="102.5" x2="204.5" y2="102.5"/><line class="cls-5" x1="286.5" y1="120.5" x2="234.5" y2="120.5"/><line class="cls-5" x1="234.5" y1="170.5" x2="234.5" y2="120.5"/><line class="cls-5" x1="231.5" y1="170.5" x2="234.5" y2="170.5"/><line class="cls-5" x1="227.5" y1="157.5" x2="231.5" y2="170.5"/><line class="cls-5" x1="215.5" y1="157.5" x2="227.5" y2="157.5"/><line class="cls-5" x1="222.5" y1="179.5" x2="215.5" y2="157.5"/><line class="cls-5" x1="216.5" y1="179.5" x2="222.5" y2="179.5"/><line class="cls-5" x1="179.5" y1="179.5" x2="216.5" y2="179.5"/><line class="cls-5" x1="179.5" y1="120.5" x2="179.5" y2="179.5"/><line class="cls-5" x1="128.5" y1="120.5" x2="179.5" y2="120.5"/><line class="cls-5" x1="128.5" y1="179.5" x2="128.5" y2="121"/><line class="cls-5" x1="72.5" y1="179.5" x2="128.5" y2="179.5"/><line class="cls-5" x1="72.5" y1="120.5" x2="72.5" y2="179.5"/><line class="cls-5" x1="20.5" y1="120.5" x2="72.5" y2="120.5"/><line class="cls-5" x1="20.5" y1="223.5" x2="20.5" y2="120.5"/><line class="cls-5" x1="191.8" y1="223.5" x2="20.5" y2="223.5"/><line class="cls-5" x1="273.5" y1="201.5" x2="236.5" y2="201.5"/><line class="cls-5" x1="286.5" y1="188.5" x2="273.5" y2="201.5"/><line class="cls-5" x1="286.5" y1="120.5" x2="286.5" y2="188.5"/><line class="cls-5" x1="207.5" y1="223.5" x2="228.5" y2="207.5"/><line class="cls-5" x1="228.5" y1="207.5" x2="236.5" y2="201.5"/><line class="cls-5" x1="0.5" y1="250.5" x2="184.8" y2="250.5"/><line class="cls-5" x1="221.5" y1="294.5" x2="208.5" y2="250.5"/><line class="cls-5" x1="207.5" y1="294.5" x2="216.5" y2="294.5"/><line class="cls-5" x1="216.5" y1="294.5" x2="221.5" y2="294.5"/><line class="cls-5" x1="207.5" y1="302.5" x2="207.5" y2="294.5"/><line class="cls-5" x1="246.5" y1="351.5" x2="207.5" y2="302.5"/><line class="cls-5" x1="223.5" y1="351.5" x2="246.5" y2="351.5"/><line class="cls-5" x1="202.5" y1="376.5" x2="223.5" y2="351.5"/><line class="cls-5" x1="182.5" y1="363.5" x2="202.5" y2="376.5"/><line class="cls-5" x1="52.5" y1="367.5" x2="182.5" y2="363.5"/><line class="cls-5" x1="52.5" y1="363.5" x2="52.5" y2="367"/><line class="cls-5" x1="36.5" y1="368.5" x2="52.5" y2="363.5"/><line class="cls-5" x1="0.5" y1="250.5" x2="36.5" y2="368.5"/><circle class="cls-5" cx="340" cy="335" r="21.5"/><circle class="cls-5" cx="303" cy="362" r="21.5"/><circle class="cls-5" cx="815" cy="320" r="21.5"/><circle class="cls-5" cx="778" cy="347" r="21.5"/><circle class="cls-5" cx="1114" cy="321" r="21.5"/><circle class="cls-5" cx="1077" cy="348" r="21.5"/><circle class="cls-5" cx="912.61" cy="348.52" r="21.5"/><circle class="cls-5" cx="876.39" cy="320.48" r="21.5"/><circle class="cls-5" cx="614.61" cy="347.52" r="21.5"/><circle class="cls-5" cx="578.39" cy="319.48" r="21.5"/><line class="cls-5" x1="1576.2" y1="373.67" x2="1592.59" y2="496.19"/><line class="cls-5" x1="1579.33" y1="368.8" x2="1576.2" y2="373.67"/><line class="cls-5" x1="1615.53" y1="367" x2="1579.33" y2="368.8"/><path class="cls-5" d="M1691.5,778.75a6,6,0,0,0,3.25-5.25,6.08,6.08,0,0,0-2.22-4.5" transform="translate(-77 -402)"/><line class="cls-5" x1="1617.75" y1="406.56" x2="1614.5" y2="376.75"/><line class="cls-5" x1="1679.27" y1="406.45" x2="1617.75" y2="406.56"/><line class="cls-5" x1="1678.33" y1="361.13" x2="1679.27" y2="406.45"/><line class="cls-5" x1="1680.13" y1="358.93" x2="1678.33" y2="361.13"/><line class="cls-5" x1="1716.4" y1="359.97" x2="1680.13" y2="358.93"/><path class="cls-5" d="M1792.6,772.8c3-1.5,4.58-4.59,3.9-7.2a6.08,6.08,0,0,0-3.1-3.63" transform="translate(-77 -402)"/><line class="cls-5" x1="1715.6" y1="405.68" x2="1715.6" y2="370.8"/><line class="cls-5" x1="1771.37" y1="393.47" x2="1715.6" y2="405.68"/><line class="cls-5" x1="1760.83" y1="349.11" x2="1771.37" y2="393.47"/><line class="cls-5" x1="1762.4" y1="345.6" x2="1760.83" y2="349.11"/><line class="cls-5" x1="1797.3" y1="338.2" x2="1762.4" y2="345.6"/><path class="cls-5" d="M1875.4,750.73a5.72,5.72,0,0,0-1.1-10.53" transform="translate(-77 -402)"/><line class="cls-5" x1="1826.48" y1="458.7" x2="1798.4" y2="348.73"/><line class="cls-5" x1="1820.9" y1="476.6" x2="1826.48" y2="458.7"/><line class="cls-5" x1="1797" y1="477.1" x2="1820.9" y2="476.6"/><line class="cls-5" x1="1779.92" y1="426.62" x2="1797" y2="477.1"/><line class="cls-5" x1="1715.6" y1="441.81" x2="1779.92" y2="426.62"/><line class="cls-5" x1="1715.6" y1="486.4" x2="1715.6" y2="441.81"/><line class="cls-5" x1="1705.13" y1="499.93" x2="1715.6" y2="486.4"/><line class="cls-5" x1="1680.33" y1="491.13" x2="1705.13" y2="499.93"/><line class="cls-5" x1="1678.9" y1="442.59" x2="1680.33" y2="491.13"/><line class="cls-5" x1="1621.45" y1="444.07" x2="1678.9" y2="442.59"/><line class="cls-5" x1="1626.2" y1="484.4" x2="1621.45" y2="444.07"/><line class="cls-5" x1="1619.8" y1="497.27" x2="1626.2" y2="484.4"/><line class="cls-5" x1="1592.59" y1="496.19" x2="1619.8" y2="497.27"/><line class="cls-5" x1="191.8" y1="223.5" x2="184.87" y2="250.5"/><line class="cls-5" x1="200.93" y1="223.5" x2="200.93" y2="250.5"/><line class="cls-5" x1="331.5" y1="272.45" x2="331.5" y2="281.5"/><line class="cls-5" x1="379.5" y1="281.5" x2="409.72" y2="281.5"/><line class="cls-5" x1="409.72" y1="281.5" x2="409.72" y2="272.37"/><line class="cls-5" x1="409.72" y1="272.37" x2="415.77" y2="266.32"/><line class="cls-5" x1="415.77" y1="266.32" x2="401.78" y2="252.33"/><line class="cls-5" x1="401.78" y1="118.5" x2="401.78" y2="252.33"/><path class="cls-5" d="M522.45,520.5" transform="translate(-77 -402)"/><path class="cls-5" d="M497.5,520.5" transform="translate(-77 -402)"/><path class="cls-5" d="M559.5,520.5" transform="translate(-77 -402)"/><path class="cls-5" d="M522.45,520.5" transform="translate(-77 -402)"/><line class="cls-5" x1="441.73" y1="81.53" x2="441.73" y2="75.47"/><path class="cls-5" d="M599.5,486.79a183.5,183.5,0,0,1-80.77-9.32" transform="translate(-77 -402)"/><path class="cls-5" d="M497.5,474.5c3.45,1.72,7.15,3.44,11.1,5.1q5.25,2.2,10.13,3.93" transform="translate(-77 -402)"/><path class="cls-5" d="M639.8,476.63a183.61,183.61,0,0,1-40.3,10.16" transform="translate(-77 -402)"/><line class="cls-5" x1="562.8" y1="80.9" x2="562.8" y2="74.63"/><path class="cls-5" d="M659.5,474.57c-3.08,1.52-6.38,3.05-9.9,4.53s-6.66,2.69-9.8,3.8" transform="translate(-77 -402)"/><line class="cls-5" x1="841.67" y1="244.2" x2="841.67" y2="252.73"/><line class="cls-5" x1="1432.5" y1="225.57" x2="1432.5" y2="223.3"/><line class="cls-5" x1="1480" y1="225.57" x2="1432.5" y2="225.57"/><line class="cls-5" x1="1480" y1="225.57" x2="1481.13" y2="226.13"/><line class="cls-5" x1="1481.13" y1="226.13" x2="1505.4" y2="178.4"/><line class="cls-5" x1="1505.4" y1="178.4" x2="1511.93" y2="178.4"/><line class="cls-5" x1="1511.93" y1="178.4" x2="1511.93" y2="147"/><line class="cls-5" x1="1507.35" y1="147" x2="1511.93" y2="147"/><line class="cls-5" x1="1507.35" y1="140.7" x2="1507.35" y2="147"/><line class="cls-5" x1="1511.93" y1="140.7" x2="1507.35" y2="140.7"/><line class="cls-5" x1="1511.93" y1="109.55" x2="1511.93" y2="140.7"/><line class="cls-5" x1="1507.35" y1="109.55" x2="1511.93" y2="109.55"/><line class="cls-5" x1="1507.35" y1="102.5" x2="1507.35" y2="109.55"/><line class="cls-5" x1="1511.93" y1="102.5" x2="1507.35" y2="102.5"/><line class="cls-5" x1="1511.93" y1="72" x2="1511.93" y2="102.5"/><line class="cls-5" x1="1479.2" y1="72" x2="1511.93" y2="72"/><line class="cls-5" x1="1479.2" y1="82.05" x2="1479.2" y2="72"/><line class="cls-5" x1="1470.75" y1="82.05" x2="1479.2" y2="82.05"/><line class="cls-5" x1="1470.75" y1="72" x2="1470.75" y2="82.05"/><line class="cls-5" x1="1417.65" y1="72" x2="1470.75" y2="72"/><line class="cls-5" x1="1417.65" y1="77.45" x2="1417.65" y2="72"/><line class="cls-5" x1="1377.4" y1="77.45" x2="1417.65" y2="77.45"/><line class="cls-5" x1="1334.35" y1="77.45" x2="1377.4" y2="77.45"/><line class="cls-5" x1="1334.35" y1="72" x2="1334.35" y2="77.45"/><line class="cls-5" x1="1311.93" y1="72" x2="1334.35" y2="72"/><line class="cls-5" x1="1311.93" y1="72" x2="1311.93" y2="103.4"/><line class="cls-5" x1="1310.2" y1="103.4" x2="1311.93" y2="103.4"/><line class="cls-5" x1="1310.2" y1="111.63" x2="1310.2" y2="103.4"/><line class="cls-5" x1="1311.93" y1="111.63" x2="1310.2" y2="111.63"/><line class="cls-5" x1="1311.93" y1="121.6" x2="1311.93" y2="111.63"/><line class="cls-5" x1="1298.53" y1="121.6" x2="1311.93" y2="121.6"/><line class="cls-5" x1="1298.53" y1="228.6" x2="1298.53" y2="121.6"/><line class="cls-5" x1="680.35" y1="260.9" x2="680.35" y2="252.73"/><line class="cls-5" x1="664.25" y1="260.9" x2="680.35" y2="260.9"/><line class="cls-5" x1="664.25" y1="252.73" x2="664.25" y2="260.9"/><line class="cls-5" x1="800.37" y1="260.9" x2="800.37" y2="252.73"/><line class="cls-5" x1="784.27" y1="260.9" x2="800.37" y2="260.9"/><line class="cls-5" x1="784.27" y1="252.73" x2="784.27" y2="260.9"/><line class="cls-5" x1="841.67" y1="244.2" x2="822.2" y2="224.73"/><line class="cls-5" x1="822.2" y1="224.73" x2="809.2" y2="224.73"/><line class="cls-5" x1="809.2" y1="205.73" x2="809.2" y2="224.73"/><line class="cls-5" x1="822.67" y1="205.73" x2="809.2" y2="205.73"/><line class="cls-5" x1="822.67" y1="205.47" x2="822.67" y2="83.2"/><line class="cls-5" x1="800.87" y1="83.2" x2="822.67" y2="83.2"/><line class="cls-5" x1="800.87" y1="75.05" x2="800.87" y2="83.2"/><line class="cls-5" x1="784.65" y1="83.2" x2="784.65" y2="75.05"/><line class="cls-5" x1="784.65" y1="75.05" x2="800.87" y2="75.05"/><line class="cls-5" x1="762.3" y1="83.2" x2="784.65" y2="83.2"/><line class="cls-5" x1="762.3" y1="83.2" x2="762.3" y2="184.67"/><line class="cls-5" x1="702.73" y1="184.67" x2="762.3" y2="184.67"/><line class="cls-5" x1="702.73" y1="164.2" x2="702.73" y2="184.67"/><line class="cls-5" x1="680.33" y1="164.2" x2="702.73" y2="164.2"/><line class="cls-5" x1="680.33" y1="155.73" x2="680.33" y2="164.2"/><line class="cls-5" x1="689.2" y1="155.73" x2="680.33" y2="155.73"/><line class="cls-5" x1="689.2" y1="155.73" x2="698.4" y2="104.33"/><line class="cls-5" x1="698.4" y1="104.33" x2="682.8" y2="104.33"/><line class="cls-5" x1="682.8" y1="104.33" x2="687.67" y2="77.67"/><line class="cls-5" x1="687.67" y1="77.67" x2="641.73" y2="77.67"/><line class="cls-5" x1="641.73" y1="77.67" x2="641.73" y2="146.53"/><line class="cls-5" x1="648.47" y1="146.53" x2="641.73" y2="146.53"/><line class="cls-5" x1="648.47" y1="164.2" x2="648.47" y2="146.53"/><line class="cls-5" x1="641.73" y1="164.2" x2="648.47" y2="164.2"/><line class="cls-5" x1="641.73" y1="184.67" x2="641.73" y2="164.2"/><line class="cls-5" x1="641.73" y1="184.67" x2="582.5" y2="184.67"/><line class="cls-5" x1="331.5" y1="272.45" x2="325.34" y2="266.28"/><line class="cls-5" x1="325.34" y1="266.28" x2="339.24" y2="252.33"/><line class="cls-5" x1="339.24" y1="252.33" x2="339.24" y2="118.5"/><path class="cls-5" d="M444.2,489" transform="translate(-77 -402)"/><path class="cls-5" d="M444.2,486.24" transform="translate(-77 -402)"/><path class="cls-5" d="M451,489" transform="translate(-77 -402)"/><path class="cls-5" d="M451,486.23" transform="translate(-77 -402)"/><path class="cls-5" d="M451,486.24" transform="translate(-77 -402)"/><path class="cls-5" d="M444.2,486.24" transform="translate(-77 -402)"/><line class="cls-5" x1="1331.64" y1="403.25" x2="1346.84" y2="370.17"/><line class="cls-5" x1="1335.08" y1="414.88" x2="1338.9" y2="406.7"/><line class="cls-5" x1="1331.64" y1="403.25" x2="1338.9" y2="406.7"/><line class="cls-5" x1="1335.08" y1="414.88" x2="1376.77" y2="434.03"/><line class="cls-5" x1="1395.78" y1="392.65" x2="1376.77" y2="434.03"/><line class="cls-5" x1="1346.84" y1="370.17" x2="1395.78" y2="392.65"/><line class="cls-5" x1="1384.38" y1="417.46" x2="1393.6" y2="421.3"/><line class="cls-5" x1="1392.86" y1="399" x2="1398.95" y2="399"/><line class="cls-5" x1="1402.27" y1="373.13" x2="1398.95" y2="399"/><line class="cls-5" x1="1438.38" y1="380.92" x2="1402.27" y2="373.13"/><path class="cls-5" d="M1514.78,792.25a7.56,7.56,0,0,0,.6-9.33" transform="translate(-77 -402)"/><line class="cls-5" x1="1434.33" y1="405.47" x2="1437.73" y2="390.2"/><line class="cls-5" x1="1434.33" y1="405.47" x2="1484.9" y2="409.5"/><line class="cls-5" x1="1485.85" y1="378.05" x2="1484.9" y2="409.5"/><line class="cls-5" x1="1529.55" y1="382.62" x2="1485.85" y2="378.05"/><path class="cls-5" d="M1606.55,784.62a5.86,5.86,0,0,1,1.75,4,6.07,6.07,0,0,1-2.6,4.8" transform="translate(-77 -402)"/><line class="cls-5" x1="1519.6" y1="483.4" x2="1528.7" y2="391.45"/><line class="cls-5" x1="1508.53" y1="498.2" x2="1519.6" y2="483.4"/><line class="cls-5" x1="1483.8" y1="490.8" x2="1508.53" y2="498.2"/><line class="cls-5" x1="1485.6" y1="445.2" x2="1483.8" y2="490.8"/><line class="cls-5" x1="1423.8" y1="438.47" x2="1485.6" y2="445.2"/><line class="cls-5" x1="1418.87" y1="466.47" x2="1423.8" y2="438.47"/><line class="cls-5" x1="1405.67" y1="478.87" x2="1418.87" y2="466.47"/><line class="cls-5" x1="1384.87" y1="466.47" x2="1405.67" y2="478.87"/><line class="cls-5" x1="1393.6" y1="421.3" x2="1384.87" y2="466.47"/><line class="cls-5" x1="522.5" y1="125.77" x2="420.5" y2="125.77"/><line class="cls-5" x1="1287.2" y1="151.1" x2="1287.2" y2="112.67"/><line class="cls-5" x1="1182.7" y1="151.1" x2="1287.2" y2="151.1"/><line class="cls-5" x1="1182.7" y1="103.93" x2="1182.7" y2="151.1"/><line class="cls-5" x1="1173.33" y1="103.93" x2="1182.7" y2="103.93"/><line class="cls-5" x1="1173.33" y1="76.47" x2="1173.33" y2="103.93"/><line class="cls-5" x1="1182.7" y1="76.47" x2="1173.33" y2="76.47"/><line class="cls-5" x1="1182.7" y1="37.47" x2="1182.7" y2="76.47"/><line class="cls-5" x1="1287.2" y1="37.47" x2="1182.7" y2="37.47"/><line class="cls-5" x1="1287.2" y1="112.67" x2="1287.2" y2="37.47"/><path class="cls-5" d="M416.24,520.5a34.06,34.06,0,0,1,6.89-21.74c1.88-2.42,10.32-12.61,24.32-12.66,13.67-.05,22.26,10,23.56,11.53.72.83,1.25,1.55,1.54,1.94a34.42,34.42,0,0,1,6.23,20.93" transform="translate(-77 -402)"/><line class="cls-5" x1="0.5" y1="250.5" x2="36.5" y2="368.5"/><line class="cls-5" x1="200.93" y1="250.5" x2="208.5" y2="250.5"/><line class="cls-5" x1="200.93" y1="223.5" x2="207.5" y2="223.5"/><line class="cls-5" x1="502.6" y1="252.73" x2="502.6" y2="244.3"/><line class="cls-5" x1="502.6" y1="244.3" x2="521.67" y2="224.73"/><line class="cls-4" x1="192.1" y1="272.77" x2="195.85" y2="272.77"/><line class="cls-4" x1="198.77" y1="268.21" x2="198.77" y2="271.85"/><line class="cls-4" x1="202.53" y1="273.31" x2="202.53" y2="275.75"/><line class="cls-4" x1="207.63" y1="275.95" x2="207.63" y2="278.51"/><line class="cls-4" x1="177.76" y1="277.93" x2="180.15" y2="277.93"/><line class="cls-4" x1="181.69" y1="272.77" x2="184.19" y2="272.77"/><line class="cls-4" x1="191.8" y1="254.15" x2="191.8" y2="257.3"/><line class="cls-4" x1="191.8" y1="261.92" x2="191.8" y2="265"/><line class="cls-4" x1="184.18" y1="258.98" x2="181.7" y2="258.98"/><line class="cls-4" x1="179.2" y1="259.55" x2="179.2" y2="261.63"/><line class="cls-4" x1="179.2" y1="262.32" x2="179.2" y2="264.67"/><line class="cls-4" x1="173.95" y1="277.93" x2="176.5" y2="277.93"/><line class="cls-4" x1="152.99" y1="277.93" x2="155.54" y2="277.93"/><line class="cls-4" x1="160.9" y1="272.77" x2="163.4" y2="272.77"/><line class="cls-4" x1="144.18" y1="272.77" x2="146.76" y2="272.77"/><line class="cls-4" x1="127.74" y1="259.53" x2="130.28" y2="259.53"/><line class="cls-4" x1="114.64" y1="259.53" x2="117.15" y2="259.53"/><line class="cls-4" x1="110.93" y1="259.53" x2="113.44" y2="259.53"/><line class="cls-4" x1="117.27" y1="280.53" x2="119.97" y2="280.53"/><line class="cls-4" x1="96.22" y1="280.53" x2="98.93" y2="280.53"/><line class="cls-4" x1="91.27" y1="280.53" x2="94.05" y2="280.53"/><line class="cls-4" x1="54.13" y1="280.53" x2="56.95" y2="280.53"/><line class="cls-4" x1="33.24" y1="280.53" x2="35.94" y2="280.53"/><line class="cls-4" x1="30.62" y1="285.78" x2="33.1" y2="285.78"/><line class="cls-4" x1="26.95" y1="285.78" x2="29.39" y2="285.78"/><line class="cls-4" x1="19.35" y1="278.55" x2="20.07" y2="280.88"/><line class="cls-4" x1="16.07" y1="277.31" x2="16.07" y2="273.74"/><line class="cls-4" x1="8.72" y1="272.65" x2="12.33" y2="272.65"/><line class="cls-3" x1="20.72" y1="263.73" x2="16.07" y2="263.73"/><line class="cls-4" x1="26.93" y1="259.53" x2="29.44" y2="259.53"/><line class="cls-4" x1="30.59" y1="259.53" x2="33.11" y2="259.53"/><line class="cls-4" x1="43.74" y1="259.53" x2="46.26" y2="259.53"/><line class="cls-4" x1="47.34" y1="259.53" x2="49.93" y2="259.53"/><line class="cls-4" x1="60.54" y1="259.53" x2="63.09" y2="259.53"/><line class="cls-4" x1="64.21" y1="259.53" x2="66.69" y2="259.53"/><line class="cls-4" x1="77.32" y1="259.53" x2="79.85" y2="259.53"/><line class="cls-4" x1="81" y1="259.53" x2="83.51" y2="259.53"/><line class="cls-4" x1="94.18" y1="259.53" x2="96.61" y2="259.53"/><line class="cls-4" x1="97.68" y1="259.53" x2="100.35" y2="259.53"/><line class="cls-4" x1="43.74" y1="285.78" x2="46.23" y2="285.78"/><line class="cls-4" x1="47.23" y1="285.78" x2="49.94" y2="285.78"/><line class="cls-4" x1="60.57" y1="285.78" x2="63.21" y2="285.78"/><line class="cls-4" x1="64.27" y1="285.78" x2="66.68" y2="285.78"/><line class="cls-4" x1="77.35" y1="285.78" x2="79.86" y2="285.78"/><line class="cls-4" x1="81.03" y1="285.78" x2="83.53" y2="285.78"/><line class="cls-4" x1="94.17" y1="285.78" x2="96.82" y2="285.78"/><line class="cls-4" x1="97.81" y1="285.78" x2="100.32" y2="285.78"/><line class="cls-4" x1="110.93" y1="285.78" x2="113.43" y2="285.78"/><line class="cls-4" x1="114.65" y1="285.78" x2="117.13" y2="285.78"/><line class="cls-4" x1="127.73" y1="285.78" x2="130.21" y2="285.78"/><line class="cls-4" x1="16.75" y1="270.3" x2="19.29" y2="270.3"/><line class="cls-4" x1="369.78" y1="278.03" x2="372.4" y2="278.03"/><line class="cls-4" x1="368.72" y1="272.2" x2="373.47" y2="272.2"/><line class="cls-4" x1="368.72" y1="263.13" x2="373.48" y2="263.13"/><line class="cls-4" x1="369.58" y1="259.55" x2="372.15" y2="259.55"/><line class="cls-4" x1="375.37" y1="259.55" x2="377.67" y2="259.55"/><line class="cls-4" x1="378.06" y1="260.33" x2="378.06" y2="262.69"/><line class="cls-4" x1="367.57" y1="260.33" x2="367.57" y2="262.69"/><line class="cls-4" x1="362.5" y1="264.97" x2="362.5" y2="267.33"/><line class="cls-4" x1="379.8" y1="264.97" x2="379.8" y2="267.33"/><line class="cls-4" x1="549.82" y1="243.75" x2="554.32" y2="243.75"/><line class="cls-4" x1="546.31" y1="236.03" x2="546.31" y2="238.32"/><line class="cls-4" x1="542.6" y1="235.5" x2="544.77" y2="235.5"/><line class="cls-4" x1="537.13" y1="235.5" x2="539.38" y2="235.5"/><line class="cls-4" x1="537.13" y1="238.89" x2="539.38" y2="238.89"/><line class="cls-4" x1="529.62" y1="235.5" x2="531.8" y2="235.5"/><line class="cls-4" x1="525.53" y1="235.5" x2="527.77" y2="235.5"/><line class="cls-4" x1="524.63" y1="238.89" x2="526.82" y2="238.89"/><line class="cls-4" x1="517.62" y1="242.23" x2="519.85" y2="242.23"/><line class="cls-4" x1="513.36" y1="240.26" x2="514.97" y2="241.87"/><line class="cls-4" x1="558.06" y1="228.37" x2="558.06" y2="230.87"/><line class="cls-4" x1="566.07" y1="231.4" x2="568.27" y2="231.4"/><line class="cls-4" x1="568.7" y1="225.78" x2="568.7" y2="228.27"/><line class="cls-4" x1="576.63" y1="231.4" x2="578.84" y2="231.4"/><line class="cls-4" x1="589.11" y1="231.4" x2="591.3" y2="231.4"/><line class="cls-4" x1="602.1" y1="225.86" x2="602.1" y2="228.31"/><line class="cls-4" x1="613.13" y1="231.4" x2="615.4" y2="231.4"/><line class="cls-4" x1="626.06" y1="231.4" x2="628.26" y2="231.4"/><line class="cls-4" x1="642.15" y1="228.26" x2="642.15" y2="225.95"/><line class="cls-4" x1="646.51" y1="228.67" x2="648.74" y2="228.67"/><line class="cls-4" x1="653.4" y1="228.67" x2="655.57" y2="228.67"/><line class="cls-4" x1="658.48" y1="228.67" x2="660.97" y2="228.67"/><line class="cls-4" x1="675.48" y1="239.35" x2="675.48" y2="237.15"/><line class="cls-4" x1="668.8" y1="239.35" x2="668.8" y2="237.15"/><line class="cls-4" x1="668.8" y1="242.47" x2="668.8" y2="240.07"/><line class="cls-4" x1="675.48" y1="242.47" x2="675.48" y2="240.07"/><line class="cls-4" x1="669.93" y1="243.79" x2="674.37" y2="243.79"/><line class="cls-4" x1="653.4" y1="242.35" x2="655.57" y2="242.35"/><line class="cls-4" x1="682.28" y1="229.08" x2="682.28" y2="231.47"/><line class="cls-4" x1="696" y1="229.3" x2="698.18" y2="229.3"/><line class="cls-4" x1="712.65" y1="229.3" x2="714.89" y2="229.3"/><line class="cls-4" x1="716.23" y1="229.3" x2="718.41" y2="229.3"/><line class="cls-4" x1="742.25" y1="226.29" x2="742.25" y2="228.52"/><line class="cls-4" x1="746.01" y1="229.3" x2="748.24" y2="229.3"/><line class="cls-4" x1="749.57" y1="229.3" x2="751.76" y2="229.3"/><line class="cls-4" x1="766.23" y1="229.3" x2="768.41" y2="229.3"/><line class="cls-4" x1="782.28" y1="228.46" x2="782.28" y2="232.49"/><line class="cls-3" x1="782.28" y1="236.41" x2="788.95" y2="236.41"/><line class="cls-4" x1="788.95" y1="234.04" x2="788.95" y2="236.04"/><line class="cls-4" x1="788.95" y1="237.44" x2="788.95" y2="239.38"/><line class="cls-4" x1="787.35" y1="240.19" x2="787.35" y2="242.7"/><line class="cls-4" x1="795.75" y1="234.37" x2="795.75" y2="232.42"/><line class="cls-4" x1="795.75" y1="231" x2="795.75" y2="229.05"/><line class="cls-4" x1="797.23" y1="240.19" x2="797.23" y2="242.7"/><line class="cls-4" x1="790.03" y1="244.85" x2="794.51" y2="244.85"/><line class="cls-4" x1="791.14" y1="249.82" x2="793.43" y2="249.82"/><line class="cls-4" x1="802.3" y1="235.04" x2="802.3" y2="239.02"/><rect class="cls-6" x="643.87" y="305.8" width="105.2" height="28.67"/><line class="cls-5" x1="1402.03" y1="226.34" x2="1412.8" y2="226.34"/><line class="cls-5" x1="1412.8" y1="223.3" x2="1412.8" y2="226.33"/><path class="cls-5" d="M1375.53,630.6c12.9,5.27,27.28,10.48,43.07,15.2a467.15,467.15,0,0,0,46.3,11.3" transform="translate(-77 -402)"/><line class="cls-5" x1="1387.9" y1="255.1" x2="1388.5" y2="253.82"/><line class="cls-5" x1="1388.5" y1="253.82" x2="1382.6" y2="250.83"/><line class="cls-5" x1="1382.6" y1="250.83" x2="1393.15" y2="230.1"/><line class="cls-5" x1="1393.15" y1="230.1" x2="1398.67" y2="232.83"/><line class="cls-5" x1="1398.67" y1="232.83" x2="1402.03" y2="226.33"/><line class="cls-5" x1="1412.8" y1="223.3" x2="1432.5" y2="223.3"/></svg>