<svg id="Buildings" xmlns="http://www.w3.org/2000/svg" viewBox="0 0 1826.98 500.43"><defs><style>.cls-1{fill:#fff;stroke:#fff;}.cls-1,.cls-2,.cls-3,.cls-5,.cls-6{stroke-linecap:round;}.cls-1,.cls-3,.cls-4,.cls-6{stroke-linejoin:round;}.cls-1,.cls-2,.cls-3,.cls-4{stroke-width:0.5px;}.cls-2,.cls-4,.cls-5,.cls-6{fill:none;}.cls-2{stroke:#666;}.cls-2,.cls-5{stroke-miterlimit:10;}.cls-3{fill:#999;stroke:#999;}.cls-4{stroke:#3fa9f5;}.cls-5,.cls-6{stroke:#000;}</style></defs><title>Docklands F4</title><path class="cls-1" d="M298.55,696.5H91q-6.7-22-13.42-44h208Q292,674.5,298.55,696.5Z" transform="translate(-77 -402)"/><line class="cls-2" x1="97.25" y1="259.2" x2="97.25" y2="250.5"/><line class="cls-2" x1="88.82" y1="259.2" x2="88.82" y2="250.5"/><rect class="cls-3" x="643.87" y="305.8" width="105.2" height="28.67"/><path class="cls-3" d="M222.77,696.5h-38V679.73h35.13v6.69h2.84Z" transform="translate(-77 -402)"/><rect class="cls-3" x="184.77" y="267.47" width="7.02" height="5.3"/><line class="cls-4" x1="173.1" y1="272.77" x2="173.1" y2="277.73"/><line class="cls-2" x1="107.8" y1="272.77" x2="215.08" y2="272.77"/><line class="cls-2" x1="55.15" y1="278" x2="8.89" y2="278"/><line class="cls-2" x1="156.2" y1="272.77" x2="156.2" y2="250.5"/><line class="cls-2" x1="156.2" y1="267.47" x2="164.5" y2="267.47"/><line class="cls-2" x1="156.2" y1="256.93" x2="164.5" y2="256.93"/><line class="cls-2" x1="107.8" y1="272.77" x2="107.8" y2="250.5"/><line class="cls-2" x1="107.8" y1="277.73" x2="107.8" y2="294.5"/><line class="cls-2" x1="107.8" y1="277.73" x2="142.93" y2="277.73"/><line class="cls-2" x1="142.93" y1="284.42" x2="142.93" y2="277.73"/><line class="cls-2" x1="145.77" y1="277.73" x2="200.19" y2="277.73"/><line class="cls-2" x1="150.3" y1="284.42" x2="150.3" y2="277.73"/><line class="cls-2" x1="126.97" y1="272.77" x2="126.97" y2="250.5"/><line class="cls-2" x1="120.03" y1="272.77" x2="120.03" y2="264.5"/><line class="cls-2" x1="120.03" y1="264.5" x2="126.97" y2="264.5"/><line class="cls-2" x1="55.15" y1="294.5" x2="55.15" y2="278"/><line class="cls-2" x1="20.72" y1="272.65" x2="55.15" y2="272.65"/><line class="cls-2" x1="55.15" y1="272.65" x2="55.15" y2="250.5"/><line class="cls-2" x1="55.15" y1="259.2" x2="107.8" y2="259.2"/><line class="cls-2" x1="63.55" y1="259.2" x2="63.55" y2="250.5"/><line class="cls-2" x1="71.98" y1="259.2" x2="71.98" y2="250.5"/><line class="cls-2" x1="80.4" y1="250.5" x2="80.4" y2="294.5"/><line class="cls-2" x1="34.03" y1="272.65" x2="34.03" y2="250.5"/><line class="cls-2" x1="46.7" y1="272.65" x2="46.7" y2="250.5"/><line class="cls-2" x1="46.7" y1="263.88" x2="55.15" y2="263.88"/><line class="cls-2" x1="29.9" y1="278" x2="29.9" y2="294.5"/><line class="cls-2" x1="38.3" y1="278" x2="38.3" y2="294.5"/><line class="cls-2" x1="60.55" y1="264.52" x2="60.55" y2="280.2"/><line class="cls-2" x1="60.55" y1="280.2" x2="101.73" y2="280.2"/><line class="cls-2" x1="60.55" y1="264.52" x2="101.73" y2="264.52"/><line class="cls-2" x1="101.73" y1="264.52" x2="101.73" y2="280.2"/><line class="cls-2" x1="90.97" y1="264.52" x2="90.97" y2="280.2"/><line class="cls-2" x1="80.4" y1="272.36" x2="101.73" y2="272.36"/><path class="cls-3" d="M1694.75,808.56l61.52-.11q-.48-22.65-.94-45.32l1.8-2.2,36.27,1a6.4,6.4,0,0,1,3.25,4.9,6.08,6.08,0,0,1-4.05,5.93v34.88l55.77-12.21-10.54-44.36,1.57-3.51,34.9-7.4a5.72,5.72,0,0,1,1.1,10.53l28.08,110-5.58,17.9-23.9.5q-8.54-25.25-17.08-50.48l-64.32,15.19V888.4l-10.47,13.53-24.8-8.8q-.72-24.27-1.43-48.54l-57.45,1.48q2.37,20.16,4.75,40.33l-6.4,12.87-27.21-1.08q-8.19-61.26-16.39-122.52c1-1.63,2.09-3.25,3.13-4.87l36.2-1.8a6.09,6.09,0,0,1,2.21,4.75,5.88,5.88,0,0,1-3.24,5Z" transform="translate(-77 -402)"/><path class="cls-3" d="M1511.33,807.47l50.57,4,.95-31.45,43.7,4.57a5.86,5.86,0,0,1,1.75,4,6.07,6.07,0,0,1-2.6,4.8q-4.54,46-9.1,91.95l-11.07,14.8-24.73-7.4,1.8-45.6-61.8-6.73q-2.46,14-4.93,28l-13.2,12.4-20.8-12.4,8.73-45.17-9.22-3.84q4.24-9.23,8.48-18.46H1476q1.66-12.93,3.32-25.87l36.11,7.79a7.56,7.56,0,0,1-.6,9.33Z" transform="translate(-77 -402)"/><path class="cls-3" d="M1453.77,836l-41.69-19.15c1.27-2.73,2.55-5.45,3.82-8.18l-7.26-3.45q7.6-16.53,15.2-33.08l48.94,22.48Q1463.27,815.34,1453.77,836Z" transform="translate(-77 -402)"/><circle class="cls-3" cx="1114" cy="321" r="21.5"/><circle class="cls-3" cx="1077" cy="348" r="21.5"/><circle class="cls-3" cx="912.61" cy="348.52" r="21.5"/><circle class="cls-3" cx="876.39" cy="320.48" r="21.5"/><circle class="cls-3" cx="815" cy="320" r="21.5"/><circle class="cls-3" cx="778" cy="347" r="21.5"/><circle class="cls-3" cx="614.61" cy="347.52" r="21.5"/><circle class="cls-3" cx="578.39" cy="319.48" r="21.5"/><circle class="cls-3" cx="340" cy="335" r="21.5"/><circle class="cls-3" cx="303" cy="362" r="21.5"/><path class="cls-3" d="M1489.8,628.33H1479l-3.36,6.49-5.52-2.73-10.55,20.73,5.9,3-.6,1.28a468.44,468.44,0,0,1-47.12-11.54c-15.45-4.65-29.56-9.77-42.25-15v-107h13.4v-10h-1.73V505.4h1.73V474h22.42v5.45h83.3V474h53.1v10.05h8.45V474h32.73v30.5h-4.58v7.05h4.58V542.7h-4.58V549h4.58v31.4h-6.53l-24.27,47.73-1.13-.56h-47.5V625.3h-19.7Z" transform="translate(-77 -402)"/><path class="cls-3" d="M1364.2,553.1H1259.7V505.93h-9.37V478.47h9.37v-39h104.5Z" transform="translate(-77 -402)"/><path class="cls-3" d="M899.67,607.73H886.2v19h13l19.47,19.47v8.53h-41.3v8.17h-16.1v-8.17H757.53l-.18,8.17h-16.1v-8.17H637.15v8.17h-16.1v-8.17H579.6V646.3l19.07-19.57H611.5v-19h-12v-80h-102V474.5l21.23,9v-6.06a175,175,0,0,0,121.07-.84v6.27l.28-.1a182.39,182.39,0,0,0,19.42-8.23v112.1h59.23V566.2h6.74V548.53h-6.74V479.67h45.94q-2.45,13.33-4.87,26.66h15.6q-4.6,25.71-9.2,51.4h-8.87v8.47h22.4v20.47H839.3V485.2h22.35v-8.15h16.22v8.15h21.8Z" transform="translate(-77 -402)"/><path class="cls-3" d="M478.78,654.33l14,14-6,6v9.13H456.5v9h-17v-9h-31v-9l-6.16-6.17,13.9-13.95V519.9a34.19,34.19,0,0,1,6.89-21.14c2-2.59,10.57-12.87,24.32-12.66,13,.2,20.92,9.59,23,12a36.28,36.28,0,0,1,8.33,21.75Z" transform="translate(-77 -402)"/><path class="cls-3" d="M129.5,765.5l-16,5-22.58-74H284.5v8l39,49h-23l-21,25-20-13-130,4Z" transform="translate(-77 -402)"/><rect class="cls-3" x="16.17" y="250.52" width="4.55" height="13.2"/><path class="cls-3" d="M115.9,625.52H97.5v-103h52v59h56v-59h51v59h43l-7-22h12l4,13h3v-50h52v68l-13,13h-37l-29,22h-6.57v27H261.8q3.49-13.5,7-27Z" transform="translate(-77 -402)"/><rect class="cls-3" x="23.55" y="0.5" width="281.9" height="102"/><line class="cls-2" x1="107.8" y1="294.5" x2="13.92" y2="294.5"/><line class="cls-2" x1="184.8" y1="250.5" x2="200.93" y2="250.5"/><line class="cls-2" x1="198.77" y1="250.5" x2="198.77" y2="272.77"/><line class="cls-2" x1="20.72" y1="272.65" x2="20.72" y2="250.5"/><line class="cls-2" x1="16.07" y1="250.5" x2="16.07" y2="278"/><line class="cls-2" x1="20.72" y1="270.3" x2="16.07" y2="270.3"/><line class="cls-2" x1="16.07" y1="272.65" x2="7.22" y2="272.65"/><line class="cls-2" x1="164.5" y1="272.77" x2="164.5" y2="250.5"/><line class="cls-2" x1="179.2" y1="258.98" x2="179.2" y2="272.77"/><line class="cls-2" x1="164.5" y1="262" x2="179.2" y2="262"/><line class="cls-2" x1="179.2" y1="258.98" x2="184.78" y2="258.98"/><line class="cls-2" x1="184.78" y1="272.77" x2="184.78" y2="250.5"/><line class="cls-2" x1="180.3" y1="258.98" x2="180.3" y2="250.5"/><line class="cls-2" x1="191.8" y1="272.77" x2="191.8" y2="250.5"/><line class="cls-2" x1="191.8" y1="259.6" x2="184.8" y2="259.6"/><line class="cls-2" x1="184.78" y1="267.47" x2="191.8" y2="267.47"/><path class="cls-3" d="M965.8,447" transform="translate(-77 -402)"/><line class="cls-5" x1="522.5" y1="175.23" x2="522.5" y2="125.77"/><line class="cls-5" x1="582.5" y1="184.67" x2="582.5" y2="72.57"/><line class="cls-5" x1="800.37" y1="252.73" x2="841.67" y2="252.73"/><line class="cls-5" x1="680.53" y1="252.73" x2="784.27" y2="252.73"/><line class="cls-5" x1="560.15" y1="252.73" x2="664.25" y2="252.73"/><line class="cls-5" x1="560.15" y1="260.9" x2="560.15" y2="252.73"/><line class="cls-5" x1="544.05" y1="260.9" x2="560.15" y2="260.9"/><line class="cls-5" x1="544.05" y1="252.73" x2="544.05" y2="260.9"/><line class="cls-5" x1="502.6" y1="252.73" x2="544.05" y2="252.73"/><line class="cls-5" x1="534.5" y1="224.73" x2="521.67" y2="224.73"/><line class="cls-5" x1="534.5" y1="224.73" x2="534.5" y2="205.73"/><line class="cls-5" x1="522.5" y1="205.73" x2="534.5" y2="205.73"/><line class="cls-5" x1="522.5" y1="174.73" x2="522.5" y2="205.73"/><line class="cls-5" x1="420.5" y1="72.5" x2="420.5" y2="125.77"/><line class="cls-5" x1="362.5" y1="281.5" x2="331.5" y2="281.5"/><line class="cls-5" x1="362.5" y1="289.5" x2="362.5" y2="281.5"/><line class="cls-5" x1="362.5" y1="290.5" x2="362.5" y2="289.5"/><line class="cls-5" x1="379.5" y1="281.5" x2="379.5" y2="290.5"/><line class="cls-5" x1="362.5" y1="290.5" x2="379.5" y2="290.5"/><line class="cls-5" x1="305.5" y1="102.5" x2="305.5" y2="0.5"/><line class="cls-5" x1="23.5" y1="0.5" x2="305.5" y2="0.5"/><line class="cls-5" x1="23.5" y1="102.5" x2="23.5" y2="0.5"/><line class="cls-5" x1="204.5" y1="102.5" x2="23.5" y2="102.5"/><line class="cls-5" x1="305.5" y1="102.5" x2="204.5" y2="102.5"/><line class="cls-5" x1="286.5" y1="120.5" x2="234.5" y2="120.5"/><line class="cls-5" x1="234.5" y1="170.5" x2="234.5" y2="120.5"/><line class="cls-5" x1="231.5" y1="170.5" x2="234.5" y2="170.5"/><line class="cls-5" x1="227.5" y1="157.5" x2="231.5" y2="170.5"/><line class="cls-5" x1="215.5" y1="157.5" x2="227.5" y2="157.5"/><line class="cls-5" x1="222.5" y1="179.5" x2="215.5" y2="157.5"/><line class="cls-5" x1="216.5" y1="179.5" x2="222.5" y2="179.5"/><line class="cls-5" x1="179.5" y1="179.5" x2="216.5" y2="179.5"/><line class="cls-5" x1="179.5" y1="120.5" x2="179.5" y2="179.5"/><line class="cls-5" x1="128.5" y1="120.5" x2="179.5" y2="120.5"/><line class="cls-5" x1="128.5" y1="179.5" x2="128.5" y2="121"/><line class="cls-5" x1="72.5" y1="179.5" x2="128.5" y2="179.5"/><line class="cls-5" x1="72.5" y1="120.5" x2="72.5" y2="179.5"/><line class="cls-5" x1="20.5" y1="120.5" x2="72.5" y2="120.5"/><line class="cls-5" x1="20.5" y1="223.5" x2="20.5" y2="120.5"/><line class="cls-5" x1="191.8" y1="223.5" x2="20.5" y2="223.5"/><line class="cls-5" x1="273.5" y1="201.5" x2="236.5" y2="201.5"/><line class="cls-5" x1="286.5" y1="188.5" x2="273.5" y2="201.5"/><line class="cls-5" x1="286.5" y1="120.5" x2="286.5" y2="188.5"/><line class="cls-5" x1="207.5" y1="223.5" x2="228.5" y2="207.5"/><line class="cls-5" x1="228.5" y1="207.5" x2="236.5" y2="201.5"/><line class="cls-5" x1="0.5" y1="250.5" x2="184.8" y2="250.5"/><line class="cls-5" x1="221.5" y1="294.5" x2="208.5" y2="250.5"/><line class="cls-5" x1="207.5" y1="294.5" x2="216.5" y2="294.5"/><line class="cls-5" x1="216.5" y1="294.5" x2="221.5" y2="294.5"/><line class="cls-5" x1="246.5" y1="351.5" x2="207.5" y2="302.5"/><line class="cls-5" x1="223.5" y1="351.5" x2="246.5" y2="351.5"/><line class="cls-5" x1="202.5" y1="376.5" x2="223.5" y2="351.5"/><line class="cls-5" x1="182.5" y1="363.5" x2="202.5" y2="376.5"/><line class="cls-5" x1="52.5" y1="367.5" x2="182.5" y2="363.5"/><line class="cls-5" x1="52.5" y1="363.5" x2="52.5" y2="367"/><line class="cls-5" x1="36.5" y1="368.5" x2="52.5" y2="363.5"/><line class="cls-5" x1="0.5" y1="250.5" x2="36.5" y2="368.5"/><circle class="cls-5" cx="340" cy="335" r="21.5"/><circle class="cls-5" cx="303" cy="362" r="21.5"/><circle class="cls-5" cx="815" cy="320" r="21.5"/><circle class="cls-5" cx="778" cy="347" r="21.5"/><circle class="cls-5" cx="1114" cy="321" r="21.5"/><circle class="cls-5" cx="1077" cy="348" r="21.5"/><circle class="cls-5" cx="912.61" cy="348.52" r="21.5"/><circle class="cls-5" cx="876.39" cy="320.48" r="21.5"/><circle class="cls-5" cx="614.61" cy="347.52" r="21.5"/><circle class="cls-5" cx="578.39" cy="319.48" r="21.5"/><line class="cls-5" x1="1576.2" y1="373.67" x2="1592.59" y2="496.19"/><line class="cls-5" x1="1579.33" y1="368.8" x2="1576.2" y2="373.67"/><line class="cls-5" x1="1615.53" y1="367" x2="1579.33" y2="368.8"/><path class="cls-5" d="M1691.5,778.75a6,6,0,0,0,3.25-5.25,6.08,6.08,0,0,0-2.22-4.5" transform="translate(-77 -402)"/><line class="cls-5" x1="1617.75" y1="406.56" x2="1614.5" y2="376.75"/><line class="cls-5" x1="1679.27" y1="406.45" x2="1617.75" y2="406.56"/><line class="cls-5" x1="1678.33" y1="361.13" x2="1679.27" y2="406.45"/><line class="cls-5" x1="1680.13" y1="358.93" x2="1678.33" y2="361.13"/><line class="cls-5" x1="1716.4" y1="359.97" x2="1680.13" y2="358.93"/><path class="cls-5" d="M1792.6,772.8c3-1.5,4.58-4.59,3.9-7.2a6.08,6.08,0,0,0-3.1-3.63" transform="translate(-77 -402)"/><line class="cls-5" x1="1715.6" y1="405.68" x2="1715.6" y2="370.8"/><line class="cls-5" x1="1771.37" y1="393.47" x2="1715.6" y2="405.68"/><line class="cls-5" x1="1760.83" y1="349.11" x2="1771.37" y2="393.47"/><line class="cls-5" x1="1762.4" y1="345.6" x2="1760.83" y2="349.11"/><line class="cls-5" x1="1797.3" y1="338.2" x2="1762.4" y2="345.6"/><path class="cls-5" d="M1875.4,750.73a5.72,5.72,0,0,0-1.1-10.53" transform="translate(-77 -402)"/><line class="cls-5" x1="1826.48" y1="458.7" x2="1798.4" y2="348.73"/><line class="cls-5" x1="1820.9" y1="476.6" x2="1826.48" y2="458.7"/><line class="cls-5" x1="1797" y1="477.1" x2="1820.9" y2="476.6"/><line class="cls-5" x1="1779.92" y1="426.62" x2="1797" y2="477.1"/><line class="cls-5" x1="1715.6" y1="441.81" x2="1779.92" y2="426.62"/><line class="cls-5" x1="1715.6" y1="486.4" x2="1715.6" y2="441.81"/><line class="cls-5" x1="1705.13" y1="499.93" x2="1715.6" y2="486.4"/><line class="cls-5" x1="1680.33" y1="491.13" x2="1705.13" y2="499.93"/><line class="cls-5" x1="1678.9" y1="442.59" x2="1680.33" y2="491.13"/><line class="cls-5" x1="1621.45" y1="444.07" x2="1678.9" y2="442.59"/><line class="cls-5" x1="1626.2" y1="484.4" x2="1621.45" y2="444.07"/><line class="cls-5" x1="1619.8" y1="497.27" x2="1626.2" y2="484.4"/><line class="cls-5" x1="1592.59" y1="496.19" x2="1619.8" y2="497.27"/><line class="cls-5" x1="191.8" y1="223.5" x2="184.87" y2="250.5"/><line class="cls-5" x1="200.93" y1="223.5" x2="200.93" y2="250.5"/><line class="cls-5" x1="331.5" y1="272.45" x2="331.5" y2="281.5"/><line class="cls-5" x1="379.5" y1="281.5" x2="409.72" y2="281.5"/><line class="cls-5" x1="409.72" y1="281.5" x2="409.72" y2="272.37"/><line class="cls-5" x1="409.72" y1="272.37" x2="415.77" y2="266.32"/><line class="cls-5" x1="415.77" y1="266.32" x2="401.78" y2="252.33"/><line class="cls-5" x1="401.78" y1="118.5" x2="401.78" y2="252.33"/><path class="cls-5" d="M522.45,520.5" transform="translate(-77 -402)"/><path class="cls-5" d="M497.5,520.5" transform="translate(-77 -402)"/><path class="cls-5" d="M559.5,520.5" transform="translate(-77 -402)"/><path class="cls-5" d="M522.45,520.5" transform="translate(-77 -402)"/><line class="cls-5" x1="441.73" y1="81.53" x2="441.73" y2="75.47"/><path class="cls-5" d="M599.5,486.79a183.5,183.5,0,0,1-80.77-9.32" transform="translate(-77 -402)"/><path class="cls-5" d="M497.5,474.5c3.45,1.72,7.15,3.44,11.1,5.1q5.25,2.2,10.13,3.93" transform="translate(-77 -402)"/><path class="cls-5" d="M639.8,476.63a183.61,183.61,0,0,1-40.3,10.16" transform="translate(-77 -402)"/><line class="cls-5" x1="562.8" y1="80.9" x2="562.8" y2="74.63"/><path class="cls-5" d="M659.5,474.57c-3.08,1.52-6.38,3.05-9.9,4.53s-6.66,2.69-9.8,3.8" transform="translate(-77 -402)"/><line class="cls-5" x1="841.67" y1="244.2" x2="841.67" y2="252.73"/><line class="cls-5" x1="1432.5" y1="225.57" x2="1432.5" y2="223.3"/><line class="cls-5" x1="1480" y1="225.57" x2="1432.5" y2="225.57"/><line class="cls-5" x1="1480" y1="225.57" x2="1481.13" y2="226.13"/><line class="cls-5" x1="1481.13" y1="226.13" x2="1505.4" y2="178.4"/><line class="cls-5" x1="1505.4" y1="178.4" x2="1511.93" y2="178.4"/><line class="cls-5" x1="1511.93" y1="178.4" x2="1511.93" y2="147"/><line class="cls-5" x1="1507.35" y1="147" x2="1511.93" y2="147"/><line class="cls-5" x1="1507.35" y1="140.7" x2="1507.35" y2="147"/><line class="cls-5" x1="1511.93" y1="140.7" x2="1507.35" y2="140.7"/><line class="cls-5" x1="1511.93" y1="109.55" x2="1511.93" y2="140.7"/><line class="cls-5" x1="1507.35" y1="109.55" x2="1511.93" y2="109.55"/><line class="cls-5" x1="1507.35" y1="102.5" x2="1507.35" y2="109.55"/><line class="cls-5" x1="1511.93" y1="102.5" x2="1507.35" y2="102.5"/><line class="cls-5" x1="1511.93" y1="72" x2="1511.93" y2="102.5"/><line class="cls-5" x1="1479.2" y1="72" x2="1511.93" y2="72"/><line class="cls-5" x1="1479.2" y1="82.05" x2="1479.2" y2="72"/><line class="cls-5" x1="1470.75" y1="82.05" x2="1479.2" y2="82.05"/><line class="cls-5" x1="1470.75" y1="72" x2="1470.75" y2="82.05"/><line class="cls-5" x1="1417.65" y1="72" x2="1470.75" y2="72"/><line class="cls-5" x1="1417.65" y1="77.45" x2="1417.65" y2="72"/><line class="cls-5" x1="1377.4" y1="77.45" x2="1417.65" y2="77.45"/><line class="cls-5" x1="1334.35" y1="77.45" x2="1377.4" y2="77.45"/><line class="cls-5" x1="1334.35" y1="72" x2="1334.35" y2="77.45"/><line class="cls-5" x1="1311.93" y1="72" x2="1334.35" y2="72"/><line class="cls-5" x1="1311.93" y1="72" x2="1311.93" y2="103.4"/><line class="cls-5" x1="1310.2" y1="103.4" x2="1311.93" y2="103.4"/><line class="cls-5" x1="1310.2" y1="111.63" x2="1310.2" y2="103.4"/><line class="cls-5" x1="1311.93" y1="111.63" x2="1310.2" y2="111.63"/><line class="cls-5" x1="1311.93" y1="121.6" x2="1311.93" y2="111.63"/><line class="cls-5" x1="1298.53" y1="121.6" x2="1311.93" y2="121.6"/><line class="cls-5" x1="1298.53" y1="228.6" x2="1298.53" y2="121.6"/><line class="cls-5" x1="680.35" y1="260.9" x2="680.35" y2="252.73"/><line class="cls-5" x1="664.25" y1="260.9" x2="680.35" y2="260.9"/><line class="cls-5" x1="664.25" y1="252.73" x2="664.25" y2="260.9"/><line class="cls-5" x1="800.37" y1="260.9" x2="800.37" y2="252.73"/><line class="cls-5" x1="784.27" y1="260.9" x2="800.37" y2="260.9"/><line class="cls-5" x1="784.27" y1="252.73" x2="784.27" y2="260.9"/><line class="cls-5" x1="841.67" y1="244.2" x2="822.2" y2="224.73"/><line class="cls-5" x1="822.2" y1="224.73" x2="809.2" y2="224.73"/><line class="cls-5" x1="809.2" y1="205.73" x2="809.2" y2="224.73"/><line class="cls-5" x1="822.67" y1="205.73" x2="809.2" y2="205.73"/><line class="cls-5" x1="822.67" y1="205.47" x2="822.67" y2="83.2"/><line class="cls-5" x1="800.87" y1="83.2" x2="822.67" y2="83.2"/><line class="cls-5" x1="800.87" y1="75.05" x2="800.87" y2="83.2"/><line class="cls-5" x1="784.65" y1="83.2" x2="784.65" y2="75.05"/><line class="cls-5" x1="784.65" y1="75.05" x2="800.87" y2="75.05"/><line class="cls-5" x1="762.3" y1="83.2" x2="784.65" y2="83.2"/><line class="cls-5" x1="762.3" y1="83.2" x2="762.3" y2="184.67"/><line class="cls-5" x1="702.73" y1="184.67" x2="762.3" y2="184.67"/><line class="cls-5" x1="702.73" y1="164.2" x2="702.73" y2="184.67"/><line class="cls-5" x1="680.33" y1="164.2" x2="702.73" y2="164.2"/><line class="cls-5" x1="680.33" y1="155.73" x2="680.33" y2="164.2"/><line class="cls-5" x1="689.2" y1="155.73" x2="680.33" y2="155.73"/><line class="cls-5" x1="689.2" y1="155.73" x2="698.4" y2="104.33"/><line class="cls-5" x1="698.4" y1="104.33" x2="682.8" y2="104.33"/><line class="cls-5" x1="682.8" y1="104.33" x2="687.67" y2="77.67"/><line class="cls-5" x1="687.67" y1="77.67" x2="641.73" y2="77.67"/><line class="cls-5" x1="641.73" y1="77.67" x2="641.73" y2="146.53"/><line class="cls-5" x1="648.47" y1="146.53" x2="641.73" y2="146.53"/><line class="cls-5" x1="648.47" y1="164.2" x2="648.47" y2="146.53"/><line class="cls-5" x1="641.73" y1="164.2" x2="648.47" y2="164.2"/><line class="cls-5" x1="641.73" y1="184.67" x2="641.73" y2="164.2"/><line class="cls-5" x1="641.73" y1="184.67" x2="582.5" y2="184.67"/><line class="cls-5" x1="331.5" y1="272.45" x2="325.34" y2="266.28"/><line class="cls-5" x1="325.34" y1="266.28" x2="339.24" y2="252.33"/><line class="cls-5" x1="339.24" y1="252.33" x2="339.24" y2="118.5"/><path class="cls-5" d="M444.2,489" transform="translate(-77 -402)"/><path class="cls-5" d="M444.2,486.24" transform="translate(-77 -402)"/><path class="cls-5" d="M451,489" transform="translate(-77 -402)"/><path class="cls-5" d="M451,486.23" transform="translate(-77 -402)"/><path class="cls-5" d="M451,486.24" transform="translate(-77 -402)"/><path class="cls-5" d="M444.2,486.24" transform="translate(-77 -402)"/><line class="cls-5" x1="1331.64" y1="403.25" x2="1346.84" y2="370.17"/><line class="cls-5" x1="1335.08" y1="414.88" x2="1338.9" y2="406.7"/><line class="cls-5" x1="1331.64" y1="403.25" x2="1338.9" y2="406.7"/><line class="cls-5" x1="1335.08" y1="414.88" x2="1376.77" y2="434.03"/><line class="cls-5" x1="1395.78" y1="392.65" x2="1376.77" y2="434.03"/><line class="cls-5" x1="1346.84" y1="370.17" x2="1395.78" y2="392.65"/><line class="cls-5" x1="1384.38" y1="417.46" x2="1393.6" y2="421.3"/><line class="cls-5" x1="1392.86" y1="399" x2="1398.95" y2="399"/><line class="cls-5" x1="1402.27" y1="373.13" x2="1398.95" y2="399"/><line class="cls-5" x1="1438.38" y1="380.92" x2="1402.27" y2="373.13"/><path class="cls-5" d="M1514.78,792.25a7.56,7.56,0,0,0,.6-9.33" transform="translate(-77 -402)"/><line class="cls-5" x1="1434.33" y1="405.47" x2="1437.73" y2="390.2"/><line class="cls-5" x1="1434.33" y1="405.47" x2="1484.9" y2="409.5"/><line class="cls-5" x1="1485.85" y1="378.05" x2="1484.9" y2="409.5"/><line class="cls-5" x1="1529.55" y1="382.62" x2="1485.85" y2="378.05"/><path class="cls-5" d="M1606.55,784.62a5.86,5.86,0,0,1,1.75,4,6.07,6.07,0,0,1-2.6,4.8" transform="translate(-77 -402)"/><line class="cls-5" x1="1519.6" y1="483.4" x2="1528.7" y2="391.45"/><line class="cls-5" x1="1508.53" y1="498.2" x2="1519.6" y2="483.4"/><line class="cls-5" x1="1483.8" y1="490.8" x2="1508.53" y2="498.2"/><line class="cls-5" x1="1485.6" y1="445.2" x2="1483.8" y2="490.8"/><line class="cls-5" x1="1423.8" y1="438.47" x2="1485.6" y2="445.2"/><line class="cls-5" x1="1418.87" y1="466.47" x2="1423.8" y2="438.47"/><line class="cls-5" x1="1405.67" y1="478.87" x2="1418.87" y2="466.47"/><line class="cls-5" x1="1384.87" y1="466.47" x2="1405.67" y2="478.87"/><line class="cls-5" x1="1393.6" y1="421.3" x2="1384.87" y2="466.47"/><line class="cls-5" x1="522.5" y1="125.77" x2="420.5" y2="125.77"/><line class="cls-5" x1="1287.2" y1="151.1" x2="1287.2" y2="112.67"/><line class="cls-5" x1="1182.7" y1="151.1" x2="1287.2" y2="151.1"/><line class="cls-5" x1="1182.7" y1="103.93" x2="1182.7" y2="151.1"/><line class="cls-5" x1="1173.33" y1="103.93" x2="1182.7" y2="103.93"/><line class="cls-5" x1="1173.33" y1="76.47" x2="1173.33" y2="103.93"/><line class="cls-5" x1="1182.7" y1="76.47" x2="1173.33" y2="76.47"/><line class="cls-5" x1="1182.7" y1="37.47" x2="1182.7" y2="76.47"/><line class="cls-5" x1="1287.2" y1="37.47" x2="1182.7" y2="37.47"/><line class="cls-5" x1="1287.2" y1="112.67" x2="1287.2" y2="37.47"/><path class="cls-5" d="M416.24,520.5a34.06,34.06,0,0,1,6.89-21.74c1.88-2.42,10.32-12.61,24.32-12.66,13.67-.05,22.26,10,23.56,11.53.72.83,1.25,1.55,1.54,1.94a34.42,34.42,0,0,1,6.23,20.93" transform="translate(-77 -402)"/><line class="cls-5" x1="0.5" y1="250.5" x2="36.5" y2="368.5"/><line class="cls-5" x1="200.93" y1="250.5" x2="208.5" y2="250.5"/><line class="cls-5" x1="200.93" y1="223.5" x2="207.5" y2="223.5"/><line class="cls-5" x1="502.6" y1="252.73" x2="502.6" y2="244.3"/><line class="cls-5" x1="502.6" y1="244.3" x2="521.67" y2="224.73"/><line class="cls-4" x1="192.1" y1="272.77" x2="195.85" y2="272.77"/><line class="cls-4" x1="198.77" y1="268.21" x2="198.77" y2="271.85"/><line class="cls-4" x1="181.69" y1="272.77" x2="184.19" y2="272.77"/><line class="cls-4" x1="191.8" y1="254.15" x2="191.8" y2="257.3"/><line class="cls-4" x1="191.8" y1="261.92" x2="191.8" y2="265"/><line class="cls-4" x1="184.18" y1="258.98" x2="181.7" y2="258.98"/><line class="cls-4" x1="179.2" y1="259.55" x2="179.2" y2="261.63"/><line class="cls-4" x1="179.2" y1="262.32" x2="179.2" y2="264.67"/><line class="cls-4" x1="16.07" y1="277.31" x2="16.07" y2="273.74"/><line class="cls-4" x1="8.72" y1="272.65" x2="12.33" y2="272.65"/><line class="cls-2" x1="20.72" y1="263.73" x2="16.07" y2="263.73"/><line class="cls-4" x1="16.75" y1="270.3" x2="19.29" y2="270.3"/><line class="cls-2" x1="142.93" y1="284.42" x2="150.3" y2="284.42"/><line class="cls-2" x1="200.19" y1="272.77" x2="200.19" y2="277.73"/><line class="cls-2" x1="185.83" y1="277.73" x2="185.83" y2="294.5"/><line class="cls-2" x1="107.8" y1="285.55" x2="55.15" y2="285.55"/><line class="cls-2" x1="21.47" y1="278" x2="21.47" y2="294.5"/><line class="cls-2" x1="63.57" y1="285.55" x2="63.57" y2="294.5"/><line class="cls-2" x1="72" y1="285.55" x2="72" y2="294.5"/><line class="cls-2" x1="88.83" y1="285.55" x2="88.83" y2="294.5"/><line class="cls-2" x1="97.23" y1="285.55" x2="97.23" y2="294.5"/><line class="cls-4" x1="186.2" y1="277.73" x2="188.73" y2="277.73"/><line class="cls-4" x1="158.58" y1="277.73" x2="161.13" y2="277.73"/><line class="cls-4" x1="156.78" y1="272.77" x2="159.38" y2="272.77"/><line class="cls-4" x1="146.43" y1="277.73" x2="148.8" y2="277.73"/><line class="cls-4" x1="155.62" y1="272.77" x2="153.12" y2="272.77"/><line class="cls-4" x1="156.2" y1="257.5" x2="156.2" y2="260.05"/><line class="cls-4" x1="156.2" y1="256.33" x2="156.2" y2="253.71"/><line class="cls-4" x1="126.97" y1="271.91" x2="126.97" y2="269.32"/><line class="cls-4" x1="107.8" y1="265.9" x2="107.8" y2="268.43"/><line class="cls-4" x1="104.62" y1="259.2" x2="107.15" y2="259.2"/><line class="cls-4" x1="104.07" y1="285.55" x2="106.6" y2="285.55"/><line class="cls-4" x1="89.4" y1="285.55" x2="91.96" y2="285.55"/><line class="cls-4" x1="85.73" y1="285.55" x2="88.29" y2="285.55"/><line class="cls-4" x1="72.56" y1="285.55" x2="75.13" y2="285.55"/><line class="cls-4" x1="68.85" y1="285.55" x2="71.41" y2="285.55"/><line class="cls-4" x1="80.4" y1="280.69" x2="80.4" y2="285.06"/><line class="cls-4" x1="55.75" y1="285.55" x2="58.31" y2="285.55"/><line class="cls-4" x1="68.26" y1="280.2" x2="70.83" y2="280.2"/><line class="cls-4" x1="87.85" y1="280.2" x2="90.41" y2="280.2"/><line class="cls-4" x1="91.51" y1="280.2" x2="94.08" y2="280.2"/><line class="cls-4" x1="87.85" y1="264.52" x2="90.41" y2="264.52"/><line class="cls-4" x1="91.51" y1="264.52" x2="94.08" y2="264.52"/><line class="cls-4" x1="89.4" y1="259.2" x2="91.96" y2="259.2"/><line class="cls-4" x1="85.73" y1="259.2" x2="88.29" y2="259.2"/><line class="cls-4" x1="68.26" y1="264.52" x2="70.83" y2="264.52"/><line class="cls-4" x1="72.56" y1="259.2" x2="75.13" y2="259.2"/><line class="cls-4" x1="68.85" y1="259.2" x2="71.41" y2="259.2"/><line class="cls-4" x1="55.75" y1="259.2" x2="58.31" y2="259.2"/><line class="cls-4" x1="52" y1="272.65" x2="54.56" y2="272.65"/><line class="cls-4" x1="35.15" y1="272.65" x2="37.71" y2="272.65"/><line class="cls-4" x1="22.6" y1="272.65" x2="25.16" y2="272.65"/><line class="cls-4" x1="26.65" y1="278" x2="29.21" y2="278"/><line class="cls-4" x1="35.18" y1="278" x2="37.74" y2="278"/><line class="cls-4" x1="38.88" y1="278" x2="41.45" y2="278"/><line class="cls-4" x1="55.15" y1="260.77" x2="55.15" y2="263.3"/><line class="cls-4" x1="21.47" y1="278.4" x2="21.47" y2="280.85"/><line class="cls-4" x1="29.9" y1="278.4" x2="29.9" y2="280.85"/><line class="cls-4" x1="80.4" y1="259.63" x2="80.4" y2="264.01"/><rect class="cls-6" x="643.87" y="305.8" width="105.2" height="28.67"/><line class="cls-5" x1="1402.03" y1="226.34" x2="1412.8" y2="226.34"/><line class="cls-5" x1="1412.8" y1="223.3" x2="1412.8" y2="226.33"/><path class="cls-5" d="M1375.53,630.6c12.9,5.27,27.28,10.48,43.07,15.2a467.15,467.15,0,0,0,46.3,11.3" transform="translate(-77 -402)"/><line class="cls-5" x1="1387.9" y1="255.1" x2="1388.5" y2="253.82"/><line class="cls-5" x1="1388.5" y1="253.82" x2="1382.6" y2="250.83"/><line class="cls-5" x1="1382.6" y1="250.83" x2="1393.15" y2="230.1"/><line class="cls-5" x1="1393.15" y1="230.1" x2="1398.67" y2="232.83"/><line class="cls-5" x1="1398.67" y1="232.83" x2="1402.03" y2="226.33"/><line class="cls-5" x1="1412.8" y1="223.3" x2="1432.5" y2="223.3"/><line class="cls-2" x1="145.77" y1="294.5" x2="207.5" y2="294.5"/><line class="cls-2" x1="145.77" y1="277.73" x2="145.77" y2="294.5"/><line class="cls-5" x1="207.5" y1="302.5" x2="207.5" y2="294.5"/></svg>