<svg id="Buildings" xmlns="http://www.w3.org/2000/svg" viewBox="0 0 1826.98 500.43"><defs><style>.cls-1{fill:#fff;stroke:#fff;}.cls-1,.cls-2,.cls-3,.cls-4,.cls-8{stroke-linecap:round;}.cls-1,.cls-3,.cls-4,.cls-6,.cls-7{stroke-miterlimit:10;}.cls-1,.cls-2,.cls-3,.cls-5,.cls-6,.cls-7{stroke-width:0.5px;}.cls-2{fill:#999;stroke:#999;}.cls-2,.cls-5,.cls-8{stroke-linejoin:round;}.cls-3,.cls-4,.cls-5,.cls-6,.cls-7,.cls-8{fill:none;}.cls-3{stroke:#666;}.cls-4,.cls-8{stroke:#000;}.cls-5,.cls-6,.cls-7{stroke:#3fa9f5;}.cls-6{stroke-linecap:square;}</style></defs><title>Docklands F2</title><path class="cls-1" d="M1527.22,535.25l-32.22,63h-5.2v30H1375.53V523.6l13.4.1V513.63h-1.73V505.4h1.73V474h22.42v5.45h83.3V474h53.1v10.05h8.45V474h32.73v30.5h-4.58v7.05h4.58V542.7h-4.58V549h4.58v31.4h-6.53l-24.27,47.73-1.13-.61-47.5.05v-31.1l28.61-55.83Z" transform="translate(-77 -402)"/><rect class="cls-2" x="1334.35" y="77.45" width="42.6" height="37.45"/><path class="cls-1" d="M268.8,625.5H97.5v-103h52v59h56v-59h51v59h43l-7-22h12l4,13h3v-50h52v68l-13,13-37.22.16L284.5,625.5Z" transform="translate(-77 -402)"/><rect class="cls-2" x="251.63" y="120.5" width="6.21" height="3.85"/><path class="cls-1" d="M298.5,696.5h-14v8l39,49h-23l-21,25-20-13.09-130,4.09v-4l-16,5-36-118H261.8q3.49-13.5,7-27h9.13v27h7.57Q292,674.5,298.5,696.5Z" transform="translate(-77 -402)"/><line class="cls-3" x1="63.47" y1="260.67" x2="67.8" y2="250.5"/><path class="cls-1" d="M659.5,527.77v58.9h59.23V566.2h6.74V548.53h-6.74V479.67h45.94q-2.45,13.33-4.87,26.66h15.6q-4.6,25.71-9.2,51.4h-8.87v8.47h22.4v20.47H839.3V485.2h22.35v-8.15h16.22v8.15h21.8V607.73H886.2v19h13l19.47,19.47v8.53h-41.3v8.17h-16.1v-8.17H757.35v8.17h-16.1v-8.17H637.15v8.17h-16.1v-8.17H599.5v-28h12v-19h-12v-80h-102V474.5c3.12,1.56,6.45,3.11,10,4.62,3.9,1.68,7.66,3.14,11.25,4.41v-6.06a183.35,183.35,0,0,0,35.75,8.65,177.06,177.06,0,0,0,50.69-.18,167.32,167.32,0,0,0,34.63-9.31v6.27q4.71-1.66,9.8-3.8c3.52-1.48,6.82-3,9.9-4.53v53.2Z" transform="translate(-77 -402)"/><rect class="cls-2" x="555.63" y="195.38" width="4.16" height="3"/><path class="cls-2" d="M639.1,608.35h-6.47v-4.83h2.49v.84h4Z" transform="translate(-77 -402)"/><rect class="cls-2" x="554.82" y="156.93" width="7.69" height="22.27"/><path class="cls-2" d="M618.17,518.25h-4.35c-.73-1.25-1.45-2.5-2.17-3.75v-8.7h6.52Z" transform="translate(-77 -402)"/><rect class="cls-2" x="643.87" y="305.8" width="105.2" height="28.67"/><path class="cls-1" d="M486.72,683.5H456.5v9h-17v-9h-31v-9l-6.16-6.17,13.9-13.95V520.5c-1.23-18.34,13.11-33.84,30.25-34.38,17.85-.56,33.53,15.26,32.29,34.38V654.33l14,14-6,6Z" transform="translate(-77 -402)"/><path class="cls-2" d="M1698.45,846.07q2.37,20.16,4.75,40.33l-6.4,12.87-27.21-1.08q-8.19-61.26-16.39-122.52c1-1.63,2.09-3.25,3.13-4.87l36.2-1.8a6.09,6.09,0,0,1,2.2,4.9,6.2,6.2,0,0,1-3.23,4.85l3.25,29.81,61.52-.11q-.48-22.65-.94-45.32l1.8-2.2,36.27,1a5.89,5.89,0,0,1-.8,10.83v34.88l55.77-12.21-10.54-44.36,1.57-3.51,34.9-7.4a5.72,5.72,0,0,1,1.1,10.53l28.08,110-5.58,17.9-23.9.5q-8.54-25.25-17.08-50.48l-64.32,15.19V888.4l-10.47,13.53-24.8-8.8q-.72-24.27-1.43-48.54Z" transform="translate(-77 -402)"/><path class="cls-2" d="M1511.33,807.47l50.57,4,.95-31.45,43.7,4.57a5.64,5.64,0,0,1-.85,8.83q-4.54,46-9.1,91.95l-11.07,14.8-24.73-7.4,1.8-45.6-61.8-6.73q-2.46,14-4.93,28l-13.2,12.4-20.8-12.4,8.73-45.17-9.22-3.84q4.24-9.23,8.48-18.46H1476q1.66-12.93,3.32-25.87l36.11,7.79a7.67,7.67,0,0,1,1.32,4.63,7.75,7.75,0,0,1-1.92,4.7Z" transform="translate(-77 -402)"/><path class="cls-2" d="M1453.77,836l-41.69-19.15c1.27-2.73,2.55-5.45,3.82-8.18l-7.26-3.45q7.6-16.53,15.2-33.08l48.94,22.48Q1463.27,815.34,1453.77,836Z" transform="translate(-77 -402)"/><circle class="cls-2" cx="1114" cy="321" r="21.5"/><circle class="cls-2" cx="1077" cy="348" r="21.5"/><circle class="cls-2" cx="912.61" cy="348.52" r="21.5"/><circle class="cls-2" cx="876.39" cy="320.48" r="21.5"/><circle class="cls-2" cx="815" cy="320" r="21.5"/><circle class="cls-2" cx="777.95" cy="347" r="21.5"/><circle class="cls-2" cx="614.61" cy="347.52" r="21.5"/><circle class="cls-2" cx="578.39" cy="319.48" r="21.5"/><circle class="cls-2" cx="340" cy="335" r="21.5"/><circle class="cls-2" cx="303" cy="362.1" r="21.5"/><path class="cls-2" d="M243.59,726.18,225.2,711.8v-3.3l15.2,2.39V696.5h27.86q-1.42,2.52-2.84,5l-1-1Z" transform="translate(-77 -402)"/><path class="cls-2" d="M228.25,745.32l31.29,20.09-130,4.09v-4l81.09-24.31V723.27l9.61,1.6c.37-2.17.73-4.33,1.1-6.49l2.31.39,16,12.5Z" transform="translate(-77 -402)"/><line class="cls-3" x1="151.25" y1="343.32" x2="162.61" y2="329.27"/><path class="cls-2" d="M1364.2,553.1H1259.7V505.93h-9.37V478.47h9.37v-39h104.5Z" transform="translate(-77 -402)"/><path class="cls-2" d="M1489.8,628.33H1479l-3.36,6.49-5.52-2.73-10.55,20.73,5.9,3-.6,1.28c-13.81-2.63-28.86-6.15-44.85-10.87a465.28,465.28,0,0,1-44.52-15.63v-107l130.17.1v6.13l3,1.52-4.3,8.43,8.44,4.3-6.21,12.18,7.83,4,12.8-25.06,10.89,5.39-28.61,55.83V625.3h-19.7Z" transform="translate(-77 -402)"/><rect class="cls-2" x="678.82" y="232.92" width="3.66" height="3.28"/><rect class="cls-2" x="662.47" y="232.92" width="3.52" height="3.28"/><rect class="cls-2" x="441.08" y="93.75" width="1.95" height="5.06"/><rect class="cls-2" x="142.6" y="192.7" width="8" height="3.53"/><rect class="cls-2" x="184.8" y="267" width="6.95" height="5.35"/><line class="cls-3" x1="184.8" y1="250.5" x2="200.93" y2="250.5"/><line class="cls-3" x1="191.8" y1="223.5" x2="200.93" y2="223.5"/><path class="cls-2" d="M1553,627.57h-3.15l1.17-3.1,6,3Z" transform="translate(-77 -402)"/><path class="cls-2" d="M1539.67,618.69l-2.23-1.14v-11l.27-.5,6.65,3.44Z" transform="translate(-77 -402)"/><rect class="cls-2" x="1470.75" y="103.18" width="3.45" height="6.28"/><rect class="cls-2" x="1382.6" y="105.87" width="3.52" height="6.33"/><rect class="cls-2" x="796.24" y="103.7" width="6.36" height="3.55"/><rect class="cls-2" x="782.57" y="103.7" width="6.53" height="3.55"/><rect class="cls-2" x="783.92" y="169.07" width="5.41" height="11.18"/><rect class="cls-2" x="795.9" y="224.03" width="6.85" height="3.98"/><rect class="cls-2" x="782.47" y="224.03" width="6.87" height="3.98"/><rect class="cls-2" x="800.37" y="245.55" width="2.38" height="7.18"/><rect class="cls-2" x="782.47" y="245.55" width="1.8" height="7.18"/><rect class="cls-2" x="675.86" y="224.03" width="6.62" height="4.57"/><rect class="cls-2" x="662.47" y="224.03" width="6.56" height="4.57"/><path class="cls-2" d="M756.59,546.72A13.93,13.93,0,0,1,752,549v-6.11H760A14.19,14.19,0,0,1,756.59,546.72Z" transform="translate(-77 -402)"/><path class="cls-2" d="M741.3,551.05l-8.63,1.55v-4.35h8.63Z" transform="translate(-77 -402)"/><path class="cls-2" d="M741.85,568.25h-2v-2h-1v-2.86l1.47-4.92h1.5Z" transform="translate(-77 -402)"/><rect class="cls-2" x="675.86" y="174.75" width="6.69" height="3.33"/><rect class="cls-2" x="662.42" y="174.75" width="6.6" height="3.33"/><path class="cls-2" d="M846.2,606.7H779.73v-20H839.3V580h6.9v26.7Z" transform="translate(-77 -402)"/><rect class="cls-2" x="582.33" y="184.67" width="59.4" height="20.03"/><rect class="cls-2" x="669.03" y="160.75" width="6.84" height="6"/><path class="cls-2" d="M879.75,626H872.9V608.35h6.85v-.62h6.45v19h-6.45Z" transform="translate(-77 -402)"/><path class="cls-2" d="M759.48,626h-6.62V608.35h6.62V606.7h100v1.65h6.86V626h-6.86v.7h-100Z" transform="translate(-77 -402)"/><path class="cls-2" d="M639.1,626.07h-6.5V608.35h6.5V606.7H739.47v1.65H746V626h-6.56v.7H639.1Z" transform="translate(-77 -402)"/><rect class="cls-2" x="680.35" y="245.6" width="2.13" height="7.13"/><rect class="cls-2" x="662.47" y="245.6" width="1.78" height="7.13"/><rect class="cls-2" x="668.75" y="249.8" width="7.38" height="6.75"/><rect class="cls-2" x="560.15" y="245.58" width="2.35" height="7.16"/><path class="cls-2" d="M624.2,647.58h-3.15v7.15h-1.6V643.22h4.75Z" transform="translate(-77 -402)"/><rect class="cls-2" x="555.63" y="224.07" width="6.47" height="3.81"/><path class="cls-2" d="M626.18,629.88h-6.73V626h7.33v2.14h-.6Z" transform="translate(-77 -402)"/><path class="cls-2" d="M619.45,626.73h-8v-19h8v.62h7.33V626h-7.33Z" transform="translate(-77 -402)"/><rect class="cls-2" x="568.95" y="192.4" width="3.42" height="2.97"/><rect class="cls-2" x="554.83" y="189.95" width="15.65" height="2.45"/><path class="cls-2" d="M634.25,500.77H619.18V496.1l15.07-4.68Z" transform="translate(-77 -402)"/><path class="cls-2" d="M528,492.35h-3.44V489.7l8.72,2.65Z" transform="translate(-77 -402)"/><rect class="cls-2" x="447.65" y="95.45" width="8.65" height="3.36"/><rect class="cls-2" x="384.92" y="116.5" width="13.54" height="2.93"/><rect class="cls-2" x="342.53" y="116.52" width="14.52" height="2.87"/><path class="cls-2" d="M455.1,657.47h-4.78v-2.26h4.78v.53h3.69v1.73Z" transform="translate(-77 -402)"/><rect class="cls-2" x="360.58" y="253.47" width="7.9" height="1.99"/><path class="cls-2" d="M458.4,676.5l-.07,7H456.5v-7h-5.1v-4.28h7Z" transform="translate(-77 -402)"/><path class="cls-2" d="M444.47,676.5h-5v7h-1.92V667.33h6.89Z" transform="translate(-77 -402)"/><path class="cls-2" d="M235.08,704.77l-9.88-1.64v-.7h9.88Z" transform="translate(-77 -402)"/><rect class="cls-2" x="15.83" y="250.5" width="4.63" height="12.9"/><path class="cls-2" d="M103.26,736.93l36.36-10.86-8.49-29.57H90.92Q97.09,716.72,103.26,736.93Z" transform="translate(-77 -402)"/><path class="cls-2" d="M213.73,708.7h-3.08v-3.85L146,724.21q-4.18-13.85-8.38-27.71h78.17Z" transform="translate(-77 -402)"/><path class="cls-2" d="M284.5,704.5l39,49h-23l7-8.71-36.63-37.74,5.95-10.55h7.66Z" transform="translate(-77 -402)"/><path class="cls-2" d="M211.89,723.46l-1.84-.29v-7.69l3.1.52Z" transform="translate(-77 -402)"/><path class="cls-2" d="M286.43,763.9l8-9.87,5.8-.26q-10.38,12.38-20.77,24.73l-10.6-6.89q3.12-3.66,6.23-7.31Z" transform="translate(-77 -402)"/><path class="cls-2" d="M304.2,603.65h9.08L298,615.25l-3.73-11.92,9.62-7.62h.36Z" transform="translate(-77 -402)"/><path class="cls-2" d="M303.4,589.47l-11.07,8.76q-2.61-8.37-5.23-16.73h16.3Z" transform="translate(-77 -402)"/><line class="cls-3" x1="222.5" y1="179.5" x2="226.4" y2="179.5"/><line class="cls-3" x1="226.4" y1="179.5" x2="226.4" y2="187.47"/><line class="cls-3" x1="215.33" y1="196.23" x2="226.4" y2="187.47"/><line class="cls-3" x1="226.84" y1="193.71" x2="235.65" y2="193.71"/><line class="cls-3" x1="217.22" y1="201.33" x2="226.84" y2="193.71"/><line class="cls-3" x1="235.65" y1="202.14" x2="235.65" y2="193.71"/><line class="cls-3" x1="234.53" y1="185.7" x2="234.53" y2="193.71"/><line class="cls-3" x1="234.5" y1="170.5" x2="234.5" y2="180.38"/><line class="cls-3" x1="234.53" y1="185.7" x2="263.23" y2="185.7"/><line class="cls-3" x1="234.5" y1="180.38" x2="257.83" y2="180.38"/><line class="cls-3" x1="257.83" y1="180.38" x2="257.83" y2="120.5"/><line class="cls-3" x1="263.23" y1="201.5" x2="263.23" y2="129.56"/><line class="cls-3" x1="263.23" y1="129.56" x2="286.5" y2="129.56"/><line class="cls-3" x1="269.77" y1="120.5" x2="269.77" y2="129.56"/><line class="cls-3" x1="263.23" y1="120.5" x2="263.23" y2="125.43"/><line class="cls-3" x1="269.77" y1="125.43" x2="263.23" y2="125.43"/><line class="cls-3" x1="263.23" y1="142.17" x2="286.5" y2="142.17"/><line class="cls-3" x1="217.22" y1="201.33" x2="220.95" y2="213.25"/><line class="cls-3" x1="210.1" y1="179.5" x2="215.33" y2="196.23"/><line class="cls-3" x1="215.33" y1="196.23" x2="156.03" y2="196.23"/><line class="cls-3" x1="150.6" y1="196.23" x2="150.6" y2="120.5"/><line class="cls-3" x1="156.03" y1="196.23" x2="156.03" y2="120.5"/><line class="cls-3" x1="150.6" y1="124.74" x2="156.03" y2="124.74"/><line class="cls-3" x1="128.5" y1="129.4" x2="150.6" y2="129.4"/><line class="cls-3" x1="156.03" y1="146.4" x2="179.5" y2="146.4"/><line class="cls-3" x1="128.5" y1="157.53" x2="150.6" y2="157.53"/><line class="cls-3" x1="150.6" y1="155.98" x2="156.03" y2="155.98"/><line class="cls-3" x1="128.5" y1="179.5" x2="150.6" y2="179.5"/><line class="cls-3" x1="156.03" y1="179.5" x2="179.5" y2="179.5"/><line class="cls-3" x1="156.03" y1="173.83" x2="179.5" y2="173.83"/><line class="cls-3" x1="179.5" y1="179.5" x2="179.5" y2="196.23"/><line class="cls-3" x1="167.53" y1="179.5" x2="167.53" y2="196.23"/><line class="cls-3" x1="139.3" y1="179.5" x2="139.3" y2="188.33"/><line class="cls-3" x1="137.23" y1="188.33" x2="141.39" y2="188.33"/><line class="cls-3" x1="139.04" y1="188.33" x2="139.04" y2="191.39"/><line class="cls-3" x1="142.6" y1="191.39" x2="127.83" y2="191.39"/><line class="cls-3" x1="142.6" y1="196.23" x2="142.6" y2="191.39"/><line class="cls-3" x1="142.6" y1="192.7" x2="150.6" y2="192.7"/><line class="cls-3" x1="127.83" y1="179.5" x2="127.83" y2="196.23"/><line class="cls-3" x1="135.48" y1="196.23" x2="72.5" y2="196.23"/><line class="cls-3" x1="135.48" y1="191.39" x2="135.48" y2="196.23"/><line class="cls-3" x1="142.6" y1="196.23" x2="150.6" y2="196.23"/><line class="cls-3" x1="150.6" y1="193.81" x2="156.03" y2="193.81"/><line class="cls-3" x1="217.22" y1="201.33" x2="201.47" y2="201.33"/><line class="cls-3" x1="201.47" y1="223.5" x2="201.47" y2="201.33"/><line class="cls-3" x1="190.23" y1="201.33" x2="192.47" y2="223.5"/><line class="cls-3" x1="190.23" y1="201.33" x2="49" y2="201.33"/><line class="cls-3" x1="49" y1="223.5" x2="49" y2="201.33"/><line class="cls-3" x1="49" y1="205.6" x2="20.5" y2="205.6"/><line class="cls-3" x1="29.25" y1="205.6" x2="29.25" y2="223.5"/><line class="cls-3" x1="37.68" y1="205.6" x2="37.68" y2="223.5"/><line class="cls-3" x1="72.5" y1="179.5" x2="72.5" y2="201.33"/><line class="cls-3" x1="82.87" y1="179.5" x2="82.87" y2="196.23"/><line class="cls-3" x1="82.87" y1="201.33" x2="82.87" y2="223.5"/><line class="cls-3" x1="95.93" y1="179.5" x2="95.93" y2="196.23"/><line class="cls-3" x1="105.6" y1="179.5" x2="105.6" y2="196.23"/><line class="cls-3" x1="116.73" y1="179.5" x2="116.73" y2="196.23"/><line class="cls-3" x1="118.57" y1="201.33" x2="118.57" y2="223.5"/><line class="cls-3" x1="127.83" y1="201.33" x2="127.83" y2="223.5"/><line class="cls-3" x1="129.7" y1="196.23" x2="129.7" y2="201.33"/><line class="cls-3" x1="200.05" y1="196.23" x2="200.05" y2="179.5"/><line class="cls-3" x1="167.53" y1="201.33" x2="167.53" y2="223.5"/><line class="cls-3" x1="235.65" y1="201.65" x2="227.2" y2="201.65"/><line class="cls-3" x1="227.2" y1="193.71" x2="227.2" y2="201.65"/><line class="cls-3" x1="245.17" y1="185.7" x2="245.17" y2="201.5"/><line class="cls-3" x1="253.63" y1="185.7" x2="253.63" y2="201.5"/><line class="cls-3" x1="263.23" y1="180.38" x2="286.5" y2="180.38"/><line class="cls-3" x1="263.23" y1="167.55" x2="286.5" y2="167.55"/><line class="cls-3" x1="263.23" y1="154.83" x2="286.5" y2="154.83"/><line class="cls-3" x1="257.83" y1="163.27" x2="234.5" y2="163.27"/><line class="cls-3" x1="257.83" y1="152.97" x2="234.5" y2="152.97"/><line class="cls-3" x1="246.17" y1="163.27" x2="246.17" y2="152.97"/><line class="cls-3" x1="257.83" y1="129.56" x2="234.5" y2="129.56"/><line class="cls-3" x1="251.63" y1="120.5" x2="251.63" y2="124.35"/><line class="cls-3" x1="251.63" y1="124.35" x2="257.83" y2="124.35"/><line class="cls-3" x1="237.02" y1="180.38" x2="237.02" y2="185.7"/><line class="cls-3" x1="48.95" y1="120.5" x2="48.95" y2="150.7"/><line class="cls-3" x1="48.95" y1="150.7" x2="72.5" y2="150.7"/><line class="cls-3" x1="20.5" y1="146.35" x2="48.95" y2="146.35"/><line class="cls-3" x1="48.95" y1="129.4" x2="72.5" y2="129.4"/><line class="cls-3" x1="8.75" y1="277.54" x2="15.83" y2="277.54"/><line class="cls-3" x1="15.83" y1="250.5" x2="15.83" y2="277.54"/><line class="cls-3" x1="15.83" y1="272.4" x2="7.25" y2="272.4"/><line class="cls-3" x1="20.47" y1="250.5" x2="20.47" y2="272.4"/><line class="cls-3" x1="20.47" y1="272.4" x2="63.47" y2="272.4"/><line class="cls-3" x1="54.9" y1="272.4" x2="54.9" y2="250.5"/><line class="cls-3" x1="63.47" y1="260.67" x2="63.47" y2="272.4"/><line class="cls-3" x1="63.47" y1="260.67" x2="54.9" y2="258.83"/><line class="cls-3" x1="20.47" y1="269.9" x2="15.83" y2="269.9"/><line class="cls-3" x1="160.18" y1="272.35" x2="214.97" y2="272.35"/><line class="cls-3" x1="198.83" y1="250.5" x2="198.83" y2="272.35"/><line class="cls-3" x1="230.52" y1="342.79" x2="193.89" y2="305.05"/><line class="cls-3" x1="187.44" y1="298.57" x2="166.59" y2="324.18"/><line class="cls-3" x1="182.54" y1="363.41" x2="151.25" y2="343.32"/><line class="cls-3" x1="191.26" y1="294.5" x2="148.2" y2="294.5"/><line class="cls-3" x1="193.89" y1="305.05" x2="199.84" y2="294.5"/><line class="cls-3" x1="148.2" y1="300.43" x2="163.4" y2="300.43"/><line class="cls-3" x1="148.2" y1="306.5" x2="148.2" y2="309.8"/><line class="cls-3" x1="163.4" y1="294.5" x2="163.4" y2="309.08"/><line class="cls-3" x1="148.2" y1="306.5" x2="163.4" y2="309.08"/><line class="cls-3" x1="158.08" y1="300.43" x2="158.08" y2="302.77"/><line class="cls-3" x1="148.2" y1="300.43" x2="148.2" y2="301.13"/><line class="cls-3" x1="148.2" y1="301.13" x2="158.08" y2="302.77"/><rect class="cls-3" x="212.56" y="716.66" width="8.34" height="7.56" transform="translate(46.38 -428.08) rotate(9.61)"/><path class="cls-3" d="M211.89,723.46l-1.84-.29v-7.69l3.1.52Z" transform="translate(-77 -402)"/><line class="cls-3" x1="133.65" y1="306.7" x2="136.73" y2="306.7"/><line class="cls-3" x1="138.77" y1="294.5" x2="136.73" y2="306.7"/><line class="cls-3" x1="138.77" y1="294.5" x2="60.6" y2="294.5"/><line class="cls-3" x1="133.65" y1="302.85" x2="133.65" y2="306.7"/><line class="cls-3" x1="60.6" y1="294.5" x2="68.98" y2="322.21"/><line class="cls-3" x1="68.98" y1="322.21" x2="133.65" y2="302.85"/><line class="cls-3" x1="54.13" y1="294.5" x2="13.92" y2="294.5"/><line class="cls-3" x1="62.62" y1="324.07" x2="54.13" y2="294.5"/><line class="cls-3" x1="62.62" y1="324.07" x2="26.26" y2="334.93"/><line class="cls-3" x1="133.59" y1="339.19" x2="52.5" y2="363.5"/><line class="cls-3" x1="133.59" y1="339.19" x2="133.59" y2="321.27"/><line class="cls-3" x1="146.61" y1="316.77" x2="144.3" y2="316.38"/><line class="cls-3" x1="188.42" y1="299.55" x2="191.26" y2="294.5"/><line class="cls-3" x1="223.54" y1="351.41" x2="230.52" y2="342.79"/><line class="cls-3" x1="199.84" y1="294.5" x2="207.5" y2="294.5"/><line class="cls-3" x1="187.46" y1="298.57" x2="188.42" y2="299.55"/><line class="cls-3" x1="191.9" y1="369.61" x2="198.13" y2="362.3"/><line class="cls-3" x1="198.13" y1="362.3" x2="209.43" y2="361.9"/><line class="cls-3" x1="209.43" y1="361.9" x2="217.47" y2="352.03"/><line class="cls-3" x1="217.47" y1="352.03" x2="223.27" y2="351.77"/><line class="cls-3" x1="199.84" y1="272.35" x2="199.84" y2="294.5"/><line class="cls-3" x1="191.75" y1="250.5" x2="191.75" y2="272.35"/><line class="cls-3" x1="184.8" y1="272.35" x2="184.8" y2="250.5"/><line class="cls-3" x1="184.8" y1="259.27" x2="191.75" y2="259.27"/><line class="cls-3" x1="184.8" y1="267" x2="191.75" y2="267"/><line class="cls-3" x1="179.05" y1="272.35" x2="179.05" y2="258.7"/><line class="cls-3" x1="179.05" y1="258.7" x2="184.8" y2="258.7"/><line class="cls-3" x1="180.28" y1="258.7" x2="180.28" y2="250.5"/><line class="cls-3" x1="168.57" y1="250.5" x2="168.57" y2="272.35"/><line class="cls-3" x1="179.05" y1="261.8" x2="168.57" y2="261.8"/><line class="cls-3" x1="156.05" y1="261.13" x2="168.57" y2="261.13"/><line class="cls-3" x1="156.05" y1="250.5" x2="156.05" y2="261.13"/><line class="cls-3" x1="160.18" y1="272.35" x2="160.18" y2="261.13"/><line class="cls-3" x1="15.83" y1="263.4" x2="20.47" y2="263.4"/><line class="cls-3" x1="362.5" y1="281.5" x2="362.5" y2="274.5"/><line class="cls-3" x1="367.47" y1="274.5" x2="362.5" y2="274.5"/><line class="cls-3" x1="367.47" y1="265.33" x2="367.47" y2="274.5"/><line class="cls-3" x1="374.4" y1="271.53" x2="367.47" y2="271.53"/><line class="cls-3" x1="374.4" y1="274.5" x2="374.4" y2="255.47"/><line class="cls-3" x1="379.5" y1="274.5" x2="374.4" y2="274.5"/><line class="cls-3" x1="379.5" y1="281.5" x2="379.5" y2="274.5"/><rect class="cls-3" x="367.63" y="279.43" width="6.63" height="5.95"/><line class="cls-3" x1="360.58" y1="281.5" x2="360.58" y2="253.5"/><line class="cls-3" x1="338.07" y1="253.5" x2="360.58" y2="253.5"/><line class="cls-3" x1="381.43" y1="264.4" x2="381.43" y2="281.5"/><line class="cls-3" x1="388.4" y1="264.4" x2="381.43" y2="264.4"/><line class="cls-3" x1="388.4" y1="270.23" x2="388.4" y2="264.4"/><line class="cls-3" x1="388.4" y1="270.23" x2="374.4" y2="270.23"/><line class="cls-3" x1="374.4" y1="265.33" x2="360.58" y2="265.33"/><line class="cls-3" x1="373.32" y1="255.47" x2="381.79" y2="255.47"/><line class="cls-3" x1="381.79" y1="253.74" x2="381.79" y2="255.47"/><line class="cls-3" x1="396.39" y1="262.7" x2="404.27" y2="254.82"/><line class="cls-3" x1="396.39" y1="262.7" x2="401.4" y2="267.71"/><line class="cls-3" x1="401.4" y1="267.71" x2="409.28" y2="259.83"/><line class="cls-3" x1="401.4" y1="267.71" x2="401.4" y2="281.5"/><line class="cls-3" x1="401.4" y1="273.5" x2="409.72" y2="273.5"/><line class="cls-3" x1="373.32" y1="255.47" x2="373.32" y2="137.53"/><line class="cls-3" x1="373.32" y1="253.21" x2="378.1" y2="253.21"/><line class="cls-3" x1="381.79" y1="253.74" x2="378.1" y2="253.74"/><line class="cls-3" x1="378.1" y1="253.21" x2="378.1" y2="253.74"/><line class="cls-3" x1="360.58" y1="253.5" x2="368.48" y2="253.5"/><line class="cls-3" x1="368.48" y1="253.5" x2="368.48" y2="148.13"/><line class="cls-3" x1="368.48" y1="253.5" x2="368.48" y2="255.47"/><line class="cls-3" x1="360.58" y1="255.47" x2="368.48" y2="255.47"/><line class="cls-3" x1="368.48" y1="232.35" x2="339.24" y2="232.35"/><line class="cls-3" x1="368.48" y1="211.3" x2="339.24" y2="211.3"/><line class="cls-3" x1="339.24" y1="190.27" x2="401.78" y2="190.27"/><line class="cls-3" x1="339.24" y1="169.1" x2="368.48" y2="169.1"/><line class="cls-3" x1="368.48" y1="148.13" x2="339.24" y2="148.13"/><line class="cls-3" x1="373.32" y1="148.13" x2="401.78" y2="148.13"/><line class="cls-3" x1="360.5" y1="134.08" x2="360.5" y2="148.13"/><line class="cls-3" x1="339.24" y1="134.08" x2="360.5" y2="134.08"/><line class="cls-3" x1="357.05" y1="105.95" x2="357.05" y2="134.08"/><line class="cls-3" x1="384.5" y1="105.95" x2="341.24" y2="105.95"/><line class="cls-3" x1="368.05" y1="105.95" x2="368.05" y2="84.24"/><line class="cls-3" x1="399.9" y1="105.95" x2="394.1" y2="105.95"/><line class="cls-3" x1="394.1" y1="116.5" x2="394.1" y2="105.95"/><line class="cls-3" x1="401.8" y1="116.5" x2="384.93" y2="116.5"/><line class="cls-3" x1="384.93" y1="109.55" x2="384.93" y2="137.53"/><line class="cls-3" x1="394.1" y1="109.55" x2="384.93" y2="109.55"/><line class="cls-3" x1="367.7" y1="137.53" x2="384.93" y2="137.53"/><line class="cls-3" x1="367.7" y1="131.12" x2="367.7" y2="137.53"/><line class="cls-3" x1="384.93" y1="131.12" x2="367.7" y2="131.12"/><line class="cls-3" x1="374.2" y1="137.53" x2="374.2" y2="125.77"/><line class="cls-3" x1="379.77" y1="131.12" x2="379.77" y2="137.53"/><line class="cls-3" x1="357.05" y1="127.03" x2="339.24" y2="127.03"/><line class="cls-3" x1="350.85" y1="122.22" x2="350.85" y2="127.03"/><line class="cls-3" x1="357.05" y1="122.22" x2="350.85" y2="122.22"/><line class="cls-3" x1="357.05" y1="116.52" x2="339.23" y2="116.52"/><line class="cls-3" x1="357.05" y1="119.38" x2="342.53" y2="119.38"/><line class="cls-3" x1="342.53" y1="116.52" x2="342.53" y2="119.38"/><line class="cls-3" x1="384.93" y1="119.43" x2="398.47" y2="119.43"/><line class="cls-3" x1="398.47" y1="116.5" x2="398.47" y2="119.43"/><circle class="cls-3" cx="370.72" cy="116.5" r="9.9"/><line class="cls-3" x1="373.6" y1="119.8" x2="376.93" y2="124.09"/><line class="cls-3" x1="373.6" y1="119.8" x2="367" y2="119.8"/><line class="cls-3" x1="367" y1="119.8" x2="363.34" y2="123.19"/><line class="cls-3" x1="522.5" y1="125.77" x2="522.5" y2="103.8"/><line class="cls-3" x1="542.18" y1="81.04" x2="542.18" y2="98.78"/><line class="cls-3" x1="420.5" y1="103.8" x2="549.78" y2="103.8"/><line class="cls-3" x1="454.73" y1="103.8" x2="454.73" y2="125.77"/><line class="cls-3" x1="444.53" y1="114.1" x2="444.53" y2="125.77"/><line class="cls-3" x1="444.53" y1="114.1" x2="454.73" y2="114.1"/><line class="cls-3" x1="430.93" y1="114.1" x2="444.53" y2="114.1"/><line class="cls-3" x1="430.93" y1="125.77" x2="430.93" y2="114.1"/><line class="cls-3" x1="420.5" y1="115.73" x2="430.93" y2="115.73"/><line class="cls-3" x1="441.08" y1="81.3" x2="441.08" y2="103.8"/><line class="cls-3" x1="429.63" y1="93.75" x2="429.63" y2="103.8"/><line class="cls-3" x1="443.03" y1="93.75" x2="420.5" y2="93.75"/><line class="cls-3" x1="441.08" y1="98.81" x2="443.03" y2="98.81"/><line class="cls-3" x1="443.03" y1="93.75" x2="443.03" y2="98.81"/><line class="cls-3" x1="429.63" y1="100.03" x2="441.08" y2="100.03"/><line class="cls-3" x1="437.7" y1="93.75" x2="437.7" y2="100.03"/><line class="cls-3" x1="434.32" y1="93.75" x2="434.32" y2="100.03"/><line class="cls-3" x1="461.53" y1="91.63" x2="441.08" y2="85.63"/><line class="cls-3" x1="447.58" y1="87.53" x2="447.58" y2="90.35"/><line class="cls-3" x1="447.58" y1="90.35" x2="456.3" y2="90.35"/><line class="cls-3" x1="456.3" y1="90.35" x2="456.3" y2="98.81"/><line class="cls-3" x1="447.65" y1="98.81" x2="456.3" y2="98.81"/><line class="cls-3" x1="447.65" y1="95.45" x2="447.65" y2="98.81"/><line class="cls-3" x1="461.54" y1="95.45" x2="447.65" y2="95.45"/><line class="cls-3" x1="448.76" y1="90.35" x2="448.76" y2="95.45"/><line class="cls-3" x1="461.54" y1="98.81" x2="461.54" y2="81.23"/><line class="cls-3" x1="510.35" y1="98.81" x2="461.54" y2="98.81"/><line class="cls-3" x1="468.65" y1="98.81" x2="468.65" y2="82.69"/><line class="cls-3" x1="481.93" y1="98.81" x2="481.93" y2="84.7"/><line class="cls-3" x1="488.77" y1="98.81" x2="488.77" y2="85.32"/><line class="cls-3" x1="495.5" y1="98.81" x2="495.5" y2="85.83"/><line class="cls-3" x1="502.37" y1="98.81" x2="502.37" y2="85.83"/><line class="cls-3" x1="510.35" y1="98.81" x2="510.35" y2="94.87"/><line class="cls-3" x1="510.35" y1="94.87" x2="542.18" y2="94.87"/><line class="cls-3" x1="515.37" y1="94.87" x2="515.37" y2="85.41"/><line class="cls-3" x1="420.5" y1="86.88" x2="441.08" y2="86.88"/><line class="cls-3" x1="430.97" y1="77.33" x2="430.97" y2="86.88"/><line class="cls-3" x1="426.78" y1="86.88" x2="426.78" y2="93.75"/><line class="cls-3" x1="542.18" y1="98.78" x2="562.8" y2="98.78"/><line class="cls-3" x1="557.25" y1="89.43" x2="557.25" y2="98.78"/><line class="cls-3" x1="557.25" y1="89.43" x2="542.18" y2="94.1"/><line class="cls-3" x1="562.8" y1="80.9" x2="562.8" y2="103.8"/><line class="cls-3" x1="557.25" y1="90.57" x2="562.8" y2="90.57"/><line class="cls-3" x1="554.82" y1="103.8" x2="562.8" y2="103.8"/><line class="cls-3" x1="562.8" y1="86.8" x2="582.5" y2="86.8"/><line class="cls-3" x1="568.13" y1="97.07" x2="568.13" y2="86.8"/><line class="cls-3" x1="582.5" y1="97.07" x2="568.13" y2="97.07"/><line class="cls-3" x1="562.8" y1="103.8" x2="582.5" y2="103.8"/><line class="cls-3" x1="554.82" y1="103.8" x2="554.82" y2="192.4"/><line class="cls-3" x1="555.63" y1="192.4" x2="555.63" y2="206.35"/><line class="cls-3" x1="554.82" y1="192.4" x2="572.38" y2="192.4"/><line class="cls-3" x1="562.1" y1="198.38" x2="562.1" y2="204.7"/><line class="cls-3" x1="562.1" y1="204.7" x2="582.33" y2="204.7"/><line class="cls-3" x1="582.33" y1="204.7" x2="582.33" y2="184.67"/><line class="cls-3" x1="555.63" y1="201.52" x2="558.12" y2="201.52"/><line class="cls-3" x1="558.12" y1="202.36" x2="558.12" y2="201.52"/><line class="cls-3" x1="562.1" y1="202.36" x2="558.12" y2="202.36"/><line class="cls-3" x1="555.63" y1="198.38" x2="568.95" y2="198.38"/><line class="cls-3" x1="568.95" y1="195.38" x2="568.95" y2="204.7"/><line class="cls-3" x1="568.95" y1="195.38" x2="582.33" y2="195.38"/><line class="cls-3" x1="555.63" y1="195.38" x2="559.78" y2="195.38"/><line class="cls-3" x1="559.78" y1="198.38" x2="559.78" y2="195.38"/><line class="cls-3" x1="568.95" y1="195.38" x2="568.95" y2="192.4"/><line class="cls-3" x1="572.38" y1="192.4" x2="572.38" y2="195.38"/><line class="cls-3" x1="570.48" y1="189.95" x2="570.48" y2="192.4"/><line class="cls-3" x1="554.82" y1="189.95" x2="570.48" y2="189.95"/><line class="cls-3" x1="554.82" y1="184.8" x2="570.48" y2="184.8"/><line class="cls-3" x1="570.48" y1="183.08" x2="570.48" y2="184.8"/><line class="cls-3" x1="576.63" y1="184.8" x2="576.63" y2="195.38"/><line class="cls-3" x1="582.33" y1="184.8" x2="576.63" y2="184.8"/><line class="cls-3" x1="574.2" y1="147.93" x2="574.2" y2="182.23"/><line class="cls-3" x1="574.2" y1="182.23" x2="576.57" y2="184.8"/><line class="cls-3" x1="574.2" y1="174.6" x2="582.5" y2="174.6"/><line class="cls-3" x1="574.2" y1="147.93" x2="582.5" y2="147.93"/><line class="cls-3" x1="574.2" y1="157.77" x2="582.5" y2="157.77"/><line class="cls-3" x1="554.82" y1="123.52" x2="562.52" y2="123.52"/><line class="cls-3" x1="562.52" y1="123.52" x2="562.52" y2="179.2"/><line class="cls-3" x1="570.48" y1="179.2" x2="554.82" y2="179.2"/><line class="cls-3" x1="570.48" y1="158.45" x2="570.48" y2="179.2"/><line class="cls-3" x1="562.52" y1="173.92" x2="570.48" y2="173.92"/><line class="cls-3" x1="570.48" y1="158.45" x2="562.52" y2="158.45"/><line class="cls-3" x1="562.52" y1="156.93" x2="554.82" y2="156.93"/><line class="cls-3" x1="554.82" y1="136.85" x2="562.52" y2="136.85"/><line class="cls-3" x1="582.5" y1="124.1" x2="562.52" y2="124.1"/><line class="cls-3" x1="567.95" y1="113.68" x2="567.95" y2="124.1"/><line class="cls-3" x1="570.55" y1="110.5" x2="582.5" y2="110.5"/><line class="cls-3" x1="570.55" y1="103.8" x2="570.55" y2="110.5"/><line class="cls-3" x1="567.95" y1="113.68" x2="570.55" y2="110.2"/><line class="cls-3" x1="562.8" y1="103.8" x2="562.8" y2="117.5"/><line class="cls-3" x1="554.82" y1="117.5" x2="562.8" y2="117.5"/><line class="cls-3" x1="554.82" y1="110.65" x2="562.8" y2="110.65"/><line class="cls-3" x1="549.78" y1="103.8" x2="549.78" y2="206.35"/><line class="cls-3" x1="542.45" y1="206.35" x2="549.78" y2="206.35"/><line class="cls-3" x1="534.5" y1="205.73" x2="542.45" y2="205.73"/><line class="cls-3" x1="542.45" y1="206.35" x2="542.45" y2="205.73"/><line class="cls-3" x1="541.17" y1="103.8" x2="541.17" y2="121.97"/><line class="cls-3" x1="541.17" y1="121.97" x2="549.78" y2="121.97"/><line class="cls-3" x1="536.82" y1="116.25" x2="541.17" y2="116.25"/><line class="cls-3" x1="534.65" y1="103.8" x2="534.65" y2="112.5"/><line class="cls-3" x1="534.65" y1="112.5" x2="536.82" y2="116.25"/><line class="cls-3" x1="537.25" y1="194.9" x2="537.25" y2="205.73"/><line class="cls-3" x1="531.28" y1="185.03" x2="531.28" y2="188.28"/><line class="cls-3" x1="536.78" y1="185.03" x2="531.28" y2="185.03"/><line class="cls-3" x1="531.28" y1="188.28" x2="537.25" y2="194.9"/><line class="cls-3" x1="536.78" y1="185.03" x2="536.78" y2="116.25"/><line class="cls-3" x1="554.82" y1="124.1" x2="549.78" y2="124.1"/><line class="cls-3" x1="536.78" y1="124.1" x2="522.5" y2="124.1"/><line class="cls-3" x1="536.78" y1="134.07" x2="522.5" y2="134.07"/><line class="cls-3" x1="536.78" y1="144.37" x2="522.5" y2="144.37"/><line class="cls-3" x1="536.78" y1="154.67" x2="522.5" y2="154.67"/><line class="cls-3" x1="536.78" y1="164.67" x2="522.5" y2="164.67"/><line class="cls-3" x1="536.78" y1="174.87" x2="522.5" y2="174.87"/><line class="cls-3" x1="531.28" y1="185.03" x2="522.5" y2="185.03"/><line class="cls-3" x1="534.5" y1="224.73" x2="542.45" y2="224.73"/><line class="cls-3" x1="549.78" y1="206.35" x2="549.78" y2="226.17"/><line class="cls-3" x1="549.78" y1="226.17" x2="549.18" y2="226.17"/><line class="cls-3" x1="549.18" y1="235.57" x2="549.18" y2="226.17"/><line class="cls-3" x1="542.45" y1="235.57" x2="549.18" y2="235.57"/><line class="cls-3" x1="542.45" y1="224.73" x2="542.45" y2="235.57"/><line class="cls-3" x1="542.45" y1="227.88" x2="549.18" y2="227.88"/><line class="cls-3" x1="542.45" y1="241.23" x2="542.45" y2="235.57"/><line class="cls-3" x1="547.23" y1="241.23" x2="542.45" y2="241.23"/><line class="cls-3" x1="547.23" y1="245.58" x2="547.23" y2="241.23"/><line class="cls-3" x1="542.45" y1="252.73" x2="542.45" y2="241.23"/><line class="cls-3" x1="544.05" y1="252.73" x2="544.05" y2="245.58"/><line class="cls-3" x1="547.23" y1="245.58" x2="544.05" y2="245.58"/><line class="cls-3" x1="532.1" y1="252.73" x2="532.1" y2="224.73"/><line class="cls-3" x1="522.5" y1="232.07" x2="532.1" y2="232.07"/><line class="cls-3" x1="522.63" y1="238.73" x2="532.1" y2="238.73"/><line class="cls-3" x1="549.78" y1="204.27" x2="554.8" y2="204.27"/><line class="cls-3" x1="554.8" y1="204.27" x2="555.63" y2="204.27"/><line class="cls-3" x1="554.8" y1="226.17" x2="555.6" y2="226.17"/><line class="cls-3" x1="555.6" y1="235.57" x2="555.6" y2="226.17"/><line class="cls-3" x1="559.13" y1="235.57" x2="555.6" y2="235.57"/><line class="cls-3" x1="559.13" y1="241.23" x2="559.13" y2="235.57"/><line class="cls-3" x1="557.28" y1="241.23" x2="559.13" y2="241.23"/><line class="cls-3" x1="557.28" y1="245.58" x2="557.28" y2="241.23"/><line class="cls-3" x1="554.8" y1="245.58" x2="557.28" y2="245.58"/><line class="cls-3" x1="549.78" y1="245.58" x2="547.23" y2="245.58"/><line class="cls-3" x1="549.78" y1="243.73" x2="549.78" y2="245.58"/><line class="cls-3" x1="554.8" y1="243.73" x2="554.8" y2="245.58"/><line class="cls-3" x1="549.78" y1="243.73" x2="554.8" y2="243.73"/><line class="cls-3" x1="557.28" y1="245.58" x2="562.5" y2="245.58"/><line class="cls-3" x1="560.15" y1="252.73" x2="560.15" y2="245.58"/><line class="cls-3" x1="562.5" y1="252.73" x2="562.5" y2="245.58"/><rect class="cls-3" x="548.6" y="249.82" width="7.37" height="6.72"/><line class="cls-3" x1="555.6" y1="226.17" x2="555.6" y2="224.03"/><line class="cls-3" x1="562.1" y1="224.73" x2="662.47" y2="224.73"/><line class="cls-3" x1="641.73" y1="204.7" x2="662.47" y2="204.7"/><line class="cls-3" x1="641.73" y1="184.67" x2="641.73" y2="204.7"/><line class="cls-3" x1="662.47" y1="224.73" x2="662.47" y2="252.73"/><line class="cls-3" x1="559.13" y1="241.23" x2="599.02" y2="241.23"/><line class="cls-3" x1="599.02" y1="243" x2="599.02" y2="241.23"/><line class="cls-3" x1="605.58" y1="243" x2="599.02" y2="243"/><line class="cls-3" x1="605.58" y1="241.23" x2="605.58" y2="243"/><line class="cls-3" x1="612.4" y1="241.23" x2="605.58" y2="241.23"/><line class="cls-3" x1="612.4" y1="243" x2="612.4" y2="241.23"/><line class="cls-3" x1="618.92" y1="243" x2="612.4" y2="243"/><line class="cls-3" x1="618.92" y1="241.23" x2="625.78" y2="241.23"/><line class="cls-3" x1="618.92" y1="243" x2="618.92" y2="241.23"/><line class="cls-3" x1="625.78" y1="241.23" x2="625.78" y2="243"/><line class="cls-3" x1="632.32" y1="243" x2="625.78" y2="243"/><line class="cls-3" x1="632.32" y1="241.23" x2="632.32" y2="243"/><line class="cls-3" x1="639.18" y1="241.23" x2="632.32" y2="241.23"/><line class="cls-3" x1="639.18" y1="243" x2="639.18" y2="241.23"/><line class="cls-3" x1="639.18" y1="243" x2="645.65" y2="243"/><line class="cls-3" x1="645.65" y1="241.23" x2="645.65" y2="243"/><line class="cls-3" x1="652.43" y1="241.23" x2="645.65" y2="241.23"/><line class="cls-3" x1="652.43" y1="243" x2="652.43" y2="241.23"/><line class="cls-3" x1="659.02" y1="243" x2="652.43" y2="243"/><line class="cls-3" x1="659.02" y1="241.23" x2="659.02" y2="243"/><line class="cls-3" x1="659.02" y1="241.23" x2="662.47" y2="241.23"/><line class="cls-3" x1="559.13" y1="235.57" x2="562.1" y2="235.57"/><line class="cls-3" x1="565.28" y1="236.2" x2="565.28" y2="234.45"/><line class="cls-3" x1="565.28" y1="236.2" x2="599.02" y2="236.2"/><line class="cls-3" x1="599.02" y1="234.62" x2="599.02" y2="236.2"/><line class="cls-3" x1="605.58" y1="234.62" x2="599.02" y2="234.62"/><line class="cls-3" x1="605.58" y1="236.2" x2="605.58" y2="234.62"/><line class="cls-3" x1="612.4" y1="236.2" x2="605.58" y2="236.2"/><line class="cls-3" x1="612.4" y1="234.62" x2="612.4" y2="236.2"/><line class="cls-3" x1="618.92" y1="234.62" x2="612.4" y2="234.62"/><line class="cls-3" x1="618.92" y1="236.2" x2="618.92" y2="234.62"/><line class="cls-3" x1="625.78" y1="236.2" x2="618.92" y2="236.2"/><line class="cls-3" x1="625.78" y1="234.62" x2="625.78" y2="236.2"/><line class="cls-3" x1="632.32" y1="234.62" x2="625.78" y2="234.62"/><line class="cls-3" x1="632.32" y1="236.2" x2="632.32" y2="234.62"/><line class="cls-3" x1="639.37" y1="236.2" x2="632.32" y2="236.2"/><line class="cls-3" x1="639.37" y1="234.62" x2="639.37" y2="236.2"/><line class="cls-3" x1="642.42" y1="234.62" x2="639.37" y2="234.62"/><line class="cls-3" x1="642.42" y1="236.2" x2="642.42" y2="234.62"/><line class="cls-3" x1="662.47" y1="236.2" x2="642.42" y2="236.2"/><line class="cls-3" x1="562.1" y1="224.73" x2="562.1" y2="235.57"/><line class="cls-3" x1="582.35" y1="224.73" x2="582.35" y2="236.2"/><line class="cls-3" x1="595.65" y1="224.73" x2="595.65" y2="236.2"/><line class="cls-3" x1="602.3" y1="234.62" x2="602.3" y2="224.73"/><line class="cls-3" x1="608.99" y1="236.2" x2="608.99" y2="224.73"/><line class="cls-3" x1="615.66" y1="234.62" x2="615.66" y2="224.73"/><line class="cls-3" x1="622.35" y1="236.2" x2="622.35" y2="224.73"/><line class="cls-3" x1="629.05" y1="234.62" x2="629.05" y2="224.73"/><line class="cls-3" x1="635.75" y1="236.2" x2="635.75" y2="224.73"/><line class="cls-3" x1="642.42" y1="234.62" x2="642.42" y2="224.73"/><line class="cls-3" x1="588.98" y1="241.23" x2="588.98" y2="252.73"/><line class="cls-3" x1="602.3" y1="243" x2="602.3" y2="252.73"/><line class="cls-3" x1="608.99" y1="241.23" x2="608.99" y2="252.73"/><line class="cls-3" x1="615.66" y1="243" x2="615.66" y2="252.73"/><line class="cls-3" x1="622.35" y1="241.23" x2="622.35" y2="252.73"/><line class="cls-3" x1="629.05" y1="243" x2="629.05" y2="252.73"/><line class="cls-3" x1="635.75" y1="241.23" x2="635.75" y2="252.73"/><line class="cls-3" x1="642.42" y1="243" x2="642.42" y2="252.73"/><line class="cls-3" x1="649.04" y1="241.23" x2="649.04" y2="252.73"/><line class="cls-3" x1="655.73" y1="243" x2="655.73" y2="252.73"/><line class="cls-3" x1="549.78" y1="226.17" x2="554.8" y2="226.17"/><line class="cls-3" x1="555.6" y1="227.88" x2="562.1" y2="227.88"/><line class="cls-3" x1="595.65" y1="236.2" x2="595.65" y2="241.23"/><line class="cls-3" x1="662.47" y1="236.2" x2="665.98" y2="236.2"/><line class="cls-3" x1="665.98" y1="232.92" x2="665.98" y2="236.2"/><line class="cls-3" x1="662.47" y1="232.92" x2="669.03" y2="232.92"/><line class="cls-3" x1="669.03" y1="232.92" x2="669.03" y2="224.03"/><line class="cls-3" x1="669.03" y1="225.97" x2="674.9" y2="225.97"/><line class="cls-3" x1="674.9" y1="225.97" x2="675.86" y2="225.97"/><line class="cls-3" x1="675.86" y1="224.03" x2="675.86" y2="225.97"/><line class="cls-3" x1="675.86" y1="225.97" x2="675.86" y2="232.92"/><line class="cls-3" x1="675.86" y1="232.92" x2="678.82" y2="232.92"/><line class="cls-3" x1="678.82" y1="236.2" x2="678.82" y2="232.92"/><line class="cls-3" x1="662.47" y1="228.6" x2="669.03" y2="228.6"/><line class="cls-3" x1="682.48" y1="252.73" x2="682.48" y2="224.73"/><line class="cls-3" x1="682.48" y1="224.73" x2="782.47" y2="224.73"/><line class="cls-3" x1="680.35" y1="252.73" x2="680.35" y2="245.6"/><line class="cls-3" x1="682.48" y1="245.6" x2="675" y2="245.6"/><line class="cls-3" x1="675" y1="242.23" x2="675" y2="245.6"/><line class="cls-3" x1="682.48" y1="242.23" x2="662.47" y2="242.23"/><line class="cls-3" x1="669.88" y1="242.23" x2="669.88" y2="245.6"/><line class="cls-3" x1="669.88" y1="245.6" x2="662.47" y2="245.6"/><line class="cls-3" x1="664.25" y1="252.73" x2="664.25" y2="245.6"/><rect class="cls-3" x="668.75" y="249.8" width="7.38" height="6.75"/><line class="cls-3" x1="789.33" y1="225.97" x2="789.33" y2="224.03"/><line class="cls-3" x1="789.33" y1="225.97" x2="795.9" y2="225.97"/><line class="cls-3" x1="795.9" y1="224.03" x2="795.9" y2="225.97"/><line class="cls-3" x1="809.2" y1="224.73" x2="802.75" y2="224.73"/><line class="cls-3" x1="802.75" y1="224.73" x2="802.75" y2="252.73"/><line class="cls-3" x1="800.37" y1="252.73" x2="800.37" y2="245.55"/><line class="cls-3" x1="802.75" y1="245.55" x2="795.23" y2="245.55"/><line class="cls-3" x1="782.47" y1="224.73" x2="782.47" y2="252.73"/><line class="cls-3" x1="782.47" y1="245.55" x2="789.95" y2="245.55"/><line class="cls-3" x1="789.95" y1="243.78" x2="789.95" y2="245.55"/><line class="cls-3" x1="795.23" y1="243.78" x2="795.23" y2="245.55"/><line class="cls-3" x1="789.95" y1="243.78" x2="795.23" y2="243.78"/><line class="cls-3" x1="782.47" y1="239.7" x2="787.55" y2="239.7"/><line class="cls-3" x1="787.55" y1="245.55" x2="787.55" y2="239.7"/><line class="cls-3" x1="797.6" y1="245.55" x2="797.6" y2="239.7"/><line class="cls-3" x1="797.6" y1="239.7" x2="802.75" y2="239.7"/><line class="cls-3" x1="802.75" y1="234.65" x2="795.9" y2="234.65"/><line class="cls-3" x1="795.9" y1="225.97" x2="795.9" y2="234.65"/><line class="cls-3" x1="795.9" y1="231.29" x2="802.75" y2="231.29"/><line class="cls-3" x1="795.9" y1="228.02" x2="802.75" y2="228.02"/><line class="cls-3" x1="789.33" y1="225.97" x2="789.33" y2="234.65"/><line class="cls-3" x1="782.47" y1="234.65" x2="789.33" y2="234.65"/><line class="cls-3" x1="789.33" y1="231.29" x2="782.47" y2="231.29"/><line class="cls-3" x1="789.33" y1="228.02" x2="782.47" y2="228.02"/><line class="cls-3" x1="784.27" y1="252.73" x2="784.27" y2="245.55"/><rect class="cls-3" x="788.88" y="249.82" width="7.37" height="6.73"/><line class="cls-3" x1="682.48" y1="241.33" x2="685.87" y2="241.33"/><line class="cls-3" x1="685.87" y1="243" x2="685.87" y2="241.33"/><line class="cls-3" x1="692.4" y1="243" x2="685.87" y2="243"/><line class="cls-3" x1="692.4" y1="241.33" x2="692.4" y2="243"/><line class="cls-3" x1="699.12" y1="241.33" x2="692.4" y2="241.33"/><line class="cls-3" x1="699.12" y1="243" x2="699.12" y2="241.33"/><line class="cls-3" x1="705.78" y1="243" x2="699.12" y2="243"/><line class="cls-3" x1="705.78" y1="241.33" x2="705.78" y2="243"/><line class="cls-3" x1="712.52" y1="241.33" x2="705.78" y2="241.33"/><line class="cls-3" x1="712.52" y1="243" x2="712.52" y2="241.33"/><line class="cls-3" x1="719.07" y1="243" x2="712.52" y2="243"/><line class="cls-3" x1="719.07" y1="241.33" x2="719.07" y2="243"/><line class="cls-3" x1="725.88" y1="241.33" x2="719.07" y2="241.33"/><line class="cls-3" x1="725.88" y1="243" x2="725.88" y2="241.33"/><line class="cls-3" x1="732.43" y1="243" x2="725.88" y2="243"/><line class="cls-3" x1="732.43" y1="241.33" x2="732.43" y2="243"/><line class="cls-3" x1="739.2" y1="241.33" x2="732.43" y2="241.33"/><line class="cls-3" x1="739.2" y1="243" x2="739.2" y2="241.33"/><line class="cls-3" x1="745.8" y1="243" x2="739.2" y2="243"/><line class="cls-3" x1="745.8" y1="241.33" x2="745.8" y2="243"/><line class="cls-3" x1="752.57" y1="241.33" x2="745.8" y2="241.33"/><line class="cls-3" x1="752.57" y1="243" x2="752.57" y2="241.33"/><line class="cls-3" x1="759.1" y1="243" x2="752.57" y2="243"/><line class="cls-3" x1="759.1" y1="241.33" x2="759.1" y2="243"/><line class="cls-3" x1="769.22" y1="241.33" x2="759.1" y2="241.33"/><line class="cls-3" x1="769.22" y1="243" x2="769.22" y2="241.33"/><line class="cls-3" x1="772.5" y1="243" x2="769.22" y2="243"/><line class="cls-3" x1="772.5" y1="241.33" x2="772.5" y2="243"/><line class="cls-3" x1="782.47" y1="241.33" x2="772.5" y2="241.33"/><line class="cls-3" x1="775.9" y1="241.33" x2="775.9" y2="252.73"/><line class="cls-3" x1="762.53" y1="241.33" x2="762.53" y2="252.73"/><line class="cls-3" x1="755.83" y1="243" x2="755.83" y2="252.73"/><line class="cls-3" x1="749.18" y1="241.33" x2="749.18" y2="252.73"/><line class="cls-3" x1="742.5" y1="243" x2="742.5" y2="252.73"/><line class="cls-3" x1="735.82" y1="241.33" x2="735.82" y2="252.73"/><line class="cls-3" x1="729.16" y1="243" x2="729.16" y2="252.73"/><line class="cls-3" x1="722.48" y1="241.33" x2="722.48" y2="252.85"/><line class="cls-3" x1="715.79" y1="243" x2="715.79" y2="252.73"/><line class="cls-3" x1="709.15" y1="241.33" x2="709.15" y2="252.73"/><line class="cls-3" x1="702.45" y1="243" x2="702.45" y2="252.73"/><line class="cls-3" x1="695.76" y1="241.33" x2="695.76" y2="252.73"/><line class="cls-3" x1="689.13" y1="243" x2="689.13" y2="252.73"/><line class="cls-3" x1="678.82" y1="236.2" x2="699.12" y2="236.2"/><line class="cls-3" x1="678.82" y1="232.92" x2="682.48" y2="232.92"/><line class="cls-3" x1="682.48" y1="228.6" x2="675.86" y2="228.6"/><line class="cls-3" x1="699.12" y1="234.6" x2="699.12" y2="236.2"/><line class="cls-3" x1="705.78" y1="234.6" x2="699.12" y2="234.6"/><line class="cls-3" x1="705.78" y1="236.2" x2="705.78" y2="234.6"/><line class="cls-3" x1="705.78" y1="236.2" x2="725.88" y2="236.2"/><line class="cls-3" x1="725.88" y1="234.6" x2="725.88" y2="236.2"/><line class="cls-3" x1="732.43" y1="234.6" x2="725.88" y2="234.6"/><line class="cls-3" x1="732.43" y1="236.2" x2="732.43" y2="234.6"/><line class="cls-3" x1="739.2" y1="236.2" x2="732.43" y2="236.2"/><line class="cls-3" x1="739.2" y1="234.6" x2="739.2" y2="236.2"/><line class="cls-3" x1="745.8" y1="234.6" x2="739.2" y2="234.6"/><line class="cls-3" x1="745.8" y1="236.2" x2="745.8" y2="234.6"/><line class="cls-3" x1="752.57" y1="236.2" x2="745.8" y2="236.2"/><line class="cls-3" x1="752.57" y1="234.6" x2="752.57" y2="236.2"/><line class="cls-3" x1="759.1" y1="234.6" x2="752.57" y2="234.6"/><line class="cls-3" x1="759.1" y1="236.2" x2="759.1" y2="234.6"/><line class="cls-3" x1="782.47" y1="236.2" x2="759.1" y2="236.2"/><line class="cls-3" x1="702.45" y1="234.6" x2="702.45" y2="224.73"/><line class="cls-3" x1="709.15" y1="236.2" x2="709.15" y2="224.73"/><line class="cls-3" x1="722.48" y1="236.2" x2="722.48" y2="224.73"/><line class="cls-3" x1="729.16" y1="234.6" x2="729.16" y2="224.73"/><line class="cls-3" x1="735.82" y1="241.33" x2="735.82" y2="224.73"/><line class="cls-3" x1="742.5" y1="234.6" x2="742.5" y2="224.73"/><line class="cls-3" x1="749.18" y1="236.2" x2="749.18" y2="224.73"/><line class="cls-3" x1="755.83" y1="234.6" x2="755.83" y2="224.73"/><line class="cls-3" x1="762.53" y1="236.2" x2="762.53" y2="224.73"/><line class="cls-3" x1="769.22" y1="236.2" x2="769.22" y2="224.73"/><line class="cls-3" x1="662.47" y1="204.7" x2="662.47" y2="206.35"/><line class="cls-3" x1="669.03" y1="206.35" x2="662.47" y2="206.35"/><line class="cls-3" x1="669.03" y1="204.2" x2="669.03" y2="206.35"/><line class="cls-3" x1="669.93" y1="204.2" x2="669.03" y2="204.2"/><line class="cls-3" x1="674.9" y1="204.2" x2="675.86" y2="204.2"/><line class="cls-3" x1="675.86" y1="206.35" x2="675.86" y2="204.2"/><line class="cls-3" x1="669.93" y1="204.2" x2="674.9" y2="204.2"/><line class="cls-3" x1="682.48" y1="206.35" x2="675.86" y2="206.35"/><line class="cls-3" x1="682.48" y1="204.7" x2="682.48" y2="206.35"/><line class="cls-3" x1="769.2" y1="204.7" x2="782.47" y2="204.7"/><line class="cls-3" x1="782.47" y1="204.7" x2="782.47" y2="206.35"/><line class="cls-3" x1="782.47" y1="206.35" x2="789.33" y2="206.35"/><line class="cls-3" x1="789.33" y1="204.23" x2="789.33" y2="206.35"/><line class="cls-3" x1="795.9" y1="204.23" x2="789.33" y2="204.23"/><line class="cls-3" x1="795.9" y1="206.35" x2="795.9" y2="204.23"/><line class="cls-3" x1="795.9" y1="206.35" x2="802.75" y2="206.35"/><line class="cls-3" x1="809.2" y1="205.73" x2="802.75" y2="205.73"/><line class="cls-3" x1="802.75" y1="205.73" x2="802.75" y2="206.35"/><line class="cls-3" x1="555.63" y1="206.35" x2="555.63" y2="224.03"/><line class="cls-3" x1="669.03" y1="206.35" x2="669.03" y2="224.03"/><line class="cls-3" x1="675.86" y1="224.03" x2="675.86" y2="206.35"/><line class="cls-3" x1="789.33" y1="206.35" x2="789.33" y2="224.03"/><line class="cls-3" x1="795.9" y1="224.03" x2="795.9" y2="206.35"/><line class="cls-3" x1="669.03" y1="174.75" x2="669.03" y2="204.2"/><line class="cls-3" x1="641.73" y1="184.67" x2="669.03" y2="184.67"/><line class="cls-3" x1="655.75" y1="184.67" x2="655.75" y2="204.7"/><line class="cls-3" x1="655.75" y1="189.7" x2="669.03" y2="189.7"/><line class="cls-3" x1="675.86" y1="184.67" x2="675.86" y2="204.2"/><line class="cls-3" x1="702.73" y1="184.67" x2="675.86" y2="184.67"/><line class="cls-3" x1="648.47" y1="164.2" x2="655.58" y2="164.2"/><line class="cls-3" x1="655.58" y1="159.53" x2="655.58" y2="164.2"/><line class="cls-3" x1="648.47" y1="159.53" x2="655.58" y2="159.53"/><line class="cls-3" x1="655.58" y1="164.33" x2="655.58" y2="170.35"/><line class="cls-3" x1="669.03" y1="174.75" x2="662.43" y2="174.75"/><line class="cls-3" x1="662.43" y1="172.28" x2="662.43" y2="174.75"/><line class="cls-3" x1="655.58" y1="170.35" x2="662.43" y2="172.15"/><line class="cls-3" x1="662.43" y1="174.75" x2="662.43" y2="178.08"/><line class="cls-3" x1="662.43" y1="178.08" x2="675.86" y2="178.08"/><line class="cls-3" x1="675.86" y1="184.67" x2="675.86" y2="174.75"/><line class="cls-3" x1="675.86" y1="178.08" x2="682.55" y2="178.08"/><line class="cls-3" x1="682.55" y1="164.2" x2="682.55" y2="178.08"/><line class="cls-3" x1="675.86" y1="174.75" x2="682.55" y2="174.75"/><rect class="cls-3" x="669.03" y="160.75" width="6.84" height="6"/><line class="cls-3" x1="655.58" y1="164.2" x2="662.85" y2="164.2"/><line class="cls-3" x1="662.85" y1="166.25" x2="662.85" y2="164.2"/><line class="cls-3" x1="664.85" y1="166.25" x2="662.85" y2="166.25"/><line class="cls-3" x1="664.85" y1="156.43" x2="664.85" y2="166.25"/><line class="cls-3" x1="664.85" y1="156.43" x2="680.33" y2="156.43"/><line class="cls-3" x1="664.85" y1="156.43" x2="663.35" y2="156.43"/><line class="cls-3" x1="661.88" y1="164.2" x2="661.88" y2="161.34"/><line class="cls-3" x1="661.88" y1="161.34" x2="663.35" y2="156.43"/><line class="cls-3" x1="648.47" y1="146.25" x2="664.3" y2="146.25"/><line class="cls-3" x1="664.3" y1="149.05" x2="664.3" y2="146.25"/><line class="cls-3" x1="648.47" y1="153.08" x2="655.67" y2="153.08"/><line class="cls-3" x1="655.67" y1="150.6" x2="655.67" y2="153.08"/><line class="cls-3" x1="655.67" y1="150.6" x2="664.3" y2="149.05"/><line class="cls-3" x1="655.67" y1="150.6" x2="655.67" y2="146.25"/><line class="cls-3" x1="669.78" y1="148" x2="669.78" y2="140.92"/><line class="cls-3" x1="647.37" y1="140.92" x2="683.04" y2="140.92"/><line class="cls-3" x1="674.95" y1="140.92" x2="674.95" y2="147.03"/><line class="cls-3" x1="669.78" y1="148" x2="674.95" y2="147.03"/><path class="cls-3" d="M752,549a14,14,0,0,0,9.93-10.81" transform="translate(-77 -402)"/><line class="cls-3" x1="684.88" y1="136.22" x2="688.53" y2="115.6"/><line class="cls-3" x1="688.53" y1="115.6" x2="641.73" y2="107.2"/><line class="cls-3" x1="647.37" y1="140.92" x2="647.37" y2="114.57"/><line class="cls-3" x1="650.18" y1="114.57" x2="647.37" y2="114.57"/><line class="cls-3" x1="650.18" y1="114.57" x2="651.22" y2="108.9"/><line class="cls-3" x1="682.8" y1="104.33" x2="681.06" y2="114.26"/><line class="cls-3" x1="762.3" y1="178" x2="783.93" y2="178"/><line class="cls-3" x1="769.2" y1="178" x2="769.2" y2="204.7"/><line class="cls-3" x1="783.93" y1="178" x2="783.93" y2="180.25"/><line class="cls-3" x1="789.33" y1="180.25" x2="783.93" y2="180.25"/><line class="cls-3" x1="789.33" y1="180.25" x2="789.33" y2="204.23"/><line class="cls-3" x1="789.34" y1="165.3" x2="789.34" y2="113.86"/><line class="cls-3" x1="795.9" y1="204.23" x2="795.9" y2="186.87"/><line class="cls-3" x1="789.33" y1="186.87" x2="795.9" y2="186.87"/><line class="cls-3" x1="809.2" y1="205.73" x2="809.2" y2="194.97"/><line class="cls-3" x1="795.9" y1="194.97" x2="822.67" y2="194.97"/><line class="cls-3" x1="783.93" y1="178" x2="783.93" y2="169.07"/><line class="cls-3" x1="789.33" y1="169.07" x2="778.23" y2="169.07"/><line class="cls-3" x1="762.3" y1="164.43" x2="782.57" y2="164.43"/><line class="cls-3" x1="778.23" y1="169.07" x2="778.23" y2="164.43"/><line class="cls-3" x1="782.57" y1="113.86" x2="782.57" y2="165.3"/><line class="cls-3" x1="782.57" y1="165.3" x2="789.33" y2="165.3"/><line class="cls-3" x1="782.57" y1="113.86" x2="789.34" y2="113.86"/><line class="cls-3" x1="782.57" y1="118.87" x2="776.7" y2="118.87"/><line class="cls-3" x1="776.7" y1="123.93" x2="776.7" y2="118.87"/><line class="cls-3" x1="776.7" y1="123.93" x2="762.3" y2="123.93"/><line class="cls-3" x1="782.57" y1="123.93" x2="789.34" y2="123.93"/><line class="cls-3" x1="782.57" y1="136.53" x2="789.34" y2="136.53"/><line class="cls-3" x1="782.57" y1="144.27" x2="789.34" y2="144.27"/><line class="cls-3" x1="782.57" y1="107.25" x2="782.57" y2="83.2"/><line class="cls-3" x1="782.57" y1="107.25" x2="796.18" y2="107.25"/><line class="cls-3" x1="796.18" y1="113.1" x2="796.18" y2="93.53"/><line class="cls-3" x1="789.1" y1="93.53" x2="789.1" y2="107.25"/><line class="cls-3" x1="782.57" y1="103.7" x2="789.1" y2="103.7"/><line class="cls-3" x1="782.57" y1="93.53" x2="802.6" y2="93.53"/><line class="cls-3" x1="802.6" y1="83.2" x2="802.6" y2="107.25"/><line class="cls-3" x1="796.18" y1="107.25" x2="802.6" y2="107.25"/><line class="cls-3" x1="796.18" y1="103.7" x2="802.6" y2="103.7"/><rect class="cls-3" x="788.85" y="79.22" width="7.42" height="6.75"/><line class="cls-3" x1="544.62" y1="103.8" x2="544.62" y2="98.78"/><line class="cls-3" x1="481.93" y1="98.81" x2="481.93" y2="103.8"/><line class="cls-3" x1="443.03" y1="98.81" x2="447.65" y2="98.81"/><line class="cls-3" x1="672.44" y1="147.5" x2="673.9" y2="156.43"/><line class="cls-3" x1="702.73" y1="184.67" x2="702.73" y2="204.7"/><line class="cls-3" x1="1412.8" y1="121.5" x2="1412.8" y2="112.2"/><rect class="cls-3" x="1505.99" y="532.98" width="9.47" height="9.47" transform="translate(331.59 -1029.08) rotate(26.99)"/><line class="cls-3" x1="1311.93" y1="121.7" x2="1428.7" y2="121.7"/><line class="cls-3" x1="1428.7" y1="121.7" x2="1428.7" y2="127.83"/><line class="cls-3" x1="1428.7" y1="127.83" x2="1431.66" y2="129.35"/><line class="cls-3" x1="1435.8" y1="142.08" x2="1429.59" y2="154.26"/><line class="cls-3" x1="1429.59" y1="154.26" x2="1437.42" y2="158.31"/><line class="cls-3" x1="1453.15" y1="102.3" x2="1453.15" y2="127.63"/><line class="cls-3" x1="1437.42" y1="158.31" x2="1453.15" y2="127.63"/><line class="cls-3" x1="1461.11" y1="138.64" x2="1464.23" y2="132.65"/><line class="cls-3" x1="1463.88" y1="119.98" x2="1463.88" y2="132.65"/><line class="cls-3" x1="1463.88" y1="132.65" x2="1473.2" y2="132.65"/><line class="cls-3" x1="1453.15" y1="119.98" x2="1473.2" y2="119.98"/><line class="cls-3" x1="1473.2" y1="128.03" x2="1473.2" y2="119.98"/><line class="cls-3" x1="1463.88" y1="128.03" x2="1473.2" y2="128.03"/><line class="cls-3" x1="1470.48" y1="128.03" x2="1470.48" y2="132.65"/><line class="cls-3" x1="1473.2" y1="132.65" x2="1473.2" y2="166.58"/><line class="cls-3" x1="1432.5" y1="202.92" x2="1454.6" y2="202.92"/><line class="cls-3" x1="1454.6" y1="202.92" x2="1473.2" y2="166.58"/><line class="cls-3" x1="1463.44" y1="198.72" x2="1479.07" y2="168.18"/><line class="cls-3" x1="1479.07" y1="168.18" x2="1479.07" y2="109.55"/><line class="cls-3" x1="1470.75" y1="82.05" x2="1470.75" y2="109.45"/><line class="cls-3" x1="1474.2" y1="109.45" x2="1470.75" y2="109.45"/><line class="cls-3" x1="1474.2" y1="103.18" x2="1474.2" y2="109.45"/><line class="cls-3" x1="1470.75" y1="103.18" x2="1474.2" y2="103.18"/><line class="cls-3" x1="1507.35" y1="109.55" x2="1479.07" y2="109.55"/><line class="cls-3" x1="1479.2" y1="82.05" x2="1480.57" y2="82.05"/><line class="cls-3" x1="1480.57" y1="82.05" x2="1480.57" y2="109.45"/><line class="cls-3" x1="1474.2" y1="105.35" x2="1480.57" y2="105.35"/><line class="cls-3" x1="1507.35" y1="140.7" x2="1499.4" y2="140.7"/><line class="cls-3" x1="1499.4" y1="131.93" x2="1499.4" y2="140.7"/><line class="cls-3" x1="1499.4" y1="131.93" x2="1511.93" y2="131.93"/><line class="cls-3" x1="1494.77" y1="199.3" x2="1480.9" y2="192.23"/><line class="cls-3" x1="1483.83" y1="186.35" x2="1472.73" y2="180.7"/><line class="cls-3" x1="1474.59" y1="204.41" x2="1483.83" y2="186.35"/><line class="cls-3" x1="1488.55" y1="211.52" x2="1463.44" y2="198.72"/><line class="cls-3" x1="1485.82" y1="216.88" x2="1460.71" y2="204.08"/><line class="cls-3" x1="1480" y1="225.52" x2="1460.44" y2="215.55"/><line class="cls-3" x1="1462.74" y1="216.54" x2="1467.36" y2="207.52"/><line class="cls-3" x1="1460.44" y1="215.55" x2="1460.44" y2="204.58"/><line class="cls-3" x1="1465.2" y1="206.37" x2="1467.94" y2="201.02"/><line class="cls-3" x1="1474.01" y1="222.47" x2="1472.47" y2="225.57"/><line class="cls-3" x1="1460.44" y1="207.63" x2="1444.37" y2="207.63"/><line class="cls-3" x1="1444.37" y1="202.92" x2="1444.37" y2="207.63"/><line class="cls-3" x1="1450.98" y1="202.92" x2="1450.98" y2="207.63"/><line class="cls-3" x1="1458.6" y1="195.11" x2="1437.7" y2="184.46"/><line class="cls-3" x1="1463.74" y1="185.03" x2="1442.84" y2="174.38"/><line class="cls-3" x1="1469.47" y1="173.78" x2="1448.57" y2="163.13"/><line class="cls-3" x1="1473.2" y1="162.43" x2="1453.93" y2="152.61"/><line class="cls-3" x1="1473.2" y1="148.16" x2="1459.76" y2="141.31"/><line class="cls-3" x1="1460.71" y1="204.08" x2="1460.44" y2="204.58"/><line class="cls-3" x1="1486.05" y1="194.81" x2="1490.59" y2="185.95"/><line class="cls-3" x1="1499.3" y1="190.39" x2="1490.59" y2="185.95"/><line class="cls-3" x1="1453.15" y1="111.6" x2="1463.88" y2="111.6"/><line class="cls-3" x1="1463.88" y1="102.3" x2="1463.88" y2="111.6"/><line class="cls-3" x1="1463.88" y1="104.47" x2="1470.75" y2="104.47"/><line class="cls-3" x1="1463.88" y1="102.3" x2="1424.1" y2="102.3"/><line class="cls-3" x1="1424.1" y1="108.13" x2="1424.1" y2="102.3"/><line class="cls-3" x1="1424.1" y1="108.13" x2="1453.15" y2="108.13"/><line class="cls-3" x1="1417.05" y1="77.45" x2="1417.05" y2="112.2"/><line class="cls-3" x1="1417.05" y1="104.47" x2="1424.1" y2="104.47"/><line class="cls-3" x1="1417.05" y1="104.15" x2="1386.13" y2="104.15"/><line class="cls-3" x1="1417.05" y1="112.2" x2="1406.1" y2="112.2"/><line class="cls-3" x1="1406.1" y1="104.15" x2="1406.1" y2="112.2"/><line class="cls-3" x1="1386.13" y1="112.2" x2="1386.13" y2="77.45"/><line class="cls-3" x1="1392.75" y1="104.15" x2="1392.75" y2="112.2"/><line class="cls-3" x1="1392.75" y1="112.2" x2="1376.95" y2="112.2"/><line class="cls-3" x1="1376.95" y1="121.7" x2="1376.95" y2="77.45"/><line class="cls-3" x1="1334.35" y1="77.45" x2="1334.35" y2="114.9"/><line class="cls-3" x1="1376.95" y1="114.9" x2="1334.35" y2="114.9"/><line class="cls-3" x1="1311.93" y1="103.4" x2="1334.35" y2="103.4"/><line class="cls-3" x1="1311.93" y1="111.63" x2="1328.17" y2="111.63"/><line class="cls-3" x1="1328.17" y1="103.4" x2="1328.17" y2="121.7"/><line class="cls-3" x1="1401.59" y1="104.15" x2="1401.59" y2="77.45"/><rect class="cls-2" x="23.5" y="0.5" width="281.9" height="102"/><line class="cls-4" x1="522.5" y1="175.23" x2="522.5" y2="125.77"/><line class="cls-4" x1="582.5" y1="184.67" x2="582.5" y2="72.57"/><line class="cls-4" x1="800.37" y1="252.73" x2="841.67" y2="252.73"/><line class="cls-4" x1="680.53" y1="252.73" x2="784.27" y2="252.73"/><line class="cls-4" x1="560.15" y1="252.73" x2="664.25" y2="252.73"/><line class="cls-4" x1="560.15" y1="260.9" x2="560.15" y2="252.73"/><line class="cls-4" x1="544.05" y1="260.9" x2="560.15" y2="260.9"/><line class="cls-4" x1="544.05" y1="252.73" x2="544.05" y2="260.9"/><line class="cls-4" x1="522.5" y1="252.73" x2="544.05" y2="252.73"/><line class="cls-4" x1="522.5" y1="224.73" x2="522.5" y2="252.73"/><line class="cls-4" x1="534.5" y1="224.73" x2="522.5" y2="224.73"/><line class="cls-4" x1="534.5" y1="224.73" x2="534.5" y2="205.73"/><line class="cls-4" x1="522.5" y1="205.73" x2="534.5" y2="205.73"/><line class="cls-4" x1="522.5" y1="174.73" x2="522.5" y2="205.73"/><line class="cls-4" x1="420.5" y1="72.5" x2="420.5" y2="125.77"/><line class="cls-4" x1="362.5" y1="281.5" x2="331.5" y2="281.5"/><line class="cls-4" x1="362.5" y1="289.5" x2="362.5" y2="281.5"/><line class="cls-4" x1="362.5" y1="290.5" x2="362.5" y2="289.5"/><line class="cls-4" x1="379.5" y1="281.5" x2="379.5" y2="290.5"/><line class="cls-4" x1="362.5" y1="290.5" x2="379.5" y2="290.5"/><line class="cls-4" x1="305.5" y1="102.5" x2="305.5" y2="0.5"/><line class="cls-4" x1="23.5" y1="0.5" x2="305.5" y2="0.5"/><line class="cls-4" x1="23.5" y1="102.5" x2="23.5" y2="0.5"/><line class="cls-4" x1="204.5" y1="102.5" x2="23.5" y2="102.5"/><line class="cls-4" x1="305.5" y1="102.5" x2="204.5" y2="102.5"/><line class="cls-4" x1="286.5" y1="120.5" x2="234.5" y2="120.5"/><line class="cls-4" x1="234.5" y1="170.5" x2="234.5" y2="120.5"/><line class="cls-4" x1="231.5" y1="170.5" x2="234.5" y2="170.5"/><line class="cls-4" x1="227.5" y1="157.5" x2="231.5" y2="170.5"/><line class="cls-4" x1="215.5" y1="157.5" x2="227.5" y2="157.5"/><line class="cls-4" x1="222.5" y1="179.5" x2="215.5" y2="157.5"/><line class="cls-4" x1="216.5" y1="179.5" x2="222.5" y2="179.5"/><line class="cls-4" x1="179.5" y1="179.5" x2="216.5" y2="179.5"/><line class="cls-4" x1="179.5" y1="120.5" x2="179.5" y2="179.5"/><line class="cls-4" x1="128.5" y1="120.5" x2="179.5" y2="120.5"/><line class="cls-4" x1="128.5" y1="179.5" x2="128.5" y2="121"/><line class="cls-4" x1="72.5" y1="179.5" x2="128.5" y2="179.5"/><line class="cls-4" x1="72.5" y1="120.5" x2="72.5" y2="179.5"/><line class="cls-4" x1="20.5" y1="120.5" x2="72.5" y2="120.5"/><line class="cls-4" x1="20.5" y1="223.5" x2="20.5" y2="120.5"/><line class="cls-4" x1="191.8" y1="223.5" x2="20.5" y2="223.5"/><line class="cls-4" x1="273.5" y1="201.5" x2="236.5" y2="201.5"/><line class="cls-4" x1="286.5" y1="188.5" x2="273.5" y2="201.5"/><line class="cls-4" x1="286.5" y1="120.5" x2="286.5" y2="188.5"/><line class="cls-4" x1="207.5" y1="223.5" x2="228.5" y2="207.5"/><line class="cls-4" x1="228.5" y1="207.5" x2="236.5" y2="201.5"/><line class="cls-4" x1="0.5" y1="250.5" x2="184.8" y2="250.5"/><line class="cls-4" x1="221.5" y1="294.5" x2="208.5" y2="250.5"/><line class="cls-4" x1="207.5" y1="294.5" x2="216.5" y2="294.5"/><line class="cls-4" x1="216.5" y1="294.5" x2="221.5" y2="294.5"/><line class="cls-4" x1="207.5" y1="302.5" x2="207.5" y2="294.5"/><line class="cls-4" x1="246.5" y1="351.5" x2="207.5" y2="302.5"/><line class="cls-4" x1="223.5" y1="351.5" x2="246.5" y2="351.5"/><line class="cls-4" x1="202.5" y1="376.5" x2="223.5" y2="351.5"/><line class="cls-4" x1="182.5" y1="363.5" x2="202.5" y2="376.5"/><line class="cls-4" x1="52.5" y1="367.5" x2="182.5" y2="363.5"/><line class="cls-4" x1="52.5" y1="363.5" x2="52.5" y2="367.5"/><line class="cls-4" x1="36.5" y1="368.5" x2="52.5" y2="363.5"/><line class="cls-4" x1="0.5" y1="250.5" x2="36.5" y2="368.5"/><circle class="cls-4" cx="340" cy="335" r="21.5"/><circle class="cls-4" cx="303" cy="362" r="21.5"/><circle class="cls-4" cx="815" cy="320" r="21.5"/><circle class="cls-4" cx="778" cy="347" r="21.5"/><circle class="cls-4" cx="1114" cy="321" r="21.5"/><circle class="cls-4" cx="1077" cy="348" r="21.5"/><circle class="cls-4" cx="912.61" cy="348.52" r="21.5"/><circle class="cls-4" cx="876.39" cy="320.48" r="21.5"/><circle class="cls-4" cx="614.61" cy="347.52" r="21.5"/><circle class="cls-4" cx="578.39" cy="319.48" r="21.5"/><line class="cls-4" x1="1576.2" y1="373.67" x2="1592.59" y2="496.19"/><line class="cls-4" x1="1579.33" y1="368.8" x2="1576.2" y2="373.67"/><line class="cls-4" x1="1615.53" y1="367" x2="1579.33" y2="368.8"/><path class="cls-4" d="M1691.5,778.75a6,6,0,0,0,3.25-5.25,6.08,6.08,0,0,0-2.22-4.5" transform="translate(-77 -402)"/><line class="cls-4" x1="1617.75" y1="406.56" x2="1614.5" y2="376.75"/><line class="cls-4" x1="1679.27" y1="406.45" x2="1617.75" y2="406.56"/><line class="cls-4" x1="1678.33" y1="361.13" x2="1679.27" y2="406.45"/><line class="cls-4" x1="1680.13" y1="358.93" x2="1678.33" y2="361.13"/><line class="cls-4" x1="1716.4" y1="359.97" x2="1680.13" y2="358.93"/><path class="cls-4" d="M1792.6,772.8c3-1.5,4.58-4.59,3.9-7.2a6.08,6.08,0,0,0-3.1-3.63" transform="translate(-77 -402)"/><line class="cls-4" x1="1715.6" y1="405.68" x2="1715.6" y2="370.8"/><line class="cls-4" x1="1771.37" y1="393.47" x2="1715.6" y2="405.68"/><line class="cls-4" x1="1760.83" y1="349.11" x2="1771.37" y2="393.47"/><line class="cls-4" x1="1762.4" y1="345.6" x2="1760.83" y2="349.11"/><line class="cls-4" x1="1797.3" y1="338.2" x2="1762.4" y2="345.6"/><path class="cls-4" d="M1875.4,750.73a5.72,5.72,0,0,0-1.1-10.53" transform="translate(-77 -402)"/><line class="cls-4" x1="1826.48" y1="458.7" x2="1798.4" y2="348.73"/><line class="cls-4" x1="1820.9" y1="476.6" x2="1826.48" y2="458.7"/><line class="cls-4" x1="1797" y1="477.1" x2="1820.9" y2="476.6"/><line class="cls-4" x1="1779.92" y1="426.62" x2="1797" y2="477.1"/><line class="cls-4" x1="1715.6" y1="441.81" x2="1779.92" y2="426.62"/><line class="cls-4" x1="1715.6" y1="486.4" x2="1715.6" y2="441.81"/><line class="cls-4" x1="1705.13" y1="499.93" x2="1715.6" y2="486.4"/><line class="cls-4" x1="1680.33" y1="491.13" x2="1705.13" y2="499.93"/><line class="cls-4" x1="1678.9" y1="442.59" x2="1680.33" y2="491.13"/><line class="cls-4" x1="1621.45" y1="444.07" x2="1678.9" y2="442.59"/><line class="cls-4" x1="1626.2" y1="484.4" x2="1621.45" y2="444.07"/><line class="cls-4" x1="1619.8" y1="497.27" x2="1626.2" y2="484.4"/><line class="cls-4" x1="1592.59" y1="496.19" x2="1619.8" y2="497.27"/><line class="cls-4" x1="191.8" y1="223.5" x2="184.87" y2="250.5"/><line class="cls-4" x1="200.93" y1="223.5" x2="200.93" y2="250.5"/><line class="cls-4" x1="331.5" y1="272.45" x2="331.5" y2="281.5"/><line class="cls-4" x1="379.5" y1="281.5" x2="409.72" y2="281.5"/><line class="cls-4" x1="409.72" y1="281.5" x2="409.72" y2="272.37"/><line class="cls-4" x1="409.72" y1="272.37" x2="415.77" y2="266.32"/><line class="cls-4" x1="415.77" y1="266.32" x2="401.78" y2="252.33"/><line class="cls-4" x1="401.78" y1="118.5" x2="401.78" y2="252.33"/><path class="cls-4" d="M522.45,520.5" transform="translate(-77 -402)"/><path class="cls-4" d="M497.5,520.5" transform="translate(-77 -402)"/><path class="cls-4" d="M559.5,520.5" transform="translate(-77 -402)"/><path class="cls-4" d="M522.45,520.5" transform="translate(-77 -402)"/><line class="cls-4" x1="441.73" y1="81.53" x2="441.73" y2="75.47"/><path class="cls-4" d="M599.5,486.79a183.5,183.5,0,0,1-80.77-9.32" transform="translate(-77 -402)"/><path class="cls-4" d="M497.5,474.5c3.45,1.72,7.15,3.44,11.1,5.1q5.25,2.2,10.13,3.93" transform="translate(-77 -402)"/><path class="cls-4" d="M639.8,476.63a183.61,183.61,0,0,1-40.3,10.16" transform="translate(-77 -402)"/><line class="cls-4" x1="562.8" y1="80.9" x2="562.8" y2="74.63"/><path class="cls-4" d="M659.5,474.57c-3.08,1.52-6.38,3.05-9.9,4.53s-6.66,2.69-9.8,3.8" transform="translate(-77 -402)"/><line class="cls-4" x1="841.67" y1="244.2" x2="841.67" y2="252.73"/><line class="cls-4" x1="1480" y1="225.57" x2="1432.5" y2="225.57"/><line class="cls-4" x1="1480" y1="225.57" x2="1481.13" y2="226.13"/><line class="cls-4" x1="1481.13" y1="226.13" x2="1505.4" y2="178.4"/><line class="cls-4" x1="1505.4" y1="178.4" x2="1511.93" y2="178.4"/><line class="cls-4" x1="1511.93" y1="178.4" x2="1511.93" y2="147"/><line class="cls-4" x1="1507.35" y1="147" x2="1511.93" y2="147"/><line class="cls-4" x1="1507.35" y1="140.7" x2="1507.35" y2="147"/><line class="cls-4" x1="1511.93" y1="140.7" x2="1507.35" y2="140.7"/><line class="cls-4" x1="1511.93" y1="109.55" x2="1511.93" y2="140.7"/><line class="cls-4" x1="1507.35" y1="109.55" x2="1511.93" y2="109.55"/><line class="cls-4" x1="1507.35" y1="102.5" x2="1507.35" y2="109.55"/><line class="cls-4" x1="1511.93" y1="102.5" x2="1507.35" y2="102.5"/><line class="cls-4" x1="1511.93" y1="72" x2="1511.93" y2="102.5"/><line class="cls-4" x1="1479.2" y1="72" x2="1511.93" y2="72"/><line class="cls-4" x1="1479.2" y1="82.05" x2="1479.2" y2="72"/><line class="cls-4" x1="1470.75" y1="82.05" x2="1479.2" y2="82.05"/><line class="cls-4" x1="1470.75" y1="72" x2="1470.75" y2="82.05"/><line class="cls-4" x1="1417.65" y1="72" x2="1470.75" y2="72"/><line class="cls-4" x1="1417.65" y1="77.45" x2="1417.65" y2="72"/><line class="cls-4" x1="1377.4" y1="77.45" x2="1417.65" y2="77.45"/><line class="cls-4" x1="1334.35" y1="77.45" x2="1377.4" y2="77.45"/><line class="cls-4" x1="1334.35" y1="72" x2="1334.35" y2="77.45"/><line class="cls-4" x1="1311.93" y1="72" x2="1334.35" y2="72"/><line class="cls-4" x1="1311.93" y1="72" x2="1311.93" y2="103.4"/><line class="cls-4" x1="1310.2" y1="103.4" x2="1311.93" y2="103.4"/><line class="cls-4" x1="1310.2" y1="111.63" x2="1310.2" y2="103.4"/><line class="cls-4" x1="1311.93" y1="111.63" x2="1310.2" y2="111.63"/><line class="cls-4" x1="1311.93" y1="121.6" x2="1311.93" y2="111.63"/><line class="cls-4" x1="1298.53" y1="121.6" x2="1311.93" y2="121.6"/><line class="cls-4" x1="1298.53" y1="228.6" x2="1298.53" y2="121.6"/><line class="cls-4" x1="680.35" y1="260.9" x2="680.35" y2="252.73"/><line class="cls-4" x1="664.25" y1="260.9" x2="680.35" y2="260.9"/><line class="cls-4" x1="664.25" y1="252.73" x2="664.25" y2="260.9"/><line class="cls-4" x1="800.37" y1="260.9" x2="800.37" y2="252.73"/><line class="cls-4" x1="784.27" y1="260.9" x2="800.37" y2="260.9"/><line class="cls-4" x1="784.27" y1="252.73" x2="784.27" y2="260.9"/><line class="cls-4" x1="841.67" y1="244.2" x2="822.2" y2="224.73"/><line class="cls-4" x1="822.2" y1="224.73" x2="809.2" y2="224.73"/><line class="cls-4" x1="809.2" y1="205.73" x2="809.2" y2="224.73"/><line class="cls-4" x1="822.67" y1="205.73" x2="809.2" y2="205.73"/><line class="cls-4" x1="822.67" y1="205.47" x2="822.67" y2="83.2"/><line class="cls-4" x1="800.87" y1="83.2" x2="822.67" y2="83.2"/><line class="cls-4" x1="800.87" y1="75.05" x2="800.87" y2="83.2"/><line class="cls-4" x1="784.65" y1="83.2" x2="784.65" y2="75.05"/><line class="cls-4" x1="784.65" y1="75.05" x2="800.87" y2="75.05"/><line class="cls-4" x1="762.3" y1="83.2" x2="784.65" y2="83.2"/><line class="cls-4" x1="762.3" y1="83.2" x2="762.3" y2="184.67"/><line class="cls-4" x1="702.73" y1="184.67" x2="762.3" y2="184.67"/><line class="cls-4" x1="702.73" y1="164.2" x2="702.73" y2="184.67"/><line class="cls-4" x1="680.33" y1="164.2" x2="702.73" y2="164.2"/><line class="cls-4" x1="680.33" y1="155.73" x2="680.33" y2="164.2"/><line class="cls-4" x1="689.2" y1="155.73" x2="680.33" y2="155.73"/><line class="cls-4" x1="689.2" y1="155.73" x2="698.4" y2="104.33"/><line class="cls-4" x1="698.4" y1="104.33" x2="682.8" y2="104.33"/><line class="cls-4" x1="682.8" y1="104.33" x2="687.67" y2="77.67"/><line class="cls-4" x1="687.67" y1="77.67" x2="641.73" y2="77.67"/><line class="cls-4" x1="641.73" y1="77.67" x2="641.73" y2="146.53"/><line class="cls-4" x1="648.47" y1="146.53" x2="641.73" y2="146.53"/><line class="cls-4" x1="648.47" y1="164.2" x2="648.47" y2="146.53"/><line class="cls-4" x1="641.73" y1="164.2" x2="648.47" y2="164.2"/><line class="cls-4" x1="641.73" y1="184.67" x2="641.73" y2="164.2"/><line class="cls-4" x1="641.73" y1="184.67" x2="582.5" y2="184.67"/><line class="cls-4" x1="331.5" y1="272.45" x2="325.34" y2="266.28"/><line class="cls-4" x1="325.34" y1="266.28" x2="339.24" y2="252.33"/><line class="cls-4" x1="339.24" y1="252.33" x2="339.24" y2="118.5"/><path class="cls-4" d="M444.2,489" transform="translate(-77 -402)"/><path class="cls-4" d="M444.2,486.24" transform="translate(-77 -402)"/><path class="cls-4" d="M451,489" transform="translate(-77 -402)"/><path class="cls-4" d="M451,486.23" transform="translate(-77 -402)"/><path class="cls-4" d="M451,486.24" transform="translate(-77 -402)"/><path class="cls-4" d="M444.2,486.24" transform="translate(-77 -402)"/><line class="cls-4" x1="1331.64" y1="403.25" x2="1346.84" y2="370.17"/><line class="cls-4" x1="1335.08" y1="414.88" x2="1338.9" y2="406.7"/><line class="cls-4" x1="1331.64" y1="403.25" x2="1338.9" y2="406.7"/><line class="cls-4" x1="1335.08" y1="414.88" x2="1376.77" y2="434.03"/><line class="cls-4" x1="1395.78" y1="392.65" x2="1376.77" y2="434.03"/><line class="cls-4" x1="1346.84" y1="370.17" x2="1395.78" y2="392.65"/><line class="cls-4" x1="1384.38" y1="417.46" x2="1393.6" y2="421.3"/><line class="cls-4" x1="1392.86" y1="399" x2="1398.95" y2="399"/><line class="cls-4" x1="1402.27" y1="373.13" x2="1398.95" y2="399"/><line class="cls-4" x1="1438.38" y1="380.92" x2="1402.27" y2="373.13"/><path class="cls-4" d="M1514.78,792.25a7.56,7.56,0,0,0,.6-9.33" transform="translate(-77 -402)"/><line class="cls-4" x1="1434.33" y1="405.47" x2="1437.73" y2="390.2"/><line class="cls-4" x1="1434.33" y1="405.47" x2="1484.9" y2="409.5"/><line class="cls-4" x1="1485.85" y1="378.05" x2="1484.9" y2="409.5"/><line class="cls-4" x1="1529.55" y1="382.62" x2="1485.85" y2="378.05"/><path class="cls-4" d="M1606.55,784.62a5.86,5.86,0,0,1,1.75,4,6.07,6.07,0,0,1-2.6,4.8" transform="translate(-77 -402)"/><line class="cls-4" x1="1519.6" y1="483.4" x2="1528.7" y2="391.45"/><line class="cls-4" x1="1508.53" y1="498.2" x2="1519.6" y2="483.4"/><line class="cls-4" x1="1483.8" y1="490.8" x2="1508.53" y2="498.2"/><line class="cls-4" x1="1485.6" y1="445.2" x2="1483.8" y2="490.8"/><line class="cls-4" x1="1423.8" y1="438.47" x2="1485.6" y2="445.2"/><line class="cls-4" x1="1418.87" y1="466.47" x2="1423.8" y2="438.47"/><line class="cls-4" x1="1405.67" y1="478.87" x2="1418.87" y2="466.47"/><line class="cls-4" x1="1384.87" y1="466.47" x2="1405.67" y2="478.87"/><line class="cls-4" x1="1393.6" y1="421.3" x2="1384.87" y2="466.47"/><line class="cls-4" x1="522.5" y1="125.77" x2="420.5" y2="125.77"/><line class="cls-4" x1="1287.2" y1="151.1" x2="1287.2" y2="112.67"/><line class="cls-4" x1="1182.7" y1="151.1" x2="1287.2" y2="151.1"/><line class="cls-4" x1="1182.7" y1="103.93" x2="1182.7" y2="151.1"/><line class="cls-4" x1="1173.33" y1="103.93" x2="1182.7" y2="103.93"/><line class="cls-4" x1="1173.33" y1="76.47" x2="1173.33" y2="103.93"/><line class="cls-4" x1="1182.7" y1="76.47" x2="1173.33" y2="76.47"/><line class="cls-4" x1="1182.7" y1="37.47" x2="1182.7" y2="76.47"/><line class="cls-4" x1="1287.2" y1="37.47" x2="1182.7" y2="37.47"/><line class="cls-4" x1="1287.2" y1="112.67" x2="1287.2" y2="37.47"/><path class="cls-4" d="M416.24,520.5a34.06,34.06,0,0,1,6.89-21.74c1.88-2.42,10.32-12.61,24.32-12.66,15-.05,23.69,11.53,25.1,13.47a34,34,0,0,1,6.23,20.93" transform="translate(-77 -402)"/><line class="cls-4" x1="0.5" y1="250.5" x2="36.5" y2="368.5"/><line class="cls-5" x1="138.77" y1="314.45" x2="141.81" y2="314.96"/><line class="cls-5" x1="374.01" y1="120.33" x2="376.36" y2="123.36"/><path class="cls-5" d="M445.76,528.19a9.64,9.64,0,0,0,4,0" transform="translate(-77 -402)"/><line class="cls-6" x1="1434.83" y1="130.96" x2="1437.83" y2="132.49"/><path class="cls-2" d="M301.6,762.87" transform="translate(-77 -402)"/><line class="cls-3" x1="565.28" y1="234.45" x2="562.1" y2="234.45"/><line class="cls-3" x1="789.33" y1="169.07" x2="789.33" y2="180.25"/><line class="cls-3" x1="1382.6" y1="112.2" x2="1382.6" y2="105.87"/><line class="cls-3" x1="1382.6" y1="105.87" x2="1386.13" y2="105.87"/><line class="cls-7" x1="229.68" y1="193.71" x2="232.65" y2="193.71"/><line class="cls-7" x1="237.02" y1="180.78" x2="237.02" y2="185.2"/><line class="cls-7" x1="242.13" y1="185.7" x2="244.51" y2="185.7"/><line class="cls-7" x1="250.61" y1="185.7" x2="252.95" y2="185.7"/><line class="cls-7" x1="254.3" y1="185.7" x2="256.61" y2="185.7"/><line class="cls-7" x1="263.23" y1="180.86" x2="263.23" y2="183.27"/><line class="cls-7" x1="263.23" y1="177.23" x2="263.23" y2="179.54"/><line class="cls-7" x1="257.83" y1="172.53" x2="257.83" y2="174.85"/><line class="cls-7" x1="263.23" y1="157.85" x2="263.23" y2="155.48"/><line class="cls-3" x1="257.83" y1="149.03" x2="263.23" y2="149.03"/><line class="cls-7" x1="258.3" y1="149.03" x2="262.77" y2="149.03"/><line class="cls-7" x1="257.83" y1="145.52" x2="257.83" y2="142.98"/><line class="cls-7" x1="242.93" y1="152.97" x2="245.43" y2="152.97"/><line class="cls-7" x1="246.69" y1="152.97" x2="249.05" y2="152.97"/><line class="cls-7" x1="257.83" y1="125.02" x2="257.83" y2="128.53"/><line class="cls-7" x1="263.23" y1="121.33" x2="263.23" y2="123.78"/><line class="cls-7" x1="269.77" y1="128.82" x2="269.77" y2="126.38"/><line class="cls-7" x1="263.23" y1="141.49" x2="263.23" y2="139.08"/><line class="cls-7" x1="263.23" y1="154.19" x2="263.23" y2="151.84"/><line class="cls-7" x1="202.07" y1="201.33" x2="204.57" y2="201.33"/><line class="cls-7" x1="195.32" y1="223.5" x2="199.79" y2="223.5"/><line class="cls-7" x1="193.7" y1="250.5" x2="198" y2="250.5"/><line class="cls-4" x1="200.93" y1="250.5" x2="208.5" y2="250.5"/><line class="cls-4" x1="200.93" y1="223.5" x2="207.5" y2="223.5"/><line class="cls-7" x1="191.75" y1="253.82" x2="191.75" y2="256.88"/><line class="cls-7" x1="191.75" y1="261.68" x2="191.75" y2="264.62"/><line class="cls-7" x1="192.11" y1="272.35" x2="195.55" y2="272.35"/><line class="cls-7" x1="198.83" y1="267.98" x2="198.83" y2="271.48"/><line class="cls-7" x1="181.68" y1="272.35" x2="184.15" y2="272.35"/><line class="cls-7" x1="181.68" y1="258.7" x2="184.15" y2="258.7"/><line class="cls-7" x1="179.05" y1="264.38" x2="179.05" y2="262.17"/><line class="cls-7" x1="179.05" y1="261.42" x2="179.05" y2="259.27"/><line class="cls-7" x1="165.45" y1="272.35" x2="167.88" y2="272.35"/><line class="cls-7" x1="156.63" y1="261.13" x2="159.23" y2="261.13"/><line class="cls-7" x1="63.47" y1="271.77" x2="63.47" y2="269.25"/><line class="cls-7" x1="20.86" y1="272.4" x2="23.34" y2="272.4"/><line class="cls-7" x1="16.35" y1="269.9" x2="18.94" y2="269.9"/><line class="cls-7" x1="15.83" y1="277.07" x2="15.83" y2="274.57"/><line class="cls-7" x1="8.4" y1="272.4" x2="11.98" y2="272.4"/><line class="cls-7" x1="168.3" y1="201.33" x2="172.5" y2="201.33"/><line class="cls-7" x1="162.55" y1="201.33" x2="166.82" y2="201.33"/><line class="cls-7" x1="168.3" y1="196.23" x2="170.5" y2="196.23"/><line class="cls-7" x1="166.82" y1="196.23" x2="164.52" y2="196.23"/><line class="cls-7" x1="151.07" y1="193.81" x2="155.48" y2="193.81"/><line class="cls-7" x1="139.42" y1="191.39" x2="141.72" y2="191.39"/><line class="cls-7" x1="138.57" y1="191.39" x2="136.25" y2="191.39"/><line class="cls-7" x1="135.48" y1="195.21" x2="135.48" y2="192.85"/><line class="cls-7" x1="150.6" y1="179.07" x2="150.6" y2="176.67"/><line class="cls-7" x1="156.03" y1="179.07" x2="156.03" y2="176.67"/><line class="cls-7" x1="156.03" y1="173.21" x2="156.03" y2="170.81"/><line class="cls-7" x1="151.08" y1="155.98" x2="155.45" y2="155.98"/><line class="cls-7" x1="150.6" y1="132.82" x2="150.6" y2="130.4"/><line class="cls-7" x1="156.03" y1="128.8" x2="156.03" y2="126.43"/><line class="cls-7" x1="150.6" y1="128.8" x2="150.6" y2="125.12"/><line class="cls-7" x1="152.88" y1="124.74" x2="155.37" y2="124.74"/><line class="cls-7" x1="136.67" y1="201.33" x2="139.07" y2="201.33"/><line class="cls-7" x1="129.7" y1="200.88" x2="129.7" y2="196.6"/><line class="cls-7" x1="122.43" y1="201.33" x2="126.2" y2="201.33"/><line class="cls-7" x1="117.4" y1="196.23" x2="119.87" y2="196.23"/><line class="cls-7" x1="106.21" y1="196.23" x2="108.71" y2="196.23"/><line class="cls-7" x1="96.61" y1="196.23" x2="99.11" y2="196.23"/><line class="cls-7" x1="114.97" y1="201.33" x2="117.4" y2="201.33"/><line class="cls-7" x1="83.34" y1="201.33" x2="85.98" y2="201.33"/><line class="cls-7" x1="83.34" y1="196.23" x2="85.98" y2="196.23"/><line class="cls-7" x1="82.39" y1="201.33" x2="79.8" y2="201.33"/><line class="cls-7" x1="82.39" y1="196.23" x2="79.8" y2="196.23"/><line class="cls-7" x1="72.5" y1="196.63" x2="72.5" y2="200.88"/><line class="cls-7" x1="49.76" y1="201.33" x2="52.38" y2="201.33"/><line class="cls-7" x1="38.3" y1="205.6" x2="40.85" y2="205.6"/><line class="cls-7" x1="29.78" y1="205.6" x2="32.35" y2="205.6"/><line class="cls-7" x1="28.73" y1="205.6" x2="26.18" y2="205.6"/><line class="cls-7" x1="44.57" y1="146.35" x2="48.23" y2="146.35"/><line class="cls-7" x1="48.95" y1="132.77" x2="48.95" y2="130.27"/><line class="cls-7" x1="48.95" y1="128.58" x2="48.95" y2="124.95"/><line class="cls-7" x1="369.2" y1="279.43" x2="372.83" y2="279.43"/><line class="cls-7" x1="368.58" y1="271.53" x2="373.4" y2="271.53"/><line class="cls-7" x1="368.58" y1="265.33" x2="373.4" y2="265.33"/><line class="cls-7" x1="360.58" y1="260.79" x2="360.58" y2="257.11"/><line class="cls-7" x1="374.4" y1="260.73" x2="374.4" y2="258.51"/><line class="cls-7" x1="388.4" y1="267.31" x2="388.4" y2="264.98"/><line class="cls-7" x1="396.83" y1="263.14" x2="398.53" y2="264.84"/><line class="cls-7" x1="401.4" y1="270.47" x2="401.4" y2="272.83"/><line class="cls-7" x1="401.4" y1="274.23" x2="401.4" y2="276.48"/><line class="cls-7" x1="373.32" y1="205.42" x2="373.32" y2="207.67"/><line class="cls-7" x1="385.71" y1="190.27" x2="389.71" y2="190.27"/><line class="cls-7" x1="369.2" y1="190.27" x2="372.75" y2="190.27"/><line class="cls-7" x1="368.48" y1="235.4" x2="368.48" y2="232.98"/><line class="cls-7" x1="368.48" y1="214.33" x2="368.48" y2="212.18"/><line class="cls-7" x1="368.48" y1="210.52" x2="368.48" y2="208.33"/><line class="cls-7" x1="368.48" y1="172.15" x2="368.48" y2="169.88"/><line class="cls-7" x1="368.48" y1="168.48" x2="368.48" y2="166.15"/><line class="cls-7" x1="373.32" y1="150.92" x2="373.32" y2="148.63"/><line class="cls-7" x1="388.05" y1="148.13" x2="390.35" y2="148.13"/><line class="cls-7" x1="373.32" y1="138.43" x2="373.32" y2="140.6"/><line class="cls-7" x1="376.65" y1="137.53" x2="378.97" y2="137.53"/><line class="cls-7" x1="376.65" y1="131.12" x2="378.97" y2="131.12"/><line class="cls-7" x1="380.57" y1="131.12" x2="382.68" y2="131.12"/><line class="cls-7" x1="384.93" y1="128.21" x2="384.93" y2="130.46"/><line class="cls-5" x1="374.2" y1="127.4" x2="374.2" y2="129.64"/><line class="cls-5" x1="360.5" y1="147.63" x2="360.5" y2="145.4"/><line class="cls-5" x1="357.05" y1="133.63" x2="357.05" y2="131.54"/><line class="cls-5" x1="357.05" y1="126.4" x2="357.05" y2="123.76"/><line class="cls-5" x1="357.05" y1="121.66" x2="357.05" y2="119.73"/><line class="cls-5" x1="357.05" y1="112.4" x2="357.05" y2="110.07"/><line class="cls-5" x1="358.05" y1="105.95" x2="360.3" y2="105.95"/><line class="cls-5" x1="384.92" y1="115.95" x2="384.92" y2="113.63"/><line class="cls-5" x1="394.1" y1="108.8" x2="394.1" y2="106.5"/><line class="cls-5" x1="441.59" y1="85.78" x2="444.47" y2="86.62"/><line class="cls-5" x1="441.08" y1="93.02" x2="441.08" y2="90.78"/><line class="cls-5" x1="431.67" y1="86.88" x2="433.78" y2="86.88"/><line class="cls-5" x1="430.25" y1="86.88" x2="428.03" y2="86.88"/><line class="cls-5" x1="426.78" y1="87.33" x2="426.78" y2="89.53"/><line class="cls-5" x1="429.63" y1="101.27" x2="429.63" y2="103.43"/><line class="cls-5" x1="430.53" y1="100.03" x2="433.07" y2="100.03"/><line class="cls-5" x1="435.53" y1="100.03" x2="437.33" y2="100.03"/><line class="cls-5" x1="438.95" y1="100.03" x2="440.67" y2="100.03"/><line class="cls-5" x1="441.08" y1="100.75" x2="441.08" y2="103.23"/><line class="cls-5" x1="443.42" y1="98.81" x2="447.28" y2="98.81"/><line class="cls-5" x1="448.76" y1="91.66" x2="448.76" y2="93.85"/><line class="cls-5" x1="456.73" y1="95.45" x2="459.57" y2="95.45"/><line class="cls-5" x1="465.7" y1="98.81" x2="467.92" y2="98.81"/><line class="cls-5" x1="469.38" y1="98.81" x2="471.53" y2="98.81"/><line class="cls-5" x1="443.9" y1="103.8" x2="446.13" y2="103.8"/><line class="cls-5" x1="445.08" y1="114.1" x2="447.33" y2="114.1"/><line class="cls-5" x1="444.53" y1="118.25" x2="444.53" y2="120.53"/><line class="cls-5" x1="428.14" y1="115.73" x2="430.39" y2="115.73"/><line class="cls-5" x1="463.25" y1="103.8" x2="465.52" y2="103.8"/><line class="cls-5" x1="481.93" y1="101.1" x2="481.93" y2="103.37"/><line class="cls-5" x1="486.08" y1="98.81" x2="488.38" y2="98.81"/><line class="cls-5" x1="489.17" y1="98.81" x2="491.43" y2="98.81"/><line class="cls-5" x1="497.28" y1="98.81" x2="499.53" y2="98.81"/><line class="cls-5" x1="504.1" y1="98.81" x2="506.4" y2="98.81"/><line class="cls-5" x1="514.28" y1="103.8" x2="516.6" y2="103.8"/><line class="cls-5" x1="515.37" y1="86.23" x2="515.37" y2="88.5"/><line class="cls-5" x1="541.76" y1="94.87" x2="539.98" y2="94.87"/><line class="cls-5" x1="544.62" y1="99.13" x2="544.62" y2="103.37"/><line class="cls-5" x1="536.78" y1="120.85" x2="536.78" y2="123.01"/><line class="cls-5" x1="536.78" y1="124.47" x2="536.78" y2="126.61"/><line class="cls-5" x1="541.9" y1="121.97" x2="544.07" y2="121.97"/><line class="cls-5" x1="549.78" y1="104.29" x2="549.78" y2="106.49"/><line class="cls-5" x1="557.62" y1="98.77" x2="561.92" y2="98.78"/><line class="cls-5" x1="557.62" y1="90.57" x2="561.92" y2="90.57"/><line class="cls-5" x1="562.8" y1="99.18" x2="562.8" y2="103.23"/><line class="cls-5" x1="568.13" y1="95.93" x2="568.13" y2="93.42"/><line class="cls-5" x1="563.23" y1="86.8" x2="565.43" y2="86.8"/><line class="cls-5" x1="565.62" y1="103.8" x2="567.98" y2="103.8"/><line class="cls-5" x1="570.55" y1="106.92" x2="570.55" y2="109.5"/><line class="cls-5" x1="554.82" y1="110.07" x2="554.82" y2="107.85"/><line class="cls-5" x1="554.82" y1="111.22" x2="554.82" y2="113.4"/><line class="cls-5" x1="554.82" y1="122.9" x2="554.82" y2="118.15"/><line class="cls-5" x1="550.25" y1="124.1" x2="554.32" y2="124.1"/><line class="cls-5" x1="563.2" y1="124.1" x2="567.24" y2="124.1"/><line class="cls-5" x1="568.89" y1="124.1" x2="571.31" y2="124.1"/><line class="cls-5" x1="559.15" y1="123.52" x2="561.6" y2="123.52"/><line class="cls-5" x1="562.52" y1="141.27" x2="562.52" y2="143.75"/><line class="cls-5" x1="554.82" y1="156.5" x2="554.82" y2="154"/><line class="cls-5" x1="574.2" y1="156.9" x2="574.2" y2="154.33"/><line class="cls-5" x1="574.2" y1="161.05" x2="574.2" y2="158.51"/><line class="cls-5" x1="570.48" y1="173.07" x2="570.48" y2="170.55"/><line class="cls-5" x1="574.2" y1="177.95" x2="574.2" y2="175.37"/><line class="cls-5" x1="577.35" y1="174.6" x2="579.82" y2="174.6"/><line class="cls-5" x1="570.48" y1="177.29" x2="570.48" y2="174.75"/><line class="cls-5" x1="549.78" y1="130.45" x2="549.78" y2="132.63"/><line class="cls-5" x1="536.78" y1="134.75" x2="536.78" y2="136.97"/><line class="cls-5" x1="536.78" y1="145.05" x2="536.78" y2="147.23"/><line class="cls-5" x1="536.78" y1="155.38" x2="536.78" y2="157.58"/><line class="cls-5" x1="536.78" y1="165.3" x2="536.78" y2="167.5"/><line class="cls-5" x1="536.78" y1="175.57" x2="536.78" y2="177.7"/><line class="cls-5" x1="531.28" y1="185.53" x2="531.28" y2="187.76"/><line class="cls-5" x1="549.78" y1="190.35" x2="549.78" y2="186.85"/><line class="cls-5" x1="554.82" y1="181.96" x2="554.82" y2="179.7"/><line class="cls-5" x1="555.63" y1="194.97" x2="555.63" y2="192.78"/><line class="cls-5" x1="555.63" y1="198.73" x2="555.63" y2="201.22"/><line class="cls-5" x1="562.1" y1="198.73" x2="562.1" y2="201.22"/><line class="cls-5" x1="550.2" y1="204.27" x2="554.98" y2="204.27"/><line class="cls-5" x1="550.2" y1="226.17" x2="554.98" y2="226.17"/><line class="cls-5" x1="546.11" y1="235.57" x2="548.3" y2="235.57"/><line class="cls-5" x1="559.48" y1="235.57" x2="561.68" y2="235.57"/><line class="cls-5" x1="559.13" y1="236" x2="559.13" y2="240.6"/><line class="cls-5" x1="542.45" y1="236" x2="542.45" y2="238.18"/><line class="cls-5" x1="532.1" y1="241.65" x2="532.1" y2="239.48"/><line class="cls-5" x1="532.1" y1="235.2" x2="532.1" y2="232.93"/><line class="cls-5" x1="532.1" y1="231.62" x2="532.1" y2="229.38"/><line class="cls-5" x1="551.3" y1="249.82" x2="553.27" y2="249.82"/><line class="cls-5" x1="550.11" y1="243.73" x2="554.45" y2="243.73"/><line class="cls-5" x1="564.95" y1="234.45" x2="562.65" y2="234.45"/><line class="cls-5" x1="562.65" y1="241.23" x2="564.95" y2="241.23"/><line class="cls-5" x1="583.18" y1="241.23" x2="585.42" y2="241.23"/><line class="cls-5" x1="583.18" y1="236.2" x2="585.42" y2="236.2"/><line class="cls-5" x1="589.38" y1="241.23" x2="591.38" y2="241.23"/><line class="cls-5" x1="595.65" y1="236.7" x2="595.65" y2="240.83"/><line class="cls-5" x1="599.4" y1="234.62" x2="601.58" y2="234.62"/><line class="cls-5" x1="599.4" y1="243" x2="601.58" y2="243"/><line class="cls-5" x1="605.3" y1="234.62" x2="602.98" y2="234.62"/><line class="cls-5" x1="602.98" y1="243" x2="605.3" y2="243"/><line class="cls-5" x1="612.75" y1="234.62" x2="614.86" y2="234.62"/><line class="cls-5" x1="612.75" y1="243" x2="614.86" y2="243"/><line class="cls-5" x1="616.33" y1="234.62" x2="618.59" y2="234.62"/><line class="cls-5" x1="618.59" y1="243" x2="616.33" y2="243"/><line class="cls-5" x1="626.1" y1="234.62" x2="628.23" y2="234.62"/><line class="cls-5" x1="626.1" y1="243" x2="628.23" y2="243"/><line class="cls-5" x1="631.98" y1="234.62" x2="629.81" y2="234.62"/><line class="cls-5" x1="631.98" y1="243" x2="629.81" y2="243"/><line class="cls-5" x1="639.72" y1="234.62" x2="641.87" y2="234.62"/><line class="cls-5" x1="639.5" y1="243" x2="641.55" y2="243"/><line class="cls-5" x1="645.33" y1="243" x2="643.17" y2="243"/><line class="cls-5" x1="652.78" y1="243" x2="654.95" y2="243"/><line class="cls-5" x1="656.5" y1="243" x2="658.65" y2="243"/><line class="cls-5" x1="656.5" y1="236.2" x2="658.65" y2="236.2"/><line class="cls-5" x1="662.47" y1="239.95" x2="662.47" y2="237.7"/><line class="cls-5" x1="670.23" y1="242.23" x2="674.67" y2="242.23"/><line class="cls-5" x1="666.4" y1="242.23" x2="668.6" y2="242.23"/><line class="cls-5" x1="676.27" y1="242.23" x2="678.33" y2="242.23"/><line class="cls-5" x1="666.37" y1="232.92" x2="668.72" y2="232.92"/><line class="cls-5" x1="678.48" y1="232.92" x2="676.17" y2="232.92"/><line class="cls-5" x1="670.05" y1="225.97" x2="674.75" y2="225.97"/><line class="cls-5" x1="669.93" y1="204.2" x2="674.9" y2="204.2"/><line class="cls-5" x1="682.48" y1="240.83" x2="682.48" y2="236.78"/><line class="cls-5" x1="686.15" y1="243" x2="688.33" y2="243"/><line class="cls-5" x1="686.15" y1="236.2" x2="688.33" y2="236.2"/><line class="cls-5" x1="689.84" y1="243" x2="692.08" y2="243"/><line class="cls-5" x1="699.53" y1="234.6" x2="701.63" y2="234.6"/><line class="cls-5" x1="703.25" y1="234.6" x2="705.4" y2="234.6"/><line class="cls-5" x1="699.53" y1="243" x2="701.63" y2="243"/><line class="cls-5" x1="703.25" y1="243" x2="705.4" y2="243"/><line class="cls-5" x1="712.88" y1="243" x2="715.01" y2="243"/><line class="cls-5" x1="716.59" y1="243" x2="718.74" y2="243"/><line class="cls-5" x1="716.59" y1="236.2" x2="718.74" y2="236.2"/><line class="cls-5" x1="726.22" y1="234.6" x2="728.4" y2="234.6"/><line class="cls-5" x1="726.22" y1="243" x2="728.4" y2="243"/><line class="cls-5" x1="729.9" y1="243" x2="732.08" y2="243"/><line class="cls-5" x1="729.9" y1="234.6" x2="732.08" y2="234.6"/><line class="cls-5" x1="735.82" y1="236.75" x2="735.82" y2="240.85"/><line class="cls-5" x1="739.58" y1="234.6" x2="741.72" y2="234.6"/><line class="cls-5" x1="739.58" y1="243" x2="741.72" y2="243"/><line class="cls-5" x1="743.27" y1="234.6" x2="745.47" y2="234.6"/><line class="cls-5" x1="743.27" y1="243" x2="745.47" y2="243"/><line class="cls-5" x1="752.93" y1="234.6" x2="755.05" y2="234.6"/><line class="cls-5" x1="752.93" y1="243" x2="755.05" y2="243"/><line class="cls-5" x1="756.62" y1="243" x2="758.78" y2="243"/><line class="cls-5" x1="756.62" y1="234.6" x2="758.78" y2="234.6"/><line class="cls-5" x1="769.9" y1="243" x2="772.15" y2="243"/><line class="cls-5" x1="766.3" y1="236.2" x2="768.5" y2="236.2"/><line class="cls-5" x1="776.85" y1="236.2" x2="779.05" y2="236.2"/><line class="cls-5" x1="776.85" y1="241.33" x2="779.05" y2="241.33"/><line class="cls-5" x1="782.47" y1="237.17" x2="782.47" y2="239.27"/><line class="cls-5" x1="784.73" y1="239.7" x2="787.18" y2="239.7"/><line class="cls-5" x1="790.3" y1="243.78" x2="794.85" y2="243.78"/><line class="cls-5" x1="798" y1="239.7" x2="800.37" y2="239.7"/><line class="cls-5" x1="789.33" y1="232.3" x2="789.33" y2="234.32"/><line class="cls-5" x1="789.33" y1="228.92" x2="789.33" y2="230.92"/><line class="cls-5" x1="795.9" y1="228.92" x2="795.9" y2="230.92"/><line class="cls-5" x1="795.9" y1="232.3" x2="795.9" y2="234.32"/><line class="cls-5" x1="802.75" y1="237.17" x2="802.75" y2="239.27"/><line class="cls-5" x1="790.28" y1="225.97" x2="794.82" y2="225.97"/><line class="cls-5" x1="576.63" y1="191.57" x2="576.63" y2="189.03"/><line class="cls-5" x1="572.83" y1="195.38" x2="575.03" y2="195.38"/><line class="cls-5" x1="669.03" y1="188.53" x2="669.03" y2="186.3"/><line class="cls-5" x1="675.86" y1="188.53" x2="675.86" y2="186.3"/><line class="cls-5" x1="655.75" y1="188.53" x2="655.75" y2="186.3"/><line class="cls-5" x1="669.03" y1="183.23" x2="669.03" y2="180.9"/><line class="cls-5" x1="675.86" y1="183.23" x2="675.86" y2="180.9"/><line class="cls-5" x1="670.13" y1="178.08" x2="674.7" y2="178.08"/><line class="cls-5" x1="655.98" y1="164.2" x2="661.5" y2="164.2"/><line class="cls-5" x1="649.57" y1="159.53" x2="652.02" y2="159.53"/><line class="cls-5" x1="650.82" y1="153.08" x2="653.23" y2="153.08"/><line class="cls-5" x1="669.78" y1="144.27" x2="669.78" y2="141.85"/><line class="cls-5" x1="672.54" y1="148.08" x2="673.62" y2="154.7"/><line class="cls-5" x1="683.27" y1="114.66" x2="687.81" y2="115.47"/><line class="cls-5" x1="681.77" y1="110.22" x2="682.56" y2="105.67"/><line class="cls-5" x1="647.37" y1="118.55" x2="647.37" y2="123.2"/><line class="cls-5" x1="642.74" y1="107.38" x2="645.79" y2="107.93"/><line class="cls-5" x1="790.28" y1="204.23" x2="794.82" y2="204.23"/><line class="cls-5" x1="797.13" y1="194.97" x2="799.33" y2="194.97"/><line class="cls-5" x1="795.9" y1="190.91" x2="795.9" y2="188.59"/><line class="cls-5" x1="794.85" y1="186.87" x2="790.26" y2="186.87"/><line class="cls-5" x1="789.33" y1="191.5" x2="789.33" y2="193.78"/><line class="cls-5" x1="781.1" y1="169.07" x2="783.27" y2="169.07"/><line class="cls-5" x1="779.03" y1="164.43" x2="781.1" y2="164.43"/><line class="cls-5" x1="789.34" y1="153.88" x2="789.34" y2="151.53"/><line class="cls-5" x1="789.34" y1="143.48" x2="789.34" y2="141.15"/><line class="cls-5" x1="789.34" y1="128.13" x2="789.34" y2="125.58"/><line class="cls-5" x1="789.34" y1="123.23" x2="789.34" y2="120.68"/><line class="cls-5" x1="777.1" y1="118.87" x2="781.83" y2="118.87"/><line class="cls-5" x1="790.25" y1="107.25" x2="794.82" y2="107.25"/><line class="cls-5" x1="789.1" y1="96.06" x2="789.1" y2="93.84"/><line class="cls-5" x1="796.18" y1="96.06" x2="796.18" y2="93.84"/><line class="cls-5" x1="790.23" y1="93.53" x2="794.86" y2="93.53"/><line class="cls-5" x1="791.63" y1="85.97" x2="793.56" y2="85.97"/><line class="cls-5" x1="1453.15" y1="112.95" x2="1453.15" y2="118.63"/><line class="cls-5" x1="1453.15" y1="121.12" x2="1453.15" y2="123.72"/><line class="cls-5" x1="1465.05" y1="119.98" x2="1467.6" y2="119.98"/><line class="cls-3" x1="1479.07" y1="124" x2="1473.2" y2="124"/><line class="cls-5" x1="1473.6" y1="124" x2="1478.6" y2="124"/><line class="cls-5" x1="1470.48" y1="129.38" x2="1470.48" y2="131.85"/><line class="cls-5" x1="1473.2" y1="133.65" x2="1473.2" y2="136.23"/><line class="cls-5" x1="1479.07" y1="142.47" x2="1479.07" y2="144.93"/><line class="cls-5" x1="1473.2" y1="149.11" x2="1473.2" y2="151.64"/><line class="cls-3" x1="1473.2" y1="162.53" x2="1479.07" y2="162.53"/><line class="cls-5" x1="1473.59" y1="162.53" x2="1478.71" y2="162.53"/><line class="cls-5" x1="1499.4" y1="135.03" x2="1499.4" y2="132.62"/><line class="cls-5" x1="1473.11" y1="179.82" x2="1474.26" y2="177.57"/><line class="cls-5" x1="1471.05" y1="183.84" x2="1472.2" y2="181.59"/><line class="cls-5" x1="1480.87" y1="184.85" x2="1483.13" y2="186"/><line class="cls-5" x1="1481.96" y1="192.77" x2="1484.22" y2="193.93"/><line class="cls-5" x1="1490.2" y1="186.71" x2="1489.06" y2="188.93"/><line class="cls-3" x1="1475.43" y1="211.61" x2="1478.17" y2="206.26"/><line class="cls-5" x1="1465.71" y1="205.39" x2="1467.5" y2="201.88"/><line class="cls-5" x1="1475.94" y1="210.63" x2="1477.73" y2="207.12"/><line class="cls-5" x1="1479.97" y1="213.89" x2="1483.92" y2="215.91"/><line class="cls-5" x1="1456.2" y1="207.63" x2="1459.48" y2="207.63"/><line class="cls-5" x1="1450.98" y1="206.3" x2="1450.98" y2="203.82"/><line class="cls-5" x1="1455.4" y1="201.37" x2="1456.59" y2="199.04"/><line class="cls-5" x1="1463.18" y1="186.16" x2="1462.05" y2="188.38"/><line class="cls-5" x1="1464.41" y1="183.76" x2="1465.6" y2="181.44"/><line class="cls-5" x1="1472.73" y1="167.49" x2="1471.57" y2="169.77"/><line class="cls-5" x1="1479.07" y1="113.43" x2="1479.07" y2="110.86"/><line class="cls-5" x1="1480.57" y1="109.04" x2="1480.57" y2="106.56"/><line class="cls-5" x1="1474.85" y1="105.35" x2="1478.84" y2="105.35"/><line class="cls-5" x1="1464.6" y1="104.47" x2="1469.35" y2="104.47"/><line class="cls-5" x1="1457.65" y1="102.3" x2="1462.44" y2="102.3"/><line class="cls-5" x1="1443.99" y1="102.3" x2="1448.71" y2="102.3"/><line class="cls-5" x1="1429.34" y1="102.3" x2="1434.09" y2="102.3"/><line class="cls-5" x1="1418.21" y1="104.47" x2="1422.92" y2="104.47"/><line class="cls-5" x1="1412.8" y1="114.13" x2="1412.8" y2="119.62"/><line class="cls-5" x1="1406.1" y1="108.88" x2="1406.1" y2="111.2"/><line class="cls-5" x1="1392.75" y1="105.01" x2="1392.75" y2="107.45"/><line class="cls-5" x1="1398.53" y1="104.15" x2="1400.86" y2="104.15"/><line class="cls-5" x1="1402.44" y1="104.15" x2="1404.69" y2="104.15"/><line class="cls-5" x1="1378.92" y1="112.2" x2="1381.29" y2="112.2"/><line class="cls-5" x1="1376.95" y1="116.27" x2="1376.95" y2="120.67"/><line class="cls-5" x1="1328.17" y1="114.9" x2="1328.17" y2="119.3"/><line class="cls-5" x1="1324.73" y1="111.63" x2="1327.63" y2="111.63"/><line class="cls-5" x1="1329.63" y1="103.4" x2="1333.26" y2="103.4"/><line class="cls-5" x1="369.73" y1="131.12" x2="372.17" y2="131.12"/><line class="cls-5" x1="791.49" y1="249.82" x2="793.71" y2="249.82"/><line class="cls-5" x1="789.33" y1="185.87" x2="789.33" y2="182.1"/><line class="cls-5" x1="663.73" y1="189.7" x2="665.93" y2="189.7"/><line class="cls-3" x1="146.61" y1="316.77" x2="162.61" y2="329.27"/><line class="cls-3" x1="148.2" y1="309.8" x2="166.59" y2="324.18"/><path class="cls-2" d="M243.9,734.1" transform="translate(-77 -402)"/><rect class="cls-8" x="643.87" y="305.8" width="105.2" height="28.67"/><line class="cls-7" x1="63.71" y1="260.09" x2="64.72" y2="257.73"/><line class="cls-7" x1="199.84" y1="275.43" x2="199.84" y2="273.23"/><line class="cls-5" x1="818.82" y1="194.97" x2="821.03" y2="194.97"/><line class="cls-3" x1="682.48" y1="204.7" x2="702.73" y2="204.7"/><line class="cls-4" x1="1402.03" y1="226.34" x2="1412.8" y2="226.34"/><line class="cls-4" x1="1412.8" y1="223.3" x2="1412.8" y2="226.33"/><path class="cls-4" d="M1375.53,630.6c12.9,5.27,27.28,10.48,43.07,15.2a467.15,467.15,0,0,0,46.3,11.3" transform="translate(-77 -402)"/><line class="cls-4" x1="1387.9" y1="255.1" x2="1388.5" y2="253.82"/><line class="cls-4" x1="1388.5" y1="253.82" x2="1382.6" y2="250.83"/><line class="cls-4" x1="1382.6" y1="250.83" x2="1393.15" y2="230.1"/><line class="cls-4" x1="1393.15" y1="230.1" x2="1398.67" y2="232.83"/><line class="cls-4" x1="1398.67" y1="232.83" x2="1402.03" y2="226.33"/><line class="cls-3" x1="1450.22" y1="133.25" x2="1461.1" y2="138.7"/><line class="cls-3" x1="1432.5" y1="194.47" x2="1461.1" y2="138.7"/><line class="cls-3" x1="1432.5" y1="194.47" x2="1432.5" y2="223.3"/><line class="cls-4" x1="1432.5" y1="225.57" x2="1432.5" y2="223.3"/><line class="cls-4" x1="1412.8" y1="223.3" x2="1432.5" y2="223.3"/></svg>