<svg id="Layer_3" data-name="Layer 3" xmlns="http://www.w3.org/2000/svg" viewBox="0 0 818.73 470.43"><defs><style>.cls-1{fill:#fff;}.cls-2{fill:#999;stroke:#999;}.cls-2,.cls-3,.cls-5{stroke-linecap:round;}.cls-2,.cls-4{stroke-linejoin:round;}.cls-2,.cls-3,.cls-4{stroke-width:0.5px;}.cls-3,.cls-4,.cls-5{fill:none;}.cls-3{stroke:#666;}.cls-3,.cls-5{stroke-miterlimit:10;}.cls-4{stroke:#3fa9f5;}.cls-5{stroke:#000;}</style></defs><title>Stratford F2</title><path class="cls-1" d="M705.05,584.35H671.92v-78.7l-16.74,1.5H642.05v-19.8H628.47l-19.85-3v4.52H534.78V474.12h1.9v-10h-1.9V452.07a2.57,2.57,0,0,1,.82-1.88,2.41,2.41,0,0,1,1.31-.59l40.64-.08V437.6h-5V414.92H576V401.39h-3.4V290.85h3.52V276.58h-2.62V254.82h36.24V252.2H630.9V256h36.45v-3.37h22.13V256h51l.08-.12s2.5-4.2,7.29-4.2a8.48,8.48,0,0,1,7.42,4.42l.47.86v-4.53H779v3h36.2l.12,26.63H813v125.7l24.59.2v26.37l-8.42.14v33h.85v31.49l-64.67-3.26-36-3.92v24.86H716.7v56h14.65v-7.55h17.2v-32h95.8v2.15h169.37l-.14-102.52-46.26-17.55-49.6,30.1a143.44,143.44,0,0,1-19.54-73.18h19.71v-.26a108.24,108.24,0,0,1,2.28-25.91l80.06,12.87v6.9h90.23V488h109.77v57.28H1060.05v-6.68h-2.35V534.7h-22.92v21.85h-5.23v6.07H843.27v2.57a10,10,0,0,0-2.78.89c-3.71,1.8-5.08,5.26-6.53,8.92-1.26,3.2-2.57,6.51-5.56,8.8a14.42,14.42,0,0,1-8.18,2.71l-115.17,0ZM631.12,465.92h11.6v-7.67h6.4V434.48h-17v4.6h-23v10.44h10.5v14.56h11.5Z" transform="translate(-534.03 -240.27)"/><path class="cls-1" d="M747.81,251.45l0,.5a8.2,8.2,0,0,1,7.16,4.29L756,258V252.7h22.8v3H815l.06,13.07,0,13.06h-2.28V408h.5l24.09.2v25.88l-3.72.06-4.21.06H829V467.7h.85v31L797,497l-31.6-1.59-32.52-3.55-3.2-.35-.55-.06v24.89h-12.7v56.48H731.6V565.3h17.2v-32h95.3v2.15H1014V535l-.14-102.1v-.34l-.32-.12-23-8.73-23-8.72-.23-.09-.21.13-24.86,15.08-24.42,14.82a142.92,142.92,0,0,1-19.38-72.58h19.72l0-.52a109.18,109.18,0,0,1,.43-13.77,107.76,107.76,0,0,1,1.8-11.84l44,7.07L1000,359v6.94h90.23V488.2H1200V545H1060.3V538.3H1058v-3.85h-23.42V556.3h-5.23v6.07H843V565a10.84,10.84,0,0,0-2.65.87c-3.8,1.84-5.18,5.35-6.65,9.06-1.25,3.17-2.54,6.44-5.48,8.69a14.12,14.12,0,0,1-8,2.66l-114.93,0v-2.2H672.17V505.38l-.54.05-8.24.73-8.19.74H642.3V487.1H631.87V466.17H643V458.5h6.4V434.23H631.9v4.6h-23v10.94h10.5v14.56h11.5V487.1H628.5l-13-2-6.53-1-.57-.09v4.56H535V474.37h1.9V463.9H535V452.07a2.34,2.34,0,0,1,.73-1.69,2.12,2.12,0,0,1,1.16-.53l20.15,0,20.23,0h.5V437.35h-5V415.17h3.4v-14h-3.4v-110h3.52V276.33h-2.62V255.07H610v-2.62h20.68v3.82h37V252.9h21.63v3.37h51.36l.14-.24s2.44-4.08,7.08-4.08v-.5m0,0a9.25,9.25,0,0,0-7.51,4.32H689.73V252.4H667.1v3.37h-36V252H609.47v2.62H573.23v22.26h2.62V290.6h-3.52v111h3.4v13h-3.4v23.18h5v11.42l-40.42.08a2.68,2.68,0,0,0-1.45.65,2.85,2.85,0,0,0-.9,2.07V464.4h1.9v9.47h-1.9v15.26h74.34v-4.48l19.6,3h2.9V463.83h-11.5V449.27h-10.5v-9.94h23v-4.6h16.47V458h-6.4v7.67h-11.1V487.6H641.8v19.8h13.4l16.47-1.48V584.6H704.8v2.2l115.43,0a14.38,14.38,0,0,0,8.32-2.76c6.44-4.94,5.17-14.36,12.05-17.7a9.94,9.94,0,0,1,2.93-.9v-2.53H1029.8V556.8H1035V535h22.42v3.85h2.35v6.68h140.67V487.7H1090.7V365.4h-90.23v-6.87L920,345.6a108,108,0,0,0-2.34,26.2h-19.7a143.58,143.58,0,0,0,19.7,73.77l49.72-30.17,46,17.45q.07,51.06.14,102.1H844.6V532.8H748.3v32H731.1v7.55H717V516.87h12.7V492l35.72,3.9,64.93,3.27v-32h-.85V434.73l8.42-.13V407.73l-24.59-.2V282.33h2.29l-.12-27.13h-36.2v-3h-23.8V256a8.71,8.71,0,0,0-7.6-4.55Z" transform="translate(-534.03 -240.27)"/><rect class="cls-2" x="608.17" y="249.47" width="3.73" height="11.97"/><rect class="cls-2" x="586.3" y="267.01" width="17.69" height="5.1"/><polygon class="cls-1" points="733.55 257.95 733.55 252.28 712.62 252.28 712.62 124.02 733.22 124.02 733.22 117.65 778.32 117.65 778.32 124.02 811.18 124.02 811.18 127.45 817.98 127.45 817.98 248.82 810.67 248.82 810.67 252.28 778.85 252.28 778.85 257.95 733.55 257.95"/><path class="cls-1" d="M1312.1,358.17v6.36H1345V368h6.8V488.83h-7.32v3.47h-31.82V498h-44.8V492.3H1246.9V364.53h20.6v-6.36h44.6m.5-.5H1267V364h-20.6V492.8h20.93v5.67h45.8V492.8H1345v-3.47h7.32V367.47h-6.8V364H1312.6v-6.36Z" transform="translate(-534.03 -240.27)"/><path class="cls-1" d="M1106.35,360.22V341h-31.63l26-99.86a410.47,410.47,0,0,0,63.08,16.62,411.18,411.18,0,0,0,70.65,6.44h28.65v78.07h-28.07v18Z" transform="translate(-534.03 -240.27)"/><path class="cls-1" d="M1100.94,241.42A410.22,410.22,0,0,0,1163.81,258a410.56,410.56,0,0,0,70.69,6.45h28.4V342h-28.07v18H1106.6V340.7h-31.55L1088,291.11l13-49.69m-.34-.65Q1087.49,291,1074.4,341.2h31.7v19.27h129.23v-18h28.07V263.9h-28.9a408.27,408.27,0,0,1-70.6-6.44,409.12,409.12,0,0,1-63.3-16.69Z" transform="translate(-534.03 -240.27)"/><rect class="cls-2" x="534.17" y="352.53" width="62.68" height="46.8"/><rect class="cls-2" x="424.77" y="384.73" width="42.6" height="85.2"/><path class="cls-2" d="M1301.93,481.05h-1.66v1.12h-1.8V479h3.46Z" transform="translate(-534.03 -240.27)"/><line class="cls-3" x1="381.73" y1="316.61" x2="381.73" y2="322.6"/><line class="cls-3" x1="352.9" y1="316.53" x2="352.9" y2="322.6"/><path class="cls-2" d="M1246.4,428.62h-6.2a4.87,4.87,0,0,1-4.67-4.95V400.8a4.08,4.08,0,0,1,1.29-3.23,4,4,0,0,1,3.35-.9l6.23,1.09Z" transform="translate(-534.03 -240.27)"/><path class="cls-2" d="M1278.05,377.65v-2.72h20.55V357.67H1267V364h-20.6V492.8h20.93v5.67h31.14v-16.3H1278v-2.4h-4v-6h4V471h4.73V463a9.77,9.77,0,0,1-7.58-15.58V395l6.78-2.47h.89V386.1h-4.77v-2.4h-4v-6.05Z" transform="translate(-534.03 -240.27)"/><path class="cls-2" d="M1290.15,459.79a9.72,9.72,0,1,1,0-13.12A10,10,0,0,1,1290.15,459.79Z" transform="translate(-534.03 -240.27)"/><rect class="cls-2" x="778.57" y="123.77" width="32.87" height="3.43"/><rect class="cls-2" x="779.1" y="249.07" width="31.82" height="3.47"/><rect class="cls-2" x="777.44" y="184.69" width="40.79" height="7.29"/><line class="cls-3" x1="767.39" y1="137.98" x2="767.39" y2="143.43"/><rect class="cls-2" x="706.72" y="52.93" width="6.73" height="3.05"/><rect class="cls-2" x="706.72" y="61.4" width="6.73" height="24.33"/><rect class="cls-2" x="598.92" y="61.78" width="24.1" height="14.4"/><line class="cls-3" x1="673.5" y1="100.28" x2="673.5" y2="120.2"/><line class="cls-3" x1="701.3" y1="102.2" x2="701.3" y2="100.28"/><line class="cls-3" x1="701.3" y1="100.28" x2="673.5" y2="100.28"/><line class="cls-3" x1="649.77" y1="100.28" x2="649.77" y2="120.2"/><line class="cls-3" x1="572.07" y1="100.93" x2="598.1" y2="100.93"/><line class="cls-3" x1="598.1" y1="100.93" x2="598.1" y2="120.2"/><line class="cls-3" x1="598.92" y1="61.78" x2="598.92" y2="76.18"/><line class="cls-3" x1="598.92" y1="76.18" x2="623.02" y2="76.18"/><line class="cls-3" x1="623.02" y1="76.18" x2="623.02" y2="61.78"/><line class="cls-3" x1="623.02" y1="61.78" x2="598.92" y2="61.78"/><line class="cls-4" x1="647.47" y1="72" x2="647.47" y2="65.5"/><path class="cls-2" d="M1175.53,310.76a2.1,2.1,0,1,1,.34-3.22A2.17,2.17,0,0,1,1175.53,310.76Z" transform="translate(-534.03 -240.27)"/><path class="cls-3" d="M1181.5,305.77a8.11,8.11,0,0,0-7.53-4.6,7.84,7.84,0,0,0-.2,15.66,8.14,8.14,0,0,0,7.73-4.56" transform="translate(-534.03 -240.27)"/><circle class="cls-3" cx="640.33" cy="68.74" r="2.1"/><line class="cls-3" x1="585.07" y1="37.93" x2="556.84" y2="37.93"/><line class="cls-3" x1="729.37" y1="37.97" x2="673.77" y2="37.97"/><line class="cls-3" x1="649.37" y1="37.97" x2="649.37" y2="20.22"/><line class="cls-3" x1="673.77" y1="37.97" x2="673.77" y2="22.64"/><line class="cls-3" x1="700.47" y1="37.97" x2="700.47" y2="23.63"/><line class="cls-3" x1="706.72" y1="37.97" x2="706.72" y2="102.2"/><line class="cls-3" x1="706.72" y1="45.18" x2="729.37" y2="45.18"/><line class="cls-3" x1="713.45" y1="52.93" x2="706.72" y2="52.93"/><line class="cls-3" x1="713.45" y1="55.98" x2="713.45" y2="45.18"/><line class="cls-3" x1="706.72" y1="55.98" x2="729.37" y2="55.98"/><line class="cls-3" x1="713.45" y1="61.4" x2="706.72" y2="61.4"/><line class="cls-3" x1="713.45" y1="61.4" x2="713.45" y2="85.73"/><line class="cls-3" x1="713.45" y1="85.73" x2="706.72" y2="85.73"/><line class="cls-3" x1="713.45" y1="79.11" x2="729.37" y2="79.11"/><line class="cls-3" x1="713.45" y1="64.86" x2="729.37" y2="64.86"/><line class="cls-3" x1="721.19" y1="55.98" x2="721.19" y2="64.86"/><line class="cls-3" x1="706.72" y1="91.48" x2="729.37" y2="91.48"/><line class="cls-4" x1="585.82" y1="100.93" x2="589.84" y2="100.93"/><line class="cls-4" x1="675.07" y1="100.28" x2="678.64" y2="100.28"/><line class="cls-4" x1="706.72" y1="96.6" x2="706.72" y2="99.85"/><line class="cls-4" x1="706.72" y1="90.82" x2="706.72" y2="87.77"/><line class="cls-4" x1="713.8" y1="64.86" x2="716.82" y2="64.86"/><line class="cls-4" x1="706.72" y1="60.7" x2="706.72" y2="57.55"/><line class="cls-4" x1="714.18" y1="55.98" x2="717.35" y2="55.98"/><line class="cls-4" x1="721.19" y1="61.23" x2="721.19" y2="64.37"/><line class="cls-4" x1="706.72" y1="47.08" x2="706.72" y2="51.15"/><line class="cls-4" x1="706.72" y1="44.57" x2="706.72" y2="38.47"/><line class="cls-4" x1="722.39" y1="37.97" x2="728.09" y2="37.97"/><line class="cls-4" x1="675.07" y1="37.97" x2="678.69" y2="37.97"/><path class="cls-2" d="M1092.77,325.93h-.59c-.69,2.58-1.37,5.16-2.06,7.74h2.65Z" transform="translate(-534.03 -240.27)"/><path class="cls-2" d="M1100.2,325.93h-8q1.3-4.95,2.63-9.9l-1.63-.43V301.12h7Z" transform="translate(-534.03 -240.27)"/><line class="cls-3" x1="566.17" y1="44.18" x2="566.17" y2="100.93"/><line class="cls-3" x1="566.17" y1="44.18" x2="555.21" y2="44.18"/><line class="cls-3" x1="566.17" y1="50.72" x2="553.47" y2="50.72"/><line class="cls-3" x1="560.13" y1="50.72" x2="560.13" y2="56.28"/><line class="cls-3" x1="560.13" y1="56.28" x2="552.04" y2="56.28"/><line class="cls-3" x1="559.15" y1="56.28" x2="559.15" y2="75.33"/><line class="cls-3" x1="559.15" y1="60.85" x2="566.17" y2="60.85"/><line class="cls-3" x1="560.77" y1="75.76" x2="547.82" y2="72.35"/><line class="cls-3" x1="560.77" y1="75.76" x2="556.09" y2="93.41"/><line class="cls-3" x1="556.09" y1="93.41" x2="566.17" y2="93.41"/><line class="cls-3" x1="558.15" y1="85.66" x2="566.17" y2="85.66"/><line class="cls-3" x1="558.73" y1="85.66" x2="558.73" y2="100.93"/><line class="cls-4" x1="562.35" y1="50.72" x2="565.53" y2="50.72"/><line class="cls-4" x1="560.13" y1="51.35" x2="560.13" y2="54.48"/><line class="cls-4" x1="566.17" y1="60.03" x2="566.17" y2="56.9"/><line class="cls-4" x1="559.15" y1="60.03" x2="559.15" y2="56.9"/><line class="cls-4" x1="566.17" y1="87.47" x2="566.17" y2="91.55"/><line class="cls-4" x1="566.17" y1="93.97" x2="566.17" y2="99.97"/><line class="cls-4" x1="558.73" y1="99.97" x2="558.73" y2="93.97"/><rect class="cls-2" x="602.44" y="272.11" width="1.55" height="7.23"/><path class="cls-2" d="M1059.8,520.33h-2.35V487.7h143v57.78H1059.8v-2.13h138.45V489.73H1059.8Z" transform="translate(-534.03 -240.27)"/><rect class="cls-2" x="523.42" y="286.23" width="2.35" height="12.3"/><rect class="cls-2" x="525.77" y="275.6" width="4.13" height="3.97"/><path class="cls-2" d="M917.63,371.8h-19.7a143,143,0,0,0,19.7,73.77l49.72-30.17,46,17.45v102l32.84.08V490.67H1024.3v-5.94h21.87v-40.2H1024.3V438.8h21.87V398.6H1024.3v-5.77h21.87V372.2h44.53v-6.8h-90.23v-6.87L920,345.6a108,108,0,0,0-2.34,26.2Z" transform="translate(-534.03 -240.27)"/><rect class="cls-2" x="170.77" y="344.33" width="26.3" height="2.2"/><rect class="cls-2" x="295.02" y="314.18" width="16.9" height="2.35"/><rect class="cls-2" x="264.97" y="314.18" width="18.5" height="2.35"/><rect class="cls-2" x="253.27" y="322.6" width="12.85" height="1.93"/><rect class="cls-2" x="237.07" y="314.18" width="17.55" height="2.35"/><path class="cls-2" d="M843.53,565.4a9.19,9.19,0,0,0-2.39.67A11.56,11.56,0,0,0,836,571a16.53,16.53,0,0,0-1.65,3.56v-11.7h9.16Z" transform="translate(-534.03 -240.27)"/><rect class="cls-2" x="168.37" y="276.6" width="14.55" height="54.03"/><path class="cls-2" d="M655.2,507.4H641.8v-4.8l17.5,0,32.83-.83v4.17H671.67Z" transform="translate(-534.03 -240.27)"/><rect class="cls-2" x="38.3" y="160.13" width="3.4" height="1.24"/><path class="cls-2" d="M685.4,490.1l-8.9-.14v-8.61h8.9Z" transform="translate(-534.03 -240.27)"/><rect class="cls-2" x="164.63" y="241.08" width="13.43" height="9.92"/><path class="cls-2" d="M829.45,467.2h.85v32l-64.93-3.27L729.65,492l-.1-.76h33.12V483.7H753.1V455.6H648.87V434.73H829.45Z" transform="translate(-534.03 -240.27)"/><path class="cls-2" d="M610.5,437.85H577.3v11.42l-40.42.08a2.74,2.74,0,0,0-1.71.91,2.79,2.79,0,0,0-.64,1.81V464.4h1.9v9.47h-1.9v15.26h74.34v-4.48l19.6,3h2.9V463.83h-11.5V449.27h-10.5v-9.94h1.13Z" transform="translate(-534.03 -240.27)"/><rect class="cls-2" x="83.97" y="55.18" width="6.78" height="9.22"/><path class="cls-2" d="M779.53,389.3H754.3v11.1H716.5v-8.25h-5.17v8.25H704.6V375.2h-9.87v10.27H664.4V375.2h-9.8v25.2H629.15V382.55h-12V309.5h20.74V290.6H779.53Z" transform="translate(-534.03 -240.27)"/><line class="cls-3" x1="490.27" y1="250.4" x2="517.77" y2="250.4"/><line class="cls-3" x1="490.27" y1="244.47" x2="517.77" y2="244.47"/><line class="cls-3" x1="490.27" y1="204.27" x2="517.77" y2="204.27"/><line class="cls-3" x1="517.77" y1="198.53" x2="490.27" y2="198.53"/><line class="cls-3" x1="490.27" y1="158.33" x2="517.77" y2="158.33"/><line class="cls-3" x1="490.27" y1="152.56" x2="517.77" y2="152.56"/><line class="cls-3" x1="43.27" y1="197.58" x2="76.47" y2="197.58"/><line class="cls-3" x1="76.47" y1="197.58" x2="76.47" y2="199.07"/><line class="cls-3" x1="76.47" y1="197.58" x2="76.47" y2="160.13"/><line class="cls-3" x1="76.47" y1="160.13" x2="38.3" y2="160.13"/><line class="cls-3" x1="41.7" y1="161.43" x2="41.7" y2="160.13"/><line class="cls-3" x1="41.7" y1="174.4" x2="76.47" y2="174.4"/><line class="cls-3" x1="52.43" y1="174.4" x2="52.43" y2="178.13"/><line class="cls-3" x1="52.43" y1="178.13" x2="70.27" y2="178.13"/><line class="cls-3" x1="70.27" y1="174.4" x2="70.27" y2="178.13"/><line class="cls-3" x1="65.13" y1="160.13" x2="65.13" y2="174.4"/><line class="cls-3" x1="75.5" y1="50.33" x2="75.5" y2="160.13"/><line class="cls-3" x1="41.82" y1="50.33" x2="75.5" y2="50.33"/><line class="cls-3" x1="75.5" y1="122.07" x2="38.3" y2="122.07"/><line class="cls-3" x1="75.5" y1="89.2" x2="38.3" y2="89.2"/><line class="cls-3" x1="67.87" y1="50.33" x2="67.87" y2="36.57"/><line class="cls-3" x1="41.82" y1="36.57" x2="75.43" y2="36.57"/><line class="cls-3" x1="64.02" y1="50.33" x2="64.02" y2="36.57"/><line class="cls-3" x1="75.43" y1="14.3" x2="75.43" y2="43.18"/><line class="cls-3" x1="76.47" y1="167.27" x2="279.25" y2="167.27"/><line class="cls-3" x1="98.37" y1="167.27" x2="98.37" y2="194.47"/><line class="cls-3" x1="83.9" y1="167.27" x2="83.9" y2="199.07"/><line class="cls-3" x1="83.9" y1="172.27" x2="98.37" y2="172.27"/><line class="cls-3" x1="83.9" y1="180.23" x2="98.37" y2="180.23"/><line class="cls-3" x1="83.9" y1="188.18" x2="98.37" y2="188.18"/><line class="cls-3" x1="114.83" y1="194.47" x2="295.42" y2="194.47"/><line class="cls-3" x1="126.03" y1="167.27" x2="126.03" y2="194.47"/><line class="cls-3" x1="153.83" y1="167.27" x2="153.83" y2="194.47"/><line class="cls-3" x1="164.83" y1="167.27" x2="164.83" y2="194.47"/><line class="cls-3" x1="186.7" y1="167.27" x2="186.7" y2="194.47"/><line class="cls-3" x1="199.77" y1="167.27" x2="199.77" y2="194.47"/><line class="cls-3" x1="222.63" y1="167.27" x2="222.63" y2="194.47"/><line class="cls-3" x1="245.5" y1="167.27" x2="245.5" y2="194.47"/><line class="cls-3" x1="257.37" y1="167.27" x2="257.37" y2="194.47"/><line class="cls-3" x1="257.37" y1="180.53" x2="245.5" y2="180.53"/><line class="cls-3" x1="254.22" y1="162.48" x2="279.25" y2="162.48"/><line class="cls-3" x1="254.22" y1="153.38" x2="254.22" y2="162.48"/><line class="cls-3" x1="279.25" y1="153.38" x2="252.12" y2="153.38"/><line class="cls-3" x1="252.12" y1="153.38" x2="252.12" y2="14.93"/><line class="cls-3" x1="252.12" y1="51.98" x2="279.25" y2="51.98"/><line class="cls-3" x1="75.43" y1="43.18" x2="279.25" y2="43.18"/><line class="cls-3" x1="97.12" y1="15.51" x2="97.12" y2="43.18"/><line class="cls-3" x1="133.07" y1="15.51" x2="133.07" y2="43.18"/><line class="cls-3" x1="147.03" y1="12.13" x2="147.03" y2="43.18"/><line class="cls-3" x1="155.7" y1="15.51" x2="155.7" y2="43.18"/><line class="cls-3" x1="180.57" y1="15.51" x2="180.57" y2="43.18"/><line class="cls-3" x1="206.27" y1="15.51" x2="206.27" y2="43.18"/><line class="cls-3" x1="221.42" y1="15.73" x2="221.42" y2="43.18"/><line class="cls-3" x1="244.17" y1="14.93" x2="244.17" y2="43.18"/><line class="cls-3" x1="244.17" y1="14.93" x2="245.22" y2="14.93"/><line class="cls-3" x1="221.42" y1="34.87" x2="244.17" y2="34.87"/><line class="cls-3" x1="244.17" y1="33.53" x2="252.12" y2="33.53"/><line class="cls-3" x1="235.1" y1="21.33" x2="235.1" y2="34.87"/><line class="cls-3" x1="235.1" y1="21.33" x2="236.17" y2="21.33"/><line class="cls-3" x1="236.17" y1="21.33" x2="236.17" y2="11.93"/><line class="cls-3" x1="83.1" y1="50.33" x2="245.5" y2="50.33"/><line class="cls-3" x1="245.5" y1="167.27" x2="245.5" y2="50.33"/><line class="cls-3" x1="83.9" y1="160.13" x2="245.5" y2="160.13"/><line class="cls-3" x1="95.12" y1="142.28" x2="95.12" y2="160.13"/><line class="cls-3" x1="83.1" y1="142.28" x2="95.12" y2="142.28"/><line class="cls-3" x1="83.1" y1="142.28" x2="83.1" y2="69.23"/><line class="cls-3" x1="83.1" y1="69.23" x2="103.83" y2="69.23"/><line class="cls-3" x1="103.83" y1="69.23" x2="103.83" y2="50.33"/><line class="cls-3" x1="220.27" y1="160.13" x2="220.27" y2="149.03"/><line class="cls-3" x1="220.27" y1="149.03" x2="245.5" y2="149.03"/><line class="cls-3" x1="177.29" y1="160.13" x2="177.29" y2="151.88"/><line class="cls-3" x1="177.29" y1="151.88" x2="182.47" y2="151.88"/><line class="cls-3" x1="182.47" y1="151.88" x2="182.47" y2="160.13"/><line class="cls-3" x1="120.57" y1="160.13" x2="120.57" y2="134.93"/><line class="cls-3" x1="120.57" y1="134.93" x2="130.37" y2="134.93"/><line class="cls-3" x1="130.37" y1="134.93" x2="130.37" y2="145.2"/><line class="cls-3" x1="130.37" y1="145.2" x2="160.7" y2="145.2"/><line class="cls-3" x1="160.7" y1="145.2" x2="160.7" y2="134.93"/><line class="cls-3" x1="160.7" y1="134.93" x2="170.57" y2="134.93"/><line class="cls-3" x1="170.57" y1="134.93" x2="170.57" y2="160.13"/><line class="cls-3" x1="142.83" y1="145.2" x2="142.83" y2="160.13"/><line class="cls-3" x1="83.97" y1="55.18" x2="83.97" y2="64.41"/><line class="cls-3" x1="83.97" y1="64.41" x2="90.74" y2="64.41"/><line class="cls-3" x1="90.74" y1="55.18" x2="90.74" y2="64.41"/><line class="cls-3" x1="83.97" y1="55.18" x2="90.74" y2="55.18"/><line class="cls-3" x1="175.1" y1="160.13" x2="175.1" y2="167.27"/><line class="cls-3" x1="87.79" y1="160.13" x2="87.79" y2="167.27"/><line class="cls-3" x1="75.5" y1="137.27" x2="83.1" y2="137.27"/><line class="cls-3" x1="75.5" y1="73.77" x2="83.1" y2="73.77"/><line class="cls-3" x1="84.89" y1="43.18" x2="84.89" y2="50.33"/><line class="cls-3" x1="242.69" y1="43.18" x2="242.69" y2="50.33"/><line class="cls-3" x1="114.83" y1="215.33" x2="219.07" y2="215.33"/><line class="cls-3" x1="219.07" y1="215.33" x2="219.07" y2="251"/><line class="cls-3" x1="219.07" y1="243.43" x2="228.63" y2="243.43"/><line class="cls-3" x1="228.63" y1="243.43" x2="228.63" y2="251"/><line class="cls-3" x1="158.1" y1="251" x2="228.63" y2="251"/><line class="cls-3" x1="178.07" y1="251" x2="178.07" y2="215.33"/><line class="cls-3" x1="158.1" y1="226.13" x2="178.07" y2="226.13"/><line class="cls-3" x1="158.1" y1="226.13" x2="158.1" y2="265.66"/><line class="cls-3" x1="182.92" y1="276.6" x2="168.37" y2="276.6"/><line class="cls-3" x1="168.37" y1="344.33" x2="168.37" y2="251"/><line class="cls-3" x1="168.37" y1="265.66" x2="137.64" y2="265.66"/><line class="cls-3" x1="158.1" y1="261.48" x2="124.38" y2="262.33"/><line class="cls-3" x1="124.27" y1="262.33" x2="107.77" y2="262.33"/><line class="cls-3" x1="107.77" y1="249.13" x2="151.37" y2="249.83"/><line class="cls-3" x1="151.37" y1="249.83" x2="151.37" y2="226.13"/><line class="cls-3" x1="125.27" y1="249.41" x2="125.27" y2="262.31"/><line class="cls-3" x1="142.47" y1="249.69" x2="142.47" y2="241.08"/><line class="cls-3" x1="142.47" y1="241.08" x2="151.37" y2="241.08"/><line class="cls-3" x1="158.1" y1="226.13" x2="150.1" y2="226.13"/><line class="cls-3" x1="150.1" y1="226.13" x2="150.1" y2="215.33"/><line class="cls-3" x1="150.1" y1="221.23" x2="174.72" y2="221.23"/><line class="cls-3" x1="174.72" y1="221.23" x2="178.07" y2="217.85"/><line class="cls-3" x1="158.1" y1="241.08" x2="178.07" y2="241.08"/><line class="cls-3" x1="164.63" y1="241.08" x2="164.63" y2="251"/><line class="cls-3" x1="114.83" y1="217.73" x2="114.83" y2="249.25"/><line class="cls-3" x1="108.43" y1="225.4" x2="114.83" y2="225.4"/><line class="cls-3" x1="137.64" y1="330.63" x2="182.92" y2="330.63"/><line class="cls-3" x1="160.28" y1="330.63" x2="160.28" y2="344.33"/><line class="cls-3" x1="197.07" y1="332.08" x2="197.07" y2="346.53"/><line class="cls-3" x1="170.77" y1="344.33" x2="197.07" y2="344.33"/><line class="cls-3" x1="230.53" y1="39.13" x2="240.27" y2="39.13"/><line class="cls-3" x1="240.27" y1="34.87" x2="240.27" y2="39.13"/><line class="cls-3" x1="95.17" y1="50.33" x2="95.17" y2="69.23"/><line class="cls-3" x1="214.27" y1="324.53" x2="277.17" y2="324.53"/><line class="cls-3" x1="309.49" y1="322.6" x2="277.17" y2="322.6"/><line class="cls-3" x1="277.17" y1="324.53" x2="277.17" y2="322.6"/><line class="cls-3" x1="286.2" y1="322.6" x2="286.2" y2="346.5"/><line class="cls-3" x1="300.33" y1="322.6" x2="300.33" y2="334.3"/><line class="cls-3" x1="232.77" y1="324.53" x2="232.77" y2="314.18"/><line class="cls-3" x1="214.27" y1="314.18" x2="311.92" y2="314.18"/><line class="cls-3" x1="237.07" y1="314.18" x2="237.07" y2="316.53"/><line class="cls-3" x1="237.07" y1="316.53" x2="254.62" y2="316.53"/><line class="cls-3" x1="254.62" y1="316.53" x2="254.62" y2="314.18"/><line class="cls-3" x1="253.27" y1="324.53" x2="253.27" y2="322.6"/><line class="cls-3" x1="253.27" y1="322.6" x2="266.12" y2="322.6"/><line class="cls-3" x1="266.12" y1="322.6" x2="266.12" y2="324.53"/><line class="cls-3" x1="264.97" y1="314.18" x2="264.97" y2="316.53"/><line class="cls-3" x1="264.97" y1="316.53" x2="283.47" y2="316.53"/><line class="cls-3" x1="283.47" y1="316.53" x2="283.47" y2="314.18"/><line class="cls-3" x1="228.62" y1="314.18" x2="228.62" y2="292.53"/><line class="cls-3" x1="265.67" y1="314.18" x2="265.67" y2="292.53"/><line class="cls-3" x1="300.33" y1="314.18" x2="300.33" y2="292.53"/><line class="cls-3" x1="311.92" y1="314.18" x2="311.92" y2="316.53"/><line class="cls-3" x1="295.02" y1="314.18" x2="295.02" y2="316.53"/><line class="cls-3" x1="295.02" y1="316.53" x2="359.57" y2="316.53"/><line class="cls-3" x1="321.12" y1="316.53" x2="321.12" y2="294.68"/><line class="cls-3" x1="340.47" y1="316.53" x2="340.47" y2="294.68"/><line class="cls-3" x1="332.72" y1="316.53" x2="332.72" y2="312.73"/><line class="cls-3" x1="332.72" y1="312.73" x2="340.47" y2="312.73"/><line class="cls-3" x1="349.72" y1="316.53" x2="349.72" y2="305.61"/><line class="cls-3" x1="349.72" y1="305.61" x2="359.57" y2="305.61"/><line class="cls-3" x1="359.57" y1="305.61" x2="359.57" y2="316.53"/><line class="cls-3" x1="352.82" y1="305.61" x2="352.82" y2="294.68"/><line class="cls-3" x1="359.57" y1="311.73" x2="367.37" y2="311.73"/><line class="cls-3" x1="367.37" y1="314.1" x2="367.37" y2="305.07"/><line class="cls-3" x1="365.27" y1="305.07" x2="375.67" y2="305.07"/><line class="cls-3" x1="375.67" y1="305.07" x2="375.67" y2="316.61"/><line class="cls-3" x1="375.67" y1="314.1" x2="367.37" y2="314.1"/><line class="cls-3" x1="365.27" y1="294.68" x2="365.27" y2="305.07"/><line class="cls-3" x1="375.67" y1="316.61" x2="443.7" y2="316.61"/><line class="cls-3" x1="384.42" y1="305.07" x2="384.42" y2="316.61"/><line class="cls-3" x1="384.42" y1="305.07" x2="381.87" y2="305.07"/><line class="cls-3" x1="381.87" y1="305.07" x2="381.87" y2="294.68"/><line class="cls-3" x1="437.37" y1="304.43" x2="437.37" y2="316.61"/><line class="cls-3" x1="431.8" y1="304.43" x2="437.37" y2="304.43"/><line class="cls-3" x1="431.8" y1="304.43" x2="431.8" y2="294.68"/><line class="cls-3" x1="443.7" y1="316.61" x2="443.7" y2="322.6"/><line class="cls-3" x1="495.77" y1="316.53" x2="474.7" y2="316.53"/><line class="cls-3" x1="468.22" y1="316.53" x2="468.22" y2="322.6"/><line class="cls-3" x1="489.17" y1="316.53" x2="489.17" y2="294.68"/><line class="cls-3" x1="468.22" y1="310.28" x2="468.22" y2="294.68"/><line class="cls-3" x1="468.22" y1="310.28" x2="489.17" y2="310.28"/><line class="cls-3" x1="523.42" y1="294.68" x2="523.42" y2="244.47"/><line class="cls-3" x1="556.67" y1="247.43" x2="523.42" y2="247.43"/><line class="cls-3" x1="512.13" y1="250.4" x2="512.13" y2="294.68"/><line class="cls-3" x1="512.13" y1="204.27" x2="512.13" y2="244.47"/><line class="cls-3" x1="512.13" y1="158.33" x2="512.13" y2="198.53"/><line class="cls-3" x1="556.67" y1="131.93" x2="512.13" y2="131.93"/><line class="cls-3" x1="512.13" y1="131.93" x2="512.13" y2="152.56"/><line class="cls-3" x1="523.37" y1="135.27" x2="523.37" y2="131.93"/><line class="cls-3" x1="523.37" y1="152.56" x2="523.37" y2="158.33"/><line class="cls-3" x1="523.37" y1="155.45" x2="556.67" y2="155.45"/><line class="cls-3" x1="523.37" y1="187.2" x2="523.37" y2="192.93"/><line class="cls-3" x1="523.37" y1="190.07" x2="556.67" y2="190.07"/><line class="cls-3" x1="523.42" y1="221.83" x2="523.42" y2="227.53"/><line class="cls-3" x1="523.42" y1="224.68" x2="556.67" y2="224.68"/><line class="cls-3" x1="525.77" y1="286.23" x2="525.77" y2="298.53"/><line class="cls-3" x1="523.42" y1="286.23" x2="525.77" y2="286.23"/><line class="cls-3" x1="525.77" y1="280.07" x2="523.42" y2="280.07"/><line class="cls-3" x1="525.77" y1="275.6" x2="525.77" y2="249.47"/><line class="cls-3" x1="525.77" y1="249.47" x2="608.17" y2="249.47"/><line class="cls-3" x1="664.22" y1="249.47" x2="664.22" y2="303.08"/><line class="cls-3" x1="664.22" y1="303.08" x2="525.77" y2="303.08"/><line class="cls-3" x1="525.77" y1="258.6" x2="535.8" y2="258.6"/><line class="cls-3" x1="535.8" y1="257.27" x2="535.8" y2="271.23"/><line class="cls-3" x1="539.9" y1="257.27" x2="535.8" y2="257.27"/><line class="cls-3" x1="539.9" y1="249.47" x2="539.9" y2="257.27"/><line class="cls-3" x1="552.62" y1="257.27" x2="539.9" y2="257.27"/><line class="cls-3" x1="552.62" y1="249.47" x2="552.62" y2="271.23"/><line class="cls-3" x1="553.67" y1="271.23" x2="525.77" y2="271.23"/><line class="cls-3" x1="553.67" y1="271.23" x2="553.67" y2="279.57"/><line class="cls-3" x1="553.67" y1="279.57" x2="537.07" y2="279.57"/><line class="cls-3" x1="537.07" y1="275.6" x2="537.07" y2="279.57"/><line class="cls-3" x1="537.07" y1="275.6" x2="525.77" y2="275.6"/><line class="cls-3" x1="529.9" y1="275.6" x2="529.9" y2="279.57"/><line class="cls-3" x1="529.9" y1="279.57" x2="525.77" y2="279.57"/><line class="cls-3" x1="541.03" y1="271.23" x2="541.03" y2="279.57"/><line class="cls-3" x1="552.62" y1="262.03" x2="586.3" y2="262.03"/><line class="cls-3" x1="586.3" y1="249.47" x2="586.3" y2="279.33"/><line class="cls-3" x1="586.3" y1="279.33" x2="603.99" y2="279.33"/><line class="cls-3" x1="603.99" y1="267.01" x2="603.99" y2="279.33"/><line class="cls-3" x1="603.99" y1="267.01" x2="586.3" y2="267.01"/><line class="cls-3" x1="586.3" y1="272.11" x2="602.44" y2="272.11"/><line class="cls-3" x1="594.54" y1="272.11" x2="594.54" y2="279.33"/><line class="cls-3" x1="602.44" y1="272.11" x2="602.44" y2="279.33"/><line class="cls-3" x1="603.39" y1="267.01" x2="603.39" y2="261.43"/><line class="cls-3" x1="586.3" y1="261.43" x2="611.9" y2="261.43"/><line class="cls-3" x1="595.15" y1="261.43" x2="595.15" y2="267.01"/><line class="cls-3" x1="611.9" y1="249.47" x2="611.9" y2="268.53"/><line class="cls-3" x1="608.17" y1="261.43" x2="608.17" y2="249.47"/><line class="cls-3" x1="610.42" y1="268.53" x2="624.52" y2="268.53"/><line class="cls-3" x1="607.97" y1="271.87" x2="607.97" y2="285.53"/><line class="cls-3" x1="607.97" y1="271.87" x2="610.42" y2="268.53"/><line class="cls-3" x1="624.52" y1="285.53" x2="624.52" y2="249.47"/><line class="cls-3" x1="607.97" y1="285.53" x2="643.12" y2="285.53"/><line class="cls-3" x1="643.12" y1="277.5" x2="643.12" y2="285.53"/><line class="cls-3" x1="636.38" y1="278.22" x2="643.12" y2="278.22"/><line class="cls-3" x1="636.38" y1="278.22" x2="636.38" y2="285.53"/><line class="cls-3" x1="643.95" y1="276.63" x2="643.95" y2="249.47"/><line class="cls-3" x1="643.95" y1="276.63" x2="643.12" y2="277.5"/><line class="cls-3" x1="607.97" y1="277.07" x2="624.52" y2="277.07"/><line class="cls-3" x1="643.95" y1="264.17" x2="649.87" y2="264.17"/><line class="cls-3" x1="649.87" y1="258.17" x2="649.87" y2="279.7"/><line class="cls-3" x1="649.87" y1="279.7" x2="664.22" y2="279.7"/><line class="cls-3" x1="649.87" y1="271.43" x2="664.22" y2="271.43"/><line class="cls-3" x1="649.87" y1="258.17" x2="664.22" y2="258.17"/><line class="cls-3" x1="650.77" y1="279.7" x2="650.77" y2="286.23"/><line class="cls-3" x1="649.87" y1="286.23" x2="653.73" y2="286.23"/><line class="cls-3" x1="653.73" y1="286.23" x2="653.73" y2="303.08"/><line class="cls-3" x1="649.87" y1="286.23" x2="649.87" y2="289.9"/><line class="cls-3" x1="649.87" y1="289.9" x2="541.03" y2="289.9"/><line class="cls-3" x1="541.03" y1="286.23" x2="541.03" y2="289.9"/><line class="cls-3" x1="536.09" y1="286.23" x2="541.03" y2="286.23"/><line class="cls-3" x1="536.09" y1="286.23" x2="536.09" y2="303.08"/><line class="cls-3" x1="539.29" y1="279.57" x2="539.29" y2="286.23"/><line class="cls-3" x1="553.67" y1="279.11" x2="558.32" y2="279.11"/><line class="cls-3" x1="558.32" y1="271.8" x2="558.32" y2="280.75"/><line class="cls-3" x1="558.32" y1="280.75" x2="561.62" y2="285.4"/><line class="cls-3" x1="561.62" y1="285.4" x2="581.72" y2="285.4"/><line class="cls-3" x1="581.72" y1="266.73" x2="581.72" y2="285.4"/><line class="cls-3" x1="563.67" y1="266.73" x2="581.72" y2="266.73"/><line class="cls-3" x1="558.32" y1="271.8" x2="563.67" y2="266.73"/><line class="cls-3" x1="558.32" y1="275.57" x2="581.72" y2="275.57"/><line class="cls-3" x1="570.27" y1="266.73" x2="570.27" y2="275.57"/><line class="cls-3" x1="566.33" y1="275.57" x2="566.33" y2="285.4"/><line class="cls-3" x1="568.77" y1="266.73" x2="568.77" y2="249.47"/><line class="cls-3" x1="560.3" y1="262.03" x2="560.3" y2="249.47"/><line class="cls-3" x1="585.07" y1="37.93" x2="585.07" y2="6.42"/><path class="cls-2" d="M1305.45,421.45q-1.29,3.51-2.57,7c.85,2.37,1.71,4.75,2.57,7.12V463l-8.7,3.19V471h-14V463a9.73,9.73,0,1,0-7.58-15.58V395l6.78-2.47h9l14.52,5.3Z" transform="translate(-534.03 -240.27)"/><line class="cls-3" x1="764.04" y1="230.73" x2="743.97" y2="230.73"/><circle class="cls-3" cx="748.94" cy="212.96" r="9.72"/><line class="cls-3" x1="748.7" y1="230.73" x2="748.7" y2="222.68"/><line class="cls-3" x1="741.12" y1="154.76" x2="741.12" y2="207.11"/><line class="cls-3" x1="741.12" y1="154.76" x2="747.89" y2="152.28"/><line class="cls-3" x1="747.89" y1="152.28" x2="756.89" y2="152.28"/><line class="cls-3" x1="756.89" y1="152.28" x2="771.42" y2="157.58"/><line class="cls-3" x1="771.42" y1="157.58" x2="771.42" y2="181.18"/><line class="cls-3" x1="771.42" y1="181.18" x2="768.84" y2="188.21"/><line class="cls-3" x1="768.84" y1="188.21" x2="771.42" y2="195.33"/><line class="cls-3" x1="771.42" y1="195.33" x2="771.42" y2="222.68"/><line class="cls-3" x1="771.42" y1="222.68" x2="762.72" y2="225.87"/><line class="cls-3" x1="762.72" y1="225.87" x2="762.72" y2="230.73"/><rect class="cls-2" x="764.57" y="143.43" width="7.27" height="2.4"/><line class="cls-3" x1="764.57" y1="134.67" x2="744.02" y2="134.67"/><line class="cls-3" x1="740" y1="137.38" x2="740" y2="143.43"/><line class="cls-3" x1="744.02" y1="145.83" x2="777.44" y2="145.83"/><line class="cls-3" x1="764.57" y1="145.83" x2="764.57" y2="143.43"/><line class="cls-3" x1="764.57" y1="143.43" x2="771.83" y2="143.43"/><line class="cls-3" x1="740" y1="137.38" x2="744.02" y2="137.38"/><line class="cls-3" x1="744.02" y1="134.67" x2="744.02" y2="137.38"/><line class="cls-3" x1="744.02" y1="143.43" x2="740" y2="143.43"/><line class="cls-3" x1="744.02" y1="143.43" x2="744.02" y2="145.83"/><line class="cls-3" x1="748.79" y1="152.28" x2="748.79" y2="145.83"/><line class="cls-3" x1="756.12" y1="152.28" x2="756.12" y2="145.83"/><line class="cls-4" x1="756.12" y1="147.8" x2="756.12" y2="151.28"/><line class="cls-3" x1="771.83" y1="145.83" x2="771.83" y2="143.43"/><line class="cls-3" x1="764.57" y1="117.4" x2="764.57" y2="137.98"/><line class="cls-3" x1="764.57" y1="137.98" x2="770.22" y2="137.98"/><line class="cls-4" x1="767.39" y1="138.4" x2="767.39" y2="142.98"/><line class="cls-3" x1="770.22" y1="137.98" x2="770.22" y2="129.63"/><line class="cls-3" x1="764.57" y1="129.63" x2="777.44" y2="129.63"/><line class="cls-3" x1="778.57" y1="123.77" x2="778.57" y2="127.2"/><line class="cls-3" x1="777.44" y1="127.2" x2="777.44" y2="145.83"/><line class="cls-3" x1="811.43" y1="127.2" x2="777.44" y2="127.2"/><line class="cls-3" x1="777.44" y1="145.83" x2="778.34" y2="145.83"/><line class="cls-3" x1="778.34" y1="145.83" x2="778.34" y2="154.36"/><line class="cls-3" x1="778.34" y1="154.36" x2="777.44" y2="154.36"/><line class="cls-3" x1="777.44" y1="154.36" x2="777.44" y2="158.66"/><line class="cls-3" x1="777.44" y1="158.66" x2="778.34" y2="158.66"/><line class="cls-3" x1="778.34" y1="158.66" x2="778.34" y2="184.69"/><line class="cls-3" x1="818.23" y1="184.69" x2="777.44" y2="184.69"/><line class="cls-3" x1="777.44" y1="184.69" x2="777.44" y2="191.98"/><line class="cls-3" x1="777.44" y1="191.98" x2="818.23" y2="191.98"/><line class="cls-3" x1="778.34" y1="191.98" x2="778.34" y2="218.13"/><line class="cls-3" x1="778.34" y1="218.13" x2="777.44" y2="218.13"/><line class="cls-3" x1="777.44" y1="218.13" x2="777.44" y2="222.38"/><line class="cls-3" x1="777.44" y1="222.38" x2="778.34" y2="222.38"/><line class="cls-3" x1="778.34" y1="222.38" x2="778.34" y2="230.08"/><line class="cls-3" x1="778.34" y1="230.08" x2="771.54" y2="230.08"/><line class="cls-3" x1="777.24" y1="246.28" x2="777.24" y2="230.08"/><line class="cls-3" x1="777.24" y1="246.28" x2="778.52" y2="246.28"/><line class="cls-3" x1="778.52" y1="246.28" x2="778.52" y2="249.07"/><line class="cls-3" x1="779.1" y1="252.53" x2="779.1" y2="249.07"/><line class="cls-3" x1="810.92" y1="249.07" x2="778.52" y2="249.07"/><line class="cls-3" x1="764.43" y1="238.76" x2="764.43" y2="258.2"/><line class="cls-3" x1="764.52" y1="230.73" x2="743.97" y2="230.73"/><line class="cls-3" x1="739.95" y1="233.45" x2="739.95" y2="239.5"/><line class="cls-3" x1="743.97" y1="241.9" x2="766.23" y2="241.9"/><line class="cls-3" x1="739.95" y1="233.45" x2="743.97" y2="233.45"/><line class="cls-3" x1="743.97" y1="230.73" x2="743.97" y2="233.45"/><line class="cls-3" x1="743.97" y1="239.5" x2="739.95" y2="239.5"/><line class="cls-3" x1="743.97" y1="239.5" x2="743.97" y2="241.9"/><line class="cls-3" x1="766.23" y1="241.9" x2="766.23" y2="240.78"/><line class="cls-3" x1="766.23" y1="240.78" x2="777.24" y2="240.78"/><line class="cls-3" x1="767.89" y1="240.78" x2="767.89" y2="232.78"/><line class="cls-3" x1="771.54" y1="232.78" x2="764.52" y2="232.78"/><line class="cls-3" x1="764.52" y1="230.73" x2="764.52" y2="232.78"/><line class="cls-3" x1="764.43" y1="238.76" x2="767.89" y2="238.76"/><line class="cls-4" x1="767.89" y1="233.32" x2="767.89" y2="238.33"/><line class="cls-3" x1="771.54" y1="230.08" x2="771.54" y2="232.78"/><line class="cls-3" x1="777.44" y1="220.26" x2="818.23" y2="220.26"/><line class="cls-3" x1="777.44" y1="156.51" x2="818.23" y2="156.51"/><line class="cls-4" x1="96.44" y1="50.33" x2="99.44" y2="50.33"/><line class="cls-4" x1="84.89" y1="43.97" x2="84.89" y2="49.57"/><line class="cls-4" x1="89.58" y1="43.18" x2="93.38" y2="43.18"/><line class="cls-4" x1="75.43" y1="17.68" x2="75.43" y2="21.58"/><line class="cls-4" x1="70.5" y1="36.57" x2="74.03" y2="36.57"/><line class="cls-4" x1="46.2" y1="36.57" x2="49.4" y2="36.57"/><line class="cls-4" x1="45.3" y1="50.33" x2="48.8" y2="50.33"/><line class="cls-4" x1="64.02" y1="41.58" x2="64.02" y2="45.13"/><line class="cls-4" x1="75.5" y1="56.63" x2="75.5" y2="62.01"/><line class="cls-4" x1="75.5" y1="114.41" x2="75.5" y2="120.13"/><line class="cls-4" x1="76.58" y1="137.27" x2="82.1" y2="137.27"/><line class="cls-4" x1="75.5" y1="148.56" x2="75.5" y2="154.67"/><line class="cls-4" x1="87.79" y1="161.18" x2="87.79" y2="166.22"/><line class="cls-4" x1="76.47" y1="161.85" x2="76.47" y2="165.38"/><line class="cls-4" x1="79.94" y1="167.27" x2="83.44" y2="167.27"/><line class="cls-4" x1="65.13" y1="164.85" x2="65.13" y2="168.42"/><line class="cls-4" x1="66.43" y1="174.4" x2="69.88" y2="174.4"/><line class="cls-4" x1="44.49" y1="174.4" x2="47.57" y2="174.4"/><line class="cls-4" x1="44.53" y1="160.13" x2="47.53" y2="160.13"/><line class="cls-4" x1="76.47" y1="188.88" x2="76.47" y2="191.93"/><line class="cls-4" x1="83.9" y1="168.38" x2="83.9" y2="171.83"/><line class="cls-4" x1="83.9" y1="176.37" x2="83.9" y2="179.69"/><line class="cls-4" x1="83.9" y1="184.04" x2="83.9" y2="187.19"/><line class="cls-4" x1="83.9" y1="189.08" x2="83.9" y2="192.21"/><line class="cls-4" x1="101.59" y1="167.27" x2="105.07" y2="167.27"/><line class="cls-4" x1="129.53" y1="167.27" x2="133.08" y2="167.27"/><line class="cls-4" x1="125.57" y1="160.13" x2="129.05" y2="160.13"/><line class="cls-4" x1="144.03" y1="160.13" x2="147.59" y2="160.13"/><line class="cls-4" x1="157.72" y1="167.27" x2="160.95" y2="167.27"/><line class="cls-4" x1="167.4" y1="167.27" x2="170.62" y2="167.27"/><line class="cls-4" x1="175.1" y1="161.16" x2="175.1" y2="166.22"/><line class="cls-4" x1="178.45" y1="160.13" x2="181.9" y2="160.13"/><line class="cls-4" x1="178.45" y1="167.27" x2="181.77" y2="167.27"/><line class="cls-4" x1="190.66" y1="167.27" x2="193.82" y2="167.27"/><line class="cls-4" x1="202.41" y1="167.27" x2="205.98" y2="167.27"/><line class="cls-4" x1="224.09" y1="167.27" x2="227.68" y2="167.27"/><line class="cls-4" x1="245.5" y1="162.1" x2="245.5" y2="165.25"/><line class="cls-4" x1="247.57" y1="167.27" x2="251.1" y2="167.27"/><line class="cls-4" x1="245.5" y1="149.56" x2="245.5" y2="152.91"/><line class="cls-4" x1="245.5" y1="181.58" x2="245.5" y2="187.18"/><line class="cls-4" x1="257.37" y1="186.46" x2="257.37" y2="189.93"/><line class="cls-4" x1="252.12" y1="146.38" x2="252.12" y2="149.56"/><line class="cls-4" x1="254.22" y1="159.62" x2="254.22" y2="161.84"/><line class="cls-4" x1="259.13" y1="167.27" x2="262.68" y2="167.27"/><line class="cls-4" x1="252.12" y1="103.44" x2="252.12" y2="106.09"/><line class="cls-4" x1="252.12" y1="81.95" x2="252.12" y2="84.97"/><line class="cls-4" x1="254.72" y1="51.98" x2="258.19" y2="51.98"/><line class="cls-4" x1="254.72" y1="43.18" x2="258.19" y2="43.18"/><line class="cls-4" x1="246.32" y1="43.18" x2="249.78" y2="43.18"/><line class="cls-4" x1="252.12" y1="35.53" x2="252.12" y2="39"/><line class="cls-4" x1="242.69" y1="44" x2="242.69" y2="49.55"/><line class="cls-4" x1="245.22" y1="33.53" x2="248.03" y2="33.53"/><line class="cls-4" x1="224.42" y1="43.18" x2="227.77" y2="43.18"/><line class="cls-4" x1="225.27" y1="34.87" x2="228.13" y2="34.87"/><line class="cls-4" x1="236" y1="34.87" x2="238.28" y2="34.87"/><line class="cls-4" x1="216.8" y1="43.18" x2="219.92" y2="43.18"/><line class="cls-4" x1="198.5" y1="43.18" x2="201.55" y2="43.18"/><line class="cls-4" x1="173.43" y1="43.18" x2="176.5" y2="43.18"/><line class="cls-4" x1="149.07" y1="43.18" x2="152.08" y2="43.18"/><line class="cls-4" x1="138.95" y1="43.18" x2="141.67" y2="43.18"/><line class="cls-4" x1="126" y1="43.18" x2="128.68" y2="43.18"/><line class="cls-4" x1="76.57" y1="73.77" x2="82.12" y2="73.77"/><line class="cls-4" x1="71.79" y1="89.2" x2="74.4" y2="89.2"/><line class="cls-4" x1="71.62" y1="122.07" x2="74.38" y2="122.07"/><line class="cls-4" x1="114.83" y1="219.83" x2="114.83" y2="222.81"/><line class="cls-4" x1="109.87" y1="225.4" x2="113.17" y2="225.4"/><line class="cls-4" x1="114.83" y1="228.91" x2="114.83" y2="231.81"/><line class="cls-4" x1="125.27" y1="250.42" x2="125.27" y2="253.3"/><line class="cls-4" x1="158.1" y1="251.48" x2="158.1" y2="256.33"/><line class="cls-4" x1="168.37" y1="257.58" x2="168.37" y2="260.23"/><line class="cls-4" x1="161.64" y1="265.66" x2="166.57" y2="265.66"/><line class="cls-4" x1="158.1" y1="243.76" x2="158.1" y2="247.88"/><line class="cls-4" x1="168.37" y1="271.25" x2="168.37" y2="273.82"/><line class="cls-4" x1="161.52" y1="330.63" x2="166.69" y2="330.63"/><line class="cls-4" x1="160.28" y1="336.71" x2="160.28" y2="339.33"/><line class="cls-4" x1="168.37" y1="334.51" x2="168.37" y2="339.73"/><line class="cls-4" x1="152.37" y1="226.13" x2="157.59" y2="226.13"/><line class="cls-4" x1="150.1" y1="221.71" x2="150.1" y2="224.58"/><line class="cls-4" x1="163.27" y1="226.13" x2="166.22" y2="226.13"/><line class="cls-4" x1="171.84" y1="226.13" x2="174.99" y2="226.13"/><line class="cls-4" x1="178.07" y1="220.28" x2="178.07" y2="223.14"/><line class="cls-4" x1="171.44" y1="221.23" x2="174.42" y2="221.23"/><line class="cls-4" x1="178.07" y1="233.33" x2="178.07" y2="236.28"/><line class="cls-4" x1="219.07" y1="244.1" x2="219.07" y2="247.07"/><line class="cls-4" x1="228.62" y1="306.87" x2="228.62" y2="310.07"/><line class="cls-4" x1="233.39" y1="314.18" x2="236.49" y2="314.18"/><line class="cls-4" x1="232.77" y1="320.63" x2="232.77" y2="323.71"/><line class="cls-4" x1="236.79" y1="324.53" x2="241.52" y2="324.53"/><line class="cls-4" x1="271.73" y1="324.53" x2="276.4" y2="324.53"/><line class="cls-4" x1="286.2" y1="332.31" x2="286.2" y2="338.46"/><line class="cls-4" x1="289.73" y1="314.18" x2="294.33" y2="314.18"/><line class="cls-4" x1="316.7" y1="316.53" x2="319.9" y2="316.53"/><line class="cls-4" x1="322.67" y1="316.53" x2="325.77" y2="316.53"/><line class="cls-4" x1="333.62" y1="316.53" x2="336.7" y2="316.53"/><line class="cls-4" x1="343.38" y1="316.53" x2="346.57" y2="316.53"/><line class="cls-4" x1="352.9" y1="317.12" x2="352.9" y2="321.68"/><line class="cls-4" x1="359.57" y1="312.4" x2="359.57" y2="315.63"/><line class="cls-4" x1="362.9" y1="311.73" x2="366.17" y2="311.73"/><line class="cls-4" x1="368.63" y1="314.1" x2="372.38" y2="314.1"/><line class="cls-4" x1="376.43" y1="316.61" x2="379.57" y2="316.61"/><line class="cls-4" x1="381.73" y1="317.12" x2="381.73" y2="321.7"/><line class="cls-4" x1="385.12" y1="316.61" x2="389.89" y2="316.61"/><line class="cls-4" x1="438.12" y1="316.61" x2="442.87" y2="316.61"/><line class="cls-4" x1="469.3" y1="310.28" x2="474.03" y2="310.28"/><line class="cls-4" x1="489.17" y1="311.96" x2="489.17" y2="315.2"/><line class="cls-3" x1="468.22" y1="316.53" x2="470.93" y2="316.53"/><line class="cls-5" x1="281.42" y1="14.93" x2="245.22" y2="14.93"/><line class="cls-5" x1="245.22" y1="11.93" x2="245.22" y2="14.93"/><line class="cls-5" x1="245.22" y1="11.93" x2="221.42" y2="11.93"/><line class="cls-5" x1="206.27" y1="15.51" x2="155.7" y2="15.51"/><path class="cls-5" d="M755.45,256a8.71,8.71,0,0,0-7.6-4.55,9.26,9.26,0,0,0-7.55,4.32" transform="translate(-534.03 -240.27)"/><line class="cls-5" x1="155.7" y1="15.51" x2="155.7" y2="12.13"/><line class="cls-5" x1="133.07" y1="12.13" x2="133.07" y2="15.51"/><line class="cls-5" x1="97.12" y1="11.68" x2="97.12" y2="15.51"/><line class="cls-5" x1="75.43" y1="11.68" x2="97.12" y2="11.68"/><line class="cls-5" x1="75.43" y1="14.3" x2="75.43" y2="11.68"/><line class="cls-5" x1="75.43" y1="14.3" x2="39.2" y2="14.3"/><line class="cls-5" x1="39.2" y1="14.3" x2="39.2" y2="36.57"/><line class="cls-5" x1="39.2" y1="36.57" x2="41.82" y2="36.57"/><line class="cls-5" x1="41.82" y1="36.57" x2="41.82" y2="50.33"/><line class="cls-5" x1="41.82" y1="50.33" x2="38.3" y2="50.33"/><line class="cls-5" x1="38.3" y1="50.33" x2="38.3" y2="113.13"/><line class="cls-5" x1="38.3" y1="113.13" x2="38.3" y2="161.43"/><line class="cls-5" x1="38.3" y1="161.43" x2="41.7" y2="161.43"/><line class="cls-5" x1="41.7" y1="161.43" x2="41.7" y2="174.4"/><line class="cls-5" x1="38.3" y1="174.4" x2="41.7" y2="174.4"/><line class="cls-5" x1="38.3" y1="197.58" x2="38.3" y2="174.4"/><line class="cls-5" x1="43.27" y1="197.58" x2="38.3" y2="197.58"/><line class="cls-5" x1="43.27" y1="209.08" x2="43.27" y2="197.58"/><line class="cls-5" x1="2.85" y1="209.08" x2="43.27" y2="209.08"/><line class="cls-5" x1="0.5" y1="211.8" x2="0.5" y2="224.13"/><path class="cls-5" d="M534.53,452.07a2.79,2.79,0,0,1,.64-1.81,2.74,2.74,0,0,1,1.71-.91" transform="translate(-534.03 -240.27)"/><line class="cls-5" x1="0.5" y1="224.13" x2="2.4" y2="224.13"/><line class="cls-5" x1="2.4" y1="233.6" x2="0.5" y2="233.6"/><line class="cls-5" x1="2.4" y1="224.13" x2="2.4" y2="233.6"/><line class="cls-5" x1="0.5" y1="233.6" x2="0.5" y2="248.87"/><line class="cls-5" x1="0.5" y1="248.87" x2="74.83" y2="248.87"/><line class="cls-5" x1="74.83" y1="244.38" x2="74.83" y2="248.87"/><line class="cls-5" x1="94.43" y1="247.33" x2="74.83" y2="244.38"/><path class="cls-5" d="M622.57,482.5" transform="translate(-534.03 -240.27)"/><path class="cls-5" d="M622.57,484.13" transform="translate(-534.03 -240.27)"/><path class="cls-5" d="M622.57,484.13" transform="translate(-534.03 -240.27)"/><path class="cls-5" d="M631.37,484.13" transform="translate(-534.03 -240.27)"/><line class="cls-5" x1="97.33" y1="223.57" x2="97.33" y2="247.33"/><line class="cls-5" x1="85.83" y1="223.57" x2="97.33" y2="223.57"/><line class="cls-5" x1="85.83" y1="209" x2="85.83" y2="223.57"/><line class="cls-5" x1="75.33" y1="209" x2="85.83" y2="209"/><line class="cls-5" x1="75.33" y1="209" x2="75.33" y2="199.07"/><line class="cls-5" x1="75.33" y1="199.07" x2="98.37" y2="199.07"/><line class="cls-5" x1="98.37" y1="194.47" x2="98.37" y2="199.07"/><line class="cls-5" x1="98.37" y1="194.47" x2="114.83" y2="194.47"/><line class="cls-5" x1="114.83" y1="194.47" x2="114.83" y2="217.73"/><line class="cls-5" x1="94.43" y1="247.33" x2="107.77" y2="247.33"/><line class="cls-5" x1="121.17" y1="267.13" x2="107.77" y2="267.13"/><line class="cls-5" x1="137.64" y1="344.33" x2="137.64" y2="265.66"/><line class="cls-5" x1="121.17" y1="267.13" x2="137.64" y2="265.66"/><line class="cls-5" x1="137.64" y1="344.33" x2="170.77" y2="344.33"/><line class="cls-5" x1="285.57" y1="346.53" x2="170.77" y2="346.53"/><line class="cls-5" x1="170.77" y1="344.33" x2="170.77" y2="346.53"/><path class="cls-5" d="M819.6,586.8a15,15,0,0,0,8.95-2.8c6.59-5,5.28-14.54,12.05-17.7a10,10,0,0,1,4-.9" transform="translate(-534.03 -240.27)"/><line class="cls-5" x1="310.57" y1="294.68" x2="310.57" y2="292.53"/><line class="cls-5" x1="310.57" y1="292.53" x2="214.27" y2="292.53"/><line class="cls-5" x1="214.27" y1="292.53" x2="214.27" y2="324.53"/><line class="cls-5" x1="197.07" y1="324.53" x2="214.27" y2="324.53"/><line class="cls-5" x1="197.07" y1="332.08" x2="197.07" y2="324.53"/><line class="cls-5" x1="197.07" y1="332.08" x2="182.92" y2="332.08"/><line class="cls-5" x1="182.92" y1="332.08" x2="182.92" y2="276.6"/><line class="cls-5" x1="182.92" y1="276.6" x2="195.62" y2="276.6"/><line class="cls-5" x1="195.62" y1="276.6" x2="195.62" y2="251.77"/><line class="cls-5" x1="195.62" y1="251.77" x2="231.33" y2="255.67"/><line class="cls-5" x1="231.33" y1="255.67" x2="296.27" y2="258.93"/><line class="cls-5" x1="296.27" y1="258.93" x2="296.27" y2="226.93"/><line class="cls-5" x1="295.42" y1="226.93" x2="296.27" y2="226.93"/><line class="cls-5" x1="295.42" y1="226.93" x2="295.42" y2="194.33"/><line class="cls-5" x1="295.42" y1="194.33" x2="303.83" y2="194.33"/><line class="cls-5" x1="303.83" y1="194.33" x2="303.83" y2="167.47"/><line class="cls-5" x1="303.83" y1="167.47" x2="279.25" y2="167.47"/><line class="cls-5" x1="279.25" y1="167.47" x2="279.25" y2="42.07"/><line class="cls-5" x1="279.25" y1="42.07" x2="281.53" y2="42.07"/><line class="cls-5" x1="281.53" y1="42.07" x2="281.53" y2="14.93"/><line class="cls-5" x1="133.07" y1="15.51" x2="97.12" y2="15.51"/><line class="cls-5" x1="309.49" y1="325.13" x2="309.49" y2="322.6"/><line class="cls-5" x1="495.77" y1="322.6" x2="495.77" y2="316.53"/><line class="cls-5" x1="495.77" y1="316.53" x2="501" y2="316.53"/><line class="cls-5" x1="501" y1="316.53" x2="501" y2="294.68"/><line class="cls-5" x1="523.42" y1="294.68" x2="310.57" y2="294.68"/><line class="cls-5" x1="309.49" y1="322.6" x2="495.77" y2="322.6"/><line class="cls-5" x1="479.3" y1="192.59" x2="433.32" y2="175.14"/><line class="cls-5" x1="556.67" y1="247.43" x2="556.67" y2="125.13"/><line class="cls-5" x1="556.67" y1="125.13" x2="466.43" y2="125.13"/><line class="cls-5" x1="466.43" y1="125.13" x2="466.43" y2="118.27"/><line class="cls-5" x1="466.43" y1="118.27" x2="385.93" y2="105.33"/><line class="cls-5" x1="385.93" y1="105.33" x2="384.83" y2="111.17"/><path class="cls-5" d="M918.87,351.43c-.46,3-.84,6.33-1.07,9.87-.23,3.77-.27,7.28-.17,10.5" transform="translate(-534.03 -240.27)"/><line class="cls-5" x1="666.43" y1="247.43" x2="666.43" y2="305.21"/><line class="cls-5" x1="666.43" y1="247.43" x2="556.67" y2="247.43"/><line class="cls-5" x1="523.42" y1="298.53" x2="525.77" y2="298.53"/><line class="cls-5" x1="525.77" y1="298.53" x2="525.77" y2="305.21"/><line class="cls-5" x1="572.07" y1="120.2" x2="572.07" y2="100.93"/><line class="cls-5" x1="540.37" y1="100.93" x2="572.07" y2="100.93"/><line class="cls-5" x1="540.37" y1="100.93" x2="566.56" y2="0.5"/><line class="cls-5" x1="729.37" y1="23.63" x2="700.17" y2="23.63"/><path class="cls-5" d="M1100.6,240.77a409.06,409.06,0,0,0,65.2,17,409.1,409.1,0,0,0,68.4,6.1" transform="translate(-534.03 -240.27)"/><line class="cls-5" x1="729.37" y1="23.63" x2="729.37" y2="102.2"/><line class="cls-5" x1="701.3" y1="102.2" x2="729.37" y2="102.2"/><line class="cls-5" x1="701.3" y1="120.2" x2="701.3" y2="102.2"/><line class="cls-5" x1="572.07" y1="120.2" x2="673.5" y2="120.2"/><line class="cls-5" x1="712.37" y1="123.77" x2="732.97" y2="123.77"/><line class="cls-5" x1="732.97" y1="117.4" x2="732.97" y2="123.77"/><line class="cls-5" x1="778.57" y1="117.4" x2="732.97" y2="117.4"/><line class="cls-5" x1="778.57" y1="123.77" x2="778.57" y2="117.4"/><line class="cls-5" x1="778.57" y1="123.77" x2="811.43" y2="123.77"/><line class="cls-5" x1="811.43" y1="127.2" x2="811.43" y2="123.77"/><line class="cls-5" x1="818.23" y1="127.2" x2="811.43" y2="127.2"/><line class="cls-5" x1="818.23" y1="127.2" x2="818.23" y2="249.07"/><line class="cls-5" x1="810.92" y1="249.07" x2="818.23" y2="249.07"/><line class="cls-5" x1="810.92" y1="252.53" x2="810.92" y2="249.07"/><line class="cls-5" x1="779.1" y1="252.53" x2="810.92" y2="252.53"/><line class="cls-5" x1="733.3" y1="258.2" x2="779.1" y2="258.2"/><line class="cls-5" x1="779.1" y1="258.2" x2="779.1" y2="252.53"/><line class="cls-5" x1="733.3" y1="258.2" x2="733.3" y2="252.53"/><line class="cls-5" x1="733.3" y1="252.53" x2="712.37" y2="252.53"/><line class="cls-5" x1="712.37" y1="252.53" x2="712.37" y2="123.77"/><line class="cls-5" x1="706.17" y1="188.35" x2="712.37" y2="188.35"/><line class="cls-5" x1="701.5" y1="183.4" x2="701.5" y2="160.53"/><line class="cls-5" x1="712.37" y1="157.5" x2="706.13" y2="156.4"/><path class="cls-5" d="M1235.53,423.67a4.87,4.87,0,0,0,4.67,4.95" transform="translate(-534.03 -240.27)"/><path class="cls-5" d="M1235.53,400.8a4.28,4.28,0,0,1,1.69-3.55,4,4,0,0,1,3-.58" transform="translate(-534.03 -240.27)"/><line class="cls-5" x1="534.17" y1="352.53" x2="596.85" y2="352.53"/><line class="cls-5" x1="534.17" y1="352.53" x2="534.17" y2="399.33"/><line class="cls-5" x1="534.17" y1="399.33" x2="596.85" y2="399.33"/><line class="cls-5" x1="596.85" y1="399.33" x2="596.85" y2="352.53"/><line class="cls-5" x1="424.77" y1="384.73" x2="467.37" y2="384.73"/><line class="cls-5" x1="424.77" y1="384.73" x2="424.77" y2="469.93"/><line class="cls-5" x1="424.77" y1="469.93" x2="467.37" y2="469.93"/><line class="cls-5" x1="467.37" y1="469.93" x2="467.37" y2="384.73"/><line class="cls-5" x1="107.77" y1="267.13" x2="107.77" y2="247.33"/><line class="cls-5" x1="433.32" y1="175.14" x2="383.6" y2="205.3"/><line class="cls-5" x1="363.9" y1="131.53" x2="383.6" y2="131.53"/><path class="cls-5" d="M897.93,371.8a143,143,0,0,0,19.7,73.77" transform="translate(-534.03 -240.27)"/><line class="cls-5" x1="479.3" y1="192.59" x2="479.3" y2="294.68"/><line class="cls-5" x1="523.42" y1="298.53" x2="523.42" y2="294.68"/><line class="cls-5" x1="97.33" y1="225.4" x2="108.43" y2="225.4"/><line class="cls-5" x1="108.43" y1="217.73" x2="108.43" y2="225.4"/><line class="cls-5" x1="114.83" y1="217.73" x2="108.43" y2="217.73"/><line class="cls-5" x1="133.07" y1="12.13" x2="155.7" y2="12.13"/><line class="cls-5" x1="221.42" y1="15.73" x2="221.42" y2="11.93"/><line class="cls-5" x1="525.77" y1="305.21" x2="666.43" y2="305.21"/><line class="cls-4" x1="523.42" y1="280.51" x2="523.42" y2="285.41"/><line class="cls-4" x1="539.29" y1="280.51" x2="539.29" y2="285.41"/><line class="cls-4" x1="541.03" y1="286.81" x2="541.03" y2="289.51"/><line class="cls-4" x1="548.89" y1="289.9" x2="551.69" y2="289.9"/><line class="cls-4" x1="554.04" y1="289.9" x2="556.84" y2="289.9"/><line class="cls-4" x1="554.69" y1="279.11" x2="557.22" y2="279.11"/><line class="cls-4" x1="559.12" y1="281.88" x2="560.78" y2="284.22"/><line class="cls-4" x1="565.73" y1="289.9" x2="568.6" y2="289.9"/><line class="cls-4" x1="570.88" y1="289.9" x2="573.7" y2="289.9"/><line class="cls-4" x1="552.62" y1="270.55" x2="552.62" y2="268.02"/><line class="cls-4" x1="541.63" y1="271.23" x2="544.42" y2="271.23"/><line class="cls-4" x1="540.48" y1="271.23" x2="537.72" y2="271.23"/><line class="cls-4" x1="535.8" y1="267.68" x2="535.8" y2="270.48"/><line class="cls-4" x1="536.78" y1="257.27" x2="539.33" y2="257.27"/><line class="cls-4" x1="540.53" y1="257.27" x2="543.05" y2="257.27"/><line class="cls-4" x1="554.16" y1="262.03" x2="556.67" y2="262.03"/><line class="cls-4" x1="562.04" y1="268.28" x2="560.03" y2="270.17"/><line class="cls-4" x1="564.75" y1="262.03" x2="567.3" y2="262.03"/><line class="cls-4" x1="568.77" y1="263.13" x2="568.77" y2="265.59"/><line class="cls-4" x1="570.27" y1="262.03" x2="572.79" y2="262.03"/><line class="cls-4" x1="580.7" y1="266.73" x2="577.84" y2="266.73"/><line class="cls-4" x1="586.3" y1="263.83" x2="586.3" y2="266.31"/><line class="cls-4" x1="590.04" y1="279.33" x2="592.84" y2="279.33"/><line class="cls-4" x1="596.27" y1="279.33" x2="599.07" y2="279.33"/><line class="cls-4" x1="577.82" y1="285.4" x2="580.69" y2="285.4"/><line class="cls-4" x1="582.57" y1="289.9" x2="585.37" y2="289.9"/><line class="cls-4" x1="587.72" y1="289.9" x2="590.54" y2="289.9"/><line class="cls-4" x1="599.37" y1="289.9" x2="602.19" y2="289.9"/><line class="cls-4" x1="604.54" y1="289.9" x2="607.42" y2="289.9"/><line class="cls-4" x1="596.43" y1="267.01" x2="598.55" y2="267.01"/><line class="cls-4" x1="603.39" y1="263.83" x2="603.39" y2="266.3"/><line class="cls-4" x1="604.47" y1="261.43" x2="607.28" y2="261.43"/><line class="cls-4" x1="611.9" y1="265.62" x2="611.9" y2="268.08"/><line class="cls-4" x1="619.79" y1="285.53" x2="622.64" y2="285.53"/><line class="cls-4" x1="624.52" y1="275.58" x2="624.52" y2="272.77"/><line class="cls-4" x1="626.43" y1="285.53" x2="629.28" y2="285.53"/><line class="cls-4" x1="616.23" y1="289.9" x2="619.07" y2="289.9"/><line class="cls-4" x1="621.38" y1="289.9" x2="624.18" y2="289.9"/><line class="cls-4" x1="632.97" y1="289.9" x2="635.82" y2="289.9"/><line class="cls-4" x1="638.15" y1="289.9" x2="640.93" y2="289.9"/><line class="cls-3" x1="636.97" y1="285.53" x2="636.97" y2="303.08"/><line class="cls-3" x1="544.39" y1="289.9" x2="544.39" y2="303.08"/><line class="cls-3" x1="552.84" y1="289.9" x2="552.84" y2="303.08"/><line class="cls-3" x1="561.27" y1="289.9" x2="561.27" y2="303.08"/><line class="cls-3" x1="569.72" y1="289.9" x2="569.72" y2="303.08"/><line class="cls-3" x1="578.14" y1="289.9" x2="578.14" y2="303.08"/><line class="cls-3" x1="586.54" y1="289.9" x2="586.54" y2="303.08"/><line class="cls-3" x1="594.93" y1="289.9" x2="594.93" y2="303.08"/><line class="cls-3" x1="603.37" y1="289.9" x2="603.37" y2="303.08"/><line class="cls-3" x1="611.79" y1="289.9" x2="611.79" y2="303.08"/><line class="cls-3" x1="620.24" y1="289.9" x2="620.24" y2="303.08"/><line class="cls-3" x1="628.59" y1="289.9" x2="628.59" y2="303.08"/><line class="cls-3" x1="644.97" y1="289.9" x2="644.97" y2="303.08"/><line class="cls-4" x1="636.97" y1="289.13" x2="636.97" y2="286.33"/><line class="cls-4" x1="639.67" y1="285.53" x2="642.43" y2="285.53"/><line class="cls-4" x1="636.38" y1="283.53" x2="636.38" y2="280.73"/><line class="cls-4" x1="649.87" y1="289.53" x2="649.87" y2="286.72"/><line class="cls-4" x1="650.77" y1="285.37" x2="650.77" y2="280.45"/><line class="cls-4" x1="649.87" y1="276.91" x2="649.87" y2="274.43"/><line class="cls-4" x1="649.87" y1="265.08" x2="649.87" y2="267.53"/><line class="cls-4" x1="645.62" y1="264.17" x2="648.42" y2="264.17"/><line class="cls-4" x1="772.17" y1="145.83" x2="777.07" y2="145.83"/><line class="cls-4" x1="770.22" y1="133.43" x2="770.22" y2="137.13"/><line class="cls-4" x1="771.1" y1="129.63" x2="774.39" y2="129.63"/><line class="cls-4" x1="778.34" y1="152.09" x2="778.34" y2="148.86"/><line class="cls-4" x1="778.34" y1="160.73" x2="778.34" y2="163.94"/><line class="cls-4" x1="778.34" y1="216.05" x2="778.34" y2="212.81"/><line class="cls-4" x1="778.34" y1="224.47" x2="778.34" y2="227.73"/><line class="cls-4" x1="772.13" y1="230.08" x2="776.78" y2="230.08"/><line class="cls-4" x1="776.61" y1="240.78" x2="773.38" y2="240.78"/><line class="cls-4" x1="581.08" y1="37.93" x2="584.78" y2="37.93"/><rect class="cls-2" x="83.9" y="147.06" width="4.73" height="1.53"/><rect class="cls-2" x="83.9" y="152.88" width="4.73" height="2.22"/><line class="cls-3" x1="88.63" y1="148.59" x2="83.9" y2="148.59"/><line class="cls-3" x1="83.9" y1="152.88" x2="88.63" y2="152.88"/><line class="cls-3" x1="83.9" y1="146.73" x2="83.9" y2="155.43"/><line class="cls-4" x1="83.9" y1="149.29" x2="83.9" y2="152.47"/><line class="cls-3" x1="83.9" y1="146.73" x2="88.63" y2="146.73"/><line class="cls-3" x1="83.9" y1="155.43" x2="88.63" y2="155.43"/><line class="cls-3" x1="88.63" y1="146.73" x2="88.63" y2="155.43"/><line class="cls-3" x1="525.77" y1="279.57" x2="525.77" y2="280.07"/><line class="cls-3" x1="611.9" y1="249.47" x2="664.22" y2="249.47"/><line class="cls-3" x1="687.4" y1="100.28" x2="687.4" y2="120.2"/><line class="cls-5" x1="673.5" y1="120.2" x2="701.3" y2="120.2"/><line class="cls-4" x1="696.37" y1="100.28" x2="699.94" y2="100.28"/></svg>