<svg id="Layer_3" data-name="Layer 3" xmlns="http://www.w3.org/2000/svg" viewBox="0 0 818.74 470.43"><defs><style>.cls-1{fill:#fff;}.cls-2{fill:#999;stroke:#999;}.cls-2,.cls-3,.cls-5{stroke-linecap:round;}.cls-2,.cls-4{stroke-linejoin:round;}.cls-2,.cls-3,.cls-4{stroke-width:0.5px;}.cls-3,.cls-4,.cls-5{fill:none;}.cls-3{stroke:#666;}.cls-3,.cls-5{stroke-miterlimit:10;}.cls-4{stroke:#3fa9f5;}.cls-5{stroke:#000;}</style></defs><title>Stratford F4</title><polygon class="cls-1" points="733.55 257.95 733.55 252.28 712.62 252.28 712.62 124.02 733.22 124.02 733.22 117.65 778.32 117.65 778.32 124.02 811.18 124.02 811.18 127.45 817.99 127.45 817.99 248.81 810.67 248.82 810.67 252.28 778.85 252.28 778.85 257.95 733.55 257.95"/><path class="cls-1" d="M1267.5,358.17h44.6v6.36H1345V368h6.8V488.83h-7.32v3.47h-31.82V498h-44.8V492.3H1246.9V364.53h20.6v-6.36m-.5-.5V364h-20.6V492.8h20.93v5.67h45.8V492.8H1345v-3.47h7.32V367.47h-6.8V364H1312.6v-6.36Zm78.47,6.36Z" transform="translate(-534.03 -240.27)"/><polygon class="cls-1" points="526.02 304.96 526.02 298.28 523.67 298.28 523.67 294.43 501 294.43 479.55 294.35 479.55 247.25 556.66 247.68 666.18 247.68 666.18 304.96 526.02 304.96"/><path class="cls-1" d="M1013.83,487.77l25.53.14,51.34.29H1200V545H1060.3V538.3H1058v-3.85H1035l-10.86,0-10.35,0v-46.6m-.5-.5v47.6l21.7.08h22.42v3.85h2.35v6.68h140.67V487.7H1090.7l-77.37-.43Z" transform="translate(-534.03 -240.27)"/><path class="cls-2" d="M1235.33,360.47H1106.1V341.2h-31.7q13.1-50.22,26.2-100.43a407.25,407.25,0,0,0,49.93,14.06,458.13,458.13,0,0,0,71.38,8.83c16.81.81,31,.62,41.49.24v78.57h-28.07Z" transform="translate(-534.03 -240.27)"/><path class="cls-2" d="M1090.7,426.14V487.7h109.77v57.78H1059.8v-2.13h138.45V489.73H1059.8V538.8h-2.35V535H1035V556.8h-5.23v6.07H843.53v2.53a10,10,0,0,0-2.93.9c-6.45,3.16-5.36,11.71-11,16.82-2,1.85-5.82,3.39-10,3.68a18.18,18.18,0,0,1-2.47,0H704.8v-2.2H671.67V505.93L655.2,507.4H641.8V487.6H628.47l-19.6-3v4.48H534.53V473.87h1.9V464.4h-1.9V452.07a2.79,2.79,0,0,1,.64-1.81,2.74,2.74,0,0,1,1.71-.91H577.3v-11.5h-5V414.67h3.4v-13h-3.4V290.6h3.52V276.83h-2.62V254.57h36.24V252h21.68v3.82h36V252.6l22.63-.2v3.38H740.3a8.68,8.68,0,0,1,15.15.22v-3.8h23.8v3h36.2l.12,27.13h-2.29v125.4h24.59V434.6h-8.42v32.6h.85v32l-64.93-3.27L729.65,492v24.84H717v55.48H731.1V564.8h17.2v-32h96.3V535l168.73-.08v-102l-46-17.45-49.72,30.17a143.09,143.09,0,0,1-19.7-73.77h19.7A108.88,108.88,0,0,1,920,345.6l80.5,12.93v6.87h90.23Z" transform="translate(-534.03 -240.27)"/><path class="cls-2" d="M1267,357.67h31.6v17.26h-20.55v2.72h-4v6.05h4v2.4h4.77v6.45h-.89l-6.78,2.47v52.35a9.85,9.85,0,0,0,0,11.63v12H1278v2.72h-4v6h4v2.4h20.33q.08,8.15.14,16.3h-31.14V492.8H1246.4V364H1267Z" transform="translate(-534.03 -240.27)"/><path class="cls-2" d="M1289.73,460.22a9.73,9.73,0,1,1-.13-14.12A9.89,9.89,0,0,1,1289.73,460.22Z" transform="translate(-534.03 -240.27)"/><path class="cls-2" d="M1306.12,473.73h-4.19v-.68h-3.38V471h7.57Z" transform="translate(-534.03 -240.27)"/><path class="cls-2" d="M1298.47,479h4.25v2.53h-2.48V487h-1.77Z" transform="translate(-534.03 -240.27)"/><rect class="cls-2" x="811.43" y="127.2" width="6.8" height="121.87"/><rect class="cls-2" x="778.57" y="123.77" width="32.87" height="3.43"/><rect class="cls-2" x="779.1" y="249.07" width="31.82" height="3.47"/><rect class="cls-2" x="777.53" y="181.96" width="5.08" height="12.89"/><rect class="cls-2" x="764.57" y="143.43" width="7.4" height="2.4"/><line class="cls-3" x1="810.92" y1="249.07" x2="779.1" y2="249.07"/><line class="cls-3" x1="779.1" y1="252.53" x2="779.1" y2="246.73"/><line class="cls-3" x1="811.43" y1="127.2" x2="811.43" y2="249.07"/><line class="cls-3" x1="778.57" y1="123.77" x2="778.57" y2="129.28"/><line class="cls-3" x1="811.43" y1="127.2" x2="778.57" y2="127.2"/><rect class="cls-2" x="534.17" y="352.53" width="62.68" height="46.8"/><rect class="cls-2" x="424.77" y="384.73" width="42.6" height="85.2"/><line class="cls-3" x1="664.22" y1="303.08" x2="525.77" y2="303.08"/><rect class="cls-2" x="586.3" y="267.05" width="17.69" height="5.06"/><path class="cls-2" d="M1246.4,428.62h-6.2a4.87,4.87,0,0,1-4.67-4.95V400.8a4.1,4.1,0,0,1,1.39-3.32,4,4,0,0,1,3.25-.81l6.23,1.09Z" transform="translate(-534.03 -240.27)"/><rect class="cls-2" x="602.44" y="272.11" width="1.55" height="7.23"/><line class="cls-3" x1="525.77" y1="286.23" x2="525.77" y2="298.53"/><path class="cls-3" d="M1059.8,526.5" transform="translate(-534.03 -240.27)"/><path class="cls-3" d="M1057.45,526.5" transform="translate(-534.03 -240.27)"/><path class="cls-3" d="M1057.45,520.33" transform="translate(-534.03 -240.27)"/><path class="cls-3" d="M1059.8,520.33" transform="translate(-534.03 -240.27)"/><line class="cls-3" x1="525.77" y1="286.23" x2="525.77" y2="249.47"/><line class="cls-3" x1="525.77" y1="249.47" x2="664.22" y2="249.47"/><line class="cls-3" x1="664.22" y1="249.47" x2="664.22" y2="303.08"/><path class="cls-3" d="M1059.8,511.5" transform="translate(-534.03 -240.27)"/><line class="cls-3" x1="545.07" y1="279.57" x2="529.9" y2="279.57"/><line class="cls-3" x1="529.9" y1="279.57" x2="525.77" y2="279.57"/><line class="cls-3" x1="586.3" y1="279.33" x2="603.99" y2="279.33"/><line class="cls-3" x1="586.3" y1="272.11" x2="602.44" y2="272.11"/><line class="cls-3" x1="594.54" y1="272.11" x2="594.54" y2="279.33"/><line class="cls-3" x1="602.44" y1="272.11" x2="602.44" y2="279.33"/><line class="cls-3" x1="650.77" y1="279.7" x2="664.22" y2="279.7"/><line class="cls-3" x1="650.77" y1="279.7" x2="650.77" y2="286.23"/><line class="cls-3" x1="649.87" y1="286.23" x2="653.73" y2="286.23"/><line class="cls-3" x1="653.73" y1="286.23" x2="653.73" y2="303.08"/><line class="cls-3" x1="649.87" y1="286.23" x2="649.87" y2="289.9"/><line class="cls-3" x1="649.87" y1="289.9" x2="540.08" y2="289.9"/><line class="cls-3" x1="536.09" y1="286.23" x2="540.08" y2="286.23"/><line class="cls-3" x1="536.09" y1="286.23" x2="536.09" y2="303.08"/><line class="cls-3" x1="539.29" y1="279.57" x2="539.29" y2="286.23"/><path class="cls-3" d="M1115.75,525.67" transform="translate(-534.03 -240.27)"/><path class="cls-3" d="M1115.75,515.83" transform="translate(-534.03 -240.27)"/><path class="cls-4" d="M1057.45,525.67" transform="translate(-534.03 -240.27)"/><path class="cls-4" d="M1057.45,520.77" transform="translate(-534.03 -240.27)"/><line class="cls-4" x1="539.29" y1="280.51" x2="539.29" y2="285.41"/><line class="cls-4" x1="548.89" y1="289.9" x2="551.69" y2="289.9"/><line class="cls-4" x1="554.04" y1="289.9" x2="556.84" y2="289.9"/><line class="cls-4" x1="565.73" y1="289.9" x2="568.6" y2="289.9"/><line class="cls-4" x1="570.88" y1="289.9" x2="573.7" y2="289.9"/><line class="cls-4" x1="590.04" y1="279.33" x2="592.84" y2="279.33"/><line class="cls-4" x1="596.27" y1="279.33" x2="599.07" y2="279.33"/><line class="cls-4" x1="582.57" y1="289.9" x2="585.37" y2="289.9"/><line class="cls-4" x1="587.72" y1="289.9" x2="590.54" y2="289.9"/><line class="cls-4" x1="599.37" y1="289.9" x2="602.19" y2="289.9"/><line class="cls-4" x1="604.54" y1="289.9" x2="607.42" y2="289.9"/><line class="cls-4" x1="616.23" y1="289.9" x2="619.07" y2="289.9"/><line class="cls-4" x1="621.38" y1="289.9" x2="624.18" y2="289.9"/><line class="cls-4" x1="632.97" y1="289.9" x2="635.82" y2="289.9"/><line class="cls-4" x1="638.15" y1="289.9" x2="640.93" y2="289.9"/><line class="cls-3" x1="636.97" y1="289.9" x2="636.97" y2="303.08"/><line class="cls-3" x1="544.39" y1="289.9" x2="544.39" y2="303.08"/><line class="cls-3" x1="552.84" y1="289.9" x2="552.84" y2="303.08"/><line class="cls-3" x1="561.27" y1="289.9" x2="561.27" y2="303.08"/><line class="cls-3" x1="569.72" y1="289.9" x2="569.72" y2="303.08"/><line class="cls-3" x1="578.14" y1="285.67" x2="578.14" y2="303.08"/><line class="cls-3" x1="586.54" y1="289.9" x2="586.54" y2="303.08"/><line class="cls-3" x1="594.93" y1="289.9" x2="594.93" y2="303.08"/><line class="cls-3" x1="603.37" y1="289.9" x2="603.37" y2="303.08"/><line class="cls-3" x1="611.79" y1="289.9" x2="611.79" y2="303.08"/><line class="cls-3" x1="620.24" y1="289.9" x2="620.24" y2="303.08"/><line class="cls-3" x1="628.59" y1="289.9" x2="628.59" y2="303.08"/><line class="cls-3" x1="644.97" y1="289.9" x2="644.97" y2="303.08"/><line class="cls-4" x1="649.87" y1="289.53" x2="649.87" y2="286.72"/><line class="cls-4" x1="650.77" y1="285.37" x2="650.77" y2="280.45"/><path class="cls-2" d="M1305.45,463V471h-30.3V459a9.38,9.38,0,0,0,1.77,1.84,10.3,10.3,0,0,0,5.81,2.11,9.73,9.73,0,1,0-7.58-15.58V395l6.78-2.47h9l14.52,5.3Z" transform="translate(-534.03 -240.27)"/><line class="cls-3" x1="539.98" y1="279.57" x2="539.98" y2="267.05"/><line class="cls-3" x1="536.53" y1="262.03" x2="649.3" y2="262.03"/><line class="cls-3" x1="548.69" y1="267.05" x2="582.57" y2="267.05"/><line class="cls-3" x1="582.57" y1="285.67" x2="582.57" y2="249.47"/><line class="cls-3" x1="586.3" y1="267.05" x2="586.3" y2="279.33"/><line class="cls-3" x1="586.3" y1="267.05" x2="603.99" y2="267.05"/><line class="cls-3" x1="603.99" y1="267.05" x2="603.99" y2="279.33"/><line class="cls-3" x1="741.12" y1="230.73" x2="762.72" y2="230.73"/><path class="cls-3" d="M1305.45,463" transform="translate(-534.03 -240.27)"/><path class="cls-3" d="M1296.75,466.14" transform="translate(-534.03 -240.27)"/><line class="cls-3" x1="771.42" y1="230.73" x2="771.42" y2="157.58"/><line class="cls-3" x1="771.42" y1="157.58" x2="756.89" y2="152.28"/><line class="cls-3" x1="756.89" y1="152.28" x2="747.89" y2="152.28"/><line class="cls-3" x1="747.89" y1="152.28" x2="741.12" y2="154.76"/><line class="cls-3" x1="741.12" y1="154.76" x2="741.12" y2="207.11"/><line class="cls-3" x1="741.12" y1="230.73" x2="741.12" y2="218.73"/><circle class="cls-3" cx="748.94" cy="212.96" r="9.72"/><line class="cls-3" x1="764.43" y1="238.76" x2="764.43" y2="258.2"/><line class="cls-3" x1="777.53" y1="230.73" x2="741.12" y2="230.73"/><line class="cls-3" x1="739.95" y1="233.45" x2="739.95" y2="239.5"/><line class="cls-3" x1="743.97" y1="241.9" x2="764.43" y2="241.9"/><line class="cls-3" x1="739.95" y1="233.45" x2="743.97" y2="233.45"/><line class="cls-3" x1="743.97" y1="230.73" x2="743.97" y2="233.45"/><line class="cls-3" x1="743.97" y1="239.5" x2="739.95" y2="239.5"/><line class="cls-3" x1="743.97" y1="239.5" x2="743.97" y2="241.9"/><line class="cls-3" x1="767.89" y1="238.76" x2="767.89" y2="232.78"/><line class="cls-3" x1="767.89" y1="232.78" x2="764.52" y2="232.78"/><line class="cls-3" x1="764.52" y1="230.73" x2="764.52" y2="232.78"/><line class="cls-3" x1="764.43" y1="238.76" x2="768.68" y2="238.76"/><line class="cls-3" x1="767.39" y1="137.98" x2="767.39" y2="143.43"/><line class="cls-3" x1="764.57" y1="134.67" x2="744.02" y2="134.67"/><line class="cls-3" x1="740" y1="137.38" x2="740" y2="143.43"/><line class="cls-3" x1="744.02" y1="145.83" x2="777.53" y2="145.83"/><line class="cls-3" x1="764.57" y1="145.83" x2="764.57" y2="143.43"/><line class="cls-3" x1="764.57" y1="143.43" x2="771.97" y2="143.43"/><line class="cls-3" x1="740" y1="137.38" x2="744.02" y2="137.38"/><line class="cls-3" x1="744.02" y1="134.67" x2="744.02" y2="137.38"/><line class="cls-3" x1="744.02" y1="143.43" x2="740" y2="143.43"/><line class="cls-3" x1="744.02" y1="143.43" x2="744.02" y2="145.83"/><line class="cls-3" x1="748.79" y1="152.28" x2="748.79" y2="145.83"/><line class="cls-3" x1="756.12" y1="152.28" x2="756.12" y2="145.83"/><line class="cls-3" x1="764.57" y1="117.4" x2="764.57" y2="137.98"/><line class="cls-3" x1="764.57" y1="137.98" x2="770.5" y2="137.98"/><line class="cls-5" x1="281.42" y1="14.93" x2="245.22" y2="14.93"/><line class="cls-5" x1="245.22" y1="11.93" x2="245.22" y2="14.93"/><line class="cls-5" x1="245.22" y1="11.93" x2="221.42" y2="11.93"/><line class="cls-5" x1="206.27" y1="15.51" x2="155.7" y2="15.51"/><path class="cls-5" d="M755.45,256a8.71,8.71,0,0,0-7.6-4.55,9.26,9.26,0,0,0-7.55,4.32" transform="translate(-534.03 -240.27)"/><line class="cls-5" x1="155.7" y1="15.51" x2="155.7" y2="12.13"/><line class="cls-5" x1="133.07" y1="12.13" x2="133.07" y2="15.51"/><line class="cls-5" x1="97.12" y1="11.68" x2="97.12" y2="15.51"/><line class="cls-5" x1="75.43" y1="11.68" x2="97.12" y2="11.68"/><line class="cls-5" x1="75.43" y1="14.3" x2="75.43" y2="11.68"/><line class="cls-5" x1="75.43" y1="14.3" x2="39.2" y2="14.3"/><line class="cls-5" x1="39.2" y1="14.3" x2="39.2" y2="36.57"/><line class="cls-5" x1="39.2" y1="36.57" x2="41.82" y2="36.57"/><line class="cls-5" x1="41.82" y1="36.57" x2="41.82" y2="50.33"/><line class="cls-5" x1="41.82" y1="50.33" x2="38.3" y2="50.33"/><line class="cls-5" x1="38.3" y1="50.33" x2="38.3" y2="113.13"/><line class="cls-5" x1="38.3" y1="113.13" x2="38.3" y2="161.43"/><line class="cls-5" x1="38.3" y1="161.43" x2="41.7" y2="161.43"/><line class="cls-5" x1="41.7" y1="161.43" x2="41.7" y2="174.4"/><line class="cls-5" x1="38.3" y1="174.4" x2="41.7" y2="174.4"/><line class="cls-5" x1="38.3" y1="197.58" x2="38.3" y2="174.4"/><line class="cls-5" x1="43.27" y1="197.58" x2="38.3" y2="197.58"/><line class="cls-5" x1="43.27" y1="209.08" x2="43.27" y2="197.58"/><line class="cls-5" x1="2.85" y1="209.08" x2="43.27" y2="209.08"/><line class="cls-5" x1="0.5" y1="211.8" x2="0.5" y2="224.13"/><path class="cls-5" d="M534.53,452.07a2.79,2.79,0,0,1,.64-1.81,2.74,2.74,0,0,1,1.71-.91" transform="translate(-534.03 -240.27)"/><line class="cls-5" x1="0.5" y1="224.13" x2="2.4" y2="224.13"/><line class="cls-5" x1="2.4" y1="233.6" x2="0.5" y2="233.6"/><line class="cls-5" x1="2.4" y1="224.13" x2="2.4" y2="233.6"/><line class="cls-5" x1="0.5" y1="233.6" x2="0.5" y2="248.87"/><line class="cls-5" x1="0.5" y1="248.87" x2="74.83" y2="248.87"/><line class="cls-5" x1="74.83" y1="244.38" x2="74.83" y2="248.87"/><line class="cls-5" x1="94.43" y1="247.33" x2="74.83" y2="244.38"/><path class="cls-5" d="M622.57,482.5" transform="translate(-534.03 -240.27)"/><path class="cls-5" d="M622.57,484.13" transform="translate(-534.03 -240.27)"/><path class="cls-5" d="M622.57,484.13" transform="translate(-534.03 -240.27)"/><path class="cls-5" d="M631.37,484.13" transform="translate(-534.03 -240.27)"/><line class="cls-5" x1="94.43" y1="247.33" x2="107.77" y2="247.33"/><line class="cls-5" x1="121.17" y1="267.13" x2="107.77" y2="267.13"/><line class="cls-5" x1="137.64" y1="344.33" x2="137.64" y2="265.66"/><line class="cls-5" x1="121.17" y1="267.13" x2="137.64" y2="265.66"/><line class="cls-5" x1="137.64" y1="344.33" x2="170.77" y2="344.33"/><line class="cls-5" x1="285.57" y1="346.53" x2="170.77" y2="346.53"/><line class="cls-5" x1="170.77" y1="344.33" x2="170.77" y2="346.53"/><path class="cls-5" d="M819.6,586.8a15,15,0,0,0,8.95-2.8c6.59-5,5.28-14.54,12.05-17.7a10,10,0,0,1,4-.9" transform="translate(-534.03 -240.27)"/><line class="cls-5" x1="310.57" y1="294.68" x2="310.57" y2="292.53"/><line class="cls-5" x1="310.57" y1="292.53" x2="214.27" y2="292.53"/><line class="cls-5" x1="214.27" y1="292.53" x2="214.27" y2="324.53"/><line class="cls-5" x1="197.07" y1="324.53" x2="214.27" y2="324.53"/><line class="cls-5" x1="197.07" y1="332.08" x2="197.07" y2="324.53"/><line class="cls-5" x1="197.07" y1="332.08" x2="182.92" y2="332.08"/><line class="cls-5" x1="182.92" y1="332.08" x2="182.92" y2="276.6"/><line class="cls-5" x1="182.92" y1="276.6" x2="195.62" y2="276.6"/><line class="cls-5" x1="195.62" y1="276.6" x2="195.62" y2="251.77"/><line class="cls-5" x1="195.62" y1="251.77" x2="231.33" y2="255.67"/><line class="cls-5" x1="231.33" y1="255.67" x2="296.27" y2="258.93"/><line class="cls-5" x1="296.27" y1="258.93" x2="296.27" y2="226.93"/><line class="cls-5" x1="295.42" y1="226.93" x2="296.27" y2="226.93"/><line class="cls-5" x1="295.42" y1="226.93" x2="295.42" y2="194.33"/><line class="cls-5" x1="295.42" y1="194.33" x2="303.83" y2="194.33"/><line class="cls-5" x1="303.83" y1="194.33" x2="303.83" y2="167.47"/><line class="cls-5" x1="303.83" y1="167.47" x2="279.25" y2="167.47"/><line class="cls-5" x1="279.25" y1="167.47" x2="279.25" y2="42.07"/><line class="cls-5" x1="279.25" y1="42.07" x2="281.53" y2="42.07"/><line class="cls-5" x1="281.53" y1="42.07" x2="281.53" y2="14.93"/><line class="cls-5" x1="133.07" y1="15.51" x2="97.12" y2="15.51"/><line class="cls-5" x1="309.49" y1="325.13" x2="309.49" y2="322.6"/><line class="cls-5" x1="495.77" y1="322.6" x2="495.77" y2="316.53"/><line class="cls-5" x1="495.77" y1="316.53" x2="501" y2="316.53"/><line class="cls-5" x1="501" y1="316.53" x2="501" y2="294.68"/><path class="cls-5" d="M1013.33,534.87,844.6,535" transform="translate(-534.03 -240.27)"/><line class="cls-5" x1="309.49" y1="322.6" x2="495.77" y2="322.6"/><line class="cls-5" x1="479.3" y1="192.59" x2="433.32" y2="175.14"/><line class="cls-5" x1="556.67" y1="247.43" x2="556.67" y2="125.13"/><line class="cls-5" x1="556.67" y1="125.13" x2="466.43" y2="125.13"/><line class="cls-5" x1="466.43" y1="125.13" x2="466.43" y2="118.27"/><line class="cls-5" x1="466.43" y1="118.27" x2="385.93" y2="105.33"/><line class="cls-5" x1="385.93" y1="105.33" x2="384.83" y2="111.17"/><path class="cls-5" d="M918.87,351.43c-.46,3-.84,6.33-1.07,9.87-.23,3.77-.27,7.28-.17,10.5" transform="translate(-534.03 -240.27)"/><line class="cls-5" x1="666.43" y1="247.43" x2="666.43" y2="305.21"/><line class="cls-5" x1="666.43" y1="247.43" x2="556.67" y2="247.43"/><line class="cls-5" x1="523.42" y1="298.53" x2="525.77" y2="298.53"/><line class="cls-5" x1="525.77" y1="298.53" x2="525.77" y2="305.21"/><line class="cls-5" x1="572.07" y1="120.2" x2="572.07" y2="100.93"/><line class="cls-5" x1="540.37" y1="100.93" x2="572.07" y2="100.93"/><line class="cls-5" x1="540.37" y1="100.93" x2="566.56" y2="0.5"/><line class="cls-5" x1="729.37" y1="23.63" x2="700.17" y2="23.63"/><path class="cls-5" d="M1100.6,240.77a409.06,409.06,0,0,0,65.2,17,409.1,409.1,0,0,0,68.4,6.1" transform="translate(-534.03 -240.27)"/><line class="cls-5" x1="729.37" y1="23.63" x2="729.37" y2="102.2"/><line class="cls-5" x1="701.3" y1="102.2" x2="729.37" y2="102.2"/><line class="cls-5" x1="701.3" y1="120.2" x2="701.3" y2="102.2"/><line class="cls-5" x1="673.5" y1="120.2" x2="701.3" y2="120.2"/><line class="cls-5" x1="572.07" y1="120.2" x2="673.5" y2="120.2"/><line class="cls-5" x1="712.37" y1="123.77" x2="732.97" y2="123.77"/><line class="cls-5" x1="732.97" y1="117.4" x2="732.97" y2="123.77"/><line class="cls-5" x1="778.57" y1="117.4" x2="732.97" y2="117.4"/><line class="cls-5" x1="778.57" y1="123.77" x2="778.57" y2="117.4"/><line class="cls-5" x1="778.57" y1="123.77" x2="811.43" y2="123.77"/><line class="cls-5" x1="811.43" y1="127.2" x2="811.43" y2="123.77"/><line class="cls-5" x1="818.23" y1="127.2" x2="811.43" y2="127.2"/><line class="cls-5" x1="818.24" y1="127.2" x2="818.24" y2="249.07"/><line class="cls-5" x1="810.92" y1="249.07" x2="818.23" y2="249.07"/><line class="cls-5" x1="810.92" y1="252.53" x2="810.92" y2="249.07"/><line class="cls-5" x1="779.1" y1="252.53" x2="810.92" y2="252.53"/><line class="cls-5" x1="733.3" y1="258.2" x2="779.1" y2="258.2"/><line class="cls-5" x1="779.1" y1="258.2" x2="779.1" y2="252.53"/><line class="cls-5" x1="733.3" y1="258.2" x2="733.3" y2="252.53"/><line class="cls-5" x1="733.3" y1="252.53" x2="712.37" y2="252.53"/><line class="cls-5" x1="712.37" y1="252.53" x2="712.37" y2="123.77"/><line class="cls-5" x1="706.17" y1="188.35" x2="712.37" y2="188.35"/><line class="cls-5" x1="701.5" y1="183.4" x2="701.5" y2="160.53"/><line class="cls-5" x1="712.37" y1="157.5" x2="706.13" y2="156.4"/><path class="cls-5" d="M1235.53,423.67a4.87,4.87,0,0,0,4.67,4.95" transform="translate(-534.03 -240.27)"/><path class="cls-5" d="M1235.53,400.8a4.28,4.28,0,0,1,1.69-3.55,4,4,0,0,1,3-.58" transform="translate(-534.03 -240.27)"/><line class="cls-5" x1="534.17" y1="352.53" x2="596.85" y2="352.53"/><line class="cls-5" x1="534.17" y1="352.53" x2="534.17" y2="399.33"/><line class="cls-5" x1="534.17" y1="399.33" x2="596.85" y2="399.33"/><line class="cls-5" x1="596.85" y1="399.33" x2="596.85" y2="352.53"/><line class="cls-5" x1="424.77" y1="384.73" x2="467.37" y2="384.73"/><line class="cls-5" x1="424.77" y1="384.73" x2="424.77" y2="469.93"/><line class="cls-5" x1="424.77" y1="469.93" x2="467.37" y2="469.93"/><line class="cls-5" x1="467.37" y1="469.93" x2="467.37" y2="384.73"/><line class="cls-5" x1="107.77" y1="267.13" x2="107.77" y2="247.33"/><line class="cls-5" x1="433.32" y1="175.14" x2="383.6" y2="205.3"/><line class="cls-5" x1="363.9" y1="131.53" x2="383.6" y2="131.53"/><path class="cls-5" d="M897.93,371.8a143,143,0,0,0,19.7,73.77" transform="translate(-534.03 -240.27)"/><line class="cls-5" x1="479.3" y1="192.59" x2="479.3" y2="294.6"/><line class="cls-5" x1="523.42" y1="298.53" x2="523.42" y2="294.68"/><line class="cls-5" x1="133.07" y1="12.13" x2="155.7" y2="12.13"/><line class="cls-5" x1="221.42" y1="15.73" x2="221.42" y2="11.93"/><line class="cls-5" x1="525.77" y1="305.21" x2="666.43" y2="305.21"/><line class="cls-5" x1="501" y1="294.68" x2="523.42" y2="294.68"/><line class="cls-4" x1="578.14" y1="286.41" x2="578.14" y2="289.12"/><path class="cls-4" d="M1074.38,502.3" transform="translate(-534.03 -240.27)"/><path class="cls-4" d="M1077.18,502.3" transform="translate(-534.03 -240.27)"/><line class="cls-4" x1="767.89" y1="238.38" x2="767.89" y2="233.87"/><line class="cls-4" x1="756.12" y1="148.2" x2="756.12" y2="151.06"/><line class="cls-4" x1="767.39" y1="138.35" x2="767.39" y2="143.05"/><line class="cls-3" x1="771.97" y1="143.43" x2="771.97" y2="145.83"/><line class="cls-3" x1="778.57" y1="129.28" x2="764.57" y2="129.28"/><line class="cls-3" x1="777.53" y1="149.88" x2="777.53" y2="129.28"/><line class="cls-3" x1="770.5" y1="137.98" x2="770.5" y2="129.28"/><line class="cls-3" x1="768.68" y1="238.76" x2="768.68" y2="241.28"/><line class="cls-3" x1="777.53" y1="241.28" x2="766.21" y2="241.28"/><line class="cls-3" x1="766.21" y1="241.28" x2="766.21" y2="246.73"/><line class="cls-3" x1="766.21" y1="246.73" x2="764.43" y2="246.73"/><line class="cls-3" x1="777.53" y1="149.88" x2="778.57" y2="149.88"/><line class="cls-3" x1="778.57" y1="149.88" x2="778.57" y2="164.33"/><line class="cls-3" x1="778.57" y1="164.33" x2="777.53" y2="164.33"/><line class="cls-3" x1="777.53" y1="164.33" x2="777.53" y2="169.78"/><line class="cls-3" x1="777.53" y1="169.78" x2="778.57" y2="169.78"/><line class="cls-3" x1="778.57" y1="169.78" x2="778.57" y2="181.96"/><line class="cls-3" x1="782.62" y1="181.96" x2="777.53" y2="181.96"/><line class="cls-3" x1="777.53" y1="181.96" x2="777.53" y2="194.85"/><line class="cls-3" x1="777.53" y1="194.85" x2="782.62" y2="194.85"/><line class="cls-3" x1="778.57" y1="194.85" x2="778.57" y2="207.12"/><line class="cls-3" x1="778.57" y1="207.12" x2="777.53" y2="207.12"/><line class="cls-3" x1="777.53" y1="207.12" x2="777.53" y2="212.58"/><line class="cls-3" x1="777.53" y1="212.58" x2="778.57" y2="212.58"/><line class="cls-3" x1="778.57" y1="212.58" x2="778.57" y2="227.27"/><line class="cls-3" x1="778.57" y1="227.27" x2="777.53" y2="227.27"/><line class="cls-3" x1="777.53" y1="227.27" x2="777.53" y2="246.73"/><line class="cls-3" x1="779.1" y1="246.73" x2="777.53" y2="246.73"/><line class="cls-3" x1="782.62" y1="181.96" x2="782.62" y2="194.85"/><line class="cls-3" x1="777.53" y1="167.06" x2="811.43" y2="167.06"/><line class="cls-3" x1="777.53" y1="209.85" x2="811.43" y2="209.85"/><line class="cls-3" x1="767.89" y1="233.47" x2="772.08" y2="233.47"/><line class="cls-3" x1="772.08" y1="233.47" x2="772.08" y2="230.73"/><line class="cls-3" x1="536.53" y1="267.05" x2="536.53" y2="249.47"/><line class="cls-3" x1="525.77" y1="267.05" x2="539.98" y2="267.05"/><line class="cls-3" x1="540.08" y1="286.23" x2="540.08" y2="289.9"/><line class="cls-4" x1="540.08" y1="286.81" x2="540.08" y2="289.51"/><line class="cls-3" x1="545.07" y1="271" x2="545.07" y2="281.72"/><line class="cls-3" x1="545.07" y1="279.9" x2="582.57" y2="279.9"/><line class="cls-3" x1="545.07" y1="271" x2="548.69" y2="267.05"/><line class="cls-3" x1="545.07" y1="281.72" x2="548.74" y2="285.67"/><line class="cls-3" x1="548.74" y1="285.67" x2="553.7" y2="285.67"/><line class="cls-3" x1="553.7" y1="285.67" x2="553.7" y2="279.9"/><line class="cls-3" x1="558.37" y1="285.67" x2="582.57" y2="285.67"/><line class="cls-3" x1="558.37" y1="285.67" x2="558.37" y2="279.9"/><line class="cls-3" x1="553.7" y1="283.7" x2="558.37" y2="283.7"/><line class="cls-3" x1="573.7" y1="285.67" x2="573.7" y2="267.05"/><line class="cls-3" x1="552.67" y1="267.05" x2="552.67" y2="279.9"/><line class="cls-3" x1="565.37" y1="267.05" x2="565.37" y2="279.9"/><line class="cls-3" x1="552.67" y1="274.16" x2="565.37" y2="274.16"/><line class="cls-3" x1="544.74" y1="262.03" x2="544.74" y2="249.47"/><line class="cls-3" x1="552.67" y1="262.03" x2="552.67" y2="249.47"/><line class="cls-3" x1="560.34" y1="262.03" x2="560.34" y2="249.47"/><line class="cls-3" x1="568.92" y1="262.03" x2="568.92" y2="249.47"/><line class="cls-3" x1="649.3" y1="262.03" x2="649.3" y2="249.47"/><line class="cls-3" x1="649.3" y1="258.5" x2="664.22" y2="258.5"/><line class="cls-3" x1="654.03" y1="258.5" x2="654.03" y2="279.7"/><line class="cls-3" x1="654.03" y1="267" x2="664.22" y2="267"/><line class="cls-3" x1="590.23" y1="262.03" x2="590.23" y2="249.47"/><line class="cls-3" x1="598.8" y1="262.03" x2="598.8" y2="249.47"/><line class="cls-3" x1="607.67" y1="262.03" x2="607.67" y2="249.53"/><line class="cls-3" x1="615.83" y1="262.03" x2="615.83" y2="249.47"/><line class="cls-3" x1="624.37" y1="262.03" x2="624.37" y2="249.47"/><line class="cls-3" x1="632.67" y1="262.03" x2="632.67" y2="249.47"/><line class="cls-3" x1="641.2" y1="262.03" x2="641.2" y2="249.47"/><line class="cls-3" x1="607.67" y1="267.05" x2="643.4" y2="267.05"/><line class="cls-3" x1="643.4" y1="267.05" x2="643.4" y2="281.23"/><line class="cls-3" x1="643.4" y1="281.23" x2="639.82" y2="285.61"/><line class="cls-3" x1="639.82" y1="285.61" x2="607.67" y2="285.61"/><line class="cls-3" x1="607.67" y1="285.61" x2="607.67" y2="267.05"/><line class="cls-3" x1="607.67" y1="277.61" x2="615.83" y2="277.61"/><line class="cls-3" x1="613.47" y1="277.61" x2="613.47" y2="285.61"/><line class="cls-3" x1="615.83" y1="267.05" x2="615.83" y2="277.61"/><line class="cls-3" x1="624.59" y1="267.05" x2="624.59" y2="285.61"/><line class="cls-4" x1="550.29" y1="285.67" x2="553.25" y2="285.67"/><line class="cls-4" x1="554.62" y1="283.7" x2="557.56" y2="283.7"/><line class="cls-4" x1="554.15" y1="279.9" x2="557.06" y2="279.9"/><line class="cls-4" x1="541.07" y1="279.57" x2="544.42" y2="279.57"/><line class="cls-4" x1="547.68" y1="268.15" x2="545.78" y2="270.22"/><line class="cls-4" x1="536.53" y1="262.79" x2="536.53" y2="265.92"/><line class="cls-4" x1="540.8" y1="262.03" x2="543.64" y2="262.03"/><line class="cls-4" x1="545.95" y1="262.03" x2="548.79" y2="262.03"/><line class="cls-4" x1="556.52" y1="262.03" x2="559.35" y2="262.03"/><line class="cls-4" x1="561.65" y1="262.03" x2="564.49" y2="262.03"/><line class="cls-4" x1="573.12" y1="262.03" x2="575.95" y2="262.03"/><line class="cls-4" x1="554" y1="267.05" x2="556.84" y2="267.05"/><line class="cls-4" x1="569.73" y1="267.05" x2="572.56" y2="267.05"/><line class="cls-4" x1="574.84" y1="267.05" x2="577.67" y2="267.05"/><line class="cls-4" x1="586.3" y1="262.03" x2="589.13" y2="262.03"/><line class="cls-4" x1="591.42" y1="262.03" x2="594.25" y2="262.03"/><line class="cls-4" x1="603.62" y1="262.03" x2="606.45" y2="262.03"/><line class="cls-4" x1="608.8" y1="262.03" x2="611.64" y2="262.03"/><line class="cls-4" x1="620.34" y1="262.03" x2="623.17" y2="262.03"/><line class="cls-4" x1="625.44" y1="262.03" x2="628.27" y2="262.03"/><line class="cls-4" x1="637.2" y1="262.03" x2="640.04" y2="262.03"/><line class="cls-4" x1="642.32" y1="262.03" x2="645.15" y2="262.03"/><line class="cls-4" x1="650.29" y1="258.5" x2="653.13" y2="258.5"/><line class="cls-4" x1="611.55" y1="267.05" x2="614.39" y2="267.05"/><line class="cls-4" x1="616.64" y1="267.05" x2="619.47" y2="267.05"/><line class="cls-4" x1="629.97" y1="267.05" x2="632.8" y2="267.05"/><line class="cls-4" x1="635.14" y1="267.05" x2="637.97" y2="267.05"/><line class="cls-4" x1="654.03" y1="262.85" x2="654.03" y2="265.96"/><line class="cls-4" x1="654.03" y1="274.96" x2="654.03" y2="278.07"/><line class="cls-4" x1="607.67" y1="281.83" x2="607.67" y2="284.97"/><line class="cls-4" x1="582.57" y1="281.83" x2="582.57" y2="284.97"/><line class="cls-4" x1="539.98" y1="271.25" x2="539.98" y2="268.28"/><line class="cls-4" x1="582.57" y1="263.58" x2="582.57" y2="266.45"/><line class="cls-4" x1="770.5" y1="133.17" x2="770.5" y2="136.83"/><line class="cls-4" x1="771.35" y1="129.28" x2="774.62" y2="129.28"/><line class="cls-4" x1="772.38" y1="145.83" x2="777.15" y2="145.83"/><line class="cls-4" x1="778.57" y1="151.31" x2="778.57" y2="154.55"/><line class="cls-4" x1="778.57" y1="171.51" x2="778.57" y2="174.75"/><line class="cls-4" x1="778.57" y1="202.11" x2="778.57" y2="205.35"/><line class="cls-4" x1="778.57" y1="222.29" x2="778.57" y2="225.53"/><line class="cls-4" x1="772.42" y1="230.73" x2="777.19" y2="230.73"/><line class="cls-4" x1="773.62" y1="241.28" x2="776.89" y2="241.28"/></svg>