<svg id="Layer_3" data-name="Layer 3" xmlns="http://www.w3.org/2000/svg" viewBox="0 0 818.73 470.43"><defs><style>.cls-1{fill:#fff;}.cls-2{fill:#999;stroke:#999;}.cls-2,.cls-3,.cls-6{stroke-linecap:round;}.cls-2,.cls-4,.cls-5{stroke-linejoin:round;}.cls-2,.cls-3,.cls-5{stroke-width:0.5px;}.cls-3,.cls-4,.cls-5,.cls-6{fill:none;}.cls-3{stroke:#666;}.cls-3,.cls-6{stroke-miterlimit:10;}.cls-4,.cls-5{stroke:#3fa9f5;}.cls-6{stroke:#000;}</style></defs><title>Stratford F1</title><path class="cls-1" d="M890.87,596.17l5.33-31.45H881.78v-2.1H843.27v2.64a10.05,10.05,0,0,0-2.77.81c-3.72,1.72-5.08,5.2-6.53,8.89-1.23,3.12-2.49,6.36-5.31,8.64-2.42,2-5.74,2.95-9.87,2.95H705.05v-2.2H671.92v-78.7l-16.74,1.5H642.05v-19.3h7.07V434.48h-17v4.6h-23v10.44h10.5v14.56h11.5v23.27h-2.65l-19.85-3v4.52H534.78V474.12h1.9v-10h-1.9V452.07a2.51,2.51,0,0,1,.58-1.64,2.44,2.44,0,0,1,1.55-.83l40.64-.08V437.6h-5V414.92H576V401.45h-3.4v-47.8H585.9V337.38H572.58V290.85h3.52V276.58h-2.62V254.82h36.24V252.2H630.9V256h36v8.43H690V256h50.57v-.25a4.91,4.91,0,0,1,2.37-4.22h10.53l.9.9H779v3h36.2l.12,26.63H813V408h24.59v26.37H829.2v33.1h.85v31.49l-64.67-3.26-40.46-4.41v10.45h4.48v14.9H716.7v56h14.65v-7.55h17.2v-32h95.8v2.15h169.23V432.68l-46.26-17.55-49.6,30.1a142.62,142.62,0,0,1-19.54-73.18h19.71v-.26a108.26,108.26,0,0,1,.5-14.52,110,110,0,0,1,1.78-11.39l80.06,12.87v6.9h90.23v77.6h-34.23V463.7h144V570.32h2.06v9.3h-60.93v-1.7h-22.93v1.7h-60.17V570.8h1.8V538.55h-2.35V534.7h-22.92v21.85h-5.23v23.07H928.35v21Z" transform="translate(-534.03 -240.27)"/><path class="cls-1" d="M753.34,251.8l.31.3.45.45.14.15h24.51v3H815l.06,13.07,0,13.06h-2.28v126.4h24.59V434.1H829v33.6h.85v31L797,497l-31.6-1.59-19.06-2.08-21.14-2.3-.55-.07v11h4.48v14.4h-12.7v56.48H731.6V565.3h17.2v-32h95.3v2.15h169.73V432.51l-.32-.12-23-8.73-23-8.72-.23-.09-.21.13-24.86,15.08-24.42,14.82a142.48,142.48,0,0,1-19.38-72.58h19.72l0-.52a107.51,107.51,0,0,1,2.23-25.61l44,7.07L1000,359v6.94h90.23V443H1056V464h144V570.57H1202v8.8H1141.6v-1.7h-23.43v1.7H1058.5v-8.32h1.8V538.3H1058v-3.85h-23.42V556.3h-5.23v23.07H928.1v21l-18.45-2.21L891.16,596l2.67-15.78,2.56-15.12.1-.58H882v-2.1H843V565a9.87,9.87,0,0,0-2.64.81c-3.81,1.75-5.19,5.28-6.65,9-1.22,3.1-2.47,6.3-5.24,8.54-2.38,1.93-5.64,2.9-9.75,2.9H705.3v-2.2H672.17V505.38l-.54.05-8.24.73-8.19.74H642.3V488.1h7.07V434.23H631.9v4.6h-23v10.94h10.5v14.56h11.5V487.1H628.5l-13-2-6.53-1-.57-.09v4.56H535V474.37h1.9V463.9H535V452.05a2.28,2.28,0,0,1,.52-1.46,2.23,2.23,0,0,1,1.37-.74l20.15,0,20.23,0h.5V437.35h-5V415.17h3.4v-14h-3.4V353.9h13.32V337.13H572.83v-46h3.52V276.33h-2.62V255.07H610v-2.62h20.68v3.82h36v8.43h23.63v-8.43H740.8v-.5a4.74,4.74,0,0,1,.64-2.38A4.62,4.62,0,0,1,743,251.8h10.35m.21-.5h-10.7a5.13,5.13,0,0,0-2.55,4.48H689.73v8.42H667.1v-8.42h-36V252H609.47v2.62H573.23v22.26h2.62V290.6h-3.52v47h13.32V353.4H572.33v48.3h3.4v13h-3.4v23.18h5v11.42l-40.42.08a2.74,2.74,0,0,0-1.71.91,2.79,2.79,0,0,0-.64,1.81V464.4h1.9v9.47h-1.9v15.26h74.34v-4.48l19.6,3h2.9V463.83h-11.5V449.27h-10.5v-9.94h23v-4.6h16.47V487.6H641.8v19.8h13.4l16.47-1.48V584.6H704.8v2.2h114c5.37,0,8.35-1.66,10-3,6.17-5,5-14.36,11.79-17.49a9.63,9.63,0,0,1,2.93-.82v-2.61h38V565H895.9q-2.65,15.71-5.32,31.41l38,4.55V579.87h101.2V556.8H1035V535h22.42v3.85h2.35v31.75H1058v9.32h60.67v-1.7h22.43v1.7h61.43v-9.8h-2.06V463.45h-144V443.5h34.23V365.4h-90.23v-6.87L920,345.6a107.68,107.68,0,0,0-2.34,26.2h-19.7a143,143,0,0,0,19.7,73.77l49.72-30.17,46,17.45V535H844.6V532.8H748.3v32H731.1v7.55H717V516.87h12.7v-15.4h-4.48v-9.92l40.2,4.38,64.93,3.27v-32h-.85V434.6h8.42V407.73H813.28V282.33h2.29l-.12-27.13h-36.2v-3h-24.8l-.9-.9Z" transform="translate(-534.03 -240.27)"/><rect class="cls-2" x="584.82" y="289.9" width="23.28" height="1.57"/><rect class="cls-2" x="553.9" y="238.48" width="4.6" height="6.55"/><rect class="cls-2" x="82.63" y="147.63" width="4.73" height="1.53"/><rect class="cls-2" x="82.63" y="153.46" width="4.73" height="2.22"/><polygon class="cls-1" points="733.55 257.95 733.55 252.28 712.62 252.28 712.62 124.02 733.22 124.02 733.22 117.65 778.32 117.65 778.32 124.02 811.18 124.02 811.18 127.45 817.98 127.45 817.98 248.82 810.67 248.82 810.67 252.28 778.85 252.28 778.85 257.95 733.55 257.95"/><path class="cls-1" d="M1312.1,358.17v6.36H1345V368h6.8V488.83h-7.32v3.47h-31.82V498h-44.8V492.3H1246.9V364.53h20.6v-6.36h44.6m.5-.5H1267V364h-20.6V492.8h20.93v5.67h45.8V492.8H1345v-3.47h7.32V367.47h-6.8V364H1312.6v-6.36Z" transform="translate(-534.03 -240.27)"/><path class="cls-1" d="M1106.35,360.22V341h-31.63l26-99.86a410.25,410.25,0,0,0,48.3,13.68,411.82,411.82,0,0,0,85.13,9.38h29v78.07h-28.07v18Z" transform="translate(-534.03 -240.27)"/><path class="cls-1" d="M1100.94,241.42A411.74,411.74,0,0,0,1149,255a411.72,411.72,0,0,0,85.19,9.39h28.7V342h-28.07v18H1106.6V340.7h-31.55L1088,291.11l13-49.69m-.34-.65Q1087.49,291,1074.4,341.2h31.7v19.27h129.23v-18h28.07V263.9h-29.2a410,410,0,0,1-85.08-9.38,408.21,408.21,0,0,1-48.52-13.75Z" transform="translate(-534.03 -240.27)"/><rect class="cls-2" x="534.17" y="352.53" width="62.68" height="46.8"/><rect class="cls-2" x="424.77" y="384.73" width="42.6" height="85.2"/><rect class="cls-2" x="739.95" y="239.5" width="4.02" height="2.4"/><rect class="cls-2" x="739.95" y="230.73" width="4.02" height="2.72"/><path class="cls-2" d="M1301.43,378.25h-2.83v-3.32h-5.78v-5h5.78V357.67h14V364h32.87v3.44h6.8V489.33H1345v3.47h-31.82v5.67h-14.66V487.1h-5.94v-4.93h5.94V479h3.46v-6h-3.38V471h-1.8v-4.86l8.7-3.19V435.6c-.86-2.37-1.72-4.75-2.57-7.12q1.27-3.53,2.57-7v-23.6l-14.52-5.3h-.78V386.1h8.45v-2.4h2.83Z" transform="translate(-534.03 -240.27)"/><path class="cls-2" d="M1305.45,421.45q-1.29,3.51-2.57,7c.85,2.37,1.71,4.75,2.57,7.12V463l-8.7,3.19V471h-14V463a9.73,9.73,0,1,0-7.58-15.58V395l6.78-2.47h9l14.52,5.3Z" transform="translate(-534.03 -240.27)"/><rect class="cls-2" x="740" y="143.43" width="4.02" height="2.4"/><rect class="cls-2" x="740" y="134.67" width="4.02" height="2.72"/><path class="cls-2" d="M1240.17,396.67l6.23,1.09v30.86h-6.2a4.88,4.88,0,0,1-4.65-4.47q0-11.67,0-23.35a4.09,4.09,0,0,1,1.4-3.32A4,4,0,0,1,1240.17,396.67Z" transform="translate(-534.03 -240.27)"/><rect class="cls-2" x="706.72" y="52.93" width="6.73" height="3.05"/><rect class="cls-2" x="706.72" y="61.4" width="6.73" height="24.33"/><path class="cls-2" d="M1092.77,325.93h-.59q-1,3.87-2,7.74h2.64Z" transform="translate(-534.03 -240.27)"/><path class="cls-2" d="M1100.2,325.93h-8q1.3-4.95,2.63-9.9l-1.63-.43V301.12h7Z" transform="translate(-534.03 -240.27)"/><rect class="cls-2" x="598.92" y="61.78" width="24.1" height="14.4"/><rect class="cls-2" x="256.1" y="94.43" width="6.33" height="4.4"/><rect class="cls-2" x="258.83" y="130.83" width="8.57" height="4.1"/><rect class="cls-2" x="651.12" y="287.23" width="4.88" height="16.5"/><path class="cls-2" d="M1108.8,579.87h-2v-7.42h-.72V569h2.67Z" transform="translate(-534.03 -240.27)"/><path class="cls-2" d="M1153.57,505h-7.44v-7.05h7.11Z" transform="translate(-534.03 -240.27)"/><rect class="cls-2" x="579.07" y="267.43" width="4.07" height="12.65"/><path class="cls-2" d="M920,345.6l80.5,12.93v6.87H992.2l-.15,12.25c-.58-1.95-1.17-3.9-1.75-5.85H917.63A107.68,107.68,0,0,1,920,345.6Z" transform="translate(-534.03 -240.27)"/><rect class="cls-2" x="536.78" y="286.81" width="2.53" height="7.18"/><rect class="cls-2" x="536.78" y="299.26" width="5.06" height="2.91"/><path class="cls-2" d="M1061.7,542.43v-79h-5.23v71.42l1,.08v3.85h2.35v8.85H1068l2.81-1.95v-3.27Z" transform="translate(-534.03 -240.27)"/><rect class="cls-2" x="406.17" y="325.83" width="49.33" height="13.77"/><path class="cls-2" d="M843.53,565.48a10.1,10.1,0,0,0-3.45,1.22,11,11,0,0,0-3.31,3,14.85,14.85,0,0,0-2.59,5.17q0-6,.1-12h9.25Z" transform="translate(-534.03 -240.27)"/><rect class="cls-2" x="294.47" y="314.4" width="9.13" height="2.27"/><rect class="cls-2" x="267.07" y="314.4" width="15.73" height="2.27"/><rect class="cls-2" x="252.33" y="322.6" width="13.2" height="1.93"/><rect class="cls-2" x="235.2" y="314.4" width="18.37" height="2.27"/><line class="cls-3" x1="575.53" y1="245.03" x2="546.6" y2="245.03"/><line class="cls-3" x1="546.6" y1="245.03" x2="546.6" y2="223.18"/><path class="cls-2" d="M671.67,505.92,655.2,507.4H641.8V487.6h7.07l61.33,2.51,15,1.44v9.92h4.48v15.4H717v55.48H731.1V586.8H704.8v-2.2H671.67Z" transform="translate(-534.03 -240.27)"/><path class="cls-2" d="M750.9,456.13h-70V408.72h97.22v-7.49H703.7V255.77h36.6l2.55-4.47h10.7l.9.9h24.8v3h36.2l.12,27.13h-2.29V328.8H790.13v-.55h-5.8v-4.48l-7.43-3.27V394h36.38v13.73h24.59V434.6h-8.42v32.6h.85v32l-64.93-3.27-16-1.76Z" transform="translate(-534.03 -240.27)"/><path class="cls-2" d="M632.4,434.73v4.6h-23V408.72H674.3v47.41H648.87v-21.4Z" transform="translate(-534.03 -240.27)"/><rect class="cls-2" x="93.87" y="142.2" width="24.83" height="18.77"/><line class="cls-4" x1="135.3" y1="23.93" x2="153.03" y2="23.93"/><line class="cls-3" x1="169.67" y1="160.97" x2="169.67" y2="15.51"/><line class="cls-3" x1="81.57" y1="160.97" x2="244.08" y2="160.97"/><line class="cls-3" x1="244.08" y1="160.97" x2="244.08" y2="168.45"/><line class="cls-3" x1="244.08" y1="168.45" x2="146.87" y2="168.45"/><line class="cls-3" x1="146.87" y1="168.45" x2="146.87" y2="215.87"/><line class="cls-3" x1="140.27" y1="168.45" x2="75.33" y2="168.45"/><line class="cls-3" x1="75.33" y1="161.43" x2="75.33" y2="199.07"/><line class="cls-3" x1="140.27" y1="168.45" x2="140.27" y2="248.38"/><line class="cls-3" x1="140.27" y1="215.87" x2="114.83" y2="215.87"/><line class="cls-3" x1="146.87" y1="215.87" x2="216.87" y2="215.87"/><line class="cls-3" x1="212.43" y1="215.87" x2="210.89" y2="253.41"/><line class="cls-3" x1="216.87" y1="215.87" x2="215.31" y2="253.9"/><line class="cls-3" x1="176.17" y1="215.87" x2="176.17" y2="249.85"/><line class="cls-3" x1="140.27" y1="242.27" x2="176.17" y2="242.27"/><line class="cls-3" x1="140.27" y1="226.73" x2="176.17" y2="226.73"/><line class="cls-3" x1="161.57" y1="226.73" x2="161.57" y2="242.27"/><line class="cls-3" x1="148.37" y1="226.73" x2="148.37" y2="242.27"/><line class="cls-3" x1="75.33" y1="209" x2="75.33" y2="244.38"/><line class="cls-3" x1="85.83" y1="223.57" x2="75.33" y2="223.57"/><line class="cls-3" x1="75.33" y1="209" x2="43.27" y2="209"/><line class="cls-3" x1="51.63" y1="209" x2="51.63" y2="248.87"/><line class="cls-3" x1="43.27" y1="197.58" x2="63.67" y2="197.58"/><line class="cls-3" x1="63.67" y1="161.43" x2="63.67" y2="209"/><line class="cls-3" x1="41.7" y1="161.43" x2="75.33" y2="161.43"/><line class="cls-3" x1="51.62" y1="113.13" x2="67.5" y2="113.13"/><line class="cls-3" x1="67.5" y1="113.13" x2="67.5" y2="161.43"/><line class="cls-3" x1="41.7" y1="174.4" x2="56.12" y2="174.4"/><line class="cls-3" x1="56.12" y1="174.4" x2="56.12" y2="161.43"/><line class="cls-3" x1="38.3" y1="143.03" x2="67.5" y2="143.03"/><line class="cls-3" x1="52.9" y1="143.03" x2="52.9" y2="149.13"/><line class="cls-3" x1="52.9" y1="149.13" x2="67.5" y2="149.13"/><line class="cls-3" x1="67.5" y1="132.28" x2="38.3" y2="132.28"/><line class="cls-3" x1="67.5" y1="143.03" x2="74.77" y2="143.03"/><line class="cls-3" x1="82.63" y1="112.07" x2="82.63" y2="142.2"/><line class="cls-3" x1="74.77" y1="143.03" x2="74.77" y2="140.93"/><line class="cls-3" x1="74.77" y1="140.93" x2="82.63" y2="140.93"/><line class="cls-3" x1="82.63" y1="142.2" x2="118.7" y2="142.2"/><line class="cls-3" x1="93.87" y1="142.2" x2="93.87" y2="160.97"/><line class="cls-3" x1="118.7" y1="112.07" x2="118.7" y2="160.97"/><line class="cls-3" x1="82.63" y1="112.07" x2="118.7" y2="112.07"/><line class="cls-3" x1="118.7" y1="135.68" x2="128.57" y2="135.68"/><line class="cls-3" x1="128.57" y1="135.68" x2="128.57" y2="147.03"/><line class="cls-3" x1="118.7" y1="147.03" x2="140.62" y2="147.03"/><line class="cls-3" x1="140.62" y1="147.03" x2="140.62" y2="160.97"/><line class="cls-3" x1="146.47" y1="160.97" x2="146.47" y2="147.03"/><line class="cls-3" x1="146.47" y1="147.03" x2="158.97" y2="147.03"/><line class="cls-3" x1="158.97" y1="135.68" x2="158.97" y2="151.93"/><line class="cls-3" x1="158.97" y1="135.68" x2="169.67" y2="135.68"/><line class="cls-3" x1="158.97" y1="151.93" x2="169.67" y2="151.93"/><line class="cls-3" x1="115.93" y1="112.07" x2="115.93" y2="98.7"/><line class="cls-3" x1="159.32" y1="160.97" x2="159.32" y2="168.45"/><line class="cls-3" x1="211.32" y1="160.97" x2="211.32" y2="168.45"/><line class="cls-3" x1="233.62" y1="160.97" x2="233.62" y2="168.45"/><line class="cls-3" x1="82.63" y1="98.7" x2="118.7" y2="98.7"/><line class="cls-3" x1="51.62" y1="97.36" x2="67.5" y2="97.36"/><line class="cls-3" x1="67.5" y1="50.33" x2="67.5" y2="97.36"/><line class="cls-3" x1="82.63" y1="69.6" x2="82.63" y2="98.7"/><line class="cls-3" x1="67.5" y1="69.6" x2="118.7" y2="69.6"/><line class="cls-3" x1="118.7" y1="98.7" x2="118.7" y2="50.33"/><line class="cls-3" x1="41.82" y1="50.33" x2="169.67" y2="50.33"/><line class="cls-3" x1="133.07" y1="23.93" x2="133.07" y2="50.33"/><line class="cls-3" x1="155.7" y1="23.93" x2="155.7" y2="34.57"/><line class="cls-3" x1="155.7" y1="42.73" x2="169.67" y2="42.73"/><line class="cls-3" x1="155.7" y1="28.67" x2="160.23" y2="28.67"/><line class="cls-3" x1="160.23" y1="30.93" x2="160.23" y2="28.67"/><line class="cls-3" x1="160.23" y1="30.93" x2="169.67" y2="30.93"/><line class="cls-3" x1="75.43" y1="14.3" x2="75.43" y2="42.87"/><line class="cls-3" x1="75.43" y1="42.87" x2="133.07" y2="42.87"/><line class="cls-3" x1="97.12" y1="15.51" x2="97.12" y2="42.87"/><line class="cls-3" x1="119.57" y1="15.51" x2="119.57" y2="50.33"/><line class="cls-3" x1="63.9" y1="14.3" x2="63.9" y2="50.33"/><line class="cls-3" x1="41.82" y1="36.57" x2="63.9" y2="36.57"/><line class="cls-3" x1="51.43" y1="36.57" x2="51.43" y2="50.33"/><line class="cls-3" x1="75.43" y1="42.87" x2="63.9" y2="42.87"/><line class="cls-3" x1="75.43" y1="50.4" x2="75.43" y2="69.6"/><line class="cls-3" x1="94.77" y1="50.33" x2="94.77" y2="69.6"/><line class="cls-3" x1="104.25" y1="50.33" x2="104.25" y2="69.6"/><line class="cls-3" x1="250.3" y1="92.47" x2="250.3" y2="83.5"/><line class="cls-3" x1="242.87" y1="80.23" x2="242.87" y2="153.73"/><path class="cls-3" d="M776.9,394h36.38" transform="translate(-534.03 -240.27)"/><line class="cls-3" x1="250.3" y1="87.98" x2="256.1" y2="87.98"/><line class="cls-3" x1="256.1" y1="87.98" x2="256.1" y2="88.53"/><line class="cls-3" x1="256.1" y1="88.53" x2="279.25" y2="88.53"/><line class="cls-3" x1="256.1" y1="88.53" x2="256.1" y2="98.83"/><line class="cls-3" x1="250.3" y1="98.83" x2="279.25" y2="98.83"/><line class="cls-3" x1="262.43" y1="88.53" x2="262.43" y2="98.83"/><line class="cls-3" x1="256.1" y1="94.43" x2="262.43" y2="94.43"/><line class="cls-3" x1="250.3" y1="96.23" x2="250.3" y2="114.73"/><line class="cls-3" x1="242.87" y1="114.73" x2="279.25" y2="114.73"/><line class="cls-3" x1="242.87" y1="126.73" x2="279.25" y2="126.73"/><line class="cls-3" x1="257.27" y1="114.73" x2="257.27" y2="126.73"/><line class="cls-3" x1="242.87" y1="139.7" x2="279.25" y2="139.7"/><line class="cls-3" x1="259.77" y1="139.7" x2="259.77" y2="153.73"/><line class="cls-3" x1="255.4" y1="126.73" x2="255.4" y2="139.7"/><line class="cls-3" x1="258.83" y1="134.93" x2="279.25" y2="134.93"/><line class="cls-3" x1="267.4" y1="126.73" x2="267.4" y2="134.93"/><line class="cls-3" x1="258.83" y1="130.83" x2="258.83" y2="134.93"/><line class="cls-3" x1="258.83" y1="130.83" x2="267.4" y2="130.83"/><line class="cls-3" x1="82.63" y1="84.15" x2="118.7" y2="84.15"/><line class="cls-3" x1="100.67" y1="84.15" x2="100.67" y2="98.7"/><line class="cls-3" x1="63.9" y1="30.77" x2="75.43" y2="30.77"/><line class="cls-3" x1="100.67" y1="112.07" x2="100.67" y2="142.2"/><line class="cls-3" x1="100.67" y1="117.23" x2="109.93" y2="117.23"/><line class="cls-3" x1="109.93" y1="112.07" x2="109.93" y2="117.23"/><line class="cls-3" x1="107.97" y1="117.23" x2="107.97" y2="125.53"/><line class="cls-3" x1="107.97" y1="125.53" x2="118.7" y2="125.53"/><line class="cls-3" x1="148.37" y1="221.93" x2="165.83" y2="221.93"/><line class="cls-3" x1="165.83" y1="221.93" x2="165.83" y2="226.73"/><line class="cls-5" x1="257.44" y1="88.53" x2="260.77" y2="88.53"/><line class="cls-5" x1="256.1" y1="89.73" x2="256.1" y2="93.06"/><line class="cls-3" x1="250.3" y1="100.31" x2="242.87" y2="100.31"/><line class="cls-5" x1="244.07" y1="100.31" x2="246.94" y2="100.31"/><line class="cls-5" x1="250.3" y1="106.23" x2="250.3" y2="111.9"/><line class="cls-5" x1="246.52" y1="114.73" x2="249.23" y2="114.73"/><line class="cls-5" x1="270.53" y1="114.73" x2="273.3" y2="114.73"/><line class="cls-5" x1="270.63" y1="98.83" x2="274.03" y2="98.83"/><line class="cls-5" x1="269.9" y1="134.93" x2="272.75" y2="134.93"/><line class="cls-5" x1="255.4" y1="135.67" x2="255.4" y2="138.72"/><line class="cls-5" x1="244.47" y1="139.7" x2="247.57" y2="139.7"/><line class="cls-5" x1="256.03" y1="139.7" x2="259.07" y2="139.7"/><line class="cls-5" x1="261.78" y1="139.7" x2="264.88" y2="139.7"/><line class="cls-5" x1="211.32" y1="164.71" x2="211.32" y2="167.26"/><line class="cls-5" x1="233.62" y1="164.71" x2="233.62" y2="167.26"/><line class="cls-5" x1="159.32" y1="162.91" x2="159.32" y2="166.29"/><line class="cls-5" x1="154.19" y1="160.97" x2="157.48" y2="160.97"/><line class="cls-5" x1="141.47" y1="160.97" x2="145.38" y2="160.97"/><line class="cls-5" x1="135.22" y1="160.97" x2="138.65" y2="160.97"/><line class="cls-5" x1="125.07" y1="147.03" x2="127.62" y2="147.03"/><line class="cls-5" x1="158.97" y1="151.61" x2="158.97" y2="149.06"/><line class="cls-5" x1="68.48" y1="161.43" x2="73.07" y2="161.43"/><line class="cls-5" x1="63.67" y1="166.91" x2="63.67" y2="170.01"/><line class="cls-5" x1="63.67" y1="176.48" x2="63.67" y2="180.01"/><line class="cls-5" x1="63.67" y1="199.93" x2="63.67" y2="203"/><line class="cls-5" x1="69.97" y1="209" x2="73.17" y2="209"/><line class="cls-5" x1="75.33" y1="212.82" x2="75.33" y2="215.38"/><line class="cls-5" x1="75.33" y1="216.17" x2="75.33" y2="218.88"/><line class="cls-5" x1="75.33" y1="227.12" x2="75.33" y2="230.65"/><line class="cls-5" x1="51.63" y1="213.26" x2="51.63" y2="220.28"/><line class="cls-5" x1="46.82" y1="161.43" x2="50.24" y2="161.43"/><line class="cls-5" x1="67.5" y1="151.31" x2="67.5" y2="154.58"/><line class="cls-5" x1="54.27" y1="143.03" x2="57.13" y2="143.03"/><line class="cls-3" x1="87.37" y1="147.63" x2="82.63" y2="147.63"/><line class="cls-3" x1="82.63" y1="147.63" x2="82.63" y2="155.68"/><line class="cls-3" x1="82.63" y1="155.68" x2="93.87" y2="155.68"/><line class="cls-3" x1="87.37" y1="147.63" x2="87.37" y2="155.68"/><line class="cls-5" x1="82.63" y1="149.56" x2="82.63" y2="153.01"/><line class="cls-5" x1="76.64" y1="140.93" x2="81.09" y2="140.93"/><line class="cls-5" x1="67.5" y1="135.64" x2="67.5" y2="138.04"/><line class="cls-5" x1="54.68" y1="132.28" x2="57.68" y2="132.28"/><line class="cls-5" x1="67.5" y1="115.71" x2="67.5" y2="118.71"/><line class="cls-5" x1="82.63" y1="116.37" x2="82.63" y2="122.73"/><line class="cls-3" x1="97.17" y1="160.97" x2="97.17" y2="168.45"/><line class="cls-5" x1="97.17" y1="163.13" x2="97.17" y2="166"/><line class="cls-5" x1="82.63" y1="130.57" x2="82.63" y2="136.84"/><line class="cls-5" x1="102.93" y1="112.07" x2="105.8" y2="112.07"/><line class="cls-5" x1="103.9" y1="117.23" x2="107.13" y2="117.23"/><line class="cls-5" x1="109.93" y1="113.43" x2="109.93" y2="116.67"/><line class="cls-5" x1="67.5" y1="92.76" x2="67.5" y2="95.86"/><line class="cls-3" x1="50.04" y1="79.18" x2="50.04" y2="97.36"/><line class="cls-3" x1="50.04" y1="79.18" x2="38.3" y2="79.18"/><line class="cls-3" x1="50.04" y1="89.68" x2="38.3" y2="89.68"/><line class="cls-5" x1="50.04" y1="90.19" x2="50.04" y2="93.06"/><line class="cls-5" x1="50.04" y1="79.88" x2="50.04" y2="82.81"/><line class="cls-5" x1="67.5" y1="58" x2="67.5" y2="61.28"/><line class="cls-5" x1="69.74" y1="69.6" x2="72.84" y2="69.6"/><line class="cls-5" x1="76.85" y1="69.6" x2="81.08" y2="69.6"/><line class="cls-5" x1="68.58" y1="50.33" x2="73.4" y2="50.33"/><line class="cls-5" x1="77.03" y1="50.33" x2="81.32" y2="50.33"/><line class="cls-5" x1="90.03" y1="69.6" x2="92.9" y2="69.6"/><line class="cls-5" x1="95.85" y1="50.33" x2="99.28" y2="50.33"/><line class="cls-5" x1="106.22" y1="50.33" x2="109.25" y2="50.33"/><line class="cls-5" x1="119.57" y1="43.9" x2="119.57" y2="49.4"/><line class="cls-5" x1="125.78" y1="50.33" x2="128.95" y2="50.33"/><line class="cls-5" x1="127.38" y1="42.87" x2="130.78" y2="42.87"/><line class="cls-5" x1="133.07" y1="44.18" x2="133.07" y2="49.01"/><line class="cls-5" x1="137.59" y1="50.33" x2="143.49" y2="50.33"/><line class="cls-5" x1="144.84" y1="50.33" x2="150.79" y2="50.33"/><line class="cls-3" x1="156.5" y1="42.73" x2="156.5" y2="50.33"/><line class="cls-5" x1="156.5" y1="45.75" x2="156.5" y2="48.75"/><line class="cls-5" x1="159.42" y1="50.33" x2="162.78" y2="50.33"/><line class="cls-5" x1="163.38" y1="42.73" x2="166.8" y2="42.73"/><line class="cls-5" x1="157.07" y1="28.67" x2="159.79" y2="28.67"/><line class="cls-5" x1="169.67" y1="33.42" x2="169.67" y2="40.08"/><line class="cls-5" x1="113.22" y1="42.87" x2="116.57" y2="42.87"/><line class="cls-5" x1="119.57" y1="28.36" x2="119.57" y2="31.28"/><line class="cls-5" x1="99.72" y1="42.87" x2="103.22" y2="42.87"/><line class="cls-5" x1="89.84" y1="42.87" x2="93.29" y2="42.87"/><line class="cls-5" x1="63.9" y1="44.67" x2="63.9" y2="47.5"/><line class="cls-5" x1="69.73" y1="42.87" x2="73.02" y2="42.87"/><line class="cls-5" x1="69.97" y1="30.77" x2="73.13" y2="30.77"/><line class="cls-5" x1="75.43" y1="16.08" x2="75.43" y2="18.9"/><line class="cls-5" x1="51.43" y1="45.33" x2="51.43" y2="48.18"/><line class="cls-5" x1="53.67" y1="36.57" x2="58.97" y2="36.57"/><line class="cls-5" x1="53.67" y1="50.33" x2="58.97" y2="50.33"/><line class="cls-5" x1="88.55" y1="98.7" x2="91.35" y2="98.7"/><line class="cls-5" x1="102.99" y1="98.7" x2="105.47" y2="98.7"/><line class="cls-5" x1="115.93" y1="102.25" x2="115.93" y2="108.37"/><line class="cls-3" x1="140.27" y1="194.13" x2="146.87" y2="194.13"/><line class="cls-5" x1="141.24" y1="194.13" x2="145.89" y2="194.13"/><line class="cls-5" x1="140.27" y1="218.18" x2="140.27" y2="221.11"/><line class="cls-5" x1="142.59" y1="226.73" x2="145.82" y2="226.73"/><line class="cls-5" x1="154.82" y1="226.73" x2="157.92" y2="226.73"/><line class="cls-5" x1="165.83" y1="222.46" x2="165.83" y2="225.76"/><line class="cls-5" x1="166.27" y1="226.73" x2="169.34" y2="226.73"/><line class="cls-5" x1="176.17" y1="218.27" x2="176.17" y2="221.47"/><line class="cls-5" x1="176.17" y1="244.9" x2="176.17" y2="248"/><line class="cls-5" x1="212.36" y1="217.65" x2="212.17" y2="222.27"/><line class="cls-5" x1="211.18" y1="246.47" x2="211.04" y2="249.75"/><line class="cls-5" x1="215.67" y1="244.98" x2="215.59" y2="247.02"/><line class="cls-3" x1="197.07" y1="332.08" x2="197.07" y2="346.53"/><line class="cls-3" x1="214.27" y1="324.53" x2="271.9" y2="324.53"/><line class="cls-3" x1="309.49" y1="322.6" x2="271.9" y2="322.6"/><line class="cls-3" x1="271.9" y1="322.6" x2="271.9" y2="324.53"/><line class="cls-3" x1="284.72" y1="322.6" x2="284.72" y2="346.53"/><line class="cls-3" x1="300.24" y1="322.6" x2="300.24" y2="334.57"/><line class="cls-3" x1="241.17" y1="324.53" x2="241.17" y2="346.53"/><line class="cls-3" x1="214.27" y1="314.4" x2="303.6" y2="314.4"/><line class="cls-3" x1="235.2" y1="314.4" x2="235.2" y2="324.53"/><line class="cls-3" x1="235.2" y1="316.67" x2="253.57" y2="316.67"/><line class="cls-3" x1="253.57" y1="314.4" x2="253.57" y2="316.67"/><line class="cls-3" x1="252.33" y1="324.53" x2="252.33" y2="322.6"/><line class="cls-3" x1="252.33" y1="322.6" x2="265.53" y2="322.6"/><line class="cls-3" x1="265.53" y1="322.6" x2="265.53" y2="324.53"/><line class="cls-3" x1="267.07" y1="314.4" x2="267.07" y2="316.67"/><line class="cls-3" x1="267.07" y1="316.67" x2="282.8" y2="316.67"/><line class="cls-3" x1="282.8" y1="316.67" x2="282.8" y2="314.4"/><line class="cls-3" x1="294.47" y1="314.4" x2="294.47" y2="316.67"/><line class="cls-3" x1="294.47" y1="316.67" x2="354.68" y2="316.67"/><line class="cls-3" x1="303.6" y1="314.4" x2="303.6" y2="316.67"/><line class="cls-3" x1="300.73" y1="314.4" x2="300.73" y2="304.53"/><line class="cls-3" x1="300.73" y1="304.53" x2="309.17" y2="304.53"/><line class="cls-3" x1="302.77" y1="304.53" x2="302.77" y2="292.53"/><line class="cls-3" x1="309.17" y1="304.53" x2="309.17" y2="316.67"/><line class="cls-3" x1="354.68" y1="318.33" x2="354.68" y2="294.68"/><line class="cls-3" x1="322.37" y1="316.67" x2="322.37" y2="294.68"/><line class="cls-3" x1="338.37" y1="316.67" x2="338.37" y2="294.68"/><line class="cls-3" x1="354.68" y1="318.33" x2="367.07" y2="318.33"/><line class="cls-3" x1="367.07" y1="318.33" x2="367.07" y2="294.68"/><line class="cls-3" x1="374.39" y1="318.33" x2="374.39" y2="314.18"/><line class="cls-3" x1="367.07" y1="314.18" x2="375.12" y2="314.18"/><line class="cls-3" x1="367.07" y1="305.6" x2="375.12" y2="305.6"/><line class="cls-3" x1="375.12" y1="305.6" x2="375.12" y2="314.18"/><line class="cls-3" x1="374.39" y1="318.33" x2="381.37" y2="318.33"/><line class="cls-3" x1="381.37" y1="318.33" x2="381.37" y2="294.68"/><line class="cls-3" x1="361.87" y1="324.7" x2="394.57" y2="324.7"/><line class="cls-3" x1="374.39" y1="324.7" x2="374.39" y2="358.25"/><line class="cls-3" x1="360.47" y1="332.96" x2="368.74" y2="332.96"/><line class="cls-3" x1="368.74" y1="332.96" x2="368.74" y2="348.43"/><line class="cls-3" x1="368.74" y1="348.43" x2="374.39" y2="348.43"/><line class="cls-3" x1="368.74" y1="338.73" x2="374.39" y2="338.73"/><line class="cls-3" x1="374.39" y1="342.43" x2="394.57" y2="342.43"/><line class="cls-3" x1="383.1" y1="324.7" x2="383.1" y2="342.43"/><line class="cls-3" x1="374.39" y1="333.57" x2="383.1" y2="333.57"/><line class="cls-3" x1="394.57" y1="339.6" x2="394.57" y2="323.21"/><line class="cls-3" x1="406.17" y1="339.6" x2="406.17" y2="325.83"/><line class="cls-3" x1="455.5" y1="322" x2="455.5" y2="339.6"/><line class="cls-3" x1="406.17" y1="325.83" x2="455.5" y2="325.83"/><line class="cls-3" x1="455.5" y1="322" x2="495.77" y2="322"/><line class="cls-3" x1="468.3" y1="322" x2="468.3" y2="339.6"/><line class="cls-3" x1="480.3" y1="305.61" x2="480.3" y2="322"/><line class="cls-3" x1="495.77" y1="316.53" x2="480.3" y2="316.53"/><line class="cls-3" x1="489.33" y1="316.53" x2="489.33" y2="294.68"/><line class="cls-3" x1="480.3" y1="305.61" x2="478.97" y2="305.61"/><line class="cls-3" x1="478.97" y1="305.61" x2="475.77" y2="300.34"/><line class="cls-3" x1="475.77" y1="300.34" x2="475.77" y2="294.68"/><path class="cls-3" d="M962.14,559.69a90.52,90.52,0,0,1-46.74-15" transform="translate(-534.03 -240.27)"/><path class="cls-3" d="M1013,545.88a90.59,90.59,0,0,1-44.62,13.79" transform="translate(-534.03 -240.27)"/><line class="cls-3" x1="393.59" y1="302.71" x2="390.13" y2="309.58"/><line class="cls-3" x1="400.2" y1="305.74" x2="397.34" y2="312.87"/><line class="cls-3" x1="407.05" y1="308.13" x2="404.81" y2="315.52"/><line class="cls-3" x1="414.1" y1="309.92" x2="412.52" y2="317.52"/><line class="cls-3" x1="421.28" y1="311.09" x2="420.35" y2="318.82"/><line class="cls-3" x1="428.52" y1="311.62" x2="428.52" y2="319.43"/><line class="cls-3" x1="433.75" y1="311.62" x2="433.75" y2="319.36"/><line class="cls-3" x1="440.98" y1="311.1" x2="441.9" y2="318.8"/><line class="cls-3" x1="448.17" y1="309.93" x2="449.73" y2="317.49"/><line class="cls-3" x1="455.2" y1="308.16" x2="457.41" y2="315.48"/><line class="cls-3" x1="462.05" y1="305.74" x2="464.88" y2="312.82"/><line class="cls-3" x1="468.67" y1="302.77" x2="472.08" y2="309.53"/><line class="cls-3" x1="423.13" y1="294.68" x2="423.13" y2="305.97"/><line class="cls-3" x1="423.13" y1="305.97" x2="428.52" y2="305.97"/><line class="cls-3" x1="433.53" y1="305.97" x2="439.13" y2="305.97"/><line class="cls-3" x1="439.13" y1="305.97" x2="439.13" y2="294.68"/><line class="cls-3" x1="428.52" y1="305.97" x2="428.52" y2="300.9"/><line class="cls-3" x1="428.52" y1="300.9" x2="434.42" y2="300.9"/><path class="cls-3" d="M1056.47,463.45v71.42" transform="translate(-534.03 -240.27)"/><line class="cls-3" x1="527.67" y1="223.18" x2="527.67" y2="298.53"/><line class="cls-3" x1="264.87" y1="314.4" x2="264.87" y2="292.53"/><line class="cls-3" x1="490.27" y1="294.68" x2="490.27" y2="250.4"/><line class="cls-3" x1="479.3" y1="286.2" x2="490.27" y2="286.2"/><line class="cls-3" x1="490.27" y1="270.4" x2="522.43" y2="270.4"/><line class="cls-3" x1="490.27" y1="250.4" x2="503.07" y2="250.4"/><line class="cls-3" x1="503.07" y1="244.47" x2="503.07" y2="250.4"/><line class="cls-3" x1="490.27" y1="244.47" x2="503.07" y2="244.47"/><line class="cls-3" x1="503.07" y1="247.43" x2="522.43" y2="247.43"/><line class="cls-3" x1="490.27" y1="227.53" x2="490.27" y2="221.33"/><line class="cls-3" x1="490.27" y1="224.37" x2="522.43" y2="224.37"/><line class="cls-3" x1="490.27" y1="204.27" x2="503.07" y2="204.27"/><line class="cls-3" x1="503.07" y1="204.27" x2="503.07" y2="198.53"/><line class="cls-3" x1="503.07" y1="198.53" x2="490.27" y2="198.53"/><line class="cls-3" x1="522.43" y1="203.23" x2="522.43" y2="132.51"/><line class="cls-3" x1="529.47" y1="203.23" x2="529.47" y2="125.13"/><line class="cls-3" x1="529.47" y1="135.28" x2="556.67" y2="135.28"/><line class="cls-3" x1="529.47" y1="155.53" x2="556.67" y2="155.53"/><line class="cls-3" x1="529.47" y1="178.53" x2="556.67" y2="178.53"/><line class="cls-3" x1="529.47" y1="184.18" x2="522.43" y2="184.18"/><line class="cls-3" x1="490.27" y1="181.43" x2="490.27" y2="175.27"/><line class="cls-3" x1="490.27" y1="158.33" x2="503.09" y2="158.33"/><line class="cls-3" x1="503.09" y1="152.56" x2="503.09" y2="158.33"/><line class="cls-3" x1="490.27" y1="152.56" x2="503.09" y2="152.56"/><line class="cls-3" x1="490.27" y1="152.56" x2="490.27" y2="132.51"/><line class="cls-3" x1="490.27" y1="132.51" x2="522.43" y2="132.51"/><line class="cls-3" x1="522.43" y1="155.53" x2="503.09" y2="155.53"/><line class="cls-3" x1="522.43" y1="178.53" x2="490.27" y2="178.53"/><line class="cls-3" x1="503.07" y1="201.4" x2="522.43" y2="201.4"/><line class="cls-3" x1="383.6" y1="131.53" x2="456.27" y2="131.53"/><line class="cls-3" x1="466.43" y1="125.13" x2="458.17" y2="125.13"/><line class="cls-3" x1="458.17" y1="125.13" x2="458.17" y2="137.4"/><line class="cls-3" x1="458.17" y1="137.4" x2="482.57" y2="137.4"/><line class="cls-3" x1="482.57" y1="135.7" x2="482.57" y2="149.68"/><line class="cls-3" x1="482.57" y1="135.7" x2="490.27" y2="135.7"/><line class="cls-3" x1="466.02" y1="149.68" x2="482.57" y2="149.68"/><line class="cls-3" x1="456.27" y1="131.53" x2="459.92" y2="145.01"/><path class="cls-3" d="M994,385.27a7.07,7.07,0,0,0,6.1,4.68" transform="translate(-534.03 -240.27)"/><line class="cls-3" x1="470.84" y1="149.68" x2="470.84" y2="155.41"/><line class="cls-3" x1="470.84" y1="155.41" x2="482.99" y2="155.41"/><line class="cls-3" x1="472.6" y1="155.41" x2="472.6" y2="179.8"/><line class="cls-3" x1="472.6" y1="179.8" x2="481.09" y2="183.07"/><line class="cls-3" x1="482.99" y1="155.41" x2="482.99" y2="178.03"/><line class="cls-3" x1="482.99" y1="178.03" x2="481.09" y2="178.03"/><line class="cls-3" x1="481.09" y1="183.07" x2="481.09" y2="178.03"/><line class="cls-3" x1="453.91" y1="162.64" x2="433.32" y2="175.14"/><line class="cls-3" x1="453.91" y1="162.64" x2="445.27" y2="131.53"/><line class="cls-3" x1="443.84" y1="168.75" x2="464.74" y2="176.68"/><line class="cls-3" x1="477.77" y1="155.41" x2="477.77" y2="149.68"/><line class="cls-3" x1="527.67" y1="280.08" x2="542.07" y2="280.08"/><line class="cls-3" x1="542.07" y1="280.08" x2="542.07" y2="223.18"/><line class="cls-3" x1="527.67" y1="263.03" x2="542.07" y2="263.03"/><line class="cls-3" x1="527.67" y1="254.5" x2="546.6" y2="254.5"/><line class="cls-3" x1="527.67" y1="246.1" x2="542.07" y2="246.1"/><line class="cls-3" x1="527.67" y1="238.48" x2="542.07" y2="238.48"/><line class="cls-3" x1="527.67" y1="231.08" x2="542.07" y2="231.08"/><line class="cls-3" x1="546.6" y1="280.08" x2="546.6" y2="249.68"/><line class="cls-3" x1="546.6" y1="280.08" x2="617.37" y2="280.08"/><line class="cls-3" x1="617.37" y1="280.08" x2="617.37" y2="264.7"/><line class="cls-3" x1="609.62" y1="264.7" x2="623.84" y2="264.7"/><line class="cls-3" x1="623.84" y1="264.7" x2="626.14" y2="251.66"/><line class="cls-3" x1="626.14" y1="251.66" x2="626.59" y2="243.86"/><line class="cls-3" x1="626.59" y1="243.86" x2="629.28" y2="241.74"/><line class="cls-3" x1="629.28" y1="241.74" x2="644.02" y2="241.74"/><line class="cls-3" x1="644.02" y1="241.74" x2="645.74" y2="243.49"/><line class="cls-3" x1="645.74" y1="243.49" x2="645.74" y2="258.43"/><line class="cls-3" x1="645.74" y1="258.43" x2="645.33" y2="278.77"/><line class="cls-3" x1="645.33" y1="278.77" x2="645.33" y2="280.38"/><path class="cls-3" d="M1179.37,520.65a11.74,11.74,0,0,1-7.77,3.4,12,12,0,0,1-8.5-3.6c-3.39-3.11-4.23-7.06-4.76-9.51a22.33,22.33,0,0,1-.46-6" transform="translate(-534.03 -240.27)"/><line class="cls-3" x1="645.33" y1="278.77" x2="651.12" y2="278.77"/><line class="cls-3" x1="651.12" y1="280.13" x2="666.43" y2="280.13"/><line class="cls-3" x1="651.12" y1="280.13" x2="651.12" y2="237.38"/><line class="cls-3" x1="666.43" y1="237.38" x2="621.82" y2="237.38"/><line class="cls-3" x1="621.82" y1="223.18" x2="621.82" y2="242.13"/><line class="cls-3" x1="621.82" y1="242.13" x2="618.87" y2="245.03"/><line class="cls-3" x1="618.87" y1="245.03" x2="579.97" y2="245.03"/><line class="cls-3" x1="558.5" y1="249.68" x2="558.5" y2="223.18"/><line class="cls-3" x1="546.6" y1="249.68" x2="597.42" y2="249.68"/><line class="cls-3" x1="597.42" y1="249.68" x2="612.1" y2="250.37"/><line class="cls-3" x1="618.87" y1="250.37" x2="619.53" y2="264.7"/><line class="cls-3" x1="495.83" y1="132.51" x2="495.83" y2="125.13"/><line class="cls-3" x1="546.6" y1="238.48" x2="558.5" y2="238.48"/><line class="cls-3" x1="546.6" y1="231.08" x2="558.5" y2="231.08"/><line class="cls-3" x1="553.9" y1="238.48" x2="553.9" y2="245.03"/><line class="cls-3" x1="558.5" y1="236.5" x2="575.53" y2="236.5"/><line class="cls-3" x1="575.53" y1="245.03" x2="575.53" y2="230.83"/><line class="cls-3" x1="574" y1="230.83" x2="579.97" y2="230.83"/><line class="cls-3" x1="574" y1="230.83" x2="574" y2="223.18"/><line class="cls-3" x1="579.97" y1="245.03" x2="579.97" y2="230.83"/><line class="cls-3" x1="579.97" y1="236.5" x2="593.13" y2="236.5"/><line class="cls-3" x1="593.13" y1="245.03" x2="593.13" y2="236.5"/><line class="cls-3" x1="588.13" y1="236.5" x2="588.13" y2="223.18"/><line class="cls-3" x1="601.5" y1="245.03" x2="601.5" y2="223.18"/><line class="cls-3" x1="609.37" y1="245.03" x2="609.37" y2="223.18"/><line class="cls-3" x1="643.23" y1="237.38" x2="643.23" y2="223.18"/><line class="cls-3" x1="651.12" y1="245.7" x2="666.43" y2="245.7"/><line class="cls-3" x1="651.12" y1="254.97" x2="666.43" y2="254.97"/><line class="cls-3" x1="651.12" y1="271.57" x2="666.43" y2="271.57"/><line class="cls-3" x1="645.74" y1="258.43" x2="624.99" y2="258.43"/><line class="cls-3" x1="638.17" y1="258.43" x2="638.17" y2="241.74"/><line class="cls-3" x1="638.17" y1="251.66" x2="626.14" y2="251.66"/><line class="cls-3" x1="546.6" y1="270.78" x2="568.22" y2="270.78"/><line class="cls-3" x1="568.22" y1="280.08" x2="568.22" y2="270.78"/><line class="cls-3" x1="609.62" y1="280.08" x2="609.62" y2="264.7"/><line class="cls-3" x1="612.1" y1="250.37" x2="612.1" y2="264.7"/><line class="cls-3" x1="579.07" y1="249.68" x2="579.07" y2="259.23"/><line class="cls-3" x1="579.07" y1="259.23" x2="583.17" y2="259.23"/><line class="cls-3" x1="583.17" y1="257.66" x2="619.21" y2="257.66"/><line class="cls-3" x1="579.07" y1="267.43" x2="579.07" y2="329.27"/><line class="cls-3" x1="579.07" y1="267.43" x2="609.62" y2="267.43"/><line class="cls-3" x1="596.43" y1="257.66" x2="596.43" y2="267.43"/><line class="cls-3" x1="583.13" y1="267.43" x2="583.13" y2="280.08"/><line class="cls-3" x1="588.07" y1="267.43" x2="588.07" y2="280.08"/><line class="cls-3" x1="588.07" y1="272.51" x2="604.27" y2="272.51"/><line class="cls-3" x1="604.27" y1="272.51" x2="604.27" y2="280.08"/><line class="cls-3" x1="596.17" y1="272.51" x2="596.17" y2="280.08"/><line class="cls-3" x1="602.87" y1="267.43" x2="602.87" y2="272.51"/><line class="cls-3" x1="583.17" y1="259.23" x2="583.17" y2="249.68"/><line class="cls-3" x1="597.42" y1="257.66" x2="597.42" y2="249.68"/><line class="cls-5" x1="235.2" y1="320.23" x2="235.2" y2="323.86"/><line class="cls-5" x1="236.04" y1="324.53" x2="240.54" y2="324.53"/><line class="cls-5" x1="266.37" y1="324.53" x2="271.1" y2="324.53"/><line class="cls-5" x1="295.78" y1="322.6" x2="298.87" y2="322.6"/><line class="cls-5" x1="259.57" y1="314.4" x2="264.24" y2="314.4"/><line class="cls-5" x1="289" y1="314.4" x2="293.74" y2="314.4"/><line class="cls-5" x1="304.15" y1="316.67" x2="307.25" y2="316.67"/><line class="cls-5" x1="318.48" y1="316.67" x2="321.62" y2="316.67"/><line class="cls-5" x1="326.7" y1="316.67" x2="332.15" y2="316.67"/><line class="cls-5" x1="339.83" y1="316.67" x2="343.02" y2="316.67"/><line class="cls-3" x1="347.5" y1="322.6" x2="347.5" y2="316.67"/><line class="cls-5" x1="347.5" y1="317.37" x2="347.5" y2="321.93"/><line class="cls-5" x1="367.07" y1="314.77" x2="367.07" y2="317.83"/><line class="cls-5" x1="374.39" y1="314.77" x2="374.39" y2="317.83"/><line class="cls-5" x1="368.33" y1="314.18" x2="372.1" y2="314.18"/><line class="cls-5" x1="376.17" y1="324.7" x2="379.43" y2="324.7"/><line class="cls-5" x1="367.4" y1="324.7" x2="373.9" y2="324.7"/><line class="cls-5" x1="361.23" y1="332.96" x2="364.38" y2="332.96"/><line class="cls-5" x1="369.32" y1="338.73" x2="372.53" y2="338.73"/><line class="cls-5" x1="374.39" y1="334.5" x2="374.39" y2="337.63"/><line class="cls-5" x1="374.39" y1="344.48" x2="374.39" y2="347.67"/><line class="cls-5" x1="386.42" y1="342.43" x2="391" y2="342.43"/><line class="cls-5" x1="389.63" y1="324.7" x2="392.83" y2="324.7"/><path class="cls-5" d="M919.12,547.07c.91.54,1.84,1.07,2.78,1.58" transform="translate(-534.03 -240.27)"/><path class="cls-5" d="M1008.74,548.39c.91-.5,1.8-1,2.68-1.54" transform="translate(-534.03 -240.27)"/><line class="cls-5" x1="475.77" y1="299.98" x2="475.77" y2="296.82"/><line class="cls-5" x1="485.57" y1="316.53" x2="488.72" y2="316.53"/><line class="cls-5" x1="480.3" y1="316.97" x2="480.3" y2="321.58"/><line class="cls-5" x1="489.98" y1="316.53" x2="493.82" y2="316.53"/><line class="cls-5" x1="489.43" y1="322" x2="492.62" y2="322"/><line class="cls-5" x1="457.52" y1="322" x2="460.67" y2="322"/><line class="cls-3" x1="540.12" y1="280.08" x2="540.12" y2="286.81"/><line class="cls-3" x1="536.78" y1="286.81" x2="540.12" y2="286.81"/><line class="cls-3" x1="536.78" y1="305.43" x2="536.78" y2="286.81"/><line class="cls-3" x1="536.78" y1="305.43" x2="533.98" y2="307.38"/><line class="cls-3" x1="533.98" y1="307.38" x2="525.77" y2="307.38"/><line class="cls-3" x1="527.67" y1="298.53" x2="527.67" y2="302.17"/><line class="cls-3" x1="527.67" y1="302.17" x2="541.84" y2="302.17"/><line class="cls-3" x1="536.78" y1="299.26" x2="546.17" y2="299.26"/><line class="cls-3" x1="541.84" y1="302.17" x2="541.84" y2="299.26"/><line class="cls-3" x1="546.17" y1="299.26" x2="546.17" y2="287.23"/><line class="cls-3" x1="546.17" y1="287.23" x2="579.07" y2="287.23"/><line class="cls-3" x1="540.83" y1="302.17" x2="540.83" y2="339.6"/><line class="cls-3" x1="540.83" y1="315.93" x2="525.77" y2="315.93"/><line class="cls-3" x1="552.84" y1="287.23" x2="552.84" y2="304.23"/><line class="cls-3" x1="558.39" y1="304.23" x2="552.84" y2="304.23"/><line class="cls-3" x1="558.39" y1="304.23" x2="558.39" y2="316.53"/><line class="cls-3" x1="558.39" y1="316.53" x2="553.4" y2="328.53"/><line class="cls-3" x1="553.4" y1="328.53" x2="553.4" y2="339.6"/><line class="cls-3" x1="574.77" y1="315.33" x2="574.77" y2="339.6"/><line class="cls-3" x1="574.77" y1="328.7" x2="572.1" y2="328.7"/><line class="cls-3" x1="572.1" y1="328.7" x2="572.1" y2="332.18"/><line class="cls-3" x1="572.1" y1="332.18" x2="572.82" y2="332.18"/><line class="cls-3" x1="572.82" y1="332.18" x2="572.82" y2="339.6"/><line class="cls-3" x1="572.1" y1="329.83" x2="540.83" y2="329.83"/><line class="cls-3" x1="566.17" y1="329.83" x2="566.17" y2="339.6"/><line class="cls-3" x1="574.77" y1="315.33" x2="579.07" y2="315.33"/><line class="cls-3" x1="552.84" y1="297.06" x2="546.17" y2="297.06"/><line class="cls-3" x1="546.17" y1="293.98" x2="536.78" y2="293.98"/><line class="cls-3" x1="539.38" y1="286.81" x2="539.38" y2="293.98"/><line class="cls-3" x1="552.84" y1="299.11" x2="579.07" y2="299.11"/><line class="cls-3" x1="569.77" y1="287.23" x2="569.77" y2="299.11"/><line class="cls-3" x1="561.39" y1="287.23" x2="561.39" y2="299.11"/><line class="cls-3" x1="567.19" y1="303.88" x2="567.19" y2="312.01"/><line class="cls-3" x1="567.19" y1="312.01" x2="579.07" y2="312.01"/><line class="cls-3" x1="567.19" y1="303.88" x2="579.07" y2="303.88"/><line class="cls-3" x1="613.9" y1="280.08" x2="613.9" y2="330.63"/><line class="cls-3" x1="579.07" y1="329.27" x2="613.9" y2="329.27"/><line class="cls-3" x1="613.9" y1="287.23" x2="626.17" y2="287.23"/><line class="cls-3" x1="626.17" y1="287.23" x2="626.17" y2="296.53"/><line class="cls-3" x1="626.79" y1="296.53" x2="613.9" y2="296.53"/><line class="cls-3" x1="626.79" y1="296.53" x2="626.79" y2="330.63"/><line class="cls-3" x1="613.9" y1="330.63" x2="626.79" y2="330.63"/><line class="cls-3" x1="613.9" y1="310.63" x2="626.79" y2="310.63"/><line class="cls-3" x1="613.9" y1="317.6" x2="626.79" y2="317.6"/><line class="cls-3" x1="613.9" y1="324.57" x2="626.79" y2="324.57"/><line class="cls-3" x1="620.03" y1="324.57" x2="620.03" y2="339.6"/><line class="cls-3" x1="666.43" y1="329.8" x2="626.79" y2="329.8"/><line class="cls-3" x1="638.97" y1="329.8" x2="638.97" y2="339.6"/><line class="cls-3" x1="651.43" y1="329.8" x2="651.43" y2="339.6"/><line class="cls-3" x1="652.7" y1="280.13" x2="652.7" y2="287.23"/><line class="cls-3" x1="656" y1="287.23" x2="651.12" y2="287.23"/><line class="cls-3" x1="651.12" y1="287.23" x2="651.12" y2="315.88"/><line class="cls-3" x1="651.12" y1="315.88" x2="666.43" y2="315.88"/><line class="cls-3" x1="656" y1="287.23" x2="656" y2="303.73"/><line class="cls-3" x1="656" y1="303.73" x2="651.12" y2="303.73"/><line class="cls-3" x1="656" y1="302.97" x2="666.43" y2="302.97"/><line class="cls-3" x1="656.37" y1="315.88" x2="656.37" y2="329.8"/><line class="cls-3" x1="633.9" y1="289.27" x2="647.04" y2="289.27"/><line class="cls-3" x1="647.04" y1="289.27" x2="647.04" y2="325.47"/><line class="cls-3" x1="633.97" y1="325.47" x2="647.04" y2="325.47"/><line class="cls-3" x1="633.9" y1="295.03" x2="633.9" y2="325.47"/><line class="cls-3" x1="633.9" y1="295.03" x2="647.04" y2="295.03"/><line class="cls-3" x1="633.9" y1="303.88" x2="647.04" y2="303.88"/><line class="cls-3" x1="633.9" y1="311.33" x2="647.04" y2="311.33"/><line class="cls-3" x1="633.9" y1="318.53" x2="647.04" y2="318.53"/><line class="cls-3" x1="638.67" y1="295.03" x2="638.67" y2="289.27"/><line class="cls-5" x1="444.41" y1="168.41" x2="447.18" y2="166.72"/><line class="cls-5" x1="477.77" y1="150.53" x2="477.77" y2="153.58"/><line class="cls-5" x1="482.57" y1="145.01" x2="482.57" y2="147.88"/><line class="cls-5" x1="484.39" y1="135.7" x2="489.19" y2="135.7"/><line class="cls-5" x1="495.83" y1="126.96" x2="495.83" y2="131.78"/><line class="cls-5" x1="490.27" y1="147.88" x2="490.27" y2="150.83"/><line class="cls-5" x1="517.93" y1="132.51" x2="521.2" y2="132.51"/><line class="cls-5" x1="529.47" y1="127.77" x2="529.47" y2="130.97"/><line class="cls-5" x1="529.47" y1="151.16" x2="529.47" y2="154.38"/><line class="cls-5" x1="529.47" y1="156.63" x2="529.47" y2="159.83"/><line class="cls-5" x1="529.47" y1="179.61" x2="529.47" y2="182.83"/><line class="cls-5" x1="523.02" y1="184.18" x2="526.32" y2="184.18"/><line class="cls-5" x1="490.27" y1="250.88" x2="490.27" y2="253.87"/><line class="cls-5" x1="490.27" y1="282.86" x2="490.27" y2="285.77"/><line class="cls-5" x1="484.12" y1="286.2" x2="488.95" y2="286.2"/><line class="cls-5" x1="542.07" y1="230.53" x2="542.07" y2="227.63"/><line class="cls-5" x1="546.6" y1="230.53" x2="546.6" y2="227.63"/><line class="cls-5" x1="542.07" y1="237.23" x2="542.07" y2="234.37"/><line class="cls-5" x1="546.6" y1="237.23" x2="546.6" y2="234.37"/><line class="cls-5" x1="542.07" y1="244.06" x2="542.07" y2="241.18"/><line class="cls-5" x1="546.6" y1="244.06" x2="546.6" y2="241.18"/><line class="cls-5" x1="542.07" y1="249.41" x2="542.07" y2="246.61"/><line class="cls-5" x1="542.84" y1="254.5" x2="545.74" y2="254.5"/><line class="cls-5" x1="558.5" y1="245.88" x2="558.5" y2="248.68"/><line class="cls-5" x1="575.53" y1="240.33" x2="575.53" y2="237.53"/><line class="cls-5" x1="575.53" y1="235.5" x2="575.53" y2="232.67"/><line class="cls-5" x1="576.37" y1="230.83" x2="579.2" y2="230.83"/><line class="cls-5" x1="579.87" y1="249.68" x2="582.67" y2="249.68"/><line class="cls-5" x1="585.34" y1="249.68" x2="588.14" y2="249.68"/><line class="cls-5" x1="589.47" y1="245.03" x2="592.29" y2="245.03"/><line class="cls-5" x1="597.67" y1="245.03" x2="600.44" y2="245.03"/><line class="cls-5" x1="602.52" y1="245.03" x2="605.32" y2="245.03"/><line class="cls-5" x1="607.92" y1="250.17" x2="610.79" y2="250.3"/><line class="cls-5" x1="621.82" y1="238.17" x2="621.82" y2="241.03"/><line class="cls-5" x1="639.07" y1="237.38" x2="641.89" y2="237.38"/><line class="cls-5" x1="647.42" y1="237.38" x2="650.22" y2="237.38"/><line class="cls-5" x1="626.27" y1="249.48" x2="626.43" y2="246.63"/><line class="cls-5" x1="625.18" y1="257.12" x2="625.67" y2="254.32"/><line class="cls-5" x1="624.23" y1="262.53" x2="624.72" y2="259.73"/><line class="cls-5" x1="620.32" y1="264.7" x2="623.13" y2="264.7"/><line class="cls-5" x1="617.37" y1="268.38" x2="617.37" y2="271.21"/><line class="cls-5" x1="605.54" y1="267.43" x2="608.37" y2="267.43"/><line class="cls-5" x1="605.54" y1="280.08" x2="608.37" y2="280.08"/><line class="cls-5" x1="584.82" y1="280.08" x2="587.58" y2="280.08"/><line class="cls-5" x1="588.07" y1="267.93" x2="588.07" y2="271.58"/><line class="cls-5" x1="591.65" y1="280.08" x2="594.52" y2="280.08"/><line class="cls-5" x1="597.93" y1="280.08" x2="600.82" y2="280.08"/><line class="cls-5" x1="579.07" y1="281.16" x2="579.07" y2="286.13"/><line class="cls-5" x1="548.17" y1="270.78" x2="551" y2="270.78"/><line class="cls-5" x1="548.17" y1="280.08" x2="551" y2="280.08"/><line class="cls-5" x1="542.07" y1="255.47" x2="542.07" y2="258.3"/><line class="cls-5" x1="542.07" y1="264.07" x2="542.07" y2="266.87"/><line class="cls-5" x1="540.12" y1="280.9" x2="540.12" y2="285.87"/><line class="cls-5" x1="542.34" y1="293.98" x2="545.17" y2="293.98"/><line class="cls-5" x1="547.34" y1="287.23" x2="551.64" y2="287.23"/><line class="cls-5" x1="547.34" y1="297.06" x2="551.64" y2="297.06"/><line class="cls-5" x1="574.09" y1="299.11" x2="576.89" y2="299.11"/><line class="cls-5" x1="562.62" y1="299.11" x2="565.42" y2="299.11"/><line class="cls-5" x1="553.27" y1="299.11" x2="556.07" y2="299.11"/><line class="cls-5" x1="558.39" y1="305.57" x2="558.39" y2="308.47"/><line class="cls-5" x1="540.83" y1="307.6" x2="540.83" y2="304.73"/><line class="cls-5" x1="534.75" y1="315.93" x2="537.63" y2="315.93"/><line class="cls-5" x1="540.83" y1="325.13" x2="540.83" y2="322.27"/><line class="cls-5" x1="545.8" y1="329.83" x2="548.7" y2="329.83"/><line class="cls-5" x1="558.34" y1="329.83" x2="561.22" y2="329.83"/><line class="cls-5" x1="568.17" y1="329.83" x2="571.02" y2="329.83"/><line class="cls-5" x1="574.09" y1="303.88" x2="576.89" y2="303.88"/><line class="cls-5" x1="574.77" y1="315.85" x2="574.77" y2="318.65"/><line class="cls-5" x1="613.9" y1="280.98" x2="613.9" y2="285.88"/><line class="cls-5" x1="621.19" y1="287.23" x2="623.69" y2="287.23"/><line class="cls-5" x1="638.67" y1="290.26" x2="638.67" y2="293.13"/><line class="cls-5" x1="626.79" y1="297.63" x2="626.79" y2="300.48"/><line class="cls-5" x1="633.9" y1="295.93" x2="633.9" y2="298.78"/><line class="cls-5" x1="626.79" y1="304.43" x2="626.79" y2="307.31"/><line class="cls-5" x1="633.9" y1="304.43" x2="633.9" y2="307.31"/><line class="cls-5" x1="626.79" y1="311.33" x2="626.79" y2="314.23"/><line class="cls-5" x1="633.9" y1="312.13" x2="633.9" y2="314.93"/><line class="cls-5" x1="626.79" y1="318.41" x2="626.79" y2="321.23"/><line class="cls-5" x1="633.9" y1="319.33" x2="633.9" y2="322.13"/><line class="cls-5" x1="626.79" y1="325.47" x2="626.79" y2="328.26"/><line class="cls-5" x1="620.03" y1="325.78" x2="620.03" y2="328.63"/><line class="cls-5" x1="627.92" y1="329.8" x2="630.74" y2="329.8"/><line class="cls-5" x1="640.64" y1="329.8" x2="643.47" y2="329.8"/><line class="cls-5" x1="653.12" y1="329.8" x2="655.97" y2="329.8"/><line class="cls-5" x1="656.37" y1="316.86" x2="656.37" y2="319.66"/><line class="cls-5" x1="651.12" y1="304.78" x2="651.12" y2="307.58"/><line class="cls-5" x1="646.22" y1="278.77" x2="649.02" y2="278.77"/><line class="cls-5" x1="652.7" y1="281.08" x2="652.7" y2="286.05"/><line class="cls-5" x1="651.12" y1="272.52" x2="651.12" y2="275.35"/><line class="cls-5" x1="651.12" y1="270.53" x2="651.12" y2="267.73"/><line class="cls-5" x1="645.74" y1="257.1" x2="645.74" y2="254.3"/><line class="cls-5" x1="651.12" y1="249.5" x2="651.12" y2="246.7"/><line class="cls-5" x1="651.12" y1="244.65" x2="651.12" y2="241.85"/><line class="cls-3" x1="673.5" y1="100.28" x2="673.5" y2="120.2"/><line class="cls-3" x1="701.3" y1="102.2" x2="701.3" y2="100.28"/><line class="cls-3" x1="701.3" y1="100.28" x2="673.5" y2="100.28"/><line class="cls-3" x1="649.77" y1="100.28" x2="649.77" y2="120.2"/><line class="cls-3" x1="572.07" y1="100.93" x2="598.1" y2="100.93"/><line class="cls-3" x1="598.1" y1="100.93" x2="598.1" y2="120.2"/><line class="cls-3" x1="598.92" y1="61.78" x2="598.92" y2="76.18"/><line class="cls-3" x1="598.92" y1="76.18" x2="623.02" y2="76.18"/><line class="cls-3" x1="623.02" y1="76.18" x2="623.02" y2="61.78"/><line class="cls-3" x1="623.02" y1="61.78" x2="598.92" y2="61.78"/><line class="cls-5" x1="647.47" y1="72" x2="647.47" y2="65.5"/><path class="cls-2" d="M1175.53,310.75a2.09,2.09,0,1,1,.34-3.21A2.16,2.16,0,0,1,1175.53,310.75Z" transform="translate(-534.03 -240.27)"/><path class="cls-3" d="M1181.5,305.77a8.11,8.11,0,0,0-7.53-4.6,7.84,7.84,0,0,0-.2,15.66,8.14,8.14,0,0,0,7.73-4.56" transform="translate(-534.03 -240.27)"/><circle class="cls-3" cx="640.33" cy="68.74" r="2.1"/><line class="cls-3" x1="566.17" y1="44.18" x2="566.17" y2="100.93"/><line class="cls-3" x1="566.17" y1="44.18" x2="555.21" y2="44.18"/><line class="cls-3" x1="566.17" y1="50.72" x2="553.47" y2="50.72"/><line class="cls-3" x1="560.13" y1="50.72" x2="560.13" y2="56.28"/><line class="cls-3" x1="560.13" y1="56.28" x2="552.04" y2="56.28"/><line class="cls-3" x1="559.15" y1="56.28" x2="559.15" y2="75.33"/><line class="cls-3" x1="559.15" y1="60.85" x2="566.17" y2="60.85"/><line class="cls-3" x1="560.77" y1="75.76" x2="547.82" y2="72.35"/><line class="cls-3" x1="560.77" y1="75.76" x2="556.09" y2="93.41"/><line class="cls-3" x1="556.09" y1="93.41" x2="566.17" y2="93.41"/><line class="cls-3" x1="558.73" y1="85.66" x2="566.17" y2="85.66"/><line class="cls-3" x1="558.73" y1="85.66" x2="558.73" y2="100.93"/><line class="cls-3" x1="577.49" y1="37.93" x2="556.84" y2="37.93"/><line class="cls-3" x1="577.49" y1="37.93" x2="585.61" y2="6.67"/><line class="cls-3" x1="579.9" y1="28.66" x2="560.53" y2="23.63"/><line class="cls-3" x1="582.82" y1="17.41" x2="563.45" y2="12.39"/><line class="cls-3" x1="729.37" y1="37.97" x2="673.77" y2="37.97"/><line class="cls-3" x1="649.37" y1="37.97" x2="649.37" y2="20.21"/><line class="cls-3" x1="673.77" y1="37.97" x2="673.77" y2="22.64"/><line class="cls-3" x1="700.47" y1="37.97" x2="700.47" y2="23.63"/><line class="cls-3" x1="706.72" y1="37.97" x2="706.72" y2="102.2"/><line class="cls-3" x1="706.72" y1="45.18" x2="729.37" y2="45.18"/><line class="cls-3" x1="713.45" y1="52.93" x2="706.72" y2="52.93"/><line class="cls-3" x1="713.45" y1="55.98" x2="713.45" y2="45.18"/><line class="cls-3" x1="706.72" y1="55.98" x2="729.37" y2="55.98"/><line class="cls-3" x1="713.45" y1="61.4" x2="706.72" y2="61.4"/><line class="cls-3" x1="713.45" y1="61.4" x2="713.45" y2="85.73"/><line class="cls-3" x1="713.45" y1="85.73" x2="706.72" y2="85.73"/><line class="cls-3" x1="713.45" y1="79.11" x2="729.37" y2="79.11"/><line class="cls-3" x1="713.45" y1="64.86" x2="729.37" y2="64.86"/><line class="cls-3" x1="721.19" y1="55.98" x2="721.19" y2="64.86"/><line class="cls-3" x1="706.72" y1="91.48" x2="729.37" y2="91.48"/><line class="cls-5" x1="585.82" y1="100.93" x2="589.84" y2="100.93"/><line class="cls-5" x1="675.07" y1="100.28" x2="678.64" y2="100.28"/><line class="cls-5" x1="706.72" y1="96.6" x2="706.72" y2="99.85"/><line class="cls-5" x1="706.72" y1="90.82" x2="706.72" y2="87.77"/><line class="cls-5" x1="713.8" y1="64.86" x2="716.82" y2="64.86"/><line class="cls-5" x1="706.72" y1="60.7" x2="706.72" y2="57.55"/><line class="cls-5" x1="714.18" y1="55.98" x2="717.35" y2="55.98"/><line class="cls-5" x1="721.19" y1="61.23" x2="721.19" y2="64.37"/><line class="cls-5" x1="706.72" y1="47.08" x2="706.72" y2="51.15"/><line class="cls-5" x1="706.72" y1="44.57" x2="706.72" y2="38.47"/><line class="cls-5" x1="722.39" y1="37.97" x2="728.09" y2="37.97"/><line class="cls-5" x1="675.07" y1="37.97" x2="678.69" y2="37.97"/><line class="cls-5" x1="578.46" y1="34.22" x2="579.42" y2="30.49"/><line class="cls-5" x1="580.35" y1="26.94" x2="581.33" y2="23.16"/><line class="cls-5" x1="583.29" y1="15.61" x2="584.25" y2="11.9"/><line class="cls-5" x1="562.35" y1="50.72" x2="565.53" y2="50.72"/><line class="cls-5" x1="560.13" y1="51.35" x2="560.13" y2="54.48"/><line class="cls-5" x1="566.17" y1="60.03" x2="566.17" y2="56.9"/><line class="cls-5" x1="559.15" y1="60.03" x2="559.15" y2="56.9"/><line class="cls-5" x1="566.17" y1="87.47" x2="566.17" y2="91.55"/><line class="cls-5" x1="566.17" y1="93.97" x2="566.17" y2="99.97"/><line class="cls-5" x1="558.73" y1="99.97" x2="558.73" y2="93.97"/><line class="cls-3" x1="732.62" y1="123.77" x2="732.62" y2="129.63"/><line class="cls-3" x1="732.62" y1="129.63" x2="764.57" y2="129.63"/><line class="cls-3" x1="764.57" y1="117.4" x2="764.57" y2="129.63"/><line class="cls-3" x1="764.57" y1="134.67" x2="740" y2="134.67"/><line class="cls-3" x1="734.5" y1="129.63" x2="734.5" y2="145.83"/><line class="cls-3" x1="740" y1="134.67" x2="740" y2="145.83"/><line class="cls-3" x1="733.35" y1="145.83" x2="764.57" y2="145.83"/><line class="cls-3" x1="764.57" y1="145.83" x2="764.57" y2="143.43"/><line class="cls-3" x1="764.57" y1="143.43" x2="767.39" y2="143.43"/><line class="cls-3" x1="764.57" y1="137.98" x2="767.39" y2="137.98"/><line class="cls-3" x1="740" y1="137.38" x2="744.02" y2="137.38"/><line class="cls-3" x1="744.02" y1="134.67" x2="744.02" y2="137.38"/><line class="cls-3" x1="744.02" y1="143.43" x2="740" y2="143.43"/><line class="cls-3" x1="744.02" y1="143.43" x2="744.02" y2="145.83"/><line class="cls-3" x1="758.79" y1="134.67" x2="758.79" y2="129.63"/><line class="cls-3" x1="744.02" y1="129.63" x2="744.02" y2="117.4"/><line class="cls-3" x1="754.12" y1="129.63" x2="754.12" y2="117.4"/><line class="cls-3" x1="733.35" y1="145.83" x2="733.35" y2="156.37"/><line class="cls-3" x1="734.48" y1="156.37" x2="712.37" y2="156.37"/><line class="cls-3" x1="734.48" y1="156.37" x2="734.48" y2="166.73"/><line class="cls-3" x1="734.48" y1="166.73" x2="731.95" y2="166.73"/><line class="cls-3" x1="731.95" y1="166.73" x2="731.95" y2="171.96"/><line class="cls-3" x1="712.37" y1="171.96" x2="733.44" y2="171.96"/><line class="cls-3" x1="733.44" y1="171.96" x2="733.44" y2="185.61"/><line class="cls-3" x1="733.44" y1="185.61" x2="723.42" y2="185.61"/><line class="cls-3" x1="731.97" y1="185.61" x2="731.97" y2="200.28"/><line class="cls-3" x1="731.97" y1="200.28" x2="734.47" y2="200.28"/><line class="cls-3" x1="734.47" y1="200.28" x2="734.47" y2="217.68"/><line class="cls-3" x1="733.32" y1="217.68" x2="734.47" y2="217.68"/><line class="cls-3" x1="733.32" y1="226.28" x2="733.32" y2="217.68"/><line class="cls-3" x1="734.47" y1="226.28" x2="733.32" y2="226.28"/><line class="cls-3" x1="734.47" y1="226.28" x2="734.47" y2="252.53"/><line class="cls-3" x1="734.47" y1="252.53" x2="733.3" y2="252.53"/><line class="cls-3" x1="734.47" y1="246.83" x2="764.43" y2="246.83"/><line class="cls-3" x1="764.43" y1="246.83" x2="764.43" y2="258.2"/><line class="cls-3" x1="754.1" y1="246.83" x2="754.1" y2="258.2"/><line class="cls-3" x1="744" y1="246.83" x2="744" y2="258.2"/><line class="cls-3" x1="764.52" y1="230.73" x2="739.95" y2="230.73"/><line class="cls-3" x1="739.95" y1="230.73" x2="739.95" y2="241.9"/><line class="cls-3" x1="739.95" y1="241.9" x2="764.43" y2="241.9"/><line class="cls-3" x1="739.95" y1="233.45" x2="743.97" y2="233.45"/><line class="cls-3" x1="743.97" y1="230.73" x2="743.97" y2="233.45"/><line class="cls-3" x1="743.97" y1="239.5" x2="739.95" y2="239.5"/><line class="cls-3" x1="743.97" y1="239.5" x2="743.97" y2="241.9"/><line class="cls-3" x1="767.89" y1="238.76" x2="767.89" y2="232.78"/><line class="cls-3" x1="767.89" y1="232.78" x2="764.52" y2="232.78"/><line class="cls-3" x1="764.52" y1="230.73" x2="764.52" y2="232.78"/><line class="cls-3" x1="764.43" y1="238.76" x2="767.89" y2="238.76"/><line class="cls-3" x1="758.5" y1="241.9" x2="758.5" y2="246.83"/><circle class="cls-3" cx="748.94" cy="212.96" r="9.73"/><line class="cls-3" x1="734.47" y1="231.3" x2="739.95" y2="231.3"/><line class="cls-3" x1="748.7" y1="230.73" x2="748.7" y2="222.68"/><line class="cls-3" x1="741.12" y1="154.76" x2="741.12" y2="207.11"/><line class="cls-3" x1="741.12" y1="154.76" x2="747.89" y2="152.28"/><line class="cls-3" x1="747.89" y1="152.28" x2="756.89" y2="152.28"/><line class="cls-3" x1="756.89" y1="152.28" x2="771.42" y2="157.58"/><line class="cls-3" x1="771.42" y1="157.58" x2="771.42" y2="181.18"/><line class="cls-3" x1="771.42" y1="181.18" x2="768.84" y2="188.21"/><line class="cls-3" x1="768.84" y1="188.21" x2="771.42" y2="195.33"/><line class="cls-3" x1="771.42" y1="195.33" x2="771.42" y2="222.68"/><line class="cls-3" x1="771.42" y1="222.68" x2="762.72" y2="225.87"/><line class="cls-3" x1="762.72" y1="225.87" x2="762.72" y2="230.73"/><line class="cls-3" x1="734.47" y1="230.73" x2="712.37" y2="230.73"/><line class="cls-3" x1="734.47" y1="209.39" x2="712.37" y2="209.39"/><line class="cls-3" x1="712.37" y1="196.93" x2="723.42" y2="196.93"/><line class="cls-3" x1="723.42" y1="209.39" x2="723.42" y2="185.61"/><line class="cls-3" x1="745.37" y1="212.96" x2="740.51" y2="208.1"/><line class="cls-3" x1="745.37" y1="212.96" x2="740.52" y2="217.81"/><line class="cls-3" x1="745.37" y1="212.96" x2="758.67" y2="212.96"/><line class="cls-3" x1="748.79" y1="152.28" x2="748.79" y2="145.83"/><line class="cls-3" x1="756.12" y1="152.28" x2="756.12" y2="145.83"/><line class="cls-3" x1="767.39" y1="137.98" x2="767.39" y2="143.43"/><line class="cls-5" x1="739.49" y1="129.63" x2="742.79" y2="129.63"/><line class="cls-5" x1="744.84" y1="129.63" x2="747.87" y2="129.63"/><line class="cls-5" x1="754.97" y1="129.63" x2="758.02" y2="129.63"/><line class="cls-5" x1="740" y1="137.85" x2="740" y2="142.97"/><line class="cls-5" x1="734.88" y1="145.83" x2="739.58" y2="145.83"/><line class="cls-5" x1="748.79" y1="147.8" x2="748.79" y2="151.28"/><line class="cls-5" x1="733.35" y1="149.23" x2="733.35" y2="152.28"/><line class="cls-5" x1="731.95" y1="167.15" x2="731.95" y2="170.45"/><line class="cls-5" x1="731.97" y1="187.18" x2="731.97" y2="190.56"/><line class="cls-5" x1="723.42" y1="187.18" x2="723.42" y2="190.56"/><line class="cls-5" x1="723.42" y1="198.28" x2="723.42" y2="201.72"/><line class="cls-5" x1="733.32" y1="220.63" x2="733.32" y2="223.85"/><line class="cls-5" x1="734.88" y1="231.3" x2="739.55" y2="231.3"/><line class="cls-5" x1="734.47" y1="238.73" x2="734.47" y2="242.17"/><line class="cls-5" x1="739.95" y1="233.98" x2="739.95" y2="238.92"/><line class="cls-5" x1="754.75" y1="246.83" x2="757.82" y2="246.83"/><line class="cls-5" x1="744.85" y1="246.83" x2="747.93" y2="246.83"/><line class="cls-5" x1="742.75" y1="246.83" x2="739.68" y2="246.83"/><line class="cls-6" x1="281.42" y1="14.93" x2="245.22" y2="14.93"/><line class="cls-6" x1="245.22" y1="11.93" x2="245.22" y2="14.93"/><line class="cls-6" x1="245.22" y1="11.93" x2="220.42" y2="11.93"/><line class="cls-6" x1="220.42" y1="11.93" x2="219.52" y2="11.03"/><line class="cls-6" x1="206.27" y1="15.51" x2="155.7" y2="15.51"/><path class="cls-6" d="M742.85,251.3a5.08,5.08,0,0,0-1.77,1.72,5.23,5.23,0,0,0-.78,2.75" transform="translate(-534.03 -240.27)"/><line class="cls-6" x1="155.7" y1="23.93" x2="155.7" y2="12.13"/><line class="cls-6" x1="155.7" y1="23.93" x2="133.07" y2="23.93"/><line class="cls-6" x1="133.07" y1="12.13" x2="133.07" y2="23.93"/><line class="cls-6" x1="97.12" y1="11.68" x2="97.12" y2="15.51"/><line class="cls-6" x1="75.43" y1="11.68" x2="97.12" y2="11.68"/><line class="cls-6" x1="75.43" y1="14.3" x2="75.43" y2="11.68"/><line class="cls-6" x1="75.43" y1="14.3" x2="39.2" y2="14.3"/><line class="cls-6" x1="39.2" y1="14.3" x2="39.2" y2="36.57"/><line class="cls-6" x1="39.2" y1="36.57" x2="41.82" y2="36.57"/><line class="cls-6" x1="41.82" y1="36.57" x2="41.82" y2="50.33"/><line class="cls-6" x1="41.82" y1="50.33" x2="38.3" y2="50.33"/><line class="cls-6" x1="38.3" y1="50.33" x2="38.3" y2="97.36"/><line class="cls-6" x1="38.3" y1="97.36" x2="51.62" y2="97.36"/><line class="cls-6" x1="51.62" y1="97.36" x2="51.62" y2="113.13"/><line class="cls-6" x1="51.62" y1="113.13" x2="38.3" y2="113.13"/><line class="cls-6" x1="38.3" y1="113.13" x2="38.3" y2="161.43"/><line class="cls-6" x1="38.3" y1="161.43" x2="41.7" y2="161.43"/><line class="cls-6" x1="41.7" y1="161.43" x2="41.7" y2="174.4"/><line class="cls-6" x1="38.3" y1="174.4" x2="41.7" y2="174.4"/><line class="cls-6" x1="38.3" y1="197.58" x2="38.3" y2="174.4"/><line class="cls-6" x1="43.27" y1="197.58" x2="38.3" y2="197.58"/><line class="cls-6" x1="43.27" y1="209.08" x2="43.27" y2="197.58"/><line class="cls-6" x1="2.85" y1="209.08" x2="43.27" y2="209.08"/><line class="cls-6" x1="0.5" y1="211.8" x2="0.5" y2="224.13"/><path class="cls-6" d="M534.53,452.07a2.79,2.79,0,0,1,.64-1.81,2.74,2.74,0,0,1,1.71-.91" transform="translate(-534.03 -240.27)"/><line class="cls-6" x1="0.5" y1="224.13" x2="2.4" y2="224.13"/><line class="cls-6" x1="2.4" y1="233.6" x2="0.5" y2="233.6"/><line class="cls-6" x1="2.4" y1="224.13" x2="2.4" y2="233.6"/><line class="cls-6" x1="0.5" y1="233.6" x2="0.5" y2="248.87"/><line class="cls-6" x1="0.5" y1="248.87" x2="74.83" y2="248.87"/><line class="cls-6" x1="74.83" y1="244.38" x2="74.83" y2="248.87"/><line class="cls-6" x1="94.43" y1="247.33" x2="74.83" y2="244.38"/><path class="cls-6" d="M622.57,482.5" transform="translate(-534.03 -240.27)"/><path class="cls-6" d="M622.57,484.13" transform="translate(-534.03 -240.27)"/><path class="cls-6" d="M622.57,484.13" transform="translate(-534.03 -240.27)"/><path class="cls-6" d="M631.37,484.13" transform="translate(-534.03 -240.27)"/><line class="cls-6" x1="97.33" y1="223.57" x2="97.33" y2="247.33"/><line class="cls-6" x1="85.83" y1="223.57" x2="97.33" y2="223.57"/><line class="cls-6" x1="85.83" y1="209" x2="85.83" y2="223.57"/><line class="cls-6" x1="75.33" y1="209" x2="85.83" y2="209"/><line class="cls-6" x1="75.33" y1="209" x2="75.33" y2="199.07"/><line class="cls-6" x1="75.33" y1="199.07" x2="98.37" y2="199.07"/><line class="cls-6" x1="98.37" y1="194.47" x2="98.37" y2="199.07"/><line class="cls-6" x1="98.37" y1="194.47" x2="114.83" y2="194.47"/><line class="cls-6" x1="114.83" y1="194.47" x2="114.83" y2="247.33"/><line class="cls-6" x1="94.43" y1="247.33" x2="114.83" y2="247.33"/><line class="cls-6" x1="121.17" y1="267.13" x2="107.77" y2="267.13"/><line class="cls-6" x1="137.64" y1="344.33" x2="137.64" y2="265.66"/><line class="cls-6" x1="121.17" y1="267.13" x2="137.64" y2="265.66"/><line class="cls-6" x1="137.64" y1="344.33" x2="170.77" y2="344.33"/><line class="cls-6" x1="285.57" y1="346.53" x2="170.77" y2="346.53"/><line class="cls-6" x1="170.77" y1="344.33" x2="170.77" y2="346.53"/><path class="cls-6" d="M819.6,586.8a15,15,0,0,0,8.95-2.8c6.59-5,5.28-14.54,12.05-17.7a10,10,0,0,1,4-.9" transform="translate(-534.03 -240.27)"/><line class="cls-6" x1="310.57" y1="294.68" x2="310.57" y2="292.53"/><line class="cls-6" x1="310.57" y1="292.53" x2="214.27" y2="292.53"/><line class="cls-6" x1="214.27" y1="292.53" x2="214.27" y2="324.53"/><line class="cls-6" x1="197.07" y1="324.53" x2="214.27" y2="324.53"/><line class="cls-6" x1="197.07" y1="332.08" x2="197.07" y2="324.53"/><line class="cls-6" x1="197.07" y1="332.08" x2="182.92" y2="332.08"/><line class="cls-6" x1="182.92" y1="332.08" x2="182.92" y2="276.6"/><line class="cls-6" x1="182.92" y1="276.6" x2="195.62" y2="276.6"/><line class="cls-6" x1="195.62" y1="276.6" x2="195.62" y2="261.2"/><line class="cls-6" x1="191.13" y1="261.2" x2="195.62" y2="261.2"/><line class="cls-6" x1="191.13" y1="251.28" x2="191.13" y2="261.2"/><line class="cls-6" x1="194.7" y1="251.63" x2="231.33" y2="255.67"/><line class="cls-6" x1="231.33" y1="255.67" x2="296.27" y2="258.93"/><line class="cls-6" x1="296.27" y1="258.93" x2="296.27" y2="226.93"/><line class="cls-6" x1="295.42" y1="226.93" x2="296.27" y2="226.93"/><line class="cls-6" x1="295.42" y1="226.93" x2="295.42" y2="194.33"/><line class="cls-6" x1="295.42" y1="194.33" x2="303.83" y2="194.33"/><line class="cls-6" x1="303.83" y1="194.33" x2="303.83" y2="167.47"/><line class="cls-6" x1="303.83" y1="167.47" x2="279.25" y2="167.47"/><line class="cls-6" x1="279.25" y1="167.47" x2="279.25" y2="42.07"/><line class="cls-6" x1="279.25" y1="42.07" x2="281.53" y2="42.07"/><line class="cls-6" x1="281.53" y1="42.07" x2="281.53" y2="14.93"/><line class="cls-6" x1="208.82" y1="11.03" x2="219.52" y2="11.03"/><line class="cls-6" x1="133.07" y1="15.51" x2="97.12" y2="15.51"/><line class="cls-6" x1="309.49" y1="325.13" x2="309.49" y2="322.6"/><line class="cls-6" x1="356.54" y1="356.12" x2="394.57" y2="360.67"/><line class="cls-6" x1="394.57" y1="360.67" x2="394.57" y2="339.6"/><line class="cls-6" x1="394.57" y1="339.6" x2="495.77" y2="339.6"/><line class="cls-6" x1="495.77" y1="339.6" x2="495.77" y2="316.53"/><line class="cls-6" x1="495.77" y1="316.53" x2="501" y2="316.53"/><line class="cls-6" x1="501" y1="316.53" x2="501" y2="294.68"/><line class="cls-6" x1="523.42" y1="294.68" x2="310.57" y2="294.68"/><line class="cls-6" x1="309.49" y1="322.6" x2="347.5" y2="322.6"/><line class="cls-6" x1="347.5" y1="322.6" x2="347.5" y2="324.7"/><line class="cls-6" x1="347.5" y1="324.7" x2="361.87" y2="324.7"/><line class="cls-6" x1="361.87" y1="324.7" x2="356.54" y2="356.12"/><line class="cls-6" x1="479.3" y1="192.59" x2="433.32" y2="175.14"/><line class="cls-6" x1="522.43" y1="203.23" x2="556.67" y2="203.23"/><line class="cls-6" x1="556.67" y1="203.23" x2="556.67" y2="125.13"/><line class="cls-6" x1="556.67" y1="125.13" x2="466.43" y2="125.13"/><line class="cls-6" x1="466.43" y1="125.13" x2="466.43" y2="118.27"/><line class="cls-6" x1="466.43" y1="118.27" x2="385.93" y2="105.33"/><line class="cls-6" x1="385.93" y1="105.33" x2="384.83" y2="111.17"/><path class="cls-6" d="M918.87,351.43c-.46,3-.84,6.33-1.07,9.87-.23,3.77-.27,7.28-.17,10.5" transform="translate(-534.03 -240.27)"/><line class="cls-6" x1="523.97" y1="339.6" x2="584.63" y2="339.6"/><line class="cls-6" x1="584.63" y1="337.9" x2="584.63" y2="339.6"/><line class="cls-6" x1="584.63" y1="337.9" x2="607.07" y2="337.9"/><line class="cls-6" x1="607.07" y1="339.6" x2="607.07" y2="337.9"/><line class="cls-6" x1="607.07" y1="339.6" x2="668.5" y2="339.6"/><line class="cls-6" x1="668.5" y1="329.8" x2="668.5" y2="339.6"/><line class="cls-6" x1="666.43" y1="329.8" x2="668.5" y2="329.8"/><line class="cls-6" x1="666.43" y1="223.18" x2="666.43" y2="329.8"/><line class="cls-6" x1="666.43" y1="223.18" x2="522.43" y2="223.18"/><line class="cls-6" x1="523.42" y1="298.53" x2="525.77" y2="298.53"/><line class="cls-6" x1="525.77" y1="298.53" x2="525.77" y2="330.28"/><line class="cls-6" x1="523.97" y1="330.28" x2="525.77" y2="330.28"/><line class="cls-6" x1="523.97" y1="339.6" x2="523.97" y2="330.28"/><line class="cls-6" x1="572.07" y1="120.2" x2="572.07" y2="100.93"/><line class="cls-6" x1="540.37" y1="100.93" x2="572.07" y2="100.93"/><line class="cls-6" x1="540.37" y1="100.93" x2="566.56" y2="0.5"/><line class="cls-6" x1="729.37" y1="23.63" x2="700.17" y2="23.63"/><path class="cls-6" d="M1100.6,240.77a409.06,409.06,0,0,0,65.2,17,409.1,409.1,0,0,0,68.4,6.1" transform="translate(-534.03 -240.27)"/><line class="cls-6" x1="729.37" y1="23.63" x2="729.37" y2="102.2"/><line class="cls-6" x1="701.3" y1="102.2" x2="729.37" y2="102.2"/><line class="cls-6" x1="701.3" y1="120.2" x2="701.3" y2="102.2"/><line class="cls-6" x1="673.5" y1="120.2" x2="701.3" y2="120.2"/><line class="cls-6" x1="572.07" y1="120.2" x2="673.5" y2="120.2"/><line class="cls-6" x1="712.37" y1="123.77" x2="732.97" y2="123.77"/><line class="cls-6" x1="732.97" y1="117.4" x2="732.97" y2="123.77"/><line class="cls-6" x1="778.57" y1="117.4" x2="732.97" y2="117.4"/><line class="cls-6" x1="778.57" y1="123.77" x2="778.57" y2="117.4"/><line class="cls-6" x1="778.57" y1="123.77" x2="811.43" y2="123.77"/><line class="cls-6" x1="811.43" y1="127.2" x2="811.43" y2="123.77"/><line class="cls-6" x1="818.23" y1="127.2" x2="811.43" y2="127.2"/><line class="cls-6" x1="818.23" y1="127.2" x2="818.23" y2="249.07"/><line class="cls-6" x1="810.92" y1="249.07" x2="818.23" y2="249.07"/><line class="cls-6" x1="810.92" y1="252.53" x2="810.92" y2="249.07"/><line class="cls-6" x1="779.1" y1="252.53" x2="810.92" y2="252.53"/><line class="cls-6" x1="733.3" y1="258.2" x2="779.1" y2="258.2"/><line class="cls-6" x1="779.1" y1="258.2" x2="779.1" y2="252.53"/><line class="cls-6" x1="733.3" y1="258.2" x2="733.3" y2="252.53"/><line class="cls-6" x1="733.3" y1="252.53" x2="712.37" y2="252.53"/><line class="cls-6" x1="712.37" y1="252.53" x2="712.37" y2="123.77"/><line class="cls-6" x1="706.17" y1="188.35" x2="712.37" y2="188.35"/><line class="cls-6" x1="701.5" y1="183.4" x2="701.5" y2="160.53"/><line class="cls-6" x1="712.37" y1="157.5" x2="706.13" y2="156.4"/><path class="cls-6" d="M1235.53,423.67a4.87,4.87,0,0,0,4.67,4.95" transform="translate(-534.03 -240.27)"/><path class="cls-6" d="M1235.53,400.8a4.28,4.28,0,0,1,1.69-3.55,4,4,0,0,1,3-.58" transform="translate(-534.03 -240.27)"/><line class="cls-6" x1="534.17" y1="352.53" x2="596.85" y2="352.53"/><line class="cls-6" x1="534.17" y1="352.53" x2="534.17" y2="399.33"/><line class="cls-6" x1="534.17" y1="399.33" x2="596.85" y2="399.33"/><line class="cls-6" x1="596.85" y1="399.33" x2="596.85" y2="352.53"/><line class="cls-6" x1="424.77" y1="384.73" x2="467.37" y2="384.73"/><line class="cls-6" x1="424.77" y1="384.73" x2="424.77" y2="469.93"/><line class="cls-6" x1="424.77" y1="469.93" x2="467.37" y2="469.93"/><line class="cls-6" x1="467.37" y1="469.93" x2="467.37" y2="384.73"/><line class="cls-6" x1="107.77" y1="267.13" x2="107.77" y2="247.33"/><line class="cls-6" x1="433.32" y1="175.14" x2="383.6" y2="205.3"/><line class="cls-6" x1="363.9" y1="131.53" x2="383.6" y2="131.53"/><path class="cls-6" d="M897.93,371.8a143,143,0,0,0,19.7,73.77" transform="translate(-534.03 -240.27)"/><path class="cls-6" d="M1013.33,432.85V535" transform="translate(-534.03 -240.27)"/><line class="cls-6" x1="114.83" y1="247.33" x2="176.36" y2="249.85"/><line class="cls-6" x1="176.36" y1="249.85" x2="194.7" y2="251.63"/><line class="cls-6" x1="523.42" y1="298.53" x2="523.42" y2="294.68"/><line class="cls-6" x1="522.43" y1="203.23" x2="522.43" y2="223.18"/><line class="cls-3" x1="87.37" y1="149.17" x2="82.63" y2="149.17"/><line class="cls-3" x1="82.63" y1="153.46" x2="87.37" y2="153.46"/><line class="cls-3" x1="166.59" y1="36.85" x2="159.82" y2="36.85"/><line class="cls-3" x1="75.33" y1="215.76" x2="81.39" y2="215.76"/><line class="cls-3" x1="81.39" y1="215.76" x2="81.39" y2="223.57"/><line class="cls-3" x1="161.57" y1="221.93" x2="161.57" y2="215.87"/><line class="cls-3" x1="433.75" y1="315.53" x2="428.52" y2="315.53"/><line class="cls-5" x1="429.21" y1="315.53" x2="432.53" y2="315.53"/><line class="cls-3" x1="428.11" y1="319.42" x2="428.52" y2="319.43"/><line class="cls-3" x1="434.35" y1="319.4" x2="433.75" y2="319.4"/><line class="cls-3" x1="613.9" y1="303.88" x2="626.79" y2="303.88"/><line class="cls-3" x1="579.07" y1="291.47" x2="613.9" y2="291.47"/><line class="cls-3" x1="584.82" y1="291.47" x2="584.82" y2="289.9"/><line class="cls-3" x1="584.82" y1="289.9" x2="608.1" y2="289.9"/><line class="cls-3" x1="608.1" y1="289.9" x2="608.1" y2="291.47"/><line class="cls-5" x1="579.6" y1="291.47" x2="584.4" y2="291.47"/><line class="cls-5" x1="608.53" y1="291.47" x2="613.33" y2="291.47"/><line class="cls-3" x1="764.43" y1="241.9" x2="764.43" y2="238.76"/><line class="cls-3" x1="764.57" y1="134.67" x2="764.57" y2="137.98"/></svg>