<svg id="Layer_3" data-name="Layer 3" xmlns="http://www.w3.org/2000/svg" viewBox="0 0 818.73 470.43"><defs><style>.cls-1{fill:#fff;}.cls-2{fill:#999;stroke:#999;}.cls-2,.cls-4,.cls-5,.cls-6{stroke-linecap:round;}.cls-2,.cls-3,.cls-7{stroke-linejoin:round;}.cls-2,.cls-3,.cls-4,.cls-5{stroke-width:0.5px;}.cls-3,.cls-4,.cls-5,.cls-6,.cls-7{fill:none;}.cls-3,.cls-7{stroke:#3fa9f5;}.cls-4{stroke:#666;}.cls-4,.cls-5,.cls-6{stroke-miterlimit:10;}.cls-5{stroke:#ff931e;}.cls-6{stroke:#000;}</style></defs><title>Stratford F0</title><path class="cls-1" d="M1267.58,498.22v-5.67h-20.93v-52.9h7.87V428.37H1240.2a4.78,4.78,0,0,1-3.26-1.56,4.7,4.7,0,0,1-1.16-3.14V400.8a3.81,3.81,0,0,1,1.15-3,3.66,3.66,0,0,1,2.53-.95,4.23,4.23,0,0,1,.66.05l5.6,1V364.28h21.53v-6.36h45.1v6.36h32.87v3.44h6.8V489.08h-7.32v3.47h-31.82v5.67Z" transform="translate(-534.03 -240.27)"/><path class="cls-1" d="M1312.1,358.17v6.36H1345V368h6.8V488.83h-7.32v3.47h-31.82V498h-44.8V492.3H1246.9V439.9h7.87V428.12h-14.55a4.37,4.37,0,0,1-4.19-4.45V400.76a3.51,3.51,0,0,1,1.07-2.77,3.42,3.42,0,0,1,2.36-.88,3.53,3.53,0,0,1,.62.05l2.65.47,2.65.46.59.11V364.53h21.53v-6.36h44.6m.5-.5H1267V364h-21.53V397.6l-5.3-.93a3.3,3.3,0,0,0-.71-.06,3.91,3.91,0,0,0-2.7,1,4.08,4.08,0,0,0-1.23,3.17v22.87a4.87,4.87,0,0,0,4.67,4.95h14.07V439.4h-7.87v53.4h20.93v5.67h45.8V492.8H1345v-3.47h7.32V367.47h-6.8V364H1312.6v-6.36Z" transform="translate(-534.03 -240.27)"/><rect class="cls-2" x="779.1" y="247.26" width="13.02" height="5.27"/><path class="cls-2" d="M1317.2,432.42l-4-.1c-.3-.78-.6-1.55-.89-2.32v-3.62c.29-.76.59-1.53.89-2.3h4Z" transform="translate(-534.03 -240.27)"/><path class="cls-2" d="M1282.7,390l-14.06-2.78,1.74-9.78h1.09v-3h8.7v4.9a5.76,5.76,0,0,0,.64,2.61,5.88,5.88,0,0,0,1.92,2.15Z" transform="translate(-534.03 -240.27)"/><path class="cls-1" d="M1141.35,579.62v-1.7h-22.93v1.7h-60.17V570.8h1.8V538.55h-2.35V519.06l-27.46-7.4V495.5l-2.81-.77a6.54,6.54,0,0,1-2.75-1.75,6.62,6.62,0,0,1-1.67-3.63V464.07a6.4,6.4,0,0,1,4.8-4.95h21.4v4.57h151V570.32h2.06v9.3Z" transform="translate(-534.03 -240.27)"/><path class="cls-1" d="M1049,459.38V464h151V570.57H1202v8.8H1141.6v-1.7h-23.43v1.7H1058.5v-8.32h1.8V538.3H1058V518.87l-.37-.1-11.2-3-15.89-4.28V495.31l-.36-.1-1.11-.3-1.5-.42a6.16,6.16,0,0,1-2.65-1.68,6.24,6.24,0,0,1-1.6-3.47V464.12a6.1,6.1,0,0,1,4.56-4.74H1049m.5-.5h-21.7a6.6,6.6,0,0,0-5,5.19v25.31a6.65,6.65,0,0,0,4.6,5.59l2.62.72v16.16l27.46,7.4V538.8h2.35v31.75H1058v9.32h60.67v-1.7h22.43v1.7h61.43v-9.8h-2.06V463.45h-151v-4.57Z" transform="translate(-534.03 -240.27)"/><rect class="cls-2" x="602.1" y="267.6" width="2.67" height="5.03"/><path class="cls-1" d="M1029.37,448.29a6.39,6.39,0,0,1-4.27-1.64,6.28,6.28,0,0,1-1.95-4.07v-22.4h-15v2.17l-1.42,3.68-1.36,3.53L962,413.1l-.1.21A6.28,6.28,0,0,1,956.2,417a5.64,5.64,0,0,1-2.43-.54,6.14,6.14,0,0,1-3.09-7.39l.07-.22-6.14-2.33-24.48,6.82a7.88,7.88,0,0,1-2,.26,7.46,7.46,0,0,1-1.75-14.75l4.35-1.19-2.71-25a100.31,100.31,0,0,1,2.13-26.76l80.06,12.87v6.9h90.23v77.6h-41.23v5h-19.85Z" transform="translate(-534.03 -240.27)"/><path class="cls-1" d="M920.36,346.17l39.78,6.39L1000,359v6.94h90.23V443H1049v5h-19.6a6.14,6.14,0,0,1-4.1-1.57,6,6,0,0,1-1.87-3.87V419.93h-15.52v2.33l-1.67,4.36-1,2.62L984,421.18,962.29,413l-.44-.17-.19.43a6,6,0,0,1-5.46,3.53,5.39,5.39,0,0,1-2.32-.52,5.87,5.87,0,0,1-3-7.08l.14-.45-.44-.17-2.92-1.11-2.92-1.11-.16-.06-.16.05-17.79,5-6.6,1.83a7.23,7.23,0,1,1-3.6-14l2.84-.78,1.29-.35.41-.11,0-.43-1.06-9.8-1.62-15a99.78,99.78,0,0,1,2.08-26.47m-.39-.57a101.37,101.37,0,0,0-2.19,27.07q1.34,12.39,2.69,24.8l-4.14,1.13a7.71,7.71,0,0,0,1.81,15.24,8.15,8.15,0,0,0,2.06-.27l24.4-6.8,5.84,2.22a6.4,6.4,0,0,0,3.22,7.68,6,6,0,0,0,2.54.57,6.55,6.55,0,0,0,5.91-3.82l43.39,16.46,2.88-7.53v-1.92h14.52V442.6a6.4,6.4,0,0,0,6.47,5.94h20.1v-5h41.23V365.4h-90.23v-6.87L920,345.6Z" transform="translate(-534.03 -240.27)"/><rect class="cls-2" x="477.62" y="149.43" width="7.13" height="6.35"/><path class="cls-2" d="M1061.57,530h-1.77v8.83h-2.35V527.08h4.12Z" transform="translate(-534.03 -240.27)"/><rect class="cls-2" x="523.42" y="275.47" width="4.25" height="4.87"/><path class="cls-1" d="M705,586.45v-2.2H671.89v-78.7l-16.75,1.5H642v-19.8H628.43l-19.85-3v4.52H534.75V474h1.9v-10h-1.9V452a2.42,2.42,0,0,1,2.13-2.47h40.64v-12h-5V414.82H576V401.35h-3.4v-47.8h13.32V337.27H572.55V290.75h3.52V276.48h-2.62V254.72h36.23V252.1h21.19v3.82h36v8.43H690v-8.27l50.57-.16v-.25a4.83,4.83,0,0,1,.73-2.61,4.92,4.92,0,0,1,1.64-1.61h10.52l.9.9H779v3h36.2l.11,26.63H813v99.81l3,3v4l-3.5,3.5v15.62h25.06v26.37h-8.41v33.1H830v31.49l-64.84-3.26-36.73-4.06v.84l-3.57-.26v9.52h4.49v14.9h-12.7v56h14.65V565h17.2V533h95.8v21.3h-9.4v7.9h8.32v2.94a9.82,9.82,0,0,0-2.32.68c-3.82,1.67-5.27,5.23-6.81,9-1.33,3.26-2.71,6.63-5.74,8.94a14.92,14.92,0,0,1-8.81,2.75ZM631.08,468l18,0V434.38h-17V439h-23v10.44h10.5V464h11.5Z" transform="translate(-534.03 -240.27)"/><path class="cls-1" d="M753.31,251.7l.3.3.45.45.15.15h24.51v3h36.2l.11,26.13h-2.28V381.89l.15.15,1,1,1.87,1.87v3.75l-1.61,1.6L812.41,392l-.14.15v16h25.06V434h-8.41v33.6h.85v31l-7-.35-57.54-2.88-18.23-2-18.24-2-.55-.06v.85l-3-.22-.54,0v10h4.49v14.4h-12.7v56.48h15.15V565.2h17.2v-32h95.3V554h-9.4v8.4H843v2.48a9.58,9.58,0,0,0-2.17.67c-3.91,1.7-5.38,5.3-6.94,9.12-1.32,3.22-2.69,6.56-5.67,8.83a14.61,14.61,0,0,1-8.64,2.7H705.27V584H672.14V505.28l-.54.05-16.43,1.47h-12.9V488h7.06V434.13H631.87v4.6h-23v10.94h10.5v14.56h11.5v3.54l0,.5h.5l17,0V487H628.47l-9.76-1.47-9.8-1.47-.58-.09v4.56H535V474.27h1.9V463.8H535V452a2.16,2.16,0,0,1,.52-1.46,2.22,2.22,0,0,1,1.36-.74h40.89v-12.5h-5V415.07h3.4v-14h-3.4V353.8h13.32V337H572.8V291h3.52V276.23H573.7V255h36.23v-2.62h20.69v3.82h36v8.43H690.2v-8.27l24.78-.08,25.29-.08h.5v-.5a4.54,4.54,0,0,1,.7-2.48A4.65,4.65,0,0,1,743,251.7h10.35m.21-.5h-10.7a5.09,5.09,0,0,0-2.55,4.47l-50.57.16v8.27H667.07v-8.43h-36v-3.82H609.43v2.62H573.2v22.26h2.62V290.5H572.3v47h13.32V353.3H572.3v48.3h3.4v13h-3.4v23.18h5v11.5H536.85a2.71,2.71,0,0,0-1.71.91,2.79,2.79,0,0,0-.64,1.81V464.3h1.9v9.47h-1.9V489h74.33v-4.48l19.6,2.95h20.4V467.75l-17.5,0v-4h-11.5V449.17h-10.5v-9.94h23v-4.6h16.46V487.5h-7.06v19.8h13.4l16.47-1.48V584.5h33.13v2.2h114.8a14.85,14.85,0,0,0,8.95-2.8c6.57-5,5.48-14.83,12.5-17.9a9.88,9.88,0,0,1,2.47-.7v-3.4h-8.32v-7.4h9.4V532.7h-96.3v32h-17.2v7.55H716.92V516.77h12.7v-15.4h-4.49v-9l3.57.26v-.83l36.47,4,65.1,3.27v-32h-.85V434.5h8.41V407.63H812.77V392.37q1.74-1.75,3.5-3.5V384.7l-3-3V282.23h2.28l-.11-27.13h-36.2v-3h-24.8l-.9-.9Z" transform="translate(-534.03 -240.27)"/><rect class="cls-2" x="114.83" y="222.6" width="13.27" height="10"/><path class="cls-1" d="M1207.78,360.22v-5.47h-6.89V355a5.32,5.32,0,0,1-5.23,5.06h-.14a5.28,5.28,0,0,1-5.09-5.06v-.24h-6.19v5.47h-77.87V341h-31.63l26-99.86a412.14,412.14,0,0,0,59.54,16,410.57,410.57,0,0,0,73.89,7.09h29v78.07h-28.07v18Z" transform="translate(-534.03 -240.27)"/><path class="cls-1" d="M1100.94,241.42a411.7,411.7,0,0,0,59.33,15.88,409.94,409.94,0,0,0,73.93,7.1h28.7V342h-28.07v18H1208V354.5h-7.37l0,.48a5.07,5.07,0,0,1-5,4.82h-.13a5,5,0,0,1-4.84-4.82l0-.48H1184V360H1106.6V340.7h-31.55L1088,291.11l13-49.69m-.34-.65Q1087.49,291,1074.4,341.2h31.7v19.27h78.37V355h5.7a5.55,5.55,0,0,0,5.33,5.3h.14a5.55,5.55,0,0,0,5.49-5.3h6.4v5.47h27.8v-18h28.07V263.9h-29.2a409.86,409.86,0,0,1-73.84-7.09,408.94,408.94,0,0,1-59.76-16Z" transform="translate(-534.03 -240.27)"/><rect class="cls-1" x="534.42" y="352.78" width="62.18" height="46.3"/><path class="cls-1" d="M1130.38,593.3v45.8H1068.7V593.3h61.68m.5-.5H1068.2v46.8h62.68V592.8Z" transform="translate(-534.03 -240.27)"/><rect class="cls-1" x="425.02" y="384.98" width="42.1" height="84.7"/><path class="cls-1" d="M1000.9,625.5v84.2H959.3V625.5h41.6m.5-.5H958.8v85.2h42.6V625Z" transform="translate(-534.03 -240.27)"/><path class="cls-1" d="M890.87,596.17l5.33-31.45H881.78v-2.1H870.83v-12a7.58,7.58,0,0,1,7.67-8.24h6.07a2.91,2.91,0,0,1,1.93.72,3,3,0,0,1,1,1.84v8.11h8V535.2h139.28v21.35h-5.23v23.07H928.35v21Z" transform="translate(-534.03 -240.27)"/><path class="cls-1" d="M1034.53,535.45V556.3h-5.23v23.07H928.1v21l-18.45-2.21L891.16,596l2.57-15.19,2.66-15.71.1-.58H882v-2.1H871.08V550.63a7.32,7.32,0,0,1,7.42-8h6.07A2.63,2.63,0,0,1,887.2,545v8.35h8.55v-17.9h138.78m.5-.5H895.25v17.9H887.7V545a3.12,3.12,0,0,0-3.13-2.79H878.5a7.82,7.82,0,0,0-7.92,8.49v12.2h10.95V565H895.9q-2.65,15.71-5.32,31.41l38,4.55V579.87h101.2V556.8H1035V535Z" transform="translate(-534.03 -240.27)"/><line class="cls-3" x1="733.73" y1="151.88" x2="734.61" y2="146.92"/><line class="cls-4" x1="730.67" y1="137.14" x2="728.19" y2="123.77"/><line class="cls-3" x1="770.16" y1="131.97" x2="775.97" y2="134.13"/><line class="cls-3" x1="765.62" y1="143.98" x2="771.9" y2="143.98"/><line class="cls-3" x1="770.17" y1="243.75" x2="776.01" y2="241.63"/><line class="cls-3" x1="765.4" y1="231.44" x2="771.33" y2="231.44"/><path class="cls-2" d="M1263.4,342.47h-22.6V325.8h6.63v-6.67h16Z" transform="translate(-534.03 -240.27)"/><rect class="cls-2" x="706.77" y="52.43" width="7.17" height="3.13"/><line class="cls-3" x1="717.53" y1="37.48" x2="717.53" y2="44.03"/><line class="cls-4" x1="673.5" y1="37.48" x2="729.37" y2="37.48"/><rect class="cls-2" x="572.09" y="24.33" width="10.14" height="1.55"/><rect class="cls-2" x="562.17" y="24.33" width="5.05" height="1.55"/><line class="cls-3" x1="647.47" y1="72" x2="647.47" y2="65.5"/><rect class="cls-2" x="521.9" y="125.13" width="34.77" height="10.25"/><path class="cls-2" d="M1005.5,429.88,984.74,422l2.37-6.22,20.73,8Z" transform="translate(-534.03 -240.27)"/><path class="cls-2" d="M991.9,372.67H967.63V360l24.27,4Z" transform="translate(-534.03 -240.27)"/><line class="cls-3" x1="481.63" y1="321.8" x2="481.63" y2="316.53"/><path class="cls-2" d="M843.53,565.4a10.29,10.29,0,0,0-4.59,1.92,10.48,10.48,0,0,0-3.74,5.44V562h8.33Z" transform="translate(-534.03 -240.27)"/><line class="cls-3" x1="141.97" y1="213.91" x2="147.77" y2="213.91"/><line class="cls-3" x1="221.25" y1="160.87" x2="221.25" y2="167.47"/><line class="cls-3" x1="147.77" y1="194.47" x2="141.97" y2="194.47"/><rect class="cls-2" x="182.77" y="153.43" width="12.07" height="7.43"/><line class="cls-3" x1="268.6" y1="104.23" x2="268.6" y2="98.6"/><line class="cls-4" x1="245.22" y1="14.93" x2="245.22" y2="23.03"/><path class="cls-2" d="M885,588H879.7V573h8Q886.32,580.45,885,588Z" transform="translate(-534.03 -240.27)"/><path class="cls-2" d="M1178.43,533.3h-6.13v-15h7.1v8.17h-1Q1178.42,529.88,1178.43,533.3Z" transform="translate(-534.03 -240.27)"/><path class="cls-2" d="M1189.75,538.38h-8.1V532.1h2.42v-5.9h2v-6.07h3.67Z" transform="translate(-534.03 -240.27)"/><path class="cls-2" d="M1202.53,579.87H1141.1V568.43h12.13v1.64h36.52V543h10.72v27.1h2.06Z" transform="translate(-534.03 -240.27)"/><path class="cls-2" d="M1298.24,468.61l.47-.17.73,2v1.23h-.5v3h.5v1.9h-16.37v-9.23H1297V466Z" transform="translate(-534.03 -240.27)"/><path class="cls-2" d="M1307.18,474.16l1-.4-.48-1.35-1,.4-1.29-3.5v7.29h2.72Z" transform="translate(-534.03 -240.27)"/><path class="cls-2" d="M1299.65,385.91l-1.68,4.54-1-.37v-4h1.41v-6.35h1.27Z" transform="translate(-534.03 -240.27)"/><path class="cls-2" d="M1307.17,382.23l1,.35-.47,1.35-1-.35-.72,1.94v-5.68h2.1Z" transform="translate(-534.03 -240.27)"/><path class="cls-2" d="M1344.27,368.8H1312.6V364h32.87v3.44h-1.2Z" transform="translate(-534.03 -240.27)"/><path class="cls-2" d="M1175.53,310.75a2.09,2.09,0,1,1,.34-3.21A2.16,2.16,0,0,1,1175.53,310.75Z" transform="translate(-534.03 -240.27)"/><path class="cls-5" d="M953.73,387.2a6.23,6.23,0,0,1,4.94.93,6,6,0,0,1,2.16,6.34,6.08,6.08,0,0,1-5.4,4.46,6.45,6.45,0,0,1-5-2.07" transform="translate(-534.03 -240.27)"/><path class="cls-2" d="M813.28,368.2H787v4.3h-8.1V365h34.38Z" transform="translate(-534.03 -240.27)"/><rect class="cls-2" x="251.6" y="152.07" width="6.4" height="2.07"/><rect class="cls-2" x="261.13" y="152.07" width="11.1" height="2.07"/><path class="cls-2" d="M830.3,499.2l-65.1-3.27V461.47h26.3v11.86h38.8Z" transform="translate(-534.03 -240.27)"/><path class="cls-2" d="M703.7,368.53h-6.53v7.2h-2.74V387.9H681.3v-3.33h1.6v-8.84h-7.43V387.3h-21.4V383h-32v4.53h2.36v1.93H620v4.24h4.4v2.53h-2.36v4.93h2.36v6.6H612.5v31.6h-3.13v9.94h10.5v14.56h11.5v4l17.5,0V487.6h-20.4l-19.6-3v4.48H534.53V473.87h1.9V464.4h-1.9V452.07l2.35-2.72H577.3v-11.5h-5V414.67h3.4v-13h-3.4V353.4h13.32V337.63H572.33v-47h3.52V276.83h-2.62V254.57h36.24V252h21.68v3.82h36v8.43h22.63v18.9h14Z" transform="translate(-534.03 -240.27)"/><line class="cls-4" x1="221.9" y1="77.93" x2="221.9" y2="11.93"/><line class="cls-4" x1="206.27" y1="133.83" x2="206.27" y2="15.51"/><line class="cls-4" x1="206.27" y1="77.93" x2="244.87" y2="77.93"/><line class="cls-4" x1="169.67" y1="15.51" x2="169.67" y2="160.87"/><line class="cls-4" x1="206.27" y1="133.83" x2="169.67" y2="133.83"/><line class="cls-4" x1="244.87" y1="77.93" x2="244.87" y2="116.53"/><line class="cls-4" x1="206.27" y1="116.53" x2="244.87" y2="116.53"/><line class="cls-4" x1="244.87" y1="116.53" x2="244.87" y2="194.33"/><line class="cls-4" x1="199.07" y1="194.33" x2="295.42" y2="194.33"/><line class="cls-4" x1="199.07" y1="167.47" x2="199.07" y2="203.93"/><line class="cls-4" x1="278.77" y1="167.47" x2="147.77" y2="167.47"/><line class="cls-4" x1="141.97" y1="167.47" x2="78.47" y2="167.47"/><line class="cls-4" x1="78.47" y1="167.47" x2="78.47" y2="199.07"/><line class="cls-4" x1="98.37" y1="194.47" x2="98.37" y2="188.68"/><line class="cls-4" x1="98.37" y1="188.68" x2="78.47" y2="188.68"/><line class="cls-4" x1="114.83" y1="194.47" x2="141.97" y2="194.47"/><line class="cls-4" x1="141.97" y1="167.47" x2="141.97" y2="248.2"/><line class="cls-4" x1="123.87" y1="247.44" x2="114.83" y2="247.07"/><line class="cls-4" x1="123.87" y1="247.44" x2="123.87" y2="266.87"/><line class="cls-4" x1="123.87" y1="249.4" x2="141.97" y2="250.13"/><line class="cls-4" x1="141.97" y1="250.13" x2="141.97" y2="248.2"/><line class="cls-4" x1="191.13" y1="252.2" x2="149.02" y2="250.42"/><line class="cls-4" x1="149.02" y1="250.42" x2="149.02" y2="226.38"/><line class="cls-4" x1="141.97" y1="226.38" x2="149.02" y2="226.38"/><line class="cls-4" x1="149.02" y1="226.38" x2="177.3" y2="226.38"/><line class="cls-4" x1="162.7" y1="226.38" x2="162.7" y2="250.99"/><line class="cls-4" x1="177.3" y1="215.73" x2="177.3" y2="251.59"/><line class="cls-4" x1="169.3" y1="226.38" x2="169.3" y2="235.2"/><line class="cls-4" x1="169.3" y1="235.2" x2="177.3" y2="240.67"/><line class="cls-4" x1="147.77" y1="215.73" x2="218.17" y2="215.73"/><line class="cls-4" x1="147.77" y1="167.47" x2="147.77" y2="215.73"/><line class="cls-4" x1="172.9" y1="167.47" x2="172.9" y2="203.93"/><line class="cls-4" x1="172.9" y1="194.47" x2="147.77" y2="194.47"/><line class="cls-4" x1="169.97" y1="215.73" x2="169.97" y2="203.93"/><line class="cls-4" x1="169.97" y1="203.93" x2="232.23" y2="203.93"/><line class="cls-4" x1="232.23" y1="194.33" x2="232.23" y2="203.93"/><line class="cls-4" x1="155.7" y1="23.93" x2="155.7" y2="42.83"/><line class="cls-4" x1="155.7" y1="42.83" x2="169.67" y2="42.83"/><line class="cls-4" x1="155.7" y1="28.73" x2="160.22" y2="28.73"/><line class="cls-4" x1="160.22" y1="28.73" x2="160.22" y2="30.13"/><line class="cls-4" x1="160.22" y1="30.13" x2="169.67" y2="30.13"/><line class="cls-4" x1="244.87" y1="113.13" x2="279.25" y2="113.13"/><line class="cls-4" x1="252.97" y1="87.43" x2="252.97" y2="113.13"/><line class="cls-4" x1="244.87" y1="87.43" x2="252.97" y2="87.43"/><line class="cls-4" x1="251.5" y1="87.43" x2="251.5" y2="83.5"/><line class="cls-4" x1="258.13" y1="87.43" x2="258.13" y2="98.6"/><line class="cls-4" x1="258.13" y1="93.77" x2="264.37" y2="93.77"/><line class="cls-4" x1="258.13" y1="88.13" x2="264.37" y2="88.13"/><line class="cls-4" x1="264.37" y1="98.6" x2="264.37" y2="72.08"/><line class="cls-4" x1="264.37" y1="98.6" x2="279.25" y2="98.6"/><line class="cls-4" x1="264.37" y1="88.13" x2="279.25" y2="88.13"/><line class="cls-4" x1="263.99" y1="104.23" x2="263.99" y2="113.13"/><line class="cls-4" x1="263.99" y1="104.23" x2="279.25" y2="104.23"/><line class="cls-4" x1="257.6" y1="113.13" x2="257.6" y2="124.77"/><line class="cls-4" x1="244.87" y1="124.77" x2="279.25" y2="124.77"/><line class="cls-4" x1="252.97" y1="127.93" x2="279.25" y2="127.93"/><line class="cls-4" x1="252.97" y1="127.93" x2="252.97" y2="132.23"/><line class="cls-4" x1="252.97" y1="132.23" x2="244.87" y2="132.23"/><line class="cls-4" x1="244.87" y1="139.47" x2="279.25" y2="139.47"/><line class="cls-4" x1="257.6" y1="139.47" x2="257.6" y2="130.63"/><line class="cls-4" x1="257.6" y1="130.63" x2="266.43" y2="130.63"/><line class="cls-4" x1="266.43" y1="130.63" x2="266.43" y2="132.5"/><line class="cls-4" x1="269.53" y1="127.93" x2="269.53" y2="132.5"/><line class="cls-4" x1="269.53" y1="131.4" x2="279.25" y2="131.4"/><line class="cls-4" x1="244.87" y1="154.13" x2="258" y2="154.13"/><line class="cls-4" x1="251.6" y1="152.07" x2="251.6" y2="154.13"/><line class="cls-4" x1="251.6" y1="152.07" x2="272.23" y2="152.07"/><line class="cls-4" x1="272.23" y1="152.07" x2="272.23" y2="154.13"/><line class="cls-4" x1="272.23" y1="154.13" x2="278.77" y2="154.13"/><line class="cls-4" x1="272.23" y1="154.13" x2="261.13" y2="154.13"/><line class="cls-4" x1="261.13" y1="152.07" x2="261.13" y2="154.13"/><line class="cls-4" x1="258" y1="154.13" x2="258" y2="152.07"/><line class="cls-4" x1="257.07" y1="154.13" x2="257.07" y2="158.9"/><line class="cls-4" x1="257.07" y1="158.9" x2="249.33" y2="158.9"/><line class="cls-4" x1="249.33" y1="158.9" x2="249.33" y2="160.87"/><line class="cls-4" x1="244.87" y1="160.87" x2="169.67" y2="160.87"/><line class="cls-4" x1="163.13" y1="128.27" x2="163.13" y2="135.47"/><line class="cls-4" x1="160.4" y1="135.47" x2="169.67" y2="135.47"/><line class="cls-4" x1="163.13" y1="128.27" x2="169.67" y2="128.27"/><line class="cls-4" x1="120.03" y1="142.7" x2="120.03" y2="160.87"/><line class="cls-4" x1="120.03" y1="142.7" x2="88.03" y2="142.7"/><line class="cls-4" x1="88.03" y1="142.7" x2="88.03" y2="147.23"/><line class="cls-4" x1="88.03" y1="147.23" x2="90.4" y2="147.23"/><line class="cls-4" x1="90.4" y1="147.23" x2="90.4" y2="155.93"/><line class="cls-4" x1="90.4" y1="155.93" x2="88.03" y2="155.93"/><line class="cls-4" x1="88.03" y1="155.93" x2="88.03" y2="160.87"/><line class="cls-4" x1="88.03" y1="160.87" x2="169.67" y2="160.87"/><line class="cls-4" x1="90.4" y1="160.87" x2="90.4" y2="167.47"/><line class="cls-4" x1="96.4" y1="142.7" x2="96.4" y2="160.87"/><line class="cls-4" x1="141.43" y1="135.47" x2="141.43" y2="160.87"/><line class="cls-4" x1="120.03" y1="147.03" x2="141.43" y2="147.03"/><line class="cls-4" x1="147.27" y1="160.87" x2="147.27" y2="144.3"/><line class="cls-4" x1="147.27" y1="147.63" x2="160.4" y2="147.63"/><line class="cls-4" x1="160.4" y1="135.47" x2="160.4" y2="160.87"/><line class="cls-4" x1="147.27" y1="144.3" x2="148.87" y2="144.3"/><line class="cls-4" x1="148.87" y1="144.3" x2="148.87" y2="135.47"/><line class="cls-4" x1="141.43" y1="145.43" x2="147.27" y2="145.43"/><line class="cls-4" x1="182.77" y1="160.87" x2="182.77" y2="153.43"/><line class="cls-4" x1="182.77" y1="153.43" x2="194.83" y2="153.43"/><line class="cls-4" x1="194.83" y1="153.43" x2="194.83" y2="160.87"/><line class="cls-4" x1="244.87" y1="181.2" x2="255.1" y2="181.2"/><line class="cls-4" x1="255.1" y1="167.47" x2="255.1" y2="181.2"/><line class="cls-4" x1="141.97" y1="215.73" x2="114.83" y2="215.73"/><line class="cls-4" x1="132.2" y1="194.47" x2="132.2" y2="215.73"/><line class="cls-4" x1="132.2" y1="206.5" x2="141.97" y2="206.5"/><line class="cls-4" x1="168.07" y1="215.73" x2="168.07" y2="226.38"/><line class="cls-4" x1="114.83" y1="222.6" x2="141.97" y2="222.6"/><line class="cls-4" x1="128.1" y1="222.6" x2="128.1" y2="232.6"/><line class="cls-4" x1="128.1" y1="232.6" x2="114.83" y2="232.6"/><line class="cls-4" x1="191.13" y1="261.2" x2="174.4" y2="261.77"/><line class="cls-4" x1="170.37" y1="262.2" x2="137.64" y2="265.66"/><line class="cls-4" x1="218.17" y1="215.73" x2="218.17" y2="244.53"/><line class="cls-4" x1="218.17" y1="221.2" x2="257.47" y2="221.2"/><line class="cls-4" x1="257.47" y1="194.33" x2="257.47" y2="233.07"/><line class="cls-4" x1="246.9" y1="194.33" x2="246.9" y2="221.2"/><line class="cls-4" x1="246.9" y1="204.88" x2="257.47" y2="204.88"/><line class="cls-4" x1="257.47" y1="233.07" x2="296.27" y2="233.07"/><line class="cls-4" x1="266.82" y1="233.07" x2="266.82" y2="225.33"/><line class="cls-4" x1="266.82" y1="225.33" x2="276.87" y2="225.33"/><line class="cls-4" x1="276.87" y1="225.33" x2="276.87" y2="233.07"/><line class="cls-4" x1="276.07" y1="194.33" x2="276.07" y2="225.33"/><line class="cls-4" x1="276.07" y1="221.58" x2="295.42" y2="221.58"/><line class="cls-4" x1="276.07" y1="213.7" x2="295.42" y2="213.7"/><line class="cls-4" x1="231.17" y1="221.2" x2="231.17" y2="255.67"/><line class="cls-4" x1="218.17" y1="244.53" x2="214.83" y2="244.53"/><line class="cls-4" x1="214.83" y1="244.53" x2="214.83" y2="253.85"/><line class="cls-4" x1="262.06" y1="152.07" x2="262.06" y2="139.47"/><line class="cls-4" x1="252.97" y1="103.27" x2="244.87" y2="103.27"/><line class="cls-4" x1="174.4" y1="261.77" x2="174.4" y2="332.08"/><line class="cls-4" x1="170.37" y1="332.08" x2="182.92" y2="332.08"/><line class="cls-4" x1="170.37" y1="262.2" x2="170.37" y2="268.68"/><line class="cls-4" x1="160.52" y1="268.68" x2="170.37" y2="268.68"/><line class="cls-4" x1="160.52" y1="268.68" x2="160.52" y2="263.25"/><line class="cls-4" x1="167.3" y1="268.68" x2="167.3" y2="279.07"/><line class="cls-4" x1="167.3" y1="279.07" x2="170.37" y2="279.07"/><line class="cls-4" x1="170.37" y1="279.07" x2="170.37" y2="334.18"/><line class="cls-4" x1="167.47" y1="334.18" x2="170.37" y2="334.18"/><line class="cls-4" x1="170.77" y1="344.33" x2="170.77" y2="340.96"/><line class="cls-4" x1="167.47" y1="340.96" x2="170.77" y2="340.96"/><line class="cls-4" x1="167.47" y1="340.96" x2="167.47" y2="334.18"/><line class="cls-4" x1="178.33" y1="339.31" x2="178.33" y2="346.53"/><line class="cls-4" x1="197.07" y1="332.08" x2="197.07" y2="346.53"/><line class="cls-4" x1="182.92" y1="320.83" x2="174.4" y2="320.83"/><line class="cls-4" x1="170.37" y1="320.83" x2="137.64" y2="320.83"/><line class="cls-4" x1="174.4" y1="310.63" x2="182.92" y2="310.63"/><line class="cls-4" x1="182.92" y1="299.73" x2="174.4" y2="299.73"/><line class="cls-4" x1="170.37" y1="299.73" x2="137.64" y2="299.73"/><line class="cls-4" x1="174.4" y1="279.07" x2="182.92" y2="279.07"/><line class="cls-4" x1="187.2" y1="276.6" x2="187.2" y2="261.33"/><line class="cls-4" x1="182.27" y1="261.5" x2="182.27" y2="276.6"/><line class="cls-4" x1="182.27" y1="276.6" x2="182.92" y2="276.6"/><line class="cls-4" x1="170.37" y1="265.06" x2="174.4" y2="265.06"/><line class="cls-4" x1="262.47" y1="42.78" x2="262.47" y2="65.83"/><line class="cls-4" x1="262.47" y1="65.83" x2="274.07" y2="65.83"/><line class="cls-4" x1="274.07" y1="42.78" x2="274.07" y2="65.83"/><line class="cls-4" x1="279.25" y1="42.78" x2="250.97" y2="42.78"/><line class="cls-4" x1="250.97" y1="42.78" x2="250.97" y2="65.83"/><line class="cls-4" x1="250.97" y1="65.83" x2="262.47" y2="65.83"/><line class="cls-4" x1="250.97" y1="58.33" x2="274.07" y2="58.33"/><line class="cls-4" x1="250.97" y1="50.58" x2="274.07" y2="50.58"/><line class="cls-4" x1="264.47" y1="42.78" x2="264.47" y2="14.93"/><line class="cls-4" x1="253.17" y1="42.78" x2="253.17" y2="20.48"/><line class="cls-4" x1="253.17" y1="20.48" x2="264.47" y2="20.48"/><line class="cls-4" x1="253.17" y1="31.63" x2="264.47" y2="31.63"/><line class="cls-4" x1="227.27" y1="35.53" x2="245.22" y2="35.53"/><line class="cls-4" x1="301.17" y1="314.33" x2="214.27" y2="314.33"/><line class="cls-4" x1="214.27" y1="324.53" x2="272.57" y2="324.53"/><line class="cls-4" x1="272.57" y1="321.73" x2="272.57" y2="324.53"/><line class="cls-4" x1="301.17" y1="321.73" x2="272.57" y2="321.73"/><line class="cls-4" x1="285.57" y1="321.73" x2="285.57" y2="346.53"/><line class="cls-4" x1="241.97" y1="346.53" x2="241.97" y2="324.53"/><line class="cls-4" x1="235.97" y1="314.33" x2="235.97" y2="324.53"/><line class="cls-4" x1="245.12" y1="324.53" x2="245.12" y2="314.33"/><line class="cls-4" x1="235.97" y1="320.08" x2="245.12" y2="320.08"/><line class="cls-4" x1="265.52" y1="314.33" x2="265.52" y2="292.53"/><line class="cls-4" x1="301.17" y1="321.73" x2="301.17" y2="332.49"/><line class="cls-4" x1="346.82" y1="322.6" x2="346.82" y2="315.63"/><line class="cls-4" x1="346.82" y1="315.63" x2="353.67" y2="315.63"/><line class="cls-4" x1="353.67" y1="312.58" x2="353.67" y2="315.63"/><line class="cls-4" x1="361.22" y1="312.58" x2="361.22" y2="316.51"/><line class="cls-4" x1="363.14" y1="318.18" x2="367.69" y2="318.18"/><line class="cls-4" x1="361.87" y1="324.7" x2="367.75" y2="324.7"/><line class="cls-4" x1="365.68" y1="324.7" x2="365.68" y2="318.18"/><line class="cls-4" x1="367.75" y1="324.7" x2="367.75" y2="325.72"/><line class="cls-4" x1="367.75" y1="325.72" x2="377.65" y2="325.72"/><line class="cls-4" x1="368.29" y1="325.72" x2="368.29" y2="341.28"/><line class="cls-4" x1="359.21" y1="341.28" x2="377.65" y2="341.28"/><line class="cls-4" x1="377.65" y1="341.28" x2="377.65" y2="325.72"/><line class="cls-4" x1="377.65" y1="333.33" x2="368.29" y2="333.33"/><line class="cls-4" x1="367.69" y1="318.18" x2="367.69" y2="305.23"/><line class="cls-4" x1="367.69" y1="305.23" x2="375.79" y2="305.23"/><line class="cls-4" x1="375.79" y1="305.23" x2="375.79" y2="318.18"/><line class="cls-4" x1="375.79" y1="313.83" x2="367.69" y2="313.83"/><line class="cls-4" x1="375.79" y1="318.18" x2="381.97" y2="318.18"/><line class="cls-4" x1="381.97" y1="318.18" x2="381.97" y2="294.68"/><line class="cls-4" x1="371.6" y1="305.23" x2="371.6" y2="294.68"/><line class="cls-4" x1="495.77" y1="316.53" x2="480.77" y2="316.53"/><line class="cls-4" x1="480.77" y1="316.53" x2="480.77" y2="304.67"/><line class="cls-4" x1="489.83" y1="316.53" x2="489.83" y2="294.68"/><line class="cls-4" x1="495.77" y1="321.8" x2="455.5" y2="321.8"/><line class="cls-4" x1="455.5" y1="321.8" x2="455.5" y2="339.6"/><line class="cls-4" x1="468.9" y1="339.6" x2="468.9" y2="321.8"/><line class="cls-4" x1="481.63" y1="339.6" x2="481.63" y2="321.8"/><line class="cls-4" x1="400.7" y1="323.03" x2="400.7" y2="333.13"/><line class="cls-4" x1="400.7" y1="328.08" x2="394.57" y2="328.08"/><line class="cls-4" x1="394.57" y1="339.6" x2="394.57" y2="328.08"/><line class="cls-4" x1="406.93" y1="339.6" x2="406.93" y2="325.27"/><line class="cls-4" x1="377.65" y1="337.4" x2="394.57" y2="337.4"/><path class="cls-4" d="M962.7,559.36A92.31,92.31,0,0,1,916,544.93" transform="translate(-534.03 -240.27)"/><path class="cls-4" d="M1014.8,544.93a92.29,92.29,0,0,1-45.88,14.4" transform="translate(-534.03 -240.27)"/><line class="cls-4" x1="394.19" y1="302.33" x2="390.56" y2="309.52"/><line class="cls-4" x1="400.79" y1="305.41" x2="397.81" y2="312.74"/><line class="cls-4" x1="407.67" y1="307.83" x2="405.4" y2="315.35"/><line class="cls-4" x1="414.67" y1="309.58" x2="413.06" y2="317.27"/><line class="cls-4" x1="421.84" y1="310.78" x2="420.9" y2="318.53"/><line class="cls-4" x1="428.99" y1="311.41" x2="428.99" y2="319.1"/><line class="cls-4" x1="434.2" y1="311.33" x2="434.32" y2="319.08"/><line class="cls-4" x1="441.53" y1="310.8" x2="442.49" y2="318.45"/><line class="cls-4" x1="448.7" y1="309.65" x2="450.32" y2="317.14"/><line class="cls-4" x1="455.75" y1="307.83" x2="457.98" y2="315.16"/><line class="cls-4" x1="462.58" y1="305.45" x2="465.43" y2="312.54"/><line class="cls-4" x1="469.2" y1="302.47" x2="472.66" y2="309.28"/><line class="cls-4" x1="476.27" y1="300.03" x2="479.62" y2="305.39"/><line class="cls-4" x1="476.27" y1="300.03" x2="476.27" y2="294.68"/><line class="cls-4" x1="423.67" y1="294.68" x2="423.67" y2="305.8"/><line class="cls-4" x1="423.67" y1="305.8" x2="429.6" y2="305.8"/><line class="cls-4" x1="433.83" y1="305.8" x2="439.67" y2="305.8"/><line class="cls-4" x1="439.67" y1="294.68" x2="439.67" y2="305.8"/><line class="cls-4" x1="433.83" y1="305.8" x2="433.83" y2="300.63"/><line class="cls-4" x1="428.35" y1="300.63" x2="433.83" y2="300.63"/><path class="cls-4" d="M895.25,556.78a2.17,2.17,0,0,0,.6,1.1,2.14,2.14,0,0,0,1.32.57" transform="translate(-534.03 -240.27)"/><line class="cls-4" x1="383.75" y1="132.4" x2="457.87" y2="132.4"/><line class="cls-4" x1="384.15" y1="157.83" x2="386.33" y2="164.97"/><line class="cls-4" x1="386.33" y1="164.97" x2="416.38" y2="156.59"/><line class="cls-4" x1="416.38" y1="156.59" x2="416.05" y2="155.33"/><line class="cls-4" x1="416.05" y1="155.33" x2="418.67" y2="154.6"/><line class="cls-4" x1="388.39" y1="164.39" x2="390.58" y2="172.07"/><line class="cls-4" x1="409.88" y1="158.4" x2="412.02" y2="166.1"/><line class="cls-4" x1="412.02" y1="166.1" x2="410.57" y2="166.5"/><line class="cls-4" x1="457.87" y1="139.2" x2="457.87" y2="123.73"/><line class="cls-4" x1="457.87" y1="123.73" x2="384.74" y2="111.8"/><line class="cls-4" x1="433.6" y1="132.4" x2="433.6" y2="119.76"/><line class="cls-4" x1="457.87" y1="139.2" x2="463.67" y2="139.2"/><line class="cls-4" x1="463.67" y1="137.36" x2="463.67" y2="139.2"/><line class="cls-4" x1="463.67" y1="137.36" x2="489.77" y2="137.36"/><line class="cls-4" x1="469.52" y1="137.36" x2="469.52" y2="143.76"/><line class="cls-4" x1="469.52" y1="143.76" x2="480.04" y2="143.76"/><line class="cls-4" x1="480.04" y1="143.76" x2="480.04" y2="137.36"/><line class="cls-4" x1="469.52" y1="149.43" x2="489.77" y2="149.43"/><line class="cls-4" x1="477.62" y1="149.43" x2="477.62" y2="155.78"/><line class="cls-4" x1="465.62" y1="155.78" x2="496" y2="155.78"/><line class="cls-4" x1="484.74" y1="149.43" x2="484.74" y2="155.78"/><line class="cls-4" x1="471.47" y1="149.43" x2="471.47" y2="155.78"/><line class="cls-4" x1="489.77" y1="149.43" x2="489.77" y2="133.08"/><line class="cls-4" x1="482.23" y1="137.36" x2="482.23" y2="125.13"/><line class="cls-4" x1="521.9" y1="125.13" x2="521.9" y2="203.23"/><line class="cls-4" x1="496" y1="155.78" x2="521.9" y2="150.13"/><line class="cls-4" x1="489.77" y1="139.68" x2="521.9" y2="139.68"/><line class="cls-4" x1="521.9" y1="135.38" x2="556.67" y2="135.38"/><line class="cls-4" x1="521.9" y1="155.78" x2="556.67" y2="155.78"/><line class="cls-4" x1="515.43" y1="203.23" x2="515.43" y2="169.68"/><line class="cls-4" x1="495.02" y1="163.43" x2="508.62" y2="163.43"/><line class="cls-4" x1="488.87" y1="180.17" x2="488.87" y2="169.68"/><path class="cls-4" d="M1022.9,410a6.34,6.34,0,0,1,6.15-6.25" transform="translate(-534.03 -240.27)"/><path class="cls-4" d="M1042.65,403.7a7.08,7.08,0,0,1,6.82,6.25" transform="translate(-534.03 -240.27)"/><line class="cls-4" x1="440.42" y1="168.08" x2="453.97" y2="173.18"/><line class="cls-4" x1="453.97" y1="173.18" x2="450.71" y2="181.74"/><line class="cls-4" x1="453.08" y1="175.52" x2="473.81" y2="183.49"/><line class="cls-5" x1="386.32" y1="156.14" x2="419.7" y2="146.93"/><line class="cls-4" x1="495.96" y1="255.43" x2="518.02" y2="261.53"/><line class="cls-4" x1="518.02" y1="261.53" x2="527.42" y2="261.53"/><line class="cls-4" x1="527.42" y1="263.33" x2="527.42" y2="223.18"/><line class="cls-4" x1="590.47" y1="249.63" x2="505.82" y2="249.63"/><line class="cls-4" x1="505.82" y1="249.63" x2="503.42" y2="257.49"/><line class="cls-4" x1="512.14" y1="249.63" x2="512.14" y2="250.78"/><line class="cls-4" x1="512.14" y1="250.78" x2="509.71" y2="259.23"/><line class="cls-4" x1="523.42" y1="278.98" x2="523.42" y2="275.47"/><line class="cls-4" x1="523.42" y1="275.47" x2="527.67" y2="275.47"/><line class="cls-4" x1="527.67" y1="275.47" x2="527.67" y2="280.33"/><line class="cls-4" x1="527.67" y1="280.33" x2="523.42" y2="280.33"/><line class="cls-4" x1="527.42" y1="263.33" x2="525.27" y2="275.47"/><line class="cls-4" x1="523.42" y1="286.81" x2="527.54" y2="286.81"/><line class="cls-4" x1="527.54" y1="286.81" x2="527.54" y2="289.71"/><line class="cls-4" x1="525.77" y1="289.71" x2="536.37" y2="289.71"/><line class="cls-4" x1="536.37" y1="286.81" x2="536.37" y2="303.26"/><line class="cls-4" x1="541.3" y1="303.26" x2="525.77" y2="303.26"/><line class="cls-4" x1="525.77" y1="298.53" x2="525.77" y2="289.71"/><line class="cls-4" x1="541.3" y1="303.85" x2="541.3" y2="303.26"/><line class="cls-4" x1="551.57" y1="303.85" x2="541.3" y2="303.85"/><line class="cls-4" x1="551.57" y1="289.26" x2="551.57" y2="303.85"/><line class="cls-4" x1="551.57" y1="289.26" x2="557.77" y2="290.69"/><line class="cls-4" x1="557.77" y1="290.69" x2="558.63" y2="286.22"/><line class="cls-4" x1="564.66" y1="292.02" x2="565.52" y2="287.55"/><line class="cls-4" x1="557.88" y1="290.13" x2="564.77" y2="291.48"/><line class="cls-4" x1="565.52" y1="287.55" x2="608.97" y2="296"/><line class="cls-4" x1="608.02" y1="295.82" x2="609.3" y2="289.12"/><line class="cls-4" x1="609.95" y1="289.24" x2="605.68" y2="288.4"/><line class="cls-4" x1="609.95" y1="289.24" x2="609.95" y2="287.02"/><line class="cls-4" x1="536.37" y1="286.81" x2="546.43" y2="286.81"/><line class="cls-4" x1="546.43" y1="286.81" x2="546.43" y2="299.11"/><line class="cls-4" x1="546.43" y1="299.11" x2="551.57" y2="299.11"/><line class="cls-4" x1="546.43" y1="297.61" x2="536.37" y2="297.61"/><line class="cls-4" x1="546.43" y1="292.11" x2="536.37" y2="292.11"/><line class="cls-4" x1="541.19" y1="277.22" x2="541.19" y2="286.81"/><line class="cls-4" x1="541.19" y1="277.22" x2="542.47" y2="271.06"/><line class="cls-4" x1="542.47" y1="271.06" x2="542.47" y2="249.63"/><line class="cls-4" x1="541.55" y1="270.87" x2="582.67" y2="279.13"/><line class="cls-4" x1="590.47" y1="249.63" x2="590.47" y2="257.27"/><line class="cls-4" x1="637.77" y1="257.27" x2="582.67" y2="257.27"/><line class="cls-4" x1="582.67" y1="280.33" x2="582.67" y2="249.63"/><line class="cls-4" x1="533.57" y1="249.63" x2="533.57" y2="258.97"/><path class="cls-4" d="M1067.6,499.23a19.73,19.73,0,0,0,8,11.91" transform="translate(-534.03 -240.27)"/><line class="cls-4" x1="509.37" y1="249.63" x2="509.37" y2="244.13"/><line class="cls-4" x1="509.37" y1="244.13" x2="493.53" y2="240.07"/><line class="cls-4" x1="493.53" y1="240.07" x2="492.6" y2="244.13"/><line class="cls-4" x1="492.6" y1="244.13" x2="488.73" y2="244.13"/><line class="cls-4" x1="554.12" y1="273.4" x2="554.12" y2="249.63"/><line class="cls-4" x1="566.79" y1="275.94" x2="566.79" y2="249.63"/><line class="cls-4" x1="566.79" y1="267.6" x2="621.67" y2="267.6"/><line class="cls-4" x1="595.87" y1="267.6" x2="595.87" y2="257.27"/><line class="cls-4" x1="621.67" y1="271.97" x2="621.67" y2="267.6"/><line class="cls-4" x1="617.53" y1="257.27" x2="617.53" y2="280.33"/><line class="cls-4" x1="617.53" y1="280.33" x2="582.67" y2="280.33"/><line class="cls-4" x1="586.9" y1="280.33" x2="586.9" y2="267.6"/><line class="cls-4" x1="586.9" y1="272.63" x2="604.77" y2="272.63"/><line class="cls-4" x1="604.77" y1="280.33" x2="604.77" y2="267.6"/><line class="cls-4" x1="602.1" y1="267.6" x2="602.1" y2="272.63"/><line class="cls-4" x1="595.87" y1="272.63" x2="595.87" y2="280.33"/><line class="cls-4" x1="609.37" y1="267.6" x2="609.37" y2="280.33"/><line class="cls-4" x1="617.53" y1="271.97" x2="666.43" y2="271.97"/><line class="cls-4" x1="637.77" y1="271.97" x2="637.77" y2="250.17"/><line class="cls-4" x1="626.33" y1="250.17" x2="666.43" y2="250.17"/><line class="cls-4" x1="626.33" y1="250.17" x2="626.33" y2="257.27"/><line class="cls-4" x1="647.33" y1="251.7" x2="660.93" y2="251.7"/><line class="cls-4" x1="660.93" y1="259" x2="660.93" y2="251.7"/><line class="cls-4" x1="647.33" y1="259" x2="660.93" y2="259"/><line class="cls-4" x1="647.33" y1="251.7" x2="647.33" y2="259"/><line class="cls-4" x1="654.13" y1="251.7" x2="654.13" y2="259"/><line class="cls-4" x1="611.53" y1="267.6" x2="611.53" y2="257.27"/><line class="cls-4" x1="527.42" y1="244.33" x2="596.52" y2="244.33"/><line class="cls-4" x1="595.22" y1="244.33" x2="595.22" y2="257.27"/><line class="cls-4" x1="545.02" y1="244.33" x2="545.02" y2="223.18"/><line class="cls-4" x1="557.77" y1="244.33" x2="557.77" y2="223.18"/><line class="cls-4" x1="545.02" y1="233.76" x2="557.77" y2="233.76"/><line class="cls-4" x1="570.62" y1="244.33" x2="570.62" y2="223.18"/><line class="cls-4" x1="595.22" y1="250.17" x2="619.9" y2="250.17"/><line class="cls-4" x1="608.67" y1="250.17" x2="608.67" y2="223.18"/><line class="cls-4" x1="596.52" y1="244.33" x2="596.52" y2="230.88"/><line class="cls-4" x1="596.52" y1="230.88" x2="608.67" y2="230.88"/><line class="cls-4" x1="601.29" y1="230.88" x2="601.29" y2="223.18"/><line class="cls-4" x1="596.52" y1="240.51" x2="608.67" y2="240.51"/><line class="cls-4" x1="608.67" y1="234.46" x2="621.44" y2="234.46"/><line class="cls-4" x1="621.44" y1="244.06" x2="621.44" y2="234.46"/><line class="cls-4" x1="619.9" y1="244.06" x2="621.44" y2="244.06"/><line class="cls-4" x1="619.9" y1="250.17" x2="619.9" y2="244.06"/><line class="cls-4" x1="621.44" y1="242.28" x2="666.43" y2="242.28"/><line class="cls-4" x1="629.87" y1="242.28" x2="629.87" y2="223.18"/><line class="cls-4" x1="638.37" y1="242.28" x2="638.37" y2="223.18"/><line class="cls-4" x1="651.12" y1="242.28" x2="651.12" y2="223.18"/><line class="cls-4" x1="609.95" y1="287.02" x2="624.5" y2="287.02"/><line class="cls-4" x1="613.6" y1="280.33" x2="613.6" y2="287.02"/><line class="cls-4" x1="624.5" y1="278.03" x2="624.5" y2="301.37"/><line class="cls-4" x1="624.5" y1="301.37" x2="633.57" y2="301.37"/><line class="cls-4" x1="624.5" y1="278.03" x2="652.04" y2="278.03"/><line class="cls-4" x1="638.27" y1="278.03" x2="638.27" y2="295.43"/><line class="cls-4" x1="644.39" y1="286.2" x2="645.37" y2="286.2"/><line class="cls-4" x1="645.37" y1="286.2" x2="645.37" y2="278.03"/><line class="cls-4" x1="644.39" y1="286.2" x2="644.39" y2="293.03"/><line class="cls-4" x1="644.39" y1="293.03" x2="638.27" y2="293.03"/><line class="cls-4" x1="652.04" y1="271.97" x2="652.04" y2="285.93"/><line class="cls-4" x1="655.72" y1="279.86" x2="652.04" y2="279.86"/><line class="cls-4" x1="650.04" y1="285.93" x2="652.04" y2="285.93"/><line class="cls-4" x1="650.04" y1="291.83" x2="650.04" y2="285.93"/><line class="cls-4" x1="655.72" y1="329.8" x2="655.72" y2="279.86"/><line class="cls-4" x1="650.04" y1="291.83" x2="647.62" y2="291.83"/><line class="cls-4" x1="647.62" y1="298.11" x2="647.62" y2="291.83"/><line class="cls-4" x1="655.72" y1="329.8" x2="619.2" y2="329.8"/><line class="cls-4" x1="647.62" y1="298.11" x2="655.72" y2="298.11"/><line class="cls-4" x1="655.72" y1="302.7" x2="666.43" y2="302.7"/><line class="cls-4" x1="666.43" y1="289.98" x2="655.72" y2="289.98"/><line class="cls-4" x1="607.07" y1="337.9" x2="607.07" y2="328.17"/><line class="cls-4" x1="607.07" y1="328.17" x2="619.2" y2="328.17"/><line class="cls-4" x1="619.2" y1="328.17" x2="619.2" y2="329.8"/><line class="cls-4" x1="572.07" y1="100.93" x2="650.43" y2="100.93"/><line class="cls-4" x1="650.43" y1="114.73" x2="650.43" y2="100.93"/><line class="cls-4" x1="673.5" y1="114.73" x2="673.5" y2="110.73"/><line class="cls-4" x1="673.5" y1="93.68" x2="673.5" y2="44.03"/><line class="cls-4" x1="673.5" y1="37.48" x2="673.5" y2="22.63"/><line class="cls-4" x1="673.5" y1="93.68" x2="700.23" y2="93.68"/><line class="cls-4" x1="687.02" y1="93.68" x2="687.02" y2="120.2"/><line class="cls-4" x1="701.3" y1="102.2" x2="701.3" y2="99.97"/><line class="cls-4" x1="701.3" y1="99.97" x2="687.02" y2="99.97"/><line class="cls-4" x1="701.3" y1="110.07" x2="687.02" y2="110.07"/><line class="cls-4" x1="700.23" y1="44.03" x2="700.23" y2="93.68"/><line class="cls-4" x1="673.5" y1="44.03" x2="700.23" y2="44.03"/><line class="cls-4" x1="673.5" y1="76.58" x2="700.23" y2="76.58"/><line class="cls-4" x1="700.23" y1="60.33" x2="673.5" y2="60.33"/><line class="cls-4" x1="706.77" y1="102.2" x2="706.77" y2="37.48"/><line class="cls-4" x1="706.77" y1="44.03" x2="729.37" y2="44.03"/><line class="cls-4" x1="556.92" y1="37.48" x2="649.32" y2="37.48"/><line class="cls-4" x1="700.17" y1="23.63" x2="700.17" y2="37.48"/><line class="cls-4" x1="686.87" y1="37.48" x2="686.87" y2="23.35"/><line class="cls-4" x1="649.32" y1="37.48" x2="649.32" y2="20.15"/><line class="cls-4" x1="582.23" y1="24.33" x2="582.23" y2="37.48"/><line class="cls-4" x1="587.87" y1="24.33" x2="582.23" y2="24.33"/><line class="cls-4" x1="587.87" y1="24.33" x2="587.87" y2="19.23"/><line class="cls-4" x1="587.87" y1="19.23" x2="582.23" y2="19.23"/><line class="cls-4" x1="586.9" y1="19.23" x2="586.9" y2="7.06"/><line class="cls-4" x1="585.27" y1="100.93" x2="585.27" y2="120.2"/><line class="cls-4" x1="598.02" y1="100.93" x2="598.02" y2="120.2"/><line class="cls-4" x1="610.67" y1="100.93" x2="610.67" y2="120.2"/><line class="cls-4" x1="622.97" y1="100.93" x2="622.97" y2="105.33"/><line class="cls-4" x1="625.6" y1="105.33" x2="622.13" y2="105.33"/><line class="cls-4" x1="622.13" y1="105.33" x2="622.13" y2="120.2"/><line class="cls-4" x1="597.87" y1="60.83" x2="597.87" y2="76.63"/><line class="cls-4" x1="623.42" y1="76.63" x2="597.87" y2="76.63"/><line class="cls-4" x1="623.42" y1="60.83" x2="623.42" y2="76.63"/><line class="cls-4" x1="597.87" y1="60.83" x2="623.42" y2="60.83"/><line class="cls-4" x1="572.07" y1="62.08" x2="586.47" y2="62.08"/><line class="cls-4" x1="586.47" y1="75.28" x2="586.47" y2="62.08"/><line class="cls-4" x1="572.07" y1="75.28" x2="586.47" y2="75.28"/><line class="cls-4" x1="572.07" y1="62.08" x2="572.07" y2="75.28"/><line class="cls-4" x1="565.5" y1="43.3" x2="555.42" y2="43.3"/><line class="cls-4" x1="565.5" y1="43.3" x2="565.5" y2="100.93"/><line class="cls-4" x1="565.5" y1="75.28" x2="560.13" y2="75.28"/><line class="cls-4" x1="560.13" y1="75.28" x2="547.88" y2="72.12"/><line class="cls-4" x1="560.13" y1="75.28" x2="553.47" y2="100.93"/><line class="cls-4" x1="558.78" y1="80.47" x2="565.5" y2="80.47"/><line class="cls-4" x1="557.47" y1="85.53" x2="565.5" y2="85.53"/><line class="cls-4" x1="555.32" y1="93.8" x2="565.5" y2="93.8"/><line class="cls-4" x1="558.67" y1="74.9" x2="558.67" y2="60.41"/><line class="cls-4" x1="558.67" y1="60.41" x2="565.5" y2="60.41"/><line class="cls-4" x1="558.67" y1="67.93" x2="565.5" y2="67.93"/><line class="cls-4" x1="558.67" y1="71.21" x2="565.5" y2="71.21"/><line class="cls-4" x1="565.5" y1="54.65" x2="552.44" y2="54.65"/><line class="cls-4" x1="582.23" y1="24.33" x2="572.09" y2="24.33"/><line class="cls-4" x1="582.23" y1="25.88" x2="572.09" y2="25.88"/><line class="cls-4" x1="572.09" y1="24.33" x2="572.09" y2="37.48"/><line class="cls-4" x1="567.22" y1="24.33" x2="567.22" y2="37.48"/><line class="cls-4" x1="567.22" y1="25.88" x2="562.17" y2="25.88"/><line class="cls-4" x1="562.17" y1="24.33" x2="562.17" y2="25.88"/><line class="cls-4" x1="567.22" y1="24.33" x2="560.35" y2="24.33"/><line class="cls-4" x1="706.77" y1="52.43" x2="713.93" y2="52.43"/><line class="cls-4" x1="713.93" y1="44.03" x2="713.93" y2="55.57"/><line class="cls-4" x1="706.77" y1="55.57" x2="729.37" y2="55.57"/><line class="cls-4" x1="706.77" y1="60.93" x2="713.4" y2="60.93"/><line class="cls-4" x1="713.4" y1="60.93" x2="713.4" y2="85.53"/><line class="cls-4" x1="713.4" y1="64.6" x2="729.37" y2="64.6"/><line class="cls-4" x1="721.57" y1="64.6" x2="721.57" y2="55.57"/><line class="cls-4" x1="713.4" y1="85.53" x2="706.77" y2="85.53"/><line class="cls-4" x1="713.4" y1="78.87" x2="729.37" y2="78.87"/><line class="cls-4" x1="706.77" y1="76.07" x2="713.4" y2="76.07"/><line class="cls-4" x1="706.77" y1="71.37" x2="713.4" y2="71.37"/><line class="cls-4" x1="706.77" y1="67.6" x2="713.4" y2="67.6"/><path class="cls-4" d="M1181.5,305.77a8.11,8.11,0,0,0-7.53-4.6,7.84,7.84,0,0,0-.2,15.66,8.14,8.14,0,0,0,7.73-4.56" transform="translate(-534.03 -240.27)"/><circle class="cls-4" cx="640.33" cy="68.74" r="2.1"/><line class="cls-4" x1="720.23" y1="188.35" x2="753.82" y2="188.35"/><line class="cls-4" x1="740.57" y1="157.73" x2="740.57" y2="188.35"/><line class="cls-4" x1="740.57" y1="162.87" x2="711.43" y2="157.33"/><line class="cls-4" x1="717.9" y1="158.56" x2="719.53" y2="149.43"/><line class="cls-4" x1="719.53" y1="149.43" x2="734.4" y2="152"/><line class="cls-4" x1="732.02" y1="161.24" x2="733.73" y2="151.88"/><path class="cls-4" d="M1268.43,392.27c.37,0,4.07.39,5.58,3.33a5.56,5.56,0,0,1,.59,2.4" transform="translate(-534.03 -240.27)"/><line class="cls-4" x1="726.97" y1="145.6" x2="711.43" y2="142.9"/><line class="cls-4" x1="718.53" y1="144.13" x2="722.2" y2="123.77"/><line class="cls-4" x1="719.79" y1="137.14" x2="737.43" y2="137.14"/><line class="cls-4" x1="737.43" y1="134.13" x2="737.43" y2="137.14"/><line class="cls-4" x1="737.43" y1="134.13" x2="746.13" y2="134.13"/><line class="cls-4" x1="732.97" y1="123.77" x2="739.17" y2="123.77"/><line class="cls-4" x1="739.17" y1="123.77" x2="739.17" y2="134.13"/><line class="cls-4" x1="748.67" y1="149.7" x2="734.61" y2="146.92"/><line class="cls-4" x1="748.67" y1="153.61" x2="748.67" y2="143.98"/><line class="cls-4" x1="751.59" y1="144.76" x2="756.79" y2="144.76"/><line class="cls-4" x1="756.79" y1="144.76" x2="756.79" y2="153.61"/><line class="cls-4" x1="756.79" y1="153.61" x2="748.67" y2="153.61"/><line class="cls-4" x1="734.61" y1="146.92" x2="736.34" y2="137.14"/><line class="cls-4" x1="746.13" y1="126.08" x2="746.13" y2="139.03"/><path class="cls-4" d="M1280.17,379.3a5.76,5.76,0,0,0,5.46,5.72" transform="translate(-534.03 -240.27)"/><line class="cls-4" x1="726.97" y1="145.6" x2="727.37" y2="143.43"/><line class="cls-4" x1="746.13" y1="126.08" x2="760.04" y2="126.08"/><line class="cls-4" x1="757.9" y1="126.08" x2="757.9" y2="134.13"/><line class="cls-4" x1="751.17" y1="134.13" x2="769.37" y2="134.13"/><line class="cls-4" x1="751.17" y1="134.13" x2="751.17" y2="138.02"/><line class="cls-4" x1="752.62" y1="139.5" x2="764.35" y2="139.5"/><line class="cls-4" x1="764.35" y1="139.5" x2="764.35" y2="145.85"/><line class="cls-4" x1="764.35" y1="145.85" x2="762.93" y2="145.85"/><line class="cls-4" x1="762.93" y1="145.85" x2="762.93" y2="149.82"/><line class="cls-4" x1="762.93" y1="149.82" x2="770.13" y2="152.43"/><line class="cls-4" x1="770.13" y1="152.43" x2="771.67" y2="148.23"/><line class="cls-4" x1="771.67" y1="148.23" x2="770.9" y2="147.96"/><line class="cls-4" x1="770.9" y1="147.96" x2="772.62" y2="143.32"/><line class="cls-4" x1="772.62" y1="143.32" x2="773.65" y2="143.67"/><line class="cls-4" x1="773.65" y1="143.67" x2="774.12" y2="142.32"/><line class="cls-4" x1="774.12" y1="142.32" x2="773.13" y2="141.97"/><line class="cls-4" x1="763.93" y1="150.18" x2="765.62" y2="145.64"/><line class="cls-4" x1="765.62" y1="145.64" x2="765.62" y2="139.5"/><line class="cls-4" x1="765.62" y1="139.5" x2="764.29" y2="139.5"/><line class="cls-4" x1="771.9" y1="145.26" x2="771.9" y2="139.57"/><line class="cls-4" x1="778.57" y1="123.77" x2="778.57" y2="128.53"/><line class="cls-4" x1="773.13" y1="141.97" x2="778.57" y2="126.96"/><line class="cls-4" x1="771.33" y1="139.57" x2="774" y2="139.57"/><path class="cls-4" d="M1285.2,378.28a1.4,1.4,0,0,0,.35,1,1.47,1.47,0,0,0,1.1.45" transform="translate(-534.03 -240.27)"/><line class="cls-4" x1="760.04" y1="126.08" x2="760.04" y2="117.4"/><line class="cls-4" x1="752.89" y1="126.08" x2="752.89" y2="117.4"/><line class="cls-4" x1="769.37" y1="134.13" x2="772.1" y2="126.7"/><line class="cls-4" x1="772.1" y1="126.7" x2="772.1" y2="117.4"/><line class="cls-4" x1="778.57" y1="128.53" x2="810.23" y2="128.53"/><line class="cls-4" x1="811.43" y1="127.2" x2="810.23" y2="127.2"/><line class="cls-4" x1="810.23" y1="127.2" x2="810.23" y2="128.53"/><line class="cls-4" x1="774" y1="142.65" x2="778.98" y2="144.49"/><line class="cls-4" x1="778.98" y1="144.49" x2="778.98" y2="176.97"/><line class="cls-4" x1="783.17" y1="176.97" x2="773.92" y2="176.97"/><line class="cls-4" x1="773.92" y1="176.97" x2="770.88" y2="185.23"/><line class="cls-4" x1="770.88" y1="185.23" x2="773.33" y2="186.12"/><line class="cls-4" x1="773.33" y1="186.12" x2="773.33" y2="189.73"/><line class="cls-4" x1="773.33" y1="189.73" x2="770.85" y2="190.64"/><line class="cls-4" x1="770.85" y1="190.64" x2="773.84" y2="198.91"/><line class="cls-4" x1="773.84" y1="198.91" x2="783.14" y2="198.91"/><line class="cls-4" x1="783.17" y1="176.97" x2="783.17" y2="198.91"/><line class="cls-4" x1="783.17" y1="183.82" x2="779.13" y2="183.82"/><line class="cls-4" x1="783.17" y1="192.05" x2="779.13" y2="192.05"/><line class="cls-4" x1="778.24" y1="189.73" x2="778.24" y2="186.12"/><line class="cls-4" x1="778.24" y1="189.73" x2="779.13" y2="192.05"/><line class="cls-4" x1="778.24" y1="186.12" x2="779.13" y2="183.82"/><line class="cls-4" x1="783.17" y1="187.94" x2="818.23" y2="187.94"/><line class="cls-4" x1="778.98" y1="155.83" x2="818.23" y2="155.83"/><line class="cls-4" x1="779.1" y1="198.91" x2="779.1" y2="231.07"/><line class="cls-4" x1="779.1" y1="231.07" x2="773.97" y2="232.95"/><line class="cls-4" x1="774.16" y1="233.49" x2="773.68" y2="232.14"/><line class="cls-4" x1="773.68" y1="232.14" x2="772.62" y2="232.54"/><line class="cls-4" x1="772.62" y1="232.54" x2="770.9" y2="227.88"/><line class="cls-4" x1="770.9" y1="227.88" x2="771.65" y2="227.6"/><line class="cls-4" x1="771.65" y1="227.6" x2="770.04" y2="223.15"/><line class="cls-4" x1="770.04" y1="223.15" x2="762.97" y2="225.73"/><line class="cls-4" x1="762.97" y1="225.73" x2="762.97" y2="227.1"/><line class="cls-4" x1="771.33" y1="236.33" x2="774.05" y2="236.33"/><line class="cls-4" x1="747.9" y1="193.9" x2="753.82" y2="193.9"/><line class="cls-4" x1="746.7" y1="160.6" x2="746.7" y2="167.87"/><line class="cls-4" x1="746.7" y1="162.7" x2="749.33" y2="162.7"/><line class="cls-4" x1="751.38" y1="163.01" x2="762.07" y2="166.9"/><line class="cls-4" x1="764.9" y1="172.83" x2="759.53" y2="187.53"/><line class="cls-4" x1="759.53" y1="187.53" x2="761.05" y2="188.07"/><path class="cls-4" d="M1287.85,434.17a7.94,7.94,0,0,0,5-2.07,7.6,7.6,0,0,0,2.2-3.77" transform="translate(-534.03 -240.27)"/><path class="cls-4" d="M1296.1,407.17a4.62,4.62,0,0,1,2.83,5.93" transform="translate(-534.03 -240.27)"/><path class="cls-4" d="M1283.36,403a7.15,7.15,0,0,1,1,.07,6.33,6.33,0,0,1,1.07.24" transform="translate(-534.03 -240.27)"/><line class="cls-4" x1="720.23" y1="199.13" x2="734.67" y2="199.13"/><line class="cls-4" x1="734.67" y1="199.13" x2="734.67" y2="209.23"/><line class="cls-4" x1="734.67" y1="209.23" x2="712.37" y2="209.23"/><line class="cls-4" x1="734.67" y1="208.13" x2="739.63" y2="208.13"/><line class="cls-4" x1="739.63" y1="208.13" x2="739.63" y2="222.87"/><line class="cls-4" x1="739.63" y1="222.87" x2="749.03" y2="222.87"/><line class="cls-4" x1="749.03" y1="222.87" x2="749.03" y2="242.17"/><line class="cls-4" x1="769.59" y1="242.17" x2="739.8" y2="242.17"/><line class="cls-4" x1="739.8" y1="243.97" x2="739.8" y2="229.98"/><line class="cls-4" x1="739.8" y1="229.98" x2="749.03" y2="229.98"/><line class="cls-4" x1="749.03" y1="227.1" x2="762.97" y2="227.1"/><line class="cls-4" x1="749.03" y1="236.33" x2="765.4" y2="236.33"/><line class="cls-4" x1="765.4" y1="234.43" x2="765.4" y2="236.33"/><line class="cls-4" x1="764.9" y1="234.43" x2="765.4" y2="234.43"/><line class="cls-4" x1="764.9" y1="231.44" x2="764.9" y2="234.43"/><line class="cls-4" x1="765.4" y1="231.44" x2="764.9" y2="231.44"/><line class="cls-4" x1="765.4" y1="230.21" x2="765.4" y2="231.44"/><line class="cls-4" x1="765.4" y1="230.21" x2="764.68" y2="228.17"/><line class="cls-4" x1="764.68" y1="228.17" x2="764.21" y2="228.34"/><line class="cls-4" x1="764.21" y1="228.34" x2="763.22" y2="225.64"/><line class="cls-4" x1="771.33" y1="236.33" x2="771.33" y2="229.05"/><line class="cls-4" x1="774.16" y1="233.49" x2="773.15" y2="233.89"/><line class="cls-4" x1="773.15" y1="233.89" x2="778.09" y2="247.26"/><line class="cls-4" x1="779.1" y1="252.53" x2="779.1" y2="247.26"/><line class="cls-4" x1="778.09" y1="247.26" x2="792.12" y2="247.26"/><line class="cls-4" x1="792.12" y1="244.21" x2="792.12" y2="252.53"/><line class="cls-4" x1="772.02" y1="258.2" x2="772.02" y2="248.81"/><line class="cls-4" x1="772.02" y1="248.81" x2="769.59" y2="242.17"/><path class="cls-4" d="M1273.67,448.4a11.18,11.18,0,0,1,7.5-5.27c.53-.09,5.77-.89,9.36,3a10.14,10.14,0,0,1,1.6,11.2,10.28,10.28,0,0,1-9.06,5.76" transform="translate(-534.03 -240.27)"/><line class="cls-4" x1="779.1" y1="219.98" x2="818.23" y2="219.98"/><line class="cls-6" x1="281.42" y1="14.93" x2="245.22" y2="14.93"/><line class="cls-6" x1="245.22" y1="11.93" x2="245.22" y2="14.93"/><line class="cls-6" x1="245.22" y1="11.93" x2="220.42" y2="11.93"/><line class="cls-6" x1="219.52" y1="7.83" x2="219.52" y2="11.03"/><line class="cls-6" x1="220.42" y1="11.93" x2="219.52" y2="11.03"/><line class="cls-6" x1="208.82" y1="7.83" x2="208.82" y2="11.03"/><line class="cls-6" x1="206.27" y1="15.51" x2="155.7" y2="15.51"/><path class="cls-6" d="M742.85,251.3a5.08,5.08,0,0,0-1.77,1.72,5.23,5.23,0,0,0-.78,2.75" transform="translate(-534.03 -240.27)"/><line class="cls-6" x1="155.7" y1="23.93" x2="155.7" y2="12.13"/><line class="cls-6" x1="155.7" y1="23.93" x2="133.07" y2="23.93"/><line class="cls-6" x1="133.07" y1="12.13" x2="133.07" y2="23.93"/><line class="cls-6" x1="97.12" y1="11.68" x2="97.12" y2="15.51"/><line class="cls-6" x1="75.43" y1="11.68" x2="97.12" y2="11.68"/><line class="cls-6" x1="75.43" y1="14.3" x2="75.43" y2="11.68"/><line class="cls-6" x1="75.43" y1="14.3" x2="39.2" y2="14.3"/><line class="cls-6" x1="39.2" y1="14.3" x2="39.2" y2="36.57"/><line class="cls-6" x1="39.2" y1="36.57" x2="41.82" y2="36.57"/><line class="cls-6" x1="41.82" y1="36.57" x2="41.82" y2="50.33"/><line class="cls-6" x1="41.82" y1="50.33" x2="38.3" y2="50.33"/><line class="cls-6" x1="38.3" y1="50.33" x2="38.3" y2="97.36"/><line class="cls-6" x1="38.3" y1="97.36" x2="51.62" y2="97.36"/><line class="cls-6" x1="51.62" y1="97.36" x2="51.62" y2="113.13"/><line class="cls-6" x1="51.62" y1="113.13" x2="38.3" y2="113.13"/><line class="cls-6" x1="38.3" y1="113.13" x2="38.3" y2="161.43"/><line class="cls-6" x1="38.3" y1="161.43" x2="41.7" y2="161.43"/><line class="cls-6" x1="41.7" y1="161.43" x2="41.7" y2="174.4"/><line class="cls-6" x1="38.3" y1="174.4" x2="41.7" y2="174.4"/><line class="cls-6" x1="38.3" y1="197.58" x2="38.3" y2="174.4"/><line class="cls-6" x1="43.27" y1="197.58" x2="38.3" y2="197.58"/><line class="cls-6" x1="43.27" y1="209.08" x2="43.27" y2="197.58"/><line class="cls-6" x1="2.85" y1="209.08" x2="43.27" y2="209.08"/><line class="cls-6" x1="0.5" y1="211.8" x2="0.5" y2="224.13"/><path class="cls-6" d="M534.53,452.07a2.79,2.79,0,0,1,.64-1.81,2.74,2.74,0,0,1,1.71-.91" transform="translate(-534.03 -240.27)"/><line class="cls-6" x1="0.5" y1="224.13" x2="2.4" y2="224.13"/><line class="cls-6" x1="2.4" y1="233.6" x2="0.5" y2="233.6"/><line class="cls-6" x1="2.4" y1="224.13" x2="2.4" y2="233.6"/><line class="cls-6" x1="0.5" y1="233.6" x2="0.5" y2="248.87"/><line class="cls-6" x1="0.5" y1="248.87" x2="74.83" y2="248.87"/><line class="cls-6" x1="74.83" y1="244.38" x2="74.83" y2="248.87"/><line class="cls-6" x1="94.43" y1="247.33" x2="74.83" y2="244.38"/><path class="cls-6" d="M622.57,482.5" transform="translate(-534.03 -240.27)"/><path class="cls-6" d="M622.57,484.13" transform="translate(-534.03 -240.27)"/><path class="cls-6" d="M622.57,484.13" transform="translate(-534.03 -240.27)"/><path class="cls-6" d="M631.37,484.13" transform="translate(-534.03 -240.27)"/><line class="cls-6" x1="97.33" y1="223.57" x2="97.33" y2="227.6"/><line class="cls-6" x1="85.83" y1="223.57" x2="97.33" y2="223.57"/><line class="cls-6" x1="85.83" y1="209" x2="85.83" y2="223.57"/><line class="cls-6" x1="75.33" y1="209" x2="85.83" y2="209"/><line class="cls-6" x1="75.33" y1="209" x2="75.33" y2="199.07"/><line class="cls-6" x1="75.33" y1="199.07" x2="98.37" y2="199.07"/><line class="cls-6" x1="98.37" y1="194.47" x2="98.37" y2="199.07"/><line class="cls-6" x1="98.37" y1="194.47" x2="114.83" y2="194.47"/><line class="cls-6" x1="114.83" y1="194.47" x2="114.83" y2="247.33"/><line class="cls-6" x1="94.43" y1="247.33" x2="114.83" y2="247.33"/><line class="cls-6" x1="121.17" y1="267.13" x2="107.77" y2="267.13"/><line class="cls-6" x1="137.64" y1="344.33" x2="137.64" y2="265.66"/><line class="cls-6" x1="121.17" y1="267.13" x2="137.64" y2="265.66"/><line class="cls-6" x1="137.64" y1="344.33" x2="170.77" y2="344.33"/><line class="cls-6" x1="285.57" y1="346.53" x2="170.77" y2="346.53"/><line class="cls-6" x1="170.77" y1="344.33" x2="170.77" y2="346.53"/><path class="cls-6" d="M819.6,586.8a15,15,0,0,0,8.95-2.8c6.59-5,5.28-14.54,12.05-17.7a10,10,0,0,1,4-.9" transform="translate(-534.03 -240.27)"/><line class="cls-6" x1="310.57" y1="314.33" x2="310.57" y2="292.53"/><line class="cls-6" x1="310.57" y1="292.53" x2="214.27" y2="292.53"/><line class="cls-6" x1="214.27" y1="292.53" x2="214.27" y2="324.53"/><line class="cls-6" x1="197.07" y1="324.53" x2="214.27" y2="324.53"/><line class="cls-6" x1="197.07" y1="332.08" x2="197.07" y2="324.53"/><line class="cls-6" x1="197.07" y1="332.08" x2="182.92" y2="332.08"/><line class="cls-6" x1="182.92" y1="276.6" x2="195.62" y2="276.6"/><line class="cls-6" x1="195.62" y1="276.6" x2="195.62" y2="261.2"/><line class="cls-6" x1="191.13" y1="261.2" x2="195.62" y2="261.2"/><line class="cls-6" x1="191.13" y1="252.2" x2="191.13" y2="261.2"/><line class="cls-6" x1="191.13" y1="252.2" x2="194.7" y2="252.47"/><line class="cls-6" x1="194.7" y1="252.47" x2="194.7" y2="251.63"/><line class="cls-6" x1="194.7" y1="251.63" x2="231.33" y2="255.67"/><line class="cls-6" x1="231.33" y1="255.67" x2="296.27" y2="258.93"/><line class="cls-6" x1="296.27" y1="258.93" x2="296.27" y2="226.93"/><line class="cls-6" x1="295.42" y1="226.93" x2="296.27" y2="226.93"/><line class="cls-6" x1="295.42" y1="226.93" x2="295.42" y2="194.33"/><line class="cls-6" x1="295.42" y1="194.33" x2="303.83" y2="194.33"/><line class="cls-6" x1="303.83" y1="194.33" x2="303.83" y2="167.47"/><line class="cls-6" x1="303.83" y1="167.47" x2="278.77" y2="167.47"/><line class="cls-6" x1="278.77" y1="167.47" x2="278.77" y2="152.2"/><line class="cls-6" x1="278.77" y1="152.2" x2="282.27" y2="148.7"/><line class="cls-6" x1="282.27" y1="148.7" x2="282.27" y2="144.53"/><line class="cls-6" x1="282.27" y1="144.53" x2="279.25" y2="141.52"/><line class="cls-6" x1="279.25" y1="141.52" x2="279.25" y2="42.07"/><line class="cls-6" x1="279.25" y1="42.07" x2="281.53" y2="42.07"/><line class="cls-6" x1="281.53" y1="42.07" x2="281.53" y2="14.93"/><line class="cls-6" x1="208.82" y1="11.03" x2="219.52" y2="11.03"/><line class="cls-6" x1="133.07" y1="15.51" x2="97.12" y2="15.51"/><line class="cls-6" x1="309.49" y1="325.13" x2="309.49" y2="321.73"/><line class="cls-6" x1="309.49" y1="321.73" x2="301.17" y2="321.73"/><line class="cls-6" x1="301.17" y1="321.73" x2="301.17" y2="314.33"/><line class="cls-6" x1="301.17" y1="314.33" x2="310.57" y2="314.33"/><line class="cls-6" x1="339.12" y1="332.68" x2="339.12" y2="354.03"/><line class="cls-6" x1="339.12" y1="354.03" x2="394.57" y2="360.67"/><line class="cls-6" x1="394.57" y1="360.67" x2="394.57" y2="339.6"/><line class="cls-6" x1="394.57" y1="339.6" x2="495.77" y2="339.6"/><line class="cls-6" x1="495.77" y1="339.6" x2="495.77" y2="316.53"/><line class="cls-6" x1="495.77" y1="316.53" x2="501" y2="316.53"/><line class="cls-6" x1="501" y1="316.53" x2="501" y2="294.68"/><line class="cls-6" x1="501" y1="294.68" x2="361.22" y2="294.68"/><line class="cls-6" x1="361.22" y1="294.68" x2="361.22" y2="312.58"/><line class="cls-6" x1="361.22" y1="312.58" x2="353.67" y2="312.58"/><line class="cls-6" x1="353.67" y1="312.58" x2="353.67" y2="304.7"/><line class="cls-6" x1="350.4" y1="301.92" x2="344.65" y2="301.92"/><line class="cls-6" x1="336.55" y1="310.4" x2="336.55" y2="322.6"/><line class="cls-6" x1="336.55" y1="322.6" x2="347.5" y2="322.6"/><line class="cls-6" x1="347.5" y1="322.6" x2="347.5" y2="324.7"/><line class="cls-6" x1="347.5" y1="324.7" x2="361.87" y2="324.7"/><line class="cls-6" x1="361.87" y1="324.7" x2="356.54" y2="356.12"/><line class="cls-6" x1="345.67" y1="332.68" x2="353.67" y2="332.68"/><line class="cls-6" x1="350.92" y1="347.68" x2="353.67" y2="332.68"/><line class="cls-6" x1="350.92" y1="347.68" x2="345.67" y2="347.68"/><line class="cls-6" x1="345.67" y1="347.68" x2="345.67" y2="332.68"/><path class="cls-6" d="M884.43,542.18A3.13,3.13,0,0,1,887.7,545" transform="translate(-534.03 -240.27)"/><path class="cls-6" d="M870.58,550.67a8.09,8.09,0,0,1,1.92-5.84,8.2,8.2,0,0,1,6.18-2.65" transform="translate(-534.03 -240.27)"/><line class="cls-6" x1="383.77" y1="132.8" x2="386.43" y2="157.2"/><line class="cls-6" x1="386.43" y1="157.2" x2="382.3" y2="158.33"/><line class="cls-6" x1="386.17" y1="173.3" x2="410.57" y2="166.5"/><line class="cls-6" x1="410.57" y1="166.5" x2="416.41" y2="168.72"/><line class="cls-6" x1="471.46" y1="189.61" x2="428.08" y2="173.15"/><line class="cls-6" x1="471.46" y1="189.61" x2="474.35" y2="182.08"/><line class="cls-6" x1="474.35" y1="182.08" x2="474.35" y2="180.17"/><line class="cls-6" x1="474.35" y1="180.17" x2="488.87" y2="180.17"/><line class="cls-6" x1="488.87" y1="180.17" x2="488.87" y2="202.33"/><line class="cls-6" x1="495.63" y1="208.27" x2="515.43" y2="208.27"/><line class="cls-6" x1="515.43" y1="203.23" x2="515.43" y2="208.27"/><line class="cls-6" x1="515.43" y1="203.23" x2="556.67" y2="203.23"/><line class="cls-6" x1="556.67" y1="203.23" x2="556.67" y2="125.13"/><line class="cls-6" x1="556.67" y1="125.13" x2="466.43" y2="125.13"/><line class="cls-6" x1="466.43" y1="125.13" x2="466.43" y2="118.27"/><line class="cls-6" x1="466.43" y1="118.27" x2="385.93" y2="105.33"/><line class="cls-6" x1="385.93" y1="105.33" x2="384.83" y2="111.17"/><path class="cls-6" d="M918.87,351.43c-.48,3-.86,6.31-1.07,9.87a102.47,102.47,0,0,0,0,11.77" transform="translate(-534.03 -240.27)"/><path class="cls-6" d="M916.33,398.6a7.74,7.74,0,1,0,3.87,15" transform="translate(-534.03 -240.27)"/><path class="cls-6" d="M950.44,409a6.24,6.24,0,0,0,11.67,4.43" transform="translate(-534.03 -240.27)"/><path class="cls-6" d="M1022.9,442.6a6.41,6.41,0,0,0,6.77,5.93" transform="translate(-534.03 -240.27)"/><line class="cls-6" x1="523.97" y1="339.6" x2="584.63" y2="339.6"/><line class="cls-6" x1="584.63" y1="337.9" x2="584.63" y2="339.6"/><line class="cls-6" x1="584.63" y1="337.9" x2="607.07" y2="337.9"/><line class="cls-6" x1="607.07" y1="339.6" x2="607.07" y2="337.9"/><line class="cls-6" x1="607.07" y1="339.6" x2="668.5" y2="339.6"/><line class="cls-6" x1="668.5" y1="329.8" x2="668.5" y2="339.6"/><line class="cls-6" x1="666.43" y1="329.8" x2="668.5" y2="329.8"/><line class="cls-6" x1="666.43" y1="223.18" x2="666.43" y2="329.8"/><line class="cls-6" x1="666.43" y1="223.18" x2="515.43" y2="223.18"/><line class="cls-6" x1="488.73" y1="223.8" x2="488.73" y2="249.11"/><line class="cls-6" x1="493.33" y1="254.7" x2="495.96" y2="255.43"/><line class="cls-6" x1="493.73" y1="218.61" x2="515.43" y2="218.61"/><path class="cls-6" d="M1022.77,464.07a6.6,6.6,0,0,1,5-5.19" transform="translate(-534.03 -240.27)"/><path class="cls-6" d="M1022.77,489.38a6.65,6.65,0,0,0,4.6,5.59" transform="translate(-534.03 -240.27)"/><line class="cls-6" x1="495.96" y1="255.43" x2="495.96" y2="271.58"/><line class="cls-6" x1="495.96" y1="271.58" x2="523.42" y2="278.98"/><line class="cls-6" x1="523.42" y1="278.98" x2="523.42" y2="298.53"/><line class="cls-6" x1="523.42" y1="298.53" x2="525.77" y2="298.53"/><line class="cls-6" x1="525.77" y1="298.53" x2="525.77" y2="330.28"/><line class="cls-6" x1="523.97" y1="330.28" x2="525.77" y2="330.28"/><line class="cls-6" x1="523.97" y1="339.6" x2="523.97" y2="330.28"/><line class="cls-6" x1="572.07" y1="120.2" x2="572.07" y2="100.93"/><line class="cls-6" x1="540.37" y1="100.93" x2="572.07" y2="100.93"/><line class="cls-6" x1="540.37" y1="100.93" x2="566.56" y2="0.5"/><line class="cls-6" x1="729.37" y1="23.63" x2="700.17" y2="23.63"/><path class="cls-6" d="M1100.6,240.77a409.06,409.06,0,0,0,65.2,17,409.1,409.1,0,0,0,68.4,6.1" transform="translate(-534.03 -240.27)"/><line class="cls-6" x1="729.37" y1="23.63" x2="729.37" y2="102.2"/><line class="cls-6" x1="701.3" y1="102.2" x2="729.37" y2="102.2"/><line class="cls-6" x1="701.3" y1="120.2" x2="701.3" y2="102.2"/><line class="cls-6" x1="673.5" y1="120.2" x2="701.3" y2="120.2"/><line class="cls-6" x1="673.5" y1="114.73" x2="673.5" y2="120.2"/><line class="cls-6" x1="667.1" y1="114.73" x2="673.5" y2="114.73"/><line class="cls-6" x1="656.13" y1="114.73" x2="650.43" y2="114.73"/><line class="cls-6" x1="650.43" y1="114.73" x2="650.43" y2="120.2"/><line class="cls-6" x1="572.07" y1="120.2" x2="650.43" y2="120.2"/><path class="cls-6" d="M1190.17,355a5.48,5.48,0,0,0,11,0" transform="translate(-534.03 -240.27)"/><line class="cls-6" x1="711.43" y1="157.33" x2="711.43" y2="123.77"/><line class="cls-6" x1="711.43" y1="123.77" x2="732.97" y2="123.77"/><line class="cls-6" x1="732.97" y1="117.4" x2="732.97" y2="123.77"/><line class="cls-6" x1="778.57" y1="117.4" x2="732.97" y2="117.4"/><line class="cls-6" x1="778.57" y1="123.77" x2="778.57" y2="117.4"/><line class="cls-6" x1="778.57" y1="123.77" x2="811.43" y2="123.77"/><line class="cls-6" x1="811.43" y1="127.2" x2="811.43" y2="123.77"/><line class="cls-6" x1="818.23" y1="127.2" x2="811.43" y2="127.2"/><line class="cls-6" x1="818.23" y1="127.2" x2="818.23" y2="249.07"/><line class="cls-6" x1="810.92" y1="249.07" x2="818.23" y2="249.07"/><line class="cls-6" x1="810.92" y1="252.53" x2="810.92" y2="249.07"/><line class="cls-6" x1="779.1" y1="252.53" x2="810.92" y2="252.53"/><line class="cls-6" x1="733.3" y1="258.2" x2="779.1" y2="258.2"/><line class="cls-6" x1="779.1" y1="258.2" x2="779.1" y2="252.53"/><line class="cls-6" x1="733.3" y1="258.2" x2="733.3" y2="252.53"/><line class="cls-6" x1="733.3" y1="252.53" x2="712.37" y2="252.53"/><line class="cls-6" x1="712.37" y1="252.53" x2="712.37" y2="199.13"/><line class="cls-6" x1="720.23" y1="199.13" x2="712.37" y2="199.13"/><line class="cls-6" x1="720.23" y1="188.35" x2="720.23" y2="199.13"/><line class="cls-6" x1="706.17" y1="188.35" x2="720.23" y2="188.35"/><line class="cls-6" x1="701.5" y1="183.4" x2="701.5" y2="160.53"/><line class="cls-6" x1="711.43" y1="157.33" x2="706.13" y2="156.4"/><path class="cls-6" d="M1235.53,423.67a4.87,4.87,0,0,0,4.67,4.95" transform="translate(-534.03 -240.27)"/><path class="cls-6" d="M1235.53,400.8a4.28,4.28,0,0,1,1.69-3.55,4,4,0,0,1,3-.58" transform="translate(-534.03 -240.27)"/><line class="cls-6" x1="534.17" y1="352.53" x2="596.85" y2="352.53"/><line class="cls-6" x1="534.17" y1="352.53" x2="534.17" y2="399.33"/><line class="cls-6" x1="534.17" y1="399.33" x2="596.85" y2="399.33"/><line class="cls-6" x1="596.85" y1="399.33" x2="596.85" y2="352.53"/><line class="cls-6" x1="424.77" y1="384.73" x2="467.37" y2="384.73"/><line class="cls-6" x1="424.77" y1="384.73" x2="424.77" y2="469.93"/><line class="cls-6" x1="424.77" y1="469.93" x2="467.37" y2="469.93"/><line class="cls-6" x1="467.37" y1="469.93" x2="467.37" y2="384.73"/><line class="cls-6" x1="515.43" y1="218.61" x2="515.43" y2="223.18"/><path class="cls-2" d="M864.65,583.7" transform="translate(-534.03 -240.27)"/><line class="cls-4" x1="182.27" y1="266.63" x2="187.2" y2="266.63"/><line class="cls-4" x1="206.27" y1="22.48" x2="221.9" y2="22.48"/><line class="cls-3" x1="211.12" y1="22.48" x2="217.42" y2="22.48"/><line class="cls-7" x1="211.12" y1="11.03" x2="217.42" y2="11.03"/><line class="cls-3" x1="206.27" y1="26.37" x2="206.27" y2="32.2"/><line class="cls-3" x1="221.9" y1="26.37" x2="221.9" y2="32.2"/><line class="cls-3" x1="221.9" y1="40.07" x2="221.9" y2="45.9"/><line class="cls-3" x1="206.27" y1="40.07" x2="206.27" y2="45.9"/><line class="cls-3" x1="206.27" y1="60.07" x2="206.27" y2="65.87"/><line class="cls-3" x1="206.27" y1="70.83" x2="206.27" y2="74.2"/><line class="cls-3" x1="208.13" y1="77.93" x2="211.2" y2="77.93"/><line class="cls-3" x1="227.27" y1="77.93" x2="232.9" y2="77.93"/><line class="cls-3" x1="239" y1="77.93" x2="242.2" y2="77.93"/><line class="cls-3" x1="253.17" y1="21.26" x2="253.17" y2="24.06"/><line class="cls-3" x1="253.17" y1="32.71" x2="253.17" y2="35.51"/><line class="cls-3" x1="250.97" y1="47.13" x2="250.97" y2="49.93"/><line class="cls-3" x1="250.97" y1="54.78" x2="250.97" y2="57.58"/><line class="cls-3" x1="250.97" y1="62.46" x2="250.97" y2="65.26"/><line class="cls-3" x1="274.07" y1="62.46" x2="274.07" y2="65.26"/><line class="cls-3" x1="274.07" y1="54.78" x2="274.07" y2="57.58"/><line class="cls-3" x1="274.07" y1="47.13" x2="274.07" y2="49.93"/><line class="cls-3" x1="274.97" y1="42.78" x2="277.82" y2="42.78"/><line class="cls-3" x1="264.47" y1="16.31" x2="264.47" y2="19.11"/><line class="cls-3" x1="259.53" y1="88.13" x2="262.77" y2="88.13"/><line class="cls-3" x1="259.53" y1="93.77" x2="262.77" y2="93.77"/><line class="cls-3" x1="265.1" y1="98.6" x2="267.98" y2="98.6"/><line class="cls-3" x1="273.27" y1="98.6" x2="276.15" y2="98.6"/><line class="cls-3" x1="273.27" y1="104.23" x2="276.15" y2="104.23"/><line class="cls-3" x1="252.97" y1="99.52" x2="252.97" y2="102.33"/><line class="cls-3" x1="252.97" y1="104.62" x2="252.97" y2="107.43"/><line class="cls-3" x1="253.77" y1="113.13" x2="257" y2="113.13"/><line class="cls-3" x1="258.23" y1="113.13" x2="261.47" y2="113.13"/><line class="cls-3" x1="169.67" y1="33.51" x2="169.67" y2="40.18"/><line class="cls-3" x1="156.93" y1="28.73" x2="159.82" y2="28.73"/><line class="cls-4" x1="166.59" y1="36.84" x2="159.82" y2="36.84"/><line class="cls-3" x1="206.27" y1="101.7" x2="206.27" y2="105.17"/><line class="cls-3" x1="206.27" y1="125.13" x2="206.27" y2="128.58"/><line class="cls-3" x1="169.67" y1="130.06" x2="169.67" y2="133.21"/><line class="cls-3" x1="166.4" y1="135.47" x2="163.69" y2="135.47"/><line class="cls-3" x1="143.23" y1="160.87" x2="146.63" y2="160.87"/><line class="cls-3" x1="142.17" y1="145.43" x2="145.57" y2="145.43"/><line class="cls-3" x1="147.27" y1="150.1" x2="147.27" y2="153.03"/><line class="cls-4" x1="182.77" y1="153.43" x2="177.23" y2="153.43"/><line class="cls-4" x1="177.23" y1="153.43" x2="177.23" y2="160.87"/><line class="cls-3" x1="178.23" y1="160.87" x2="181.47" y2="160.87"/><line class="cls-3" x1="175.19" y1="167.47" x2="180.74" y2="167.47"/><line class="cls-3" x1="151.97" y1="167.47" x2="157.22" y2="167.47"/><line class="cls-3" x1="257.6" y1="133.63" x2="257.6" y2="136.3"/><line class="cls-3" x1="272.07" y1="131.4" x2="274.94" y2="131.4"/><line class="cls-3" x1="258.42" y1="139.47" x2="261.29" y2="139.47"/><line class="cls-3" x1="264.12" y1="139.47" x2="266.99" y2="139.47"/><line class="cls-3" x1="272.95" y1="139.47" x2="275.83" y2="139.47"/><line class="cls-7" x1="278.77" y1="158.36" x2="278.77" y2="165.03"/><line class="cls-3" x1="246.39" y1="167.47" x2="251.97" y2="167.47"/><line class="cls-3" x1="246.39" y1="181.2" x2="251.97" y2="181.2"/><line class="cls-3" x1="244.87" y1="161.93" x2="244.87" y2="166.93"/><line class="cls-3" x1="223.8" y1="160.87" x2="226.73" y2="160.87"/><line class="cls-3" x1="212.77" y1="167.47" x2="218.34" y2="167.47"/><line class="cls-3" x1="244.87" y1="186.93" x2="244.87" y2="181.78"/><line class="cls-3" x1="262.17" y1="194.33" x2="265.17" y2="194.33"/><line class="cls-3" x1="284.53" y1="194.33" x2="287.53" y2="194.33"/><line class="cls-3" x1="276.07" y1="198.73" x2="276.07" y2="201.5"/><line class="cls-3" x1="280.44" y1="213.7" x2="283.44" y2="213.7"/><line class="cls-3" x1="280.44" y1="221.58" x2="283.44" y2="221.58"/><line class="cls-3" x1="269.44" y1="225.33" x2="272.24" y2="225.33"/><line class="cls-3" x1="257.47" y1="200.33" x2="257.47" y2="203.48"/><line class="cls-3" x1="248.67" y1="204.88" x2="251.17" y2="204.88"/><line class="cls-3" x1="246.9" y1="198.81" x2="246.9" y2="204.13"/><line class="cls-3" x1="226.72" y1="203.93" x2="229.49" y2="203.93"/><line class="cls-3" x1="221.99" y1="221.2" x2="225.17" y2="221.2"/><line class="cls-3" x1="210.22" y1="215.73" x2="213.82" y2="215.73"/><line class="cls-3" x1="169.97" y1="208.3" x2="169.97" y2="211.27"/><line class="cls-3" x1="172.9" y1="197.17" x2="172.9" y2="200.12"/><line class="cls-3" x1="172.9" y1="174.41" x2="172.9" y2="187.73"/><line class="cls-3" x1="147.77" y1="206.93" x2="147.77" y2="212.31"/><line class="cls-3" x1="141.97" y1="206.93" x2="141.97" y2="212.31"/><line class="cls-3" x1="132.2" y1="208.76" x2="132.2" y2="212.01"/><line class="cls-3" x1="135.07" y1="206.5" x2="138.17" y2="206.5"/><line class="cls-3" x1="141.97" y1="219.41" x2="141.97" y2="222.11"/><line class="cls-3" x1="143.47" y1="226.38" x2="146.6" y2="226.38"/><line class="cls-3" x1="152.1" y1="226.38" x2="155.28" y2="226.38"/><line class="cls-3" x1="163.47" y1="226.38" x2="166.65" y2="226.38"/><line class="cls-3" x1="168.07" y1="224.98" x2="168.07" y2="221.93"/><line class="cls-3" x1="177.3" y1="217.6" x2="177.3" y2="220.68"/><line class="cls-3" x1="169.3" y1="228.68" x2="169.3" y2="231.86"/><line class="cls-3" x1="135.59" y1="249.87" x2="138.42" y2="249.99"/><line class="cls-4" x1="123.87" y1="257.01" x2="110.22" y2="257.01"/><line class="cls-4" x1="110.22" y1="257.01" x2="110.22" y2="260.23"/><line class="cls-4" x1="110.22" y1="260.23" x2="107.77" y2="260.23"/><line class="cls-4" x1="114.47" y1="257.01" x2="114.47" y2="254.06"/><line class="cls-4" x1="114.47" y1="254.06" x2="119.64" y2="254.06"/><line class="cls-4" x1="119.64" y1="251.66" x2="119.64" y2="254.06"/><line class="cls-4" x1="119.64" y1="251.66" x2="123.87" y2="251.66"/><line class="cls-3" x1="123.87" y1="252.86" x2="123.87" y2="255.53"/><line class="cls-3" x1="120.4" y1="251.66" x2="123.18" y2="251.66"/><line class="cls-3" x1="114.98" y1="257.01" x2="117.73" y2="257.01"/><line class="cls-3" x1="161.17" y1="263.17" x2="163.81" y2="262.89"/><line class="cls-3" x1="170.9" y1="265.06" x2="173.9" y2="265.06"/><line class="cls-3" x1="167.3" y1="270.58" x2="167.3" y2="275.88"/><line class="cls-3" x1="161.72" y1="299.73" x2="164.23" y2="299.73"/><line class="cls-3" x1="170.37" y1="313.05" x2="170.37" y2="318.52"/><line class="cls-3" x1="183.39" y1="261.46" x2="186.02" y2="261.37"/><line class="cls-3" x1="187.2" y1="262.52" x2="187.2" y2="265.22"/><line class="cls-3" x1="183.96" y1="266.63" x2="186.58" y2="266.63"/><line class="cls-3" x1="174.4" y1="278.4" x2="174.4" y2="275.88"/><line class="cls-3" x1="174.4" y1="281.98" x2="174.4" y2="279.62"/><line class="cls-3" x1="174.4" y1="296.38" x2="174.4" y2="298.97"/><line class="cls-3" x1="174.4" y1="307.09" x2="174.4" y2="309.67"/><line class="cls-3" x1="174.4" y1="317.5" x2="174.4" y2="320.08"/><line class="cls-3" x1="174.4" y1="327.83" x2="174.4" y2="330.42"/><line class="cls-3" x1="171.07" y1="332.08" x2="173.94" y2="332.08"/><line class="cls-3" x1="167.47" y1="335.05" x2="167.47" y2="340.28"/><line class="cls-3" x1="163.29" y1="251.02" x2="166.84" y2="251.17"/><line class="cls-4" x1="167.49" y1="251.2" x2="167.49" y2="243.73"/><line class="cls-4" x1="167.49" y1="243.73" x2="162.7" y2="243.73"/><line class="cls-3" x1="214.83" y1="251.88" x2="214.83" y2="248.71"/><line class="cls-7" x1="191.13" y1="254.01" x2="191.13" y2="259.36"/><line class="cls-3" x1="92.19" y1="188.68" x2="94.92" y2="188.68"/><line class="cls-3" x1="141.97" y1="179.9" x2="141.97" y2="182.33"/><line class="cls-3" x1="100.74" y1="167.47" x2="106.69" y2="167.47"/><line class="cls-3" x1="91.67" y1="160.87" x2="94.87" y2="160.87"/><line class="cls-4" x1="90.4" y1="149.17" x2="86" y2="149.17"/><line class="cls-4" x1="86" y1="149.17" x2="86" y2="153.4"/><line class="cls-4" x1="86" y1="153.4" x2="90.4" y2="153.4"/><line class="cls-3" x1="90.4" y1="149.58" x2="90.4" y2="153.03"/><line class="cls-3" x1="113" y1="160.87" x2="115.87" y2="160.87"/><line class="cls-3" x1="120.03" y1="149.17" x2="120.03" y2="152"/><line class="cls-3" x1="201.57" y1="194.33" x2="208.12" y2="194.33"/><line class="cls-3" x1="177.3" y1="245.03" x2="177.3" y2="248.51"/><line class="cls-4" x1="168.07" y1="221.06" x2="147.77" y2="221.06"/><line class="cls-3" x1="236.67" y1="324.53" x2="241.37" y2="324.53"/><line class="cls-3" x1="235.97" y1="323.8" x2="235.97" y2="320.67"/><line class="cls-3" x1="245.12" y1="323.8" x2="245.12" y2="320.67"/><line class="cls-3" x1="245.12" y1="318.6" x2="245.12" y2="315.37"/><line class="cls-3" x1="267.02" y1="324.53" x2="271.79" y2="324.53"/><line class="cls-3" x1="269.57" y1="314.33" x2="274.34" y2="314.33"/><line class="cls-3" x1="259.49" y1="314.33" x2="264.27" y2="314.33"/><line class="cls-3" x1="295.32" y1="321.73" x2="300.09" y2="321.73"/><line class="cls-7" x1="301.17" y1="317.47" x2="301.17" y2="321.05"/><line class="cls-7" x1="354.44" y1="312.58" x2="360.34" y2="312.58"/><line class="cls-7" x1="356.45" y1="324.7" x2="361.22" y2="324.7"/><line class="cls-3" x1="347.14" y1="315.63" x2="349.83" y2="315.63"/><line class="cls-3" x1="365.68" y1="318.71" x2="365.68" y2="323.94"/><line class="cls-3" x1="367.69" y1="314.45" x2="367.69" y2="317.58"/><line class="cls-3" x1="375.79" y1="314.45" x2="375.79" y2="317.58"/><line class="cls-3" x1="368.92" y1="313.83" x2="372.75" y2="313.83"/><path class="cls-3" d="M919.84,547.26l1.26.71,1.2.64" transform="translate(-534.03 -240.27)"/><line class="cls-3" x1="475.45" y1="307.82" x2="478.12" y2="306.3"/><line class="cls-3" x1="476.27" y1="296.48" x2="476.27" y2="299.73"/><line class="cls-3" x1="486.14" y1="316.53" x2="489.12" y2="316.53"/><line class="cls-3" x1="490.48" y1="316.53" x2="494.32" y2="316.53"/><line class="cls-3" x1="489.95" y1="321.8" x2="493.18" y2="321.8"/><line class="cls-3" x1="476.47" y1="321.8" x2="479.68" y2="321.8"/><line class="cls-3" x1="458.12" y1="321.8" x2="461.28" y2="321.8"/><line class="cls-3" x1="369.1" y1="325.72" x2="372.3" y2="325.72"/><line class="cls-3" x1="378.49" y1="337.4" x2="381.64" y2="337.4"/><line class="cls-3" x1="373.72" y1="341.28" x2="376.84" y2="341.28"/><line class="cls-3" x1="363.1" y1="341.28" x2="366.34" y2="341.28"/><line class="cls-7" x1="501" y1="309.77" x2="501" y2="314.53"/><line class="cls-7" x1="495.96" y1="260.3" x2="495.96" y2="265.83"/><line class="cls-3" x1="526.9" y1="266.23" x2="525.95" y2="271.61"/><line class="cls-3" x1="527.42" y1="252.88" x2="527.42" y2="255.33"/><line class="cls-3" x1="512.1" y1="250.94" x2="511.41" y2="253.31"/><line class="cls-3" x1="533.57" y1="252.88" x2="533.57" y2="255.33"/><line class="cls-3" x1="528.68" y1="249.63" x2="531.53" y2="249.63"/><line class="cls-3" x1="527.42" y1="245.4" x2="527.42" y2="248.45"/><line class="cls-3" x1="509.37" y1="246.5" x2="509.37" y2="248.68"/><line class="cls-3" x1="539.25" y1="244.33" x2="541.48" y2="244.33"/><line class="cls-3" x1="547.72" y1="249.63" x2="550.07" y2="249.63"/><line class="cls-3" x1="555.07" y1="249.63" x2="557.42" y2="249.63"/><line class="cls-3" x1="554.59" y1="244.33" x2="556.94" y2="244.33"/><line class="cls-3" x1="567.02" y1="244.33" x2="569.37" y2="244.33"/><line class="cls-3" x1="571.87" y1="244.33" x2="574.22" y2="244.33"/><line class="cls-3" x1="567.82" y1="249.63" x2="570.17" y2="249.63"/><line class="cls-3" x1="583.77" y1="249.63" x2="586.12" y2="249.63"/><line class="cls-3" x1="545.02" y1="232.79" x2="545.02" y2="230.62"/><line class="cls-3" x1="601.29" y1="229.67" x2="601.29" y2="227.43"/><line class="cls-3" x1="595.22" y1="248.99" x2="595.22" y2="246.72"/><line class="cls-3" x1="605.38" y1="240.51" x2="607.63" y2="240.51"/><line class="cls-3" x1="595.22" y1="251.32" x2="595.22" y2="256.38"/><line class="cls-3" x1="568.03" y1="267.6" x2="570.18" y2="267.6"/><line class="cls-3" x1="541.25" y1="276.92" x2="542.25" y2="272.13"/><line class="cls-3" x1="541.19" y1="281.03" x2="541.19" y2="285.96"/><line class="cls-3" x1="528.18" y1="289.71" x2="530.83" y2="289.71"/><line class="cls-3" x1="547.88" y1="299.11" x2="550.07" y2="299.11"/><line class="cls-3" x1="546.43" y1="296.1" x2="546.43" y2="293.67"/><line class="cls-3" x1="546.43" y1="290.52" x2="546.43" y2="288.08"/><line class="cls-3" x1="558.52" y1="290.25" x2="564.1" y2="291.35"/><line class="cls-3" x1="584.27" y1="280.33" x2="586.55" y2="280.33"/><line class="cls-3" x1="584.27" y1="267.6" x2="586.55" y2="267.6"/><line class="cls-3" x1="586.9" y1="268.13" x2="586.9" y2="271.75"/><line class="cls-3" x1="591.43" y1="280.33" x2="594.18" y2="280.33"/><line class="cls-3" x1="597.67" y1="280.33" x2="600.42" y2="280.33"/><line class="cls-3" x1="605.19" y1="280.33" x2="607.48" y2="280.33"/><line class="cls-3" x1="605.19" y1="267.6" x2="607.48" y2="267.6"/><line class="cls-3" x1="618.13" y1="271.97" x2="621.05" y2="271.97"/><line class="cls-3" x1="623.17" y1="271.97" x2="626.08" y2="271.97"/><line class="cls-3" x1="617.53" y1="268.65" x2="617.53" y2="271.18"/><line class="cls-3" x1="617.53" y1="258.22" x2="617.53" y2="260.76"/><line class="cls-3" x1="622.1" y1="257.27" x2="625.33" y2="257.27"/><line class="cls-3" x1="619.9" y1="244.5" x2="619.9" y2="247.11"/><line class="cls-3" x1="622.53" y1="242.28" x2="625.08" y2="242.28"/><line class="cls-3" x1="628.42" y1="250.17" x2="630.97" y2="250.17"/><line class="cls-3" x1="631.15" y1="242.28" x2="633.7" y2="242.28"/><line class="cls-3" x1="640.81" y1="242.28" x2="643.36" y2="242.28"/><line class="cls-3" x1="640.81" y1="250.17" x2="643.36" y2="250.17"/><line class="cls-3" x1="659.23" y1="242.28" x2="661.78" y2="242.28"/><line class="cls-3" x1="651.12" y1="238.23" x2="651.12" y2="240.58"/><line class="cls-3" x1="638.37" y1="225.87" x2="638.37" y2="228.22"/><line class="cls-3" x1="648.26" y1="259" x2="650.81" y2="259"/><line class="cls-3" x1="657.56" y1="259" x2="660.11" y2="259"/><line class="cls-3" x1="652.04" y1="272.83" x2="652.04" y2="277.2"/><line class="cls-3" x1="646.35" y1="278.03" x2="649.55" y2="278.03"/><line class="cls-3" x1="660.88" y1="289.98" x2="663.6" y2="289.98"/><line class="cls-3" x1="613.6" y1="281.15" x2="613.6" y2="286.2"/><line class="cls-3" x1="608.12" y1="295.32" x2="609.18" y2="289.74"/><line class="cls-7" x1="384.22" y1="136.91" x2="386.03" y2="153.51"/><line class="cls-3" x1="406.47" y1="132.4" x2="427" y2="132.4"/><line class="cls-3" x1="458.4" y1="139.2" x2="463.2" y2="139.2"/><line class="cls-3" x1="485.83" y1="149.43" x2="489.12" y2="149.43"/><line class="cls-3" x1="480.04" y1="138.68" x2="480.04" y2="141.88"/><line class="cls-3" x1="485.83" y1="137.36" x2="489.12" y2="137.36"/><line class="cls-3" x1="471.47" y1="150.73" x2="471.47" y2="153.91"/><line class="cls-7" x1="480.77" y1="180.17" x2="488.13" y2="180.17"/><line class="cls-3" x1="515.43" y1="189.26" x2="515.43" y2="192.76"/><line class="cls-3" x1="521.9" y1="180.03" x2="521.9" y2="183.38"/><line class="cls-3" x1="521.9" y1="156.73" x2="521.9" y2="160.08"/><line class="cls-3" x1="521.9" y1="151.36" x2="521.9" y2="154.71"/><path class="cls-7" d="M1190.29,356a5.47,5.47,0,0,0,10.73,0" transform="translate(-534.03 -240.27)"/><line class="cls-3" x1="630.83" y1="100.93" x2="641.43" y2="100.93"/><line class="cls-3" x1="622.51" y1="100.93" x2="618.65" y2="100.93"/><line class="cls-3" x1="602.81" y1="100.93" x2="598.95" y2="100.93"/><line class="cls-3" x1="596.97" y1="100.93" x2="593.11" y2="100.93"/><line class="cls-3" x1="577.27" y1="100.93" x2="573.41" y2="100.93"/><line class="cls-3" x1="565.5" y1="94.26" x2="565.5" y2="100.11"/><line class="cls-3" x1="555.2" y1="94.26" x2="553.68" y2="100.11"/><line class="cls-3" x1="565.5" y1="87.33" x2="565.5" y2="91.28"/><line class="cls-3" x1="565.5" y1="81.21" x2="565.5" y2="84.48"/><line class="cls-3" x1="565.5" y1="75.66" x2="565.5" y2="78.93"/><line class="cls-3" x1="565.5" y1="71.63" x2="565.5" y2="74.9"/><line class="cls-3" x1="565.5" y1="68.26" x2="565.5" y2="70.71"/><line class="cls-3" x1="565.5" y1="64.01" x2="565.5" y2="67.28"/><line class="cls-3" x1="565.5" y1="56.48" x2="565.5" y2="59.76"/><line class="cls-3" x1="561.65" y1="43.3" x2="565.02" y2="43.3"/><line class="cls-3" x1="568.45" y1="37.48" x2="571.6" y2="37.48"/><line class="cls-3" x1="567.22" y1="31.77" x2="567.22" y2="35.16"/><line class="cls-3" x1="572.09" y1="35.16" x2="572.09" y2="31.77"/><line class="cls-3" x1="572.09" y1="30.73" x2="572.09" y2="27.34"/><line class="cls-3" x1="587.87" y1="23.48" x2="587.87" y2="20.09"/><line class="cls-3" x1="623.42" y1="61.96" x2="623.42" y2="65.46"/><line class="cls-3" x1="683.25" y1="37.48" x2="686.37" y2="37.48"/><line class="cls-3" x1="687.32" y1="37.48" x2="690.43" y2="37.48"/><line class="cls-3" x1="721.9" y1="37.48" x2="728.47" y2="37.48"/><line class="cls-3" x1="706.77" y1="38.03" x2="706.77" y2="43.43"/><line class="cls-3" x1="706.77" y1="46.6" x2="706.77" y2="50.63"/><line class="cls-3" x1="714.63" y1="55.57" x2="717.8" y2="55.57"/><line class="cls-3" x1="706.77" y1="57.17" x2="706.77" y2="60.33"/><line class="cls-3" x1="706.77" y1="63.9" x2="706.77" y2="67.18"/><line class="cls-3" x1="706.77" y1="67.84" x2="706.77" y2="70.98"/><line class="cls-3" x1="706.77" y1="72.28" x2="706.77" y2="75.55"/><line class="cls-3" x1="706.77" y1="76.58" x2="706.77" y2="79.86"/><line class="cls-3" x1="695.52" y1="60.33" x2="699.09" y2="60.33"/><line class="cls-3" x1="673.5" y1="65.75" x2="673.5" y2="71.57"/><line class="cls-3" x1="700.23" y1="90.22" x2="700.23" y2="93.28"/><line class="cls-3" x1="687.02" y1="94.36" x2="687.02" y2="97.88"/><line class="cls-3" x1="689.57" y1="99.97" x2="693.04" y2="99.97"/><line class="cls-3" x1="687.02" y1="113.31" x2="687.02" y2="116.63"/><line class="cls-3" x1="721.57" y1="60.93" x2="721.57" y2="63.9"/><line class="cls-3" x1="714.17" y1="64.6" x2="717.17" y2="64.6"/><line class="cls-7" x1="720.23" y1="189.61" x2="720.23" y2="198.33"/><line class="cls-3" x1="729.28" y1="209.23" x2="732.57" y2="209.23"/><line class="cls-3" x1="739.8" y1="235.98" x2="739.8" y2="238.86"/><line class="cls-3" x1="736.34" y1="208.13" x2="739.29" y2="208.13"/><line class="cls-3" x1="763.85" y1="225.41" x2="769.26" y2="223.43"/><line class="cls-3" x1="774.44" y1="232.78" x2="777.55" y2="231.63"/><line class="cls-3" x1="779.1" y1="200.81" x2="779.1" y2="204.06"/><line class="cls-3" x1="783.17" y1="192.86" x2="783.17" y2="196.3"/><line class="cls-3" x1="783.17" y1="179.57" x2="783.17" y2="183.02"/><line class="cls-3" x1="778.98" y1="171.71" x2="778.98" y2="175.03"/><line class="cls-3" x1="774.48" y1="142.83" x2="777.57" y2="143.97"/><line class="cls-3" x1="764.28" y1="150.3" x2="769.56" y2="152.22"/><line class="cls-3" x1="753.57" y1="126.08" x2="757.27" y2="126.08"/><line class="cls-3" x1="746.49" y1="126.08" x2="750.19" y2="126.08"/><line class="cls-3" x1="757.9" y1="126.88" x2="757.9" y2="130.11"/><line class="cls-3" x1="725.47" y1="137.14" x2="728.77" y2="137.14"/><line class="cls-3" x1="731.84" y1="137.14" x2="735.14" y2="137.14"/><line class="cls-3" x1="719" y1="141.52" x2="719.58" y2="138.31"/><line class="cls-3" x1="756.79" y1="147.18" x2="756.79" y2="151.12"/><line class="cls-3" x1="714.16" y1="157.85" x2="717.18" y2="158.42"/><line class="cls-3" x1="719.47" y1="158.86" x2="722.49" y2="159.43"/><line class="cls-3" x1="732.87" y1="161.4" x2="739.47" y2="162.66"/><line class="cls-3" x1="740.57" y1="173.4" x2="740.57" y2="181.07"/><line class="cls-3" x1="412.32" y1="157.72" x2="415.61" y2="156.81"/><line class="cls-3" x1="410.14" y1="159.33" x2="411.57" y2="164.48"/><line class="cls-3" x1="384.84" y1="160.1" x2="385.8" y2="163.22"/><line class="cls-6" x1="107.77" y1="267.13" x2="107.77" y2="247.33"/><line class="cls-6" x1="97.33" y1="227.6" x2="114.47" y2="227.6"/><line class="cls-4" x1="141.43" y1="135.47" x2="148.87" y2="135.47"/><line class="cls-3" x1="276.07" y1="222.08" x2="276.07" y2="224.82"/><line class="cls-4" x1="174.4" y1="287.43" x2="178.32" y2="287.43"/><line class="cls-4" x1="178.32" y1="287.43" x2="180.2" y2="289.12"/><line class="cls-4" x1="180.2" y1="289.12" x2="182.92" y2="289.12"/><line class="cls-6" x1="182.92" y1="332.08" x2="182.92" y2="276.6"/><line class="cls-4" x1="264.12" y1="130.63" x2="264.12" y2="127.93"/><line class="cls-4" x1="140.44" y1="260.23" x2="130.82" y2="260.36"/><line class="cls-4" x1="130.6" y1="257.78" x2="123.87" y2="257.78"/><line class="cls-4" x1="130.82" y1="260.36" x2="130.6" y2="257.78"/><line class="cls-4" x1="191.1" y1="339.31" x2="178.33" y2="339.31"/><line class="cls-4" x1="428.66" y1="319.09" x2="428.99" y2="319.1"/><line class="cls-4" x1="434.89" y1="319.06" x2="434.32" y2="319.08"/><line class="cls-4" x1="434.26" y1="315.52" x2="428.99" y2="315.52"/><line class="cls-3" x1="429.69" y1="315.52" x2="433" y2="315.52"/><line class="cls-3" x1="258.29" y1="152.07" x2="260.84" y2="152.07"/><line class="cls-4" x1="572.09" y1="31.2" x2="582.23" y2="31.2"/><line class="cls-3" x1="593.26" y1="37.48" x2="597.09" y2="37.48"/><line class="cls-3" x1="649.32" y1="25.43" x2="649.32" y2="21.71"/><line class="cls-3" x1="586.47" y1="66.6" x2="586.47" y2="70.77"/><line class="cls-3" x1="572.07" y1="70.77" x2="572.07" y2="66.6"/></svg>