<svg id="Layer_3" data-name="Layer 3" xmlns="http://www.w3.org/2000/svg" viewBox="0 0 818.74 470.43"><defs><style>.cls-1{fill:#fff;}.cls-2{fill:#999;stroke:#999;}.cls-2,.cls-3,.cls-5{stroke-linecap:round;}.cls-2,.cls-4{stroke-linejoin:round;}.cls-2,.cls-3,.cls-4{stroke-width:0.5px;}.cls-3,.cls-4,.cls-5{fill:none;}.cls-3{stroke:#666;}.cls-3,.cls-5{stroke-miterlimit:10;}.cls-4{stroke:#3fa9f5;}.cls-5{stroke:#000;}</style></defs><title>Stratford F3</title><polygon class="cls-1" points="733.55 257.95 733.55 252.28 712.62 252.28 712.62 124.02 733.22 124.02 733.22 117.65 778.32 117.65 778.32 124.02 811.18 124.02 811.18 127.45 817.98 127.45 817.99 248.81 810.67 248.82 810.67 252.28 778.85 252.28 778.85 257.95 733.55 257.95"/><path class="cls-1" d="M1267.5,358.17h44.6v6.36H1345V368h6.8V488.83h-7.32v3.47h-31.82V498h-44.8V492.3H1246.9V364.53h20.6v-6.36m-.5-.5V364h-20.6V492.8h20.93v5.67h45.8V492.8H1345v-3.47h7.32V367.47h-6.8V364H1312.6v-6.36Z" transform="translate(-534.03 -240.27)"/><path class="cls-1" d="M705.05,584.35H671.92v-78.7l-16.74,1.5H642.05v-19.8H628.47l-19.85-3v4.52H534.78V474.12h1.9v-10h-1.9V452.07a2.51,2.51,0,0,1,.58-1.64,2.44,2.44,0,0,1,1.55-.83h40.64v-12h-5V414.92H576V401.45h-3.4V290.85h3.52V276.58h-2.62V254.82h36.24V252.2H630.9V256h36.45v-3.37h22.13V256h51l.08-.13s2.5-4.2,7.29-4.2a8.48,8.48,0,0,1,7.42,4.42l.47.86v-4.53H779v3h36.2l.12,26.63H813V408h24.59v26.37H829.2v33.1h.85v31.49l-64.67-3.26-36-3.92v24.86H716.7v56h14.65v-7.55h17.2v-32h95.8v2.15l169.23-.08V432.68l-46.26-17.55-49.6,30.1a142.63,142.63,0,0,1-19.54-73.18h19.71v-.26a109.11,109.11,0,0,1,2.28-25.91l80.06,12.87v6.9h90.23V488h109.77v57.28H1060.05v-6.68h-2.35V534.7h-22.92v21.85h-5.23v6.07H843.27v2.57a9.93,9.93,0,0,0-2.78.89c-3.65,1.77-5,5.18-6.39,8.79-1.2,3.06-2.43,6.22-5.2,8.53a15.26,15.26,0,0,1-9.31,3.15H705.05ZM631.12,465.92h11.6v-7.67h6.4V434.48h-17v4.6h-23v10.44h10.5v14.56h11.5Z" transform="translate(-534.03 -240.27)"/><path class="cls-1" d="M747.81,251.45l0,.5a8.2,8.2,0,0,1,7.16,4.29L756,258V252.7h22.8v3H815l.06,13,0,13.09h-2.28v126.4h24.59V434.1H829v33.6h.85v31l-32.36-1.62-32-1.61-16.83-1.84-18.89-2.06-.55-.06v24.89h-12.7v56.48H731.6V565.3h17.2v-32h95.3v2.15h.5l168.73-.08h.5V432.51l-.32-.12L981.39,420.2l-13.86-5.26-.23-.09-.21.13-49.28,29.9a142.5,142.5,0,0,1-19.38-72.58h19.72l0-.52a108.57,108.57,0,0,1,2.23-25.61l39.78,6.39L1000,359v6.94h90.23V488.2H1200V545H1060.3V538.3H1058v-3.85h-23.42V556.3h-5.23v6.07H843V565a10.43,10.43,0,0,0-2.65.87c-3.74,1.82-5.09,5.27-6.51,8.93-1.19,3-2.41,6.16-5.13,8.43a15,15,0,0,1-9.14,3.09H705.3v-2.2H672.17V505.38l-.54.05L655.2,506.9H642.3V487.62l.44-14.63.23-7.32V458.5h6.4V434.23H631.9v4.6h-23v10.94h10.5v14.56h11.5v1.84H642l-.21,6.79-.43,14.14H628.5l-9.76-1.47-9.8-1.47-.57-.09v4.56H535V474.37h1.9V463.9H535V452.05a2.28,2.28,0,0,1,.52-1.46,2.23,2.23,0,0,1,1.37-.74H577.8v-12.5h-5V415.17h3.4v-14h-3.4V291.1h3.52V276.33h-2.62V255.07H610v-2.62h20.68v3.82h37V252.9h21.63v3.38h51.36l.14-.25s2.44-4.08,7.08-4.08v-.5m8.14.75h0M572.83,414.67h0m176,118.13h0m-1-281.35a9.22,9.22,0,0,0-7.51,4.33H689.73V252.4H667.1v3.37h-36V252H609.47v2.62H573.23v22.26h2.62V290.6h-3.52V401.7h3.4v13h-3.4v23.18h5v11.5H536.88a2.74,2.74,0,0,0-1.71.91,2.79,2.79,0,0,0-.64,1.81V464.4h1.9v9.47h-1.9v15.26h74.34v-4.48l19.6,3H641.8q.33-11,.67-21.93h-11.1v-1.84h-11.5V449.27h-10.5v-9.94h23v-4.6h16.47V458h-6.4v7.67q-.35,11-.67,21.93v19.8h13.4l16.47-1.47V584.6H704.8v2.2H819.6c5-.23,7.87-1.89,9.46-3.21,6.06-5,4.88-14,11.54-17.29a10,10,0,0,1,2.93-.9v-2.53H1029.8V556.8H1035V535h22.42v3.85h2.35v6.68h140.67V487.7H1090.7V365.4h-90.23v-6.87L920,345.6a108.7,108.7,0,0,0-2.34,26.2h-19.7a143,143,0,0,0,19.7,73.77l49.72-30.17,46,17.45v102L844.6,535V532.8H748.3v32H731.1v7.55H717V516.87h12.7V492l35.72,3.9,64.93,3.27v-32h-.85V434.6h8.42V407.73H813.28V282.33h2.29l-.12-27.13h-36.2v-3h-23.8V256a8.71,8.71,0,0,0-7.6-4.55ZM642.47,465.67Z" transform="translate(-534.03 -240.27)"/><path class="cls-2" d="M702.4,498.4l-2.6.8v7.13h2.6Z" transform="translate(-534.03 -240.27)"/><rect class="cls-2" x="534.17" y="352.53" width="62.68" height="46.8"/><rect class="cls-2" x="424.77" y="384.73" width="42.6" height="85.2"/><path class="cls-2" d="M1059.8,538.8h-2.35V535H1035V556.8h-5.23v6.07H843.53v2.53a10.08,10.08,0,0,0-8.09,6.81c-.22.57-.54,1.39-1,2.37-1.66,3.73-3.07,6.9-5.4,9-.95.86-3.83,3.16-9.46,3.21H731.1v-22h17.2v-32h96.3V535l168.73-.08v-102l-46-17.45-49.72,30.17a143,143,0,0,1-19.7-73.77h19.7A108.7,108.7,0,0,1,920,345.6l80.5,12.93v6.87h90.23V487.7h109.77v57.78H1059.8v-2.13h138.45V489.73H1059.8Z" transform="translate(-534.03 -240.27)"/><line class="cls-3" x1="664.22" y1="303.08" x2="525.77" y2="303.08"/><path class="cls-2" d="M1235.33,360.47H1106.1V341.2h-31.7q13.1-50.22,26.2-100.43a401.17,401.17,0,0,0,45.61,13.11c37.24,8.34,67.34,9.43,85.12,10,13.15.41,24.17.26,32.07,0v78.57h-28.07Z" transform="translate(-534.03 -240.27)"/><rect class="cls-2" x="539.75" y="276.5" width="1.07" height="3.07"/><rect class="cls-2" x="601.37" y="267.05" width="2.62" height="5.06"/><path class="cls-2" d="M726.84,514.6l2.81-.3v2.57h-23.8Z" transform="translate(-534.03 -240.27)"/><path class="cls-2" d="M830.3,499.2l-65.49-3.33L729.65,492V487.6H628.47l-19.6-3v4.48H534.53V473.87h1.9V464.4h-1.9V452.07a2.79,2.79,0,0,1,.64-1.81,2.74,2.74,0,0,1,1.71-.91H577.3v-11.5h8.5V418.4h11.13v-3.73h-21.2v-13h-3.4V290.6h3.52V276.83h-2.62V254.57h36.24V252h21.68v3.82h36V252.4h22.63v3.38H740.3a9.24,9.24,0,0,1,7.55-4.33,8.71,8.71,0,0,1,7.6,4.55v-3.8h23.8q.13,68.55.28,137.1H754.3v11.1H716.5v-8.25h-5.17v8.25h-7V386.3h-12.2v14.1H629.5V381.77H617V400.4h-.77V408h-6.86v41.24h10.5v14.56h11.5v1.84h11.1V458h6.4V434.73H779.53q-.13-89.76-.28-179.53h36.2l.12,27.13h-2.29v125.4h24.59V434.6h-8.42v32.6h.85Z" transform="translate(-534.03 -240.27)"/><path class="cls-2" d="M658.33,507.12l13.34-1.19h20.86v-3.7l-15.9.65v-9.45h-11.1a1.26,1.26,0,0,0-1.3,1.24c0,1.37-.09,2.75-.13,4.13l-4.74.24c-.05-1.2-.11-2.41-.16-3.61h-1.4Z" transform="translate(-534.03 -240.27)"/><path class="cls-2" d="M1246.4,428.62h-6.2a4.87,4.87,0,0,1-4.67-4.95V400.8a4.1,4.1,0,0,1,1.39-3.32,4,4,0,0,1,3.25-.81l6.23,1.09Z" transform="translate(-534.03 -240.27)"/><path class="cls-2" d="M1345,492.8h-31.82v5.67h-14.66V479h3.46v-6h-3.38V471h-1.8v-4.86l8.7-3.19v-65.1l-14.52-5.3h-.78V386.1h8.45v-2.4h2.82v-5.45h-2.82v-3.32h-6.2v-5.16h6.2v-12.1h14V364h32.87v3.44h6.8V489.33H1345Z" transform="translate(-534.03 -240.27)"/><rect class="cls-2" x="168.37" y="276.6" width="14.55" height="54.03"/><rect class="cls-2" x="602.44" y="272.11" width="1.55" height="7.23"/><line class="cls-3" x1="525.77" y1="286.23" x2="525.77" y2="298.53"/><path class="cls-3" d="M1059.8,526.5" transform="translate(-534.03 -240.27)"/><path class="cls-3" d="M1057.45,526.5" transform="translate(-534.03 -240.27)"/><path class="cls-3" d="M1057.45,520.33" transform="translate(-534.03 -240.27)"/><path class="cls-3" d="M1059.8,520.33" transform="translate(-534.03 -240.27)"/><line class="cls-3" x1="525.77" y1="286.23" x2="525.77" y2="249.47"/><line class="cls-3" x1="525.77" y1="249.47" x2="664.22" y2="249.47"/><line class="cls-3" x1="664.22" y1="249.47" x2="664.22" y2="303.08"/><path class="cls-3" d="M1059.8,511.5" transform="translate(-534.03 -240.27)"/><line class="cls-3" x1="540.82" y1="279.57" x2="529.9" y2="279.57"/><line class="cls-3" x1="529.9" y1="279.57" x2="525.77" y2="279.57"/><path class="cls-3" d="M1075.07,519.83" transform="translate(-534.03 -240.27)"/><line class="cls-3" x1="582.57" y1="279.33" x2="603.99" y2="279.33"/><line class="cls-3" x1="586.3" y1="272.11" x2="602.44" y2="272.11"/><line class="cls-3" x1="594.54" y1="272.11" x2="594.54" y2="279.33"/><line class="cls-3" x1="602.44" y1="272.11" x2="602.44" y2="279.33"/><line class="cls-3" x1="644.82" y1="279.7" x2="664.22" y2="279.7"/><line class="cls-3" x1="650.77" y1="279.7" x2="650.77" y2="286.23"/><line class="cls-3" x1="649.87" y1="286.23" x2="653.73" y2="286.23"/><line class="cls-3" x1="653.73" y1="286.23" x2="653.73" y2="303.08"/><line class="cls-3" x1="649.87" y1="286.23" x2="649.87" y2="289.9"/><line class="cls-3" x1="649.87" y1="289.9" x2="541.03" y2="289.9"/><line class="cls-3" x1="541.03" y1="286.23" x2="541.03" y2="289.9"/><line class="cls-3" x1="536.09" y1="286.23" x2="541.03" y2="286.23"/><line class="cls-3" x1="536.09" y1="286.23" x2="536.09" y2="303.08"/><line class="cls-3" x1="539.29" y1="279.57" x2="539.29" y2="286.23"/><path class="cls-3" d="M1115.75,525.67" transform="translate(-534.03 -240.27)"/><path class="cls-3" d="M1115.75,515.83" transform="translate(-534.03 -240.27)"/><path class="cls-4" d="M1057.45,525.67" transform="translate(-534.03 -240.27)"/><path class="cls-4" d="M1057.45,520.77" transform="translate(-534.03 -240.27)"/><line class="cls-4" x1="539.29" y1="280.51" x2="539.29" y2="285.41"/><line class="cls-4" x1="541.03" y1="286.81" x2="541.03" y2="289.51"/><line class="cls-4" x1="548.89" y1="289.9" x2="551.69" y2="289.9"/><line class="cls-4" x1="554.04" y1="289.9" x2="556.84" y2="289.9"/><line class="cls-4" x1="565.73" y1="289.9" x2="568.6" y2="289.9"/><line class="cls-4" x1="570.88" y1="289.9" x2="573.7" y2="289.9"/><line class="cls-4" x1="590.04" y1="279.33" x2="592.84" y2="279.33"/><line class="cls-4" x1="596.27" y1="279.33" x2="599.07" y2="279.33"/><line class="cls-4" x1="582.57" y1="289.9" x2="585.37" y2="289.9"/><line class="cls-4" x1="587.72" y1="289.9" x2="590.54" y2="289.9"/><line class="cls-4" x1="599.37" y1="289.9" x2="602.19" y2="289.9"/><line class="cls-4" x1="604.54" y1="289.9" x2="607.42" y2="289.9"/><line class="cls-4" x1="616.23" y1="289.9" x2="619.07" y2="289.9"/><line class="cls-4" x1="621.38" y1="289.9" x2="624.18" y2="289.9"/><line class="cls-4" x1="632.97" y1="289.9" x2="635.82" y2="289.9"/><line class="cls-4" x1="638.15" y1="289.9" x2="640.93" y2="289.9"/><line class="cls-3" x1="636.97" y1="289.9" x2="636.97" y2="303.08"/><line class="cls-3" x1="544.39" y1="289.9" x2="544.39" y2="303.08"/><line class="cls-3" x1="552.84" y1="289.9" x2="552.84" y2="303.08"/><line class="cls-3" x1="561.27" y1="289.9" x2="561.27" y2="303.08"/><line class="cls-3" x1="569.72" y1="289.9" x2="569.72" y2="303.08"/><line class="cls-3" x1="578.14" y1="285.06" x2="578.14" y2="303.08"/><line class="cls-3" x1="586.54" y1="289.9" x2="586.54" y2="303.08"/><line class="cls-3" x1="594.93" y1="289.9" x2="594.93" y2="303.08"/><line class="cls-3" x1="603.37" y1="289.9" x2="603.37" y2="303.08"/><line class="cls-3" x1="611.79" y1="289.9" x2="611.79" y2="303.08"/><line class="cls-3" x1="620.24" y1="289.9" x2="620.24" y2="303.08"/><line class="cls-3" x1="628.59" y1="289.9" x2="628.59" y2="303.08"/><line class="cls-3" x1="644.97" y1="289.9" x2="644.97" y2="303.08"/><line class="cls-4" x1="649.87" y1="289.53" x2="649.87" y2="286.72"/><line class="cls-4" x1="650.77" y1="285.37" x2="650.77" y2="280.45"/><path class="cls-2" d="M1305.45,463l-8.7,3.19V471h-21.6V459a9.38,9.38,0,0,0,1.77,1.84,10.3,10.3,0,0,0,5.81,2.11,9.73,9.73,0,1,0-7.58-15.58V395l6.78-2.47h9l14.52,5.3Z" transform="translate(-534.03 -240.27)"/><line class="cls-3" x1="137.64" y1="330.63" x2="182.92" y2="330.63"/><line class="cls-3" x1="168.37" y1="344.33" x2="168.37" y2="276.6"/><line class="cls-3" x1="182.92" y1="276.6" x2="137.64" y2="276.6"/><line class="cls-3" x1="107.77" y1="247.33" x2="195.62" y2="247.33"/><line class="cls-3" x1="195.62" y1="247.33" x2="195.62" y2="251.77"/><line class="cls-3" x1="168.9" y1="276.6" x2="168.9" y2="266.07"/><line class="cls-3" x1="168.9" y1="266.07" x2="165.77" y2="266.07"/><line class="cls-3" x1="168.37" y1="247.33" x2="168.37" y2="266.07"/><line class="cls-3" x1="168.37" y1="258.13" x2="165.77" y2="258.82"/><line class="cls-3" x1="165.77" y1="266.07" x2="165.77" y2="258.82"/><line class="cls-3" x1="123.77" y1="255.17" x2="124.3" y2="266.85"/><line class="cls-3" x1="123.77" y1="255.17" x2="107.77" y2="255.17"/><line class="cls-3" x1="114.97" y1="255.17" x2="114.97" y2="251.47"/><line class="cls-3" x1="114.97" y1="251.47" x2="118.93" y2="251.47"/><line class="cls-3" x1="118.93" y1="251.47" x2="118.93" y2="247.33"/><line class="cls-3" x1="123.77" y1="255.17" x2="125.17" y2="255.17"/><line class="cls-3" x1="125.17" y1="255.17" x2="125.33" y2="258.77"/><line class="cls-3" x1="130.07" y1="258.53" x2="130.2" y2="254.4"/><line class="cls-3" x1="131.49" y1="253.17" x2="142.6" y2="253.17"/><path class="cls-3" d="M664.23,494.67a1.28,1.28,0,0,1,.44-.94,1.33,1.33,0,0,1,.86-.3" transform="translate(-534.03 -240.27)"/><line class="cls-3" x1="142.6" y1="253.17" x2="142.6" y2="262.61"/><line class="cls-3" x1="137.64" y1="265.66" x2="158.49" y2="265.66"/><line class="cls-3" x1="158.49" y1="276.6" x2="158.49" y2="261.96"/><line class="cls-3" x1="158.49" y1="261.96" x2="142.6" y2="262.61"/><line class="cls-3" x1="147.52" y1="265.66" x2="147.52" y2="276.6"/><line class="cls-3" x1="158.49" y1="264.86" x2="165.77" y2="264.86"/><line class="cls-3" x1="171.82" y1="276.6" x2="195.62" y2="274.03"/><line class="cls-3" x1="182.92" y1="275.4" x2="182.92" y2="257.1"/><line class="cls-3" x1="168.37" y1="258.13" x2="195.62" y2="256.07"/><line class="cls-3" x1="160.28" y1="330.63" x2="160.28" y2="344.33"/><line class="cls-3" x1="47.7" y1="178.13" x2="62.9" y2="178.13"/><line class="cls-3" x1="41.7" y1="174.4" x2="62.9" y2="174.4"/><line class="cls-3" x1="47.7" y1="174.4" x2="47.7" y2="178.13"/><line class="cls-3" x1="43.27" y1="197.58" x2="51.77" y2="197.58"/><line class="cls-3" x1="51.77" y1="197.58" x2="51.77" y2="178.13"/><line class="cls-3" x1="75.33" y1="199.07" x2="75.33" y2="167.77"/><line class="cls-3" x1="114.83" y1="194.47" x2="245.5" y2="194.47"/><line class="cls-3" x1="220.27" y1="160.13" x2="220.27" y2="149.03"/><line class="cls-3" x1="220.27" y1="149.03" x2="245.5" y2="149.03"/><line class="cls-3" x1="82.2" y1="160.13" x2="245.5" y2="160.13"/><line class="cls-3" x1="245.5" y1="149.03" x2="245.5" y2="194.47"/><line class="cls-3" x1="75.33" y1="167.77" x2="82.2" y2="167.77"/><line class="cls-3" x1="82.2" y1="167.77" x2="82.2" y2="160.13"/><line class="cls-3" x1="82.97" y1="160.13" x2="82.97" y2="141.5"/><line class="cls-3" x1="82.97" y1="141.5" x2="95.47" y2="141.5"/><line class="cls-3" x1="95.47" y1="141.5" x2="95.47" y2="160.13"/><line class="cls-3" x1="87.53" y1="160.13" x2="87.53" y2="167.77"/><line class="cls-3" x1="86.43" y1="167.77" x2="245.5" y2="167.77"/><line class="cls-3" x1="98.37" y1="194.47" x2="98.37" y2="167.77"/><line class="cls-3" x1="126.77" y1="167.77" x2="126.77" y2="194.47"/><line class="cls-3" x1="154.77" y1="167.77" x2="154.77" y2="194.47"/><line class="cls-3" x1="177.5" y1="167.77" x2="177.5" y2="194.47"/><line class="cls-3" x1="200.63" y1="167.77" x2="200.63" y2="194.47"/><line class="cls-3" x1="223.7" y1="167.77" x2="223.7" y2="194.47"/><line class="cls-3" x1="177.29" y1="160.13" x2="177.29" y2="151.88"/><line class="cls-3" x1="177.29" y1="151.88" x2="182.47" y2="151.88"/><line class="cls-3" x1="182.47" y1="151.88" x2="182.47" y2="160.13"/><line class="cls-4" x1="178.45" y1="160.13" x2="181.9" y2="160.13"/><line class="cls-3" x1="170.33" y1="160.13" x2="170.33" y2="146.03"/><line class="cls-3" x1="158.13" y1="160.13" x2="158.13" y2="146.03"/><line class="cls-3" x1="158.13" y1="146.03" x2="170.33" y2="146.03"/><line class="cls-3" x1="540.82" y1="279.57" x2="540.82" y2="276.5"/><line class="cls-3" x1="545.4" y1="276.5" x2="539.75" y2="276.5"/><line class="cls-3" x1="539.75" y1="276.5" x2="539.75" y2="279.57"/><line class="cls-3" x1="539.98" y1="276.5" x2="539.98" y2="271.33"/><line class="cls-3" x1="539.98" y1="271.33" x2="525.77" y2="271.33"/><line class="cls-3" x1="536.37" y1="271.33" x2="536.37" y2="258.53"/><line class="cls-3" x1="536.37" y1="258.53" x2="525.77" y2="258.53"/><line class="cls-3" x1="536.37" y1="262.03" x2="565.7" y2="262.03"/><line class="cls-3" x1="539.98" y1="262.03" x2="539.98" y2="249.47"/><line class="cls-3" x1="548.23" y1="262.03" x2="548.23" y2="249.47"/><line class="cls-3" x1="556.67" y1="262.03" x2="556.67" y2="249.53"/><line class="cls-3" x1="565.7" y1="249.47" x2="565.7" y2="278.37"/><line class="cls-3" x1="566.23" y1="278.37" x2="545.4" y2="278.37"/><line class="cls-3" x1="545.4" y1="271.17" x2="545.4" y2="281.23"/><line class="cls-3" x1="545.4" y1="271.17" x2="549.29" y2="267.05"/><line class="cls-3" x1="549.29" y1="267.05" x2="565.7" y2="267.05"/><line class="cls-3" x1="555.42" y1="267.05" x2="555.42" y2="278.37"/><line class="cls-3" x1="545.4" y1="281.23" x2="549.44" y2="285.06"/><line class="cls-3" x1="549.44" y1="285.06" x2="582.57" y2="285.06"/><line class="cls-3" x1="582.57" y1="285.06" x2="582.57" y2="249.53"/><line class="cls-3" x1="582.57" y1="267.3" x2="565.7" y2="267.3"/><line class="cls-3" x1="561.12" y1="278.37" x2="561.12" y2="285.06"/><line class="cls-3" x1="566.23" y1="278.37" x2="566.23" y2="285.06"/><line class="cls-3" x1="586.3" y1="267.05" x2="586.3" y2="279.33"/><line class="cls-3" x1="582.57" y1="267.05" x2="608.13" y2="267.05"/><line class="cls-3" x1="603.99" y1="267.05" x2="603.99" y2="279.33"/><line class="cls-3" x1="601.37" y1="272.11" x2="601.37" y2="267.05"/><line class="cls-3" x1="608.13" y1="267.05" x2="608.13" y2="249.47"/><line class="cls-3" x1="595.15" y1="267.05" x2="595.15" y2="249.47"/><line class="cls-3" x1="603.99" y1="278.52" x2="616.86" y2="279.91"/><line class="cls-3" x1="617.07" y1="277.45" x2="616.45" y2="284.68"/><line class="cls-3" x1="617.07" y1="277.45" x2="625.87" y2="278.23"/><line class="cls-3" x1="616.45" y1="284.68" x2="625.22" y2="285.48"/><line class="cls-3" x1="625.87" y1="278.23" x2="625.22" y2="285.48"/><line class="cls-3" x1="617.07" y1="277.45" x2="625.03" y2="261.33"/><line class="cls-3" x1="625.03" y1="261.33" x2="625.03" y2="249.47"/><line class="cls-3" x1="625.22" y1="285.48" x2="644.82" y2="285.48"/><line class="cls-3" x1="644.82" y1="285.48" x2="644.82" y2="279.7"/><line class="cls-3" x1="650.47" y1="279.7" x2="650.47" y2="249.47"/><line class="cls-3" x1="625.03" y1="261.33" x2="637.77" y2="261.33"/><line class="cls-3" x1="637.77" y1="261.33" x2="637.77" y2="249.47"/><line class="cls-3" x1="650.47" y1="262.78" x2="664.22" y2="262.78"/><line class="cls-3" x1="741.12" y1="230.73" x2="762.72" y2="230.73"/><line class="cls-3" x1="762.72" y1="230.73" x2="762.72" y2="225.87"/><line class="cls-3" x1="762.72" y1="225.87" x2="771.42" y2="222.68"/><line class="cls-3" x1="771.42" y1="222.68" x2="771.42" y2="157.58"/><line class="cls-3" x1="771.42" y1="157.58" x2="756.89" y2="152.28"/><line class="cls-3" x1="756.89" y1="152.28" x2="747.89" y2="152.28"/><line class="cls-3" x1="747.89" y1="152.28" x2="741.12" y2="154.76"/><line class="cls-3" x1="741.12" y1="154.76" x2="741.12" y2="207.11"/><line class="cls-3" x1="741.12" y1="230.73" x2="741.12" y2="218.73"/><circle class="cls-3" cx="748.94" cy="212.96" r="9.72"/><rect class="cls-2" x="739.95" y="239.5" width="4.02" height="2.4"/><rect class="cls-2" x="739.95" y="230.73" width="4.02" height="2.72"/><line class="cls-3" x1="764.43" y1="238.76" x2="764.43" y2="258.2"/><line class="cls-3" x1="764.52" y1="230.73" x2="734.07" y2="230.73"/><line class="cls-3" x1="739.95" y1="230.73" x2="739.95" y2="241.9"/><line class="cls-3" x1="739.95" y1="241.9" x2="764.43" y2="241.9"/><line class="cls-3" x1="739.95" y1="233.45" x2="743.97" y2="233.45"/><line class="cls-3" x1="743.97" y1="230.73" x2="743.97" y2="233.45"/><line class="cls-3" x1="743.97" y1="239.5" x2="739.95" y2="239.5"/><line class="cls-3" x1="743.97" y1="239.5" x2="743.97" y2="258.2"/><line class="cls-3" x1="767.89" y1="238.76" x2="767.89" y2="232.78"/><line class="cls-3" x1="767.89" y1="232.78" x2="764.52" y2="232.78"/><line class="cls-3" x1="764.52" y1="230.73" x2="764.52" y2="232.78"/><line class="cls-3" x1="764.43" y1="238.76" x2="767.89" y2="238.76"/><line class="cls-3" x1="767.39" y1="137.98" x2="767.39" y2="143.43"/><rect class="cls-2" x="740" y="143.43" width="4.02" height="2.4"/><rect class="cls-2" x="740" y="134.67" width="4.02" height="2.72"/><line class="cls-3" x1="764.57" y1="134.67" x2="740" y2="134.67"/><line class="cls-3" x1="740" y1="134.67" x2="740" y2="145.83"/><line class="cls-3" x1="712.37" y1="145.83" x2="764.57" y2="145.83"/><line class="cls-3" x1="764.57" y1="145.83" x2="764.57" y2="143.43"/><line class="cls-3" x1="764.57" y1="143.43" x2="767.39" y2="143.43"/><line class="cls-3" x1="740" y1="137.38" x2="744.02" y2="137.38"/><line class="cls-3" x1="744.02" y1="134.67" x2="744.02" y2="137.38"/><line class="cls-3" x1="744.02" y1="143.43" x2="740" y2="143.43"/><line class="cls-3" x1="744.02" y1="143.43" x2="744.02" y2="145.83"/><line class="cls-3" x1="748.79" y1="152.28" x2="748.79" y2="145.83"/><line class="cls-3" x1="756.12" y1="152.28" x2="756.12" y2="145.83"/><line class="cls-3" x1="764.57" y1="117.4" x2="764.57" y2="129.5"/><line class="cls-3" x1="764.57" y1="137.98" x2="767.39" y2="137.98"/><line class="cls-3" x1="732.97" y1="123.77" x2="732.97" y2="145.83"/><line class="cls-3" x1="732.97" y1="129.5" x2="764.57" y2="129.5"/><line class="cls-3" x1="743.6" y1="129.5" x2="743.6" y2="117.4"/><line class="cls-3" x1="753.7" y1="129.5" x2="753.7" y2="117.4"/><line class="cls-3" x1="758.37" y1="134.67" x2="758.37" y2="129.5"/><line class="cls-3" x1="734.07" y1="145.83" x2="734.07" y2="153.41"/><line class="cls-3" x1="734.07" y1="153.41" x2="732.97" y2="153.41"/><line class="cls-3" x1="732.97" y1="153.41" x2="732.97" y2="161.48"/><line class="cls-3" x1="732.97" y1="161.48" x2="734.07" y2="161.48"/><line class="cls-3" x1="734.07" y1="161.48" x2="734.07" y2="174.68"/><line class="cls-3" x1="734.07" y1="174.68" x2="732.97" y2="174.68"/><line class="cls-3" x1="732.97" y1="174.68" x2="732.97" y2="184.28"/><line class="cls-3" x1="732.97" y1="184.28" x2="734.07" y2="184.28"/><line class="cls-3" x1="734.07" y1="184.28" x2="734.07" y2="195.66"/><line class="cls-3" x1="734.07" y1="195.66" x2="732.97" y2="195.66"/><line class="cls-3" x1="732.97" y1="195.66" x2="732.97" y2="210.23"/><line class="cls-3" x1="732.97" y1="210.23" x2="734.07" y2="210.23"/><line class="cls-3" x1="734.07" y1="210.23" x2="734.07" y2="218.57"/><line class="cls-3" x1="734.07" y1="218.57" x2="732.97" y2="218.57"/><line class="cls-3" x1="732.97" y1="218.57" x2="732.97" y2="229.56"/><line class="cls-3" x1="732.97" y1="229.56" x2="734.07" y2="229.56"/><line class="cls-3" x1="734.07" y1="229.56" x2="734.07" y2="246.81"/><line class="cls-3" x1="732.29" y1="246.81" x2="743.97" y2="246.81"/><line class="cls-3" x1="732.29" y1="246.81" x2="732.29" y2="252.53"/><line class="cls-3" x1="734.07" y1="166.83" x2="712.37" y2="166.83"/><line class="cls-3" x1="197.07" y1="332.08" x2="197.07" y2="346.53"/><line class="cls-3" x1="744.99" y1="212.96" x2="758.67" y2="212.96"/><line class="cls-3" x1="744.99" y1="212.96" x2="740.37" y2="208.33"/><line class="cls-3" x1="744.99" y1="212.96" x2="740.43" y2="217.52"/><line class="cls-5" x1="281.42" y1="14.93" x2="245.22" y2="14.93"/><line class="cls-5" x1="245.22" y1="11.93" x2="245.22" y2="14.93"/><line class="cls-5" x1="245.22" y1="11.93" x2="221.42" y2="11.93"/><line class="cls-5" x1="206.27" y1="15.51" x2="155.7" y2="15.51"/><path class="cls-5" d="M755.45,256a8.71,8.71,0,0,0-7.6-4.55,9.26,9.26,0,0,0-7.55,4.32" transform="translate(-534.03 -240.27)"/><line class="cls-5" x1="155.7" y1="15.51" x2="155.7" y2="12.13"/><line class="cls-5" x1="133.07" y1="12.13" x2="133.07" y2="15.51"/><line class="cls-5" x1="97.12" y1="11.68" x2="97.12" y2="15.51"/><line class="cls-5" x1="75.43" y1="11.68" x2="97.12" y2="11.68"/><line class="cls-5" x1="75.43" y1="14.3" x2="75.43" y2="11.68"/><line class="cls-5" x1="75.43" y1="14.3" x2="39.2" y2="14.3"/><line class="cls-5" x1="39.2" y1="14.3" x2="39.2" y2="36.57"/><line class="cls-5" x1="39.2" y1="36.57" x2="41.82" y2="36.57"/><line class="cls-5" x1="41.82" y1="36.57" x2="41.82" y2="50.33"/><line class="cls-5" x1="41.82" y1="50.33" x2="38.3" y2="50.33"/><line class="cls-5" x1="38.3" y1="50.33" x2="38.3" y2="113.13"/><line class="cls-5" x1="38.3" y1="113.13" x2="38.3" y2="161.43"/><line class="cls-5" x1="38.3" y1="161.43" x2="41.7" y2="161.43"/><line class="cls-5" x1="41.7" y1="161.43" x2="41.7" y2="174.4"/><line class="cls-5" x1="38.3" y1="174.4" x2="41.7" y2="174.4"/><line class="cls-5" x1="38.3" y1="197.58" x2="38.3" y2="174.4"/><line class="cls-5" x1="43.27" y1="197.58" x2="38.3" y2="197.58"/><line class="cls-5" x1="43.27" y1="209.08" x2="43.27" y2="197.58"/><line class="cls-5" x1="2.85" y1="209.08" x2="43.27" y2="209.08"/><line class="cls-5" x1="0.5" y1="211.8" x2="0.5" y2="224.13"/><path class="cls-5" d="M534.53,452.07a2.79,2.79,0,0,1,.64-1.81,2.74,2.74,0,0,1,1.71-.91" transform="translate(-534.03 -240.27)"/><line class="cls-5" x1="0.5" y1="224.13" x2="2.4" y2="224.13"/><line class="cls-5" x1="2.4" y1="233.6" x2="0.5" y2="233.6"/><line class="cls-5" x1="2.4" y1="224.13" x2="2.4" y2="233.6"/><line class="cls-5" x1="0.5" y1="233.6" x2="0.5" y2="248.87"/><line class="cls-5" x1="0.5" y1="248.87" x2="74.83" y2="248.87"/><line class="cls-5" x1="74.83" y1="244.38" x2="74.83" y2="248.87"/><line class="cls-5" x1="94.43" y1="247.33" x2="74.83" y2="244.38"/><path class="cls-5" d="M622.57,482.5" transform="translate(-534.03 -240.27)"/><path class="cls-5" d="M622.57,484.13" transform="translate(-534.03 -240.27)"/><path class="cls-5" d="M622.57,484.13" transform="translate(-534.03 -240.27)"/><path class="cls-5" d="M631.37,484.13" transform="translate(-534.03 -240.27)"/><line class="cls-5" x1="97.33" y1="223.57" x2="97.33" y2="225.4"/><line class="cls-5" x1="85.83" y1="223.57" x2="97.33" y2="223.57"/><line class="cls-5" x1="85.83" y1="209" x2="85.83" y2="223.57"/><line class="cls-5" x1="75.33" y1="209" x2="85.83" y2="209"/><line class="cls-5" x1="75.33" y1="209" x2="75.33" y2="199.07"/><line class="cls-5" x1="75.33" y1="199.07" x2="98.37" y2="199.07"/><line class="cls-5" x1="98.37" y1="194.47" x2="98.37" y2="199.07"/><line class="cls-5" x1="98.37" y1="194.47" x2="114.83" y2="194.47"/><line class="cls-5" x1="114.83" y1="194.47" x2="114.83" y2="217.73"/><line class="cls-5" x1="94.43" y1="247.33" x2="107.77" y2="247.33"/><line class="cls-5" x1="121.17" y1="267.13" x2="107.77" y2="267.13"/><line class="cls-5" x1="137.64" y1="344.33" x2="137.64" y2="265.66"/><line class="cls-5" x1="121.17" y1="267.13" x2="137.64" y2="265.66"/><line class="cls-5" x1="137.64" y1="344.33" x2="170.77" y2="344.33"/><line class="cls-5" x1="285.57" y1="346.53" x2="170.77" y2="346.53"/><line class="cls-5" x1="170.77" y1="344.33" x2="170.77" y2="346.53"/><path class="cls-5" d="M819.6,586.8a15,15,0,0,0,8.95-2.8c6.59-5,5.28-14.54,12.05-17.7a10,10,0,0,1,4-.9" transform="translate(-534.03 -240.27)"/><line class="cls-5" x1="310.57" y1="294.68" x2="310.57" y2="292.53"/><line class="cls-5" x1="310.57" y1="292.53" x2="214.27" y2="292.53"/><line class="cls-5" x1="214.27" y1="292.53" x2="214.27" y2="324.53"/><line class="cls-5" x1="197.07" y1="324.53" x2="214.27" y2="324.53"/><line class="cls-5" x1="197.07" y1="332.08" x2="197.07" y2="324.53"/><line class="cls-5" x1="197.07" y1="332.08" x2="182.92" y2="332.08"/><line class="cls-5" x1="182.92" y1="332.08" x2="182.92" y2="276.6"/><line class="cls-5" x1="182.92" y1="276.6" x2="195.62" y2="276.6"/><line class="cls-5" x1="195.62" y1="276.6" x2="195.62" y2="251.77"/><line class="cls-5" x1="195.62" y1="251.77" x2="231.33" y2="255.67"/><line class="cls-5" x1="231.33" y1="255.67" x2="296.27" y2="258.93"/><line class="cls-5" x1="296.27" y1="258.93" x2="296.27" y2="226.93"/><line class="cls-5" x1="295.42" y1="226.93" x2="296.27" y2="226.93"/><line class="cls-5" x1="295.42" y1="226.93" x2="295.42" y2="194.33"/><line class="cls-5" x1="295.42" y1="194.33" x2="303.83" y2="194.33"/><line class="cls-5" x1="303.83" y1="194.33" x2="303.83" y2="167.47"/><line class="cls-5" x1="303.83" y1="167.47" x2="279.25" y2="167.47"/><line class="cls-5" x1="279.25" y1="167.47" x2="279.25" y2="42.07"/><line class="cls-5" x1="279.25" y1="42.07" x2="281.53" y2="42.07"/><line class="cls-5" x1="281.53" y1="42.07" x2="281.53" y2="14.93"/><line class="cls-5" x1="133.07" y1="15.51" x2="97.12" y2="15.51"/><line class="cls-5" x1="309.49" y1="325.13" x2="309.49" y2="322.6"/><line class="cls-5" x1="495.77" y1="322.6" x2="495.77" y2="316.53"/><line class="cls-5" x1="495.77" y1="316.53" x2="501" y2="316.53"/><line class="cls-5" x1="501" y1="316.53" x2="501" y2="294.68"/><path class="cls-5" d="M1013.33,534.87,844.6,535" transform="translate(-534.03 -240.27)"/><line class="cls-5" x1="309.49" y1="322.6" x2="495.77" y2="322.6"/><line class="cls-5" x1="479.3" y1="192.59" x2="433.32" y2="175.14"/><line class="cls-5" x1="556.67" y1="247.43" x2="556.67" y2="125.13"/><line class="cls-5" x1="556.67" y1="125.13" x2="466.43" y2="125.13"/><line class="cls-5" x1="466.43" y1="125.13" x2="466.43" y2="118.27"/><line class="cls-5" x1="466.43" y1="118.27" x2="385.93" y2="105.33"/><line class="cls-5" x1="385.93" y1="105.33" x2="384.83" y2="111.17"/><path class="cls-5" d="M918.87,351.43c-.46,3-.84,6.33-1.07,9.87-.23,3.77-.27,7.28-.17,10.5" transform="translate(-534.03 -240.27)"/><line class="cls-5" x1="666.43" y1="247.43" x2="666.43" y2="305.21"/><line class="cls-5" x1="666.43" y1="247.43" x2="556.67" y2="247.43"/><line class="cls-5" x1="523.42" y1="298.53" x2="525.77" y2="298.53"/><line class="cls-5" x1="525.77" y1="298.53" x2="525.77" y2="305.21"/><line class="cls-5" x1="572.07" y1="120.2" x2="572.07" y2="100.93"/><line class="cls-5" x1="540.37" y1="100.93" x2="572.07" y2="100.93"/><line class="cls-5" x1="540.37" y1="100.93" x2="566.56" y2="0.5"/><line class="cls-5" x1="729.37" y1="23.63" x2="700.17" y2="23.63"/><path class="cls-5" d="M1100.6,240.77a409.06,409.06,0,0,0,65.2,17,409.1,409.1,0,0,0,68.4,6.1" transform="translate(-534.03 -240.27)"/><line class="cls-5" x1="729.37" y1="23.63" x2="729.37" y2="102.2"/><line class="cls-5" x1="701.3" y1="102.2" x2="729.37" y2="102.2"/><line class="cls-5" x1="701.3" y1="120.2" x2="701.3" y2="102.2"/><line class="cls-5" x1="673.5" y1="120.2" x2="701.3" y2="120.2"/><line class="cls-5" x1="572.07" y1="120.2" x2="673.5" y2="120.2"/><line class="cls-5" x1="712.37" y1="123.77" x2="732.97" y2="123.77"/><line class="cls-5" x1="732.97" y1="117.4" x2="732.97" y2="123.77"/><line class="cls-5" x1="778.57" y1="117.4" x2="732.97" y2="117.4"/><line class="cls-5" x1="778.57" y1="123.77" x2="778.57" y2="117.4"/><line class="cls-5" x1="778.57" y1="123.77" x2="811.43" y2="123.77"/><line class="cls-5" x1="811.43" y1="127.2" x2="811.43" y2="123.77"/><line class="cls-5" x1="818.23" y1="127.2" x2="811.43" y2="127.2"/><line class="cls-5" x1="818.24" y1="127.2" x2="818.24" y2="249.07"/><line class="cls-5" x1="810.92" y1="249.07" x2="818.23" y2="249.07"/><line class="cls-5" x1="810.92" y1="252.53" x2="810.92" y2="249.07"/><line class="cls-5" x1="779.1" y1="252.53" x2="810.92" y2="252.53"/><line class="cls-5" x1="733.3" y1="258.2" x2="779.1" y2="258.2"/><line class="cls-5" x1="779.1" y1="258.2" x2="779.1" y2="252.53"/><line class="cls-5" x1="733.3" y1="258.2" x2="733.3" y2="252.53"/><line class="cls-5" x1="733.3" y1="252.53" x2="712.37" y2="252.53"/><line class="cls-5" x1="712.37" y1="252.53" x2="712.37" y2="123.77"/><line class="cls-5" x1="706.17" y1="188.35" x2="712.37" y2="188.35"/><line class="cls-5" x1="701.5" y1="183.4" x2="701.5" y2="160.53"/><line class="cls-5" x1="712.37" y1="157.5" x2="706.13" y2="156.4"/><path class="cls-5" d="M1235.53,423.67a4.87,4.87,0,0,0,4.67,4.95" transform="translate(-534.03 -240.27)"/><path class="cls-5" d="M1235.53,400.8a4.28,4.28,0,0,1,1.69-3.55,4,4,0,0,1,3-.58" transform="translate(-534.03 -240.27)"/><line class="cls-5" x1="534.17" y1="352.53" x2="596.85" y2="352.53"/><line class="cls-5" x1="534.17" y1="352.53" x2="534.17" y2="399.33"/><line class="cls-5" x1="534.17" y1="399.33" x2="596.85" y2="399.33"/><line class="cls-5" x1="596.85" y1="399.33" x2="596.85" y2="352.53"/><line class="cls-5" x1="424.77" y1="384.73" x2="467.37" y2="384.73"/><line class="cls-5" x1="424.77" y1="384.73" x2="424.77" y2="469.93"/><line class="cls-5" x1="424.77" y1="469.93" x2="467.37" y2="469.93"/><line class="cls-5" x1="467.37" y1="469.93" x2="467.37" y2="384.73"/><line class="cls-5" x1="107.77" y1="267.13" x2="107.77" y2="247.33"/><line class="cls-5" x1="433.32" y1="175.14" x2="383.6" y2="205.3"/><line class="cls-5" x1="363.9" y1="131.53" x2="383.6" y2="131.53"/><path class="cls-5" d="M897.93,371.8a143,143,0,0,0,19.7,73.77" transform="translate(-534.03 -240.27)"/><line class="cls-5" x1="479.3" y1="192.59" x2="479.3" y2="294.6"/><line class="cls-5" x1="523.42" y1="298.53" x2="523.42" y2="294.68"/><line class="cls-5" x1="97.33" y1="225.4" x2="108.43" y2="225.4"/><line class="cls-5" x1="108.43" y1="217.73" x2="108.43" y2="225.4"/><line class="cls-5" x1="114.83" y1="217.73" x2="108.43" y2="217.73"/><line class="cls-5" x1="133.07" y1="12.13" x2="155.7" y2="12.13"/><line class="cls-5" x1="221.42" y1="15.73" x2="221.42" y2="11.93"/><line class="cls-5" x1="525.77" y1="305.21" x2="666.43" y2="305.21"/><line class="cls-5" x1="501" y1="294.68" x2="523.42" y2="294.68"/><line class="cls-4" x1="233.72" y1="160.13" x2="237.12" y2="160.13"/><line class="cls-4" x1="224.43" y1="167.77" x2="227.53" y2="167.77"/><line class="cls-4" x1="202.59" y1="167.77" x2="205.63" y2="167.77"/><line class="cls-4" x1="178.25" y1="167.77" x2="181.25" y2="167.77"/><line class="cls-4" x1="157.4" y1="167.77" x2="160.49" y2="167.77"/><line class="cls-4" x1="160.61" y1="160.13" x2="162.84" y2="160.13"/><line class="cls-4" x1="166.03" y1="160.13" x2="168.24" y2="160.13"/><line class="cls-4" x1="143.17" y1="167.77" x2="146.23" y2="167.77"/><line class="cls-4" x1="129.18" y1="167.77" x2="132.2" y2="167.77"/><line class="cls-4" x1="120.18" y1="167.77" x2="123.25" y2="167.77"/><line class="cls-4" x1="100.47" y1="167.77" x2="103.58" y2="167.77"/><line class="cls-4" x1="90.61" y1="160.13" x2="92.83" y2="160.13"/><line class="cls-4" x1="87.53" y1="162.62" x2="87.53" y2="165.37"/><line class="cls-4" x1="47.7" y1="174.87" x2="47.7" y2="177.62"/><line class="cls-4" x1="118.49" y1="251.47" x2="115.9" y2="251.47"/><line class="cls-4" x1="115.9" y1="255.17" x2="118.49" y2="255.17"/><line class="cls-4" x1="168.37" y1="251.67" x2="168.37" y2="256.53"/><line class="cls-4" x1="184.33" y1="256.92" x2="187.09" y2="256.71"/><line class="cls-4" x1="168.9" y1="268.87" x2="168.9" y2="271.33"/><line class="cls-4" x1="159.95" y1="264.86" x2="164.93" y2="264.86"/><line class="cls-4" x1="161.59" y1="276.6" x2="166.74" y2="276.6"/><line class="cls-4" x1="158.05" y1="276.6" x2="155.83" y2="276.6"/><line class="cls-4" x1="146.98" y1="276.6" x2="144.77" y2="276.6"/><line class="cls-4" x1="168.37" y1="335.12" x2="168.37" y2="340.07"/><line class="cls-4" x1="160.28" y1="335.65" x2="160.28" y2="338.28"/><line class="cls-4" x1="167.42" y1="330.63" x2="161.97" y2="330.63"/><line class="cls-4" x1="625.68" y1="280.36" x2="625.41" y2="283.4"/><line class="cls-4" x1="649.42" y1="279.7" x2="646.67" y2="279.7"/><line class="cls-4" x1="650.47" y1="274.3" x2="650.47" y2="277.02"/><line class="cls-4" x1="651.85" y1="262.78" x2="654.53" y2="262.78"/><line class="cls-4" x1="650.47" y1="258.91" x2="650.47" y2="261.61"/><line class="cls-4" x1="633.89" y1="261.33" x2="636.59" y2="261.33"/><line class="cls-4" x1="618.79" y1="273.97" x2="619.96" y2="271.6"/><line class="cls-4" x1="611.93" y1="279.38" x2="615.02" y2="279.71"/><line class="cls-4" x1="578.14" y1="286.41" x2="578.14" y2="289.12"/><line class="cls-4" x1="583.48" y1="279.33" x2="585.85" y2="279.33"/><line class="cls-4" x1="586.3" y1="267.75" x2="586.3" y2="271.08"/><line class="cls-4" x1="583.07" y1="267.05" x2="585.45" y2="267.05"/><line class="cls-4" x1="598.9" y1="267.05" x2="600.87" y2="267.05"/><line class="cls-4" x1="567.97" y1="285.06" x2="570.7" y2="285.06"/><line class="cls-4" x1="566.23" y1="284.23" x2="566.23" y2="280.15"/><line class="cls-4" x1="550.6" y1="285.06" x2="553.33" y2="285.06"/><line class="cls-4" x1="542.12" y1="276.5" x2="544.82" y2="276.5"/><line class="cls-4" x1="536.79" y1="271.33" x2="539.48" y2="271.33"/><line class="cls-4" x1="536.37" y1="270.76" x2="536.37" y2="268.04"/><line class="cls-4" x1="539.58" y1="262.03" x2="536.78" y2="262.03"/><line class="cls-4" x1="543.14" y1="262.03" x2="540.35" y2="262.03"/><line class="cls-4" x1="546.32" y1="270.19" x2="548.2" y2="268.2"/><line class="cls-4" x1="552.67" y1="262.03" x2="555.42" y2="262.03"/><line class="cls-4" x1="558.2" y1="267.05" x2="560.89" y2="267.05"/><line class="cls-4" x1="558.2" y1="262.03" x2="560.89" y2="262.03"/><line class="cls-4" x1="565.7" y1="263.17" x2="565.7" y2="265.86"/><line class="cls-4" x1="739.95" y1="233.95" x2="739.95" y2="238.98"/><line class="cls-4" x1="743.97" y1="242.95" x2="743.97" y2="246.1"/><line class="cls-4" x1="739.17" y1="246.81" x2="742.2" y2="246.81"/><line class="cls-4" x1="734.57" y1="230.73" x2="739.28" y2="230.73"/><line class="cls-4" x1="732.97" y1="224.15" x2="732.97" y2="221.1"/><line class="cls-4" x1="741.52" y1="209.48" x2="743.67" y2="211.64"/><line class="cls-4" x1="743.78" y1="214.17" x2="741.62" y2="216.33"/><line class="cls-4" x1="732.97" y1="178.67" x2="732.97" y2="181.73"/><line class="cls-4" x1="732.97" y1="155.68" x2="732.97" y2="158.78"/><line class="cls-4" x1="748.79" y1="148.2" x2="748.79" y2="151.06"/><line class="cls-4" x1="734.55" y1="145.83" x2="739.27" y2="145.83"/><line class="cls-4" x1="732.97" y1="134.32" x2="732.97" y2="137.45"/><line class="cls-4" x1="739.14" y1="129.5" x2="742.19" y2="129.5"/><line class="cls-4" x1="744.54" y1="129.5" x2="747.6" y2="129.5"/><line class="cls-4" x1="754.67" y1="129.5" x2="757.73" y2="129.5"/><line class="cls-4" x1="740" y1="137.8" x2="740" y2="142.77"/><line class="cls-3" x1="164.53" y1="160.13" x2="164.53" y2="150.03"/><line class="cls-3" x1="164.53" y1="150.03" x2="170.33" y2="150.03"/><line class="cls-3" x1="764.57" y1="134.67" x2="764.57" y2="137.98"/></svg>