<svg id="Layer_3" data-name="Layer 3" xmlns="http://www.w3.org/2000/svg" viewBox="0 0 497.61 313.77"><defs><style>.cls-1{fill:#fff;}.cls-2{fill:#999;stroke:#999;}.cls-2,.cls-3,.cls-5{stroke-linecap:round;}.cls-2,.cls-4{stroke-linejoin:round;}.cls-2,.cls-3,.cls-4{stroke-width:0.5px;}.cls-3,.cls-4,.cls-5{fill:none;}.cls-3{stroke:#666;}.cls-3,.cls-5{stroke-miterlimit:10;}.cls-4{stroke:#3fa9f5;}.cls-5{stroke:#000;}</style></defs><title>USS F4</title><polygon class="cls-1" points="84.66 269.45 84.66 172.72 66.91 172.72 66.91 80.84 125.31 80.84 125.31 65.13 188.98 65.13 188.98 49.68 255.68 49.68 255.68 65.13 339.61 65.13 339.61 49.55 406.37 49.55 406.37 65.13 444.59 65.13 444.59 85.2 434.6 106.68 406.37 106.68 406.37 150.6 351.36 268.79 220.85 268.79 220.85 252.81 160.31 252.81 160.31 269.45 84.66 269.45"/><path class="cls-1" d="M406.12,49.8V65.38h38.22V85.14l-5,10.74-4.9,10.55H406.12v44.12l-27.5,59.09-27.42,58.9H221.1v-16h-61V269.2H84.91V172.47H67.16V81.09h58.4V65.38h63.67V49.93h66.2V65.38h84.43V49.8h66.26m.5-.5H339.36V64.88H255.93V49.43h-67.2V64.88H125.06V80.59H66.66V173H84.41V269.7h76.15V253.06h60v16H351.52l55.1-118.38V106.93h28.14l10.08-21.68V64.88H406.62V49.3Z"/><rect class="cls-2" x="356.06" y="211.68" width="7.13" height="13.17" transform="translate(125.57 -131.29) rotate(24.94)"/><path class="cls-2" d="M322,114.59l-10.13-4.71v-2.95h13.7Z"/><path class="cls-2" d="M342.09,123.94l-12.33-5.73L335,106.93h7.07Z"/><path class="cls-2" d="M406.62,64.88h38.22V85.25l-10.08,21.68H406.62v43.73l-14.43,31-23.33-10.85q14.85-31.95,29.71-63.89H342.09V99.3h-2.73v-50h67.26Z"/><path class="cls-2" d="M254.41,194.85h49.47q12.66-27.12,25.31-54.25H266V121.45H253.31V64.88h2.62V49.43h-67.2V64.88H125.06V80.59H66.66V173H84.41V269.7h76.15V253.06h60v16h33.81Z"/><path class="cls-2" d="M351.52,269H319.33V253.63h39.32Q355.08,261.34,351.52,269Z"/><line class="cls-3" x1="265.96" y1="108.3" x2="253.31" y2="108.3"/><path class="cls-2" d="M350.69,186l-4.7-2.18q4.53-9.72,9.05-19.45l4.7,2.18Q355.21,176.3,350.69,186Z"/><path class="cls-2" d="M344.64,212.43l-9.81-4.57q3.75-8.07,7.51-16.16l11.93,5.55L344,219.42l-2.11-1Q343.24,215.43,344.64,212.43Z"/><path class="cls-2" d="M268.4,92.7h18.4V64.88h5V92.7h1.06v13.83H268.4V95.13h-5.79V92.7Z"/><line class="cls-3" x1="253.31" y1="121.45" x2="310.38" y2="121.45"/><line class="cls-3" x1="265.96" y1="121.45" x2="265.96" y2="140.6"/><line class="cls-3" x1="305.81" y1="121.45" x2="305.81" y2="140.6"/><line class="cls-3" x1="329.19" y1="140.6" x2="265.96" y2="140.6"/><line class="cls-3" x1="285.89" y1="140.6" x2="285.89" y2="121.45"/><line class="cls-4" x1="274.46" y1="121.45" x2="280.79" y2="121.45"/><line class="cls-4" x1="291.06" y1="121.45" x2="297.31" y2="121.45"/><line class="cls-3" x1="303.88" y1="194.85" x2="333.18" y2="132.05"/><line class="cls-3" x1="330.29" y1="212.87" x2="326.47" y2="221.09"/><line class="cls-3" x1="332.11" y1="213.71" x2="330.29" y2="212.87"/><line class="cls-3" x1="368.21" y1="136.09" x2="332.11" y2="213.71"/><line class="cls-3" x1="344.64" y1="212.43" x2="334.83" y2="207.86"/><line class="cls-3" x1="265.96" y1="108.3" x2="265.96" y2="106.53"/><line class="cls-3" x1="265.96" y1="106.53" x2="302.04" y2="106.53"/><line class="cls-3" x1="291.8" y1="92.7" x2="291.8" y2="64.88"/><line class="cls-3" x1="292.86" y1="92.7" x2="292.86" y2="106.53"/><line class="cls-3" x1="268.4" y1="95.13" x2="268.4" y2="106.53"/><line class="cls-4" x1="327.12" y1="219.69" x2="329.96" y2="213.58"/><line class="cls-4" x1="255.46" y1="108.3" x2="261.99" y2="108.3"/><rect class="cls-2" x="263.74" y="75.58" width="13.15" height="7.18"/><line class="cls-3" x1="253.31" y1="121.45" x2="253.31" y2="64.88"/><line class="cls-3" x1="262.61" y1="92.7" x2="286.8" y2="92.7"/><line class="cls-3" x1="286.8" y1="92.7" x2="286.8" y2="64.88"/><line class="cls-3" x1="263.74" y1="82.75" x2="276.89" y2="82.75"/><line class="cls-3" x1="276.89" y1="82.75" x2="276.89" y2="75.58"/><line class="cls-3" x1="276.89" y1="75.58" x2="263.74" y2="75.58"/><line class="cls-3" x1="263.74" y1="75.58" x2="263.74" y2="82.75"/><line class="cls-3" x1="268.4" y1="95.13" x2="253.31" y2="95.13"/><line class="cls-3" x1="262.61" y1="92.7" x2="262.61" y2="95.13"/><line class="cls-3" x1="326.47" y1="221.09" x2="365.42" y2="239.2"/><line class="cls-3" x1="342.34" y1="191.7" x2="379.48" y2="208.97"/><line class="cls-3" x1="354.27" y1="197.25" x2="343.95" y2="219.42"/><line class="cls-3" x1="365.65" y1="213.82" x2="360.1" y2="225.75"/><line class="cls-3" x1="359.14" y1="210.8" x2="365.65" y2="213.82"/><line class="cls-3" x1="359.14" y1="210.8" x2="353.6" y2="222.72"/><line class="cls-3" x1="353.6" y1="222.72" x2="360.1" y2="225.75"/><line class="cls-3" x1="344.59" y1="212.53" x2="338.09" y2="226.49"/><line class="cls-3" x1="343.95" y1="219.42" x2="341.84" y2="218.43"/><line class="cls-4" x1="338.82" y1="224.93" x2="341.58" y2="218.99"/><line class="cls-3" x1="286.01" y1="194.85" x2="286.01" y2="217.05"/><line class="cls-3" x1="254.41" y1="217.05" x2="302.33" y2="217.05"/><line class="cls-3" x1="255.93" y1="64.88" x2="253.31" y2="64.88"/><line class="cls-3" x1="392.19" y1="181.67" x2="355.04" y2="164.4"/><line class="cls-3" x1="359.74" y1="166.58" x2="350.69" y2="186.03"/><line class="cls-3" x1="350.69" y1="186.03" x2="345.99" y2="183.85"/><line class="cls-3" x1="354.09" y1="141.78" x2="327.62" y2="198.69"/><line class="cls-3" x1="327.62" y1="198.69" x2="306.64" y2="188.93"/><line class="cls-3" x1="332.12" y1="189.01" x2="311.14" y2="179.25"/><line class="cls-3" x1="345.52" y1="160.22" x2="324.53" y2="150.46"/><line class="cls-3" x1="354.09" y1="141.78" x2="310.38" y2="121.45"/><line class="cls-3" x1="356.01" y1="162.32" x2="346.58" y2="157.93"/><line class="cls-4" x1="255.66" y1="95.13" x2="261.66" y2="95.13"/><line class="cls-4" x1="333.2" y1="186.71" x2="335.31" y2="182.17"/><line class="cls-4" x1="342.63" y1="191.09" x2="344.74" y2="186.55"/><line class="cls-4" x1="351.04" y1="148.33" x2="353.15" y2="143.8"/><line class="cls-4" x1="360.47" y1="152.72" x2="362.59" y2="148.18"/><line class="cls-4" x1="347" y1="158.12" x2="355.59" y2="162.12"/><line class="cls-3" x1="328.6" y1="222.08" x2="324.95" y2="229.92"/><line class="cls-3" x1="319.33" y1="227.83" x2="319.33" y2="269.04"/><line class="cls-3" x1="319.33" y1="253.63" x2="358.65" y2="253.63"/><line class="cls-3" x1="302.33" y1="217.05" x2="302.33" y2="194.85"/><line class="cls-3" x1="254.41" y1="269.04" x2="254.41" y2="194.85"/><line class="cls-3" x1="339.36" y1="64.88" x2="339.36" y2="99.3"/><line class="cls-3" x1="342.09" y1="99.3" x2="342.09" y2="123.94"/><line class="cls-4" x1="327.78" y1="223.84" x2="325.72" y2="228.26"/><line class="cls-4" x1="296.25" y1="217.05" x2="301.25" y2="217.05"/><line class="cls-5" x1="220.6" y1="253.06" x2="160.56" y2="253.06"/><line class="cls-5" x1="220.6" y1="269.04" x2="351.52" y2="269.04"/><line class="cls-5" x1="351.52" y1="269.04" x2="406.62" y2="150.66"/><line class="cls-5" x1="406.62" y1="150.66" x2="406.62" y2="106.93"/><line class="cls-5" x1="406.62" y1="106.93" x2="434.76" y2="106.93"/><line class="cls-5" x1="434.76" y1="106.93" x2="444.84" y2="85.25"/><line class="cls-5" x1="444.84" y1="85.25" x2="444.84" y2="64.88"/><line class="cls-5" x1="125.06" y1="80.6" x2="66.66" y2="80.6"/><line class="cls-5" x1="220.6" y1="269.04" x2="220.6" y2="253.06"/><line class="cls-5" x1="406.62" y1="64.88" x2="406.62" y2="49.3"/><line class="cls-5" x1="406.62" y1="49.3" x2="339.36" y2="49.3"/><line class="cls-5" x1="339.36" y1="49.3" x2="339.36" y2="64.88"/><line class="cls-5" x1="406.62" y1="64.88" x2="444.84" y2="64.88"/><line class="cls-5" x1="84.41" y1="269.7" x2="84.41" y2="172.97"/><line class="cls-5" x1="339.36" y1="64.88" x2="255.93" y2="64.88"/><line class="cls-5" x1="160.56" y1="253.06" x2="160.56" y2="269.7"/><line class="cls-5" x1="160.56" y1="269.7" x2="84.41" y2="269.7"/><line class="cls-5" x1="84.41" y1="172.97" x2="66.66" y2="172.97"/><line class="cls-5" x1="66.66" y1="172.97" x2="66.66" y2="80.59"/><line class="cls-5" x1="125.06" y1="80.6" x2="125.06" y2="64.88"/><line class="cls-5" x1="188.73" y1="49.43" x2="188.73" y2="64.88"/><line class="cls-5" x1="255.93" y1="64.88" x2="255.93" y2="49.43"/><line class="cls-5" x1="255.93" y1="49.43" x2="188.73" y2="49.43"/><line class="cls-5" x1="125.06" y1="64.88" x2="188.73" y2="64.88"/><line class="cls-3" x1="291.8" y1="92.7" x2="302.04" y2="92.7"/><line class="cls-3" x1="291.8" y1="83.05" x2="315.16" y2="83.05"/><line class="cls-3" x1="315.16" y1="83.05" x2="315.16" y2="64.88"/><line class="cls-3" x1="302.04" y1="106.53" x2="302.04" y2="83.05"/><line class="cls-3" x1="311.86" y1="83.05" x2="311.86" y2="109.88"/><line class="cls-3" x1="339.36" y1="99.3" x2="342.09" y2="99.3"/><line class="cls-3" x1="398.57" y1="106.93" x2="311.86" y2="106.93"/><line class="cls-3" x1="325.56" y1="106.93" x2="317.3" y2="124.67"/><line class="cls-3" x1="382.02" y1="142.51" x2="329.76" y2="118.21"/><line class="cls-3" x1="321.99" y1="114.59" x2="311.86" y2="109.88"/><line class="cls-3" x1="398.57" y1="106.93" x2="368.86" y2="170.82"/><line class="cls-3" x1="254.41" y1="194.85" x2="303.88" y2="194.85"/><line class="cls-3" x1="254.41" y1="227.83" x2="320.46" y2="227.83"/><line class="cls-3" x1="324.95" y1="229.92" x2="320.46" y2="227.83"/><line class="cls-3" x1="335.02" y1="106.93" x2="329.76" y2="118.21"/><line class="cls-3" x1="341.3" y1="169.28" x2="320.32" y2="159.52"/><line class="cls-3" x1="336.79" y1="178.97" x2="315.81" y2="169.21"/><line class="cls-3" x1="281.3" y1="227.83" x2="281.3" y2="217.05"/><line class="cls-4" x1="321.67" y1="115.28" x2="317.78" y2="123.66"/><line class="cls-4" x1="328.29" y1="106.93" x2="333.21" y2="106.93"/><line class="cls-4" x1="347.01" y1="126.23" x2="352.03" y2="128.57"/><line class="cls-4" x1="327.02" y1="129.19" x2="331.45" y2="131.25"/><line class="cls-4" x1="302.04" y1="95.28" x2="302.04" y2="99.78"/><line class="cls-4" x1="302.04" y1="84.23" x2="302.04" y2="88.73"/><line class="cls-4" x1="304.6" y1="83.05" x2="309.33" y2="83.05"/><line class="cls-4" x1="338.88" y1="174.49" x2="340.99" y2="169.95"/><line class="cls-4" x1="342.96" y1="165.72" x2="345.07" y2="161.18"/><line class="cls-4" x1="316.07" y1="193.31" x2="320.58" y2="195.41"/><line class="cls-4" x1="310.12" y1="190.55" x2="314.63" y2="192.64"/><line class="cls-3" x1="319.84" y1="183.3" x2="315.34" y2="192.97"/><line class="cls-4" x1="305.11" y1="227.83" x2="310.11" y2="227.83"/><line class="cls-4" x1="255.88" y1="227.83" x2="260.88" y2="227.83"/><line class="cls-4" x1="267.28" y1="217.05" x2="272.28" y2="217.05"/><line class="cls-4" x1="281.3" y1="227.17" x2="281.3" y2="217.8"/></svg>