<svg id="Layer_3" data-name="Layer 3" xmlns="http://www.w3.org/2000/svg" viewBox="0 0 497.61 313.77"><defs><style>.cls-1{fill:#fff;}.cls-2{fill:#999;stroke:#999;}.cls-2,.cls-3,.cls-5{stroke-linecap:round;}.cls-2,.cls-4{stroke-linejoin:round;}.cls-2,.cls-3,.cls-4{stroke-width:0.5px;}.cls-3,.cls-4,.cls-5{fill:none;}.cls-3{stroke:#666;}.cls-3,.cls-5{stroke-miterlimit:10;}.cls-4{stroke:#3fa9f5;}.cls-5{stroke:#000;}</style></defs><title>USS F2</title><polygon class="cls-1" points="84.66 269.45 84.66 172.72 66.91 172.72 66.91 80.84 125.31 80.84 125.31 65.13 188.98 65.13 188.98 49.68 255.68 49.68 255.68 65.13 339.61 65.13 339.61 49.55 406.37 49.55 406.37 65.13 444.59 65.13 444.59 85.2 434.6 106.68 406.37 106.68 406.37 150.6 351.36 268.79 220.85 268.79 220.85 252.81 160.31 252.81 160.31 269.45 84.66 269.45"/><path class="cls-1" d="M406.12,49.8V65.38h38.22V85.14l-5,10.74-4.9,10.55H406.12v44.12l-27.5,59.09-27.42,58.9H221.1v-16h-61V269.2H84.91V172.47H67.16V81.09h58.4V65.38h63.67V49.93h66.2V65.38h84.43V49.8h66.26m.5-.5H339.36V64.88H255.93V49.43h-67.2V64.88H125.06V80.59H66.66V173H84.41V269.7h76.15V253.06h60v16H351.52l55.1-118.38V106.93h28.14l10.08-21.68V64.88H406.62V49.3Z"/><rect class="cls-2" x="356.03" y="211.7" width="7.18" height="13.15" transform="translate(125.57 -131.29) rotate(24.94)"/><path class="cls-2" d="M303.88,194.85H270.64V140.6h58.55Q316.53,167.72,303.88,194.85Z"/><rect class="cls-2" x="177.71" y="140.6" width="77.52" height="54.25"/><path class="cls-2" d="M392.19,181.67,382,176.94l23.25-50h1.35v23.69Z"/><path class="cls-2" d="M350.69,186l-4.7-2.18q4.53-9.72,9.05-19.45l4.7,2.18Q355.21,176.3,350.69,186Z"/><rect class="cls-2" x="177.71" y="194.85" width="21.95" height="23.3"/><path class="cls-2" d="M253.31,108.3h-5v-5.17H233.54v5.17h-2.93V96.75h22.7Z"/><path class="cls-2" d="M344.64,212.43l-9.81-4.57q3.75-8.07,7.51-16.16l11.93,5.55L344,219.42l-2.11-1Q343.24,215.43,344.64,212.43Z"/><path class="cls-2" d="M268.4,92.7h18.4V64.88h5V92.7h1.06v13.83H268.4V95.13h-5.79V92.7Z"/><path class="cls-2" d="M141.13,196.62H120.19v5.83h-2.66V184.63h8.73V180.9h14.87Z"/><path class="cls-2" d="M444.84,85.25l-10.08,21.68H406.62V64.88h38.22Z"/><rect class="cls-2" x="328.36" y="97.25" width="11.77" height="9.28"/><line class="cls-3" x1="265.96" y1="121.45" x2="305.81" y2="121.45"/><line class="cls-3" x1="265.96" y1="121.45" x2="265.96" y2="140.6"/><line class="cls-3" x1="305.81" y1="119.2" x2="305.81" y2="140.6"/><line class="cls-3" x1="329.19" y1="140.6" x2="265.96" y2="140.6"/><line class="cls-3" x1="285.89" y1="140.6" x2="285.89" y2="121.45"/><line class="cls-4" x1="274.46" y1="121.45" x2="280.79" y2="121.45"/><line class="cls-4" x1="291.06" y1="121.45" x2="297.31" y2="121.45"/><line class="cls-3" x1="177.71" y1="119.2" x2="177.71" y2="218.15"/><line class="cls-3" x1="303.88" y1="194.85" x2="265.96" y2="194.85"/><line class="cls-3" x1="303.88" y1="194.85" x2="329.19" y2="140.6"/><line class="cls-3" x1="141.13" y1="140.6" x2="141.13" y2="211.63"/><line class="cls-3" x1="126.26" y1="180.9" x2="126.26" y2="184.63"/><line class="cls-3" x1="126.26" y1="180.9" x2="141.13" y2="180.9"/><line class="cls-3" x1="330.29" y1="212.87" x2="326.47" y2="221.09"/><line class="cls-3" x1="332.11" y1="213.71" x2="330.29" y2="212.87"/><line class="cls-3" x1="372.45" y1="126.97" x2="332.11" y2="213.71"/><line class="cls-3" x1="344.64" y1="212.43" x2="334.83" y2="207.86"/><line class="cls-3" x1="265.96" y1="108.3" x2="248.29" y2="108.3"/><line class="cls-3" x1="265.96" y1="108.3" x2="265.96" y2="106.53"/><line class="cls-3" x1="265.96" y1="106.53" x2="340.13" y2="106.53"/><line class="cls-3" x1="311.86" y1="106.53" x2="311.86" y2="119.2"/><line class="cls-3" x1="340.13" y1="78.1" x2="340.13" y2="106.53"/><line class="cls-3" x1="328.36" y1="97.25" x2="340.13" y2="97.25"/><line class="cls-3" x1="339.36" y1="64.88" x2="342.46" y2="64.88"/><line class="cls-3" x1="342.46" y1="64.88" x2="342.46" y2="78.1"/><line class="cls-3" x1="328.36" y1="106.53" x2="328.36" y2="97.25"/><line class="cls-3" x1="321.43" y1="106.53" x2="321.43" y2="97.25"/><line class="cls-3" x1="321.43" y1="97.25" x2="305.53" y2="97.25"/><line class="cls-3" x1="305.53" y1="106.53" x2="305.53" y2="92.7"/><line class="cls-3" x1="406.62" y1="64.88" x2="406.62" y2="106.93"/><line class="cls-3" x1="317.13" y1="97.25" x2="317.13" y2="64.88"/><line class="cls-3" x1="305.53" y1="92.7" x2="291.8" y2="92.7"/><line class="cls-3" x1="291.8" y1="92.7" x2="291.8" y2="64.88"/><line class="cls-3" x1="292.86" y1="92.7" x2="292.86" y2="106.53"/><line class="cls-3" x1="268.4" y1="95.13" x2="268.4" y2="106.53"/><line class="cls-4" x1="327.12" y1="219.69" x2="329.96" y2="213.58"/><line class="cls-4" x1="311.86" y1="108.5" x2="311.86" y2="118.55"/><line class="cls-4" x1="312.18" y1="106.53" x2="318.61" y2="106.53"/><line class="cls-4" x1="321.43" y1="105.23" x2="321.43" y2="100.25"/><line class="cls-4" x1="306.75" y1="97.25" x2="311.66" y2="97.25"/><line class="cls-4" x1="305.53" y1="100.25" x2="305.53" y2="105.23"/><line class="cls-4" x1="255.46" y1="108.3" x2="261.99" y2="108.3"/><rect class="cls-2" x="94.44" y="194.6" width="13.15" height="7.18"/><line class="cls-3" x1="84.41" y1="184.63" x2="126.26" y2="184.63"/><line class="cls-3" x1="84.41" y1="211.63" x2="141.13" y2="211.63"/><line class="cls-3" x1="117.53" y1="184.63" x2="117.53" y2="202.45"/><line class="cls-3" x1="117.53" y1="202.45" x2="120.19" y2="202.45"/><line class="cls-3" x1="120.19" y1="211.63" x2="120.19" y2="196.62"/><line class="cls-3" x1="94.44" y1="201.78" x2="107.59" y2="201.78"/><line class="cls-3" x1="107.59" y1="201.78" x2="107.59" y2="194.6"/><line class="cls-3" x1="107.59" y1="194.6" x2="94.44" y2="194.6"/><line class="cls-3" x1="94.44" y1="194.6" x2="94.44" y2="201.78"/><line class="cls-4" x1="120.19" y1="204.62" x2="120.19" y2="210.93"/><line class="cls-3" x1="120.19" y1="196.62" x2="141.13" y2="196.62"/><rect class="cls-2" x="263.74" y="75.58" width="13.15" height="7.18"/><line class="cls-3" x1="253.31" y1="108.3" x2="253.31" y2="64.88"/><line class="cls-3" x1="262.61" y1="92.7" x2="286.8" y2="92.7"/><line class="cls-3" x1="286.8" y1="92.7" x2="286.8" y2="64.88"/><line class="cls-3" x1="263.74" y1="82.75" x2="276.89" y2="82.75"/><line class="cls-3" x1="276.89" y1="82.75" x2="276.89" y2="75.58"/><line class="cls-3" x1="276.89" y1="75.58" x2="263.74" y2="75.58"/><line class="cls-3" x1="263.74" y1="75.58" x2="263.74" y2="82.75"/><line class="cls-3" x1="268.4" y1="95.13" x2="253.31" y2="95.13"/><line class="cls-3" x1="262.61" y1="92.7" x2="262.61" y2="95.13"/><line class="cls-3" x1="326.47" y1="221.09" x2="365.42" y2="239.2"/><line class="cls-3" x1="342.34" y1="191.7" x2="379.48" y2="208.97"/><line class="cls-3" x1="354.27" y1="197.25" x2="343.95" y2="219.42"/><line class="cls-3" x1="365.65" y1="213.82" x2="360.1" y2="225.75"/><line class="cls-3" x1="359.14" y1="210.8" x2="365.65" y2="213.82"/><line class="cls-3" x1="359.14" y1="210.8" x2="353.6" y2="222.72"/><line class="cls-3" x1="353.6" y1="222.72" x2="360.1" y2="225.75"/><line class="cls-3" x1="344.59" y1="212.53" x2="338.09" y2="226.49"/><line class="cls-3" x1="343.95" y1="219.42" x2="341.84" y2="218.43"/><line class="cls-4" x1="338.82" y1="224.93" x2="341.58" y2="218.99"/><line class="cls-3" x1="151.82" y1="140.6" x2="255.23" y2="140.6"/><line class="cls-3" x1="255.23" y1="218.15" x2="255.23" y2="119.2"/><line class="cls-3" x1="255.23" y1="194.85" x2="151.82" y2="194.85"/><line class="cls-3" x1="270.64" y1="194.85" x2="270.64" y2="140.6"/><line class="cls-3" x1="305.81" y1="119.2" x2="361.26" y2="119.2"/><line class="cls-3" x1="342.46" y1="78.1" x2="340.13" y2="78.1"/><line class="cls-3" x1="255.23" y1="119.2" x2="151.82" y2="119.2"/><line class="cls-3" x1="151.82" y1="119.2" x2="151.82" y2="194.85"/><line class="cls-3" x1="151.82" y1="167.73" x2="177.71" y2="167.73"/><line class="cls-3" x1="211.73" y1="140.6" x2="211.73" y2="119.2"/><line class="cls-3" x1="222.33" y1="119.2" x2="222.33" y2="140.6"/><line class="cls-3" x1="230.61" y1="96.75" x2="230.61" y2="108.3"/><line class="cls-3" x1="253.31" y1="96.75" x2="176.96" y2="96.75"/><line class="cls-3" x1="176.96" y1="92.8" x2="176.96" y2="108.35"/><line class="cls-3" x1="176.96" y1="92.8" x2="157.8" y2="92.8"/><line class="cls-3" x1="157.8" y1="64.88" x2="157.8" y2="108.35"/><line class="cls-3" x1="176.96" y1="108.35" x2="66.66" y2="108.35"/><line class="cls-3" x1="125.06" y1="80.6" x2="125.06" y2="108.35"/><line class="cls-3" x1="141.13" y1="140.6" x2="66.66" y2="140.6"/><line class="cls-3" x1="84.41" y1="172.97" x2="126.26" y2="172.97"/><line class="cls-3" x1="126.26" y1="172.97" x2="126.26" y2="140.6"/><line class="cls-3" x1="126.26" y1="155.2" x2="141.13" y2="155.2"/><line class="cls-3" x1="117.33" y1="108.35" x2="117.33" y2="140.6"/><line class="cls-3" x1="191.51" y1="96.75" x2="191.51" y2="64.88"/><line class="cls-3" x1="223.36" y1="96.75" x2="223.36" y2="64.88"/><line class="cls-3" x1="127.96" y1="211.63" x2="127.96" y2="269.7"/><line class="cls-3" x1="84.41" y1="240.1" x2="118.86" y2="240.1"/><line class="cls-3" x1="118.86" y1="221.7" x2="118.86" y2="240.1"/><line class="cls-3" x1="118.86" y1="221.7" x2="127.96" y2="221.7"/><line class="cls-3" x1="160.56" y1="253.06" x2="160.56" y2="229.43"/><line class="cls-3" x1="302" y1="229.43" x2="127.96" y2="229.43"/><line class="cls-3" x1="302" y1="229.43" x2="302" y2="269.04"/><line class="cls-3" x1="285" y1="229.43" x2="285" y2="269.04"/><line class="cls-3" x1="220.6" y1="253.06" x2="220.6" y2="229.43"/><line class="cls-3" x1="190.58" y1="229.43" x2="190.58" y2="253.06"/><line class="cls-3" x1="177.71" y1="218.15" x2="255.23" y2="218.15"/><line class="cls-3" x1="199.66" y1="229.43" x2="199.66" y2="194.85"/><line class="cls-3" x1="265.96" y1="194.85" x2="265.96" y2="213.5"/><line class="cls-3" x1="265.96" y1="213.5" x2="286.01" y2="213.5"/><line class="cls-3" x1="286.01" y1="194.85" x2="286.01" y2="217.05"/><line class="cls-3" x1="286.01" y1="217.05" x2="319.08" y2="217.05"/><line class="cls-3" x1="328.27" y1="221.96" x2="319.46" y2="240.91"/><line class="cls-3" x1="319.46" y1="240.91" x2="302" y2="240.91"/><line class="cls-3" x1="372.45" y1="126.97" x2="372.45" y2="95.1"/><line class="cls-3" x1="340.13" y1="87.83" x2="406.62" y2="87.83"/><line class="cls-3" x1="372.45" y1="95.1" x2="380.86" y2="95.1"/><line class="cls-3" x1="380.86" y1="95.1" x2="380.86" y2="87.83"/><line class="cls-3" x1="191.51" y1="64.88" x2="188.73" y2="64.88"/><line class="cls-3" x1="221.41" y1="49.43" x2="221.41" y2="64.88"/><line class="cls-3" x1="221.41" y1="64.88" x2="223.36" y2="64.88"/><line class="cls-3" x1="255.93" y1="64.88" x2="253.31" y2="64.88"/><line class="cls-3" x1="372.45" y1="126.97" x2="406.62" y2="126.97"/><line class="cls-3" x1="405.27" y1="126.97" x2="382.02" y2="176.94"/><line class="cls-3" x1="392.19" y1="181.67" x2="355.04" y2="164.4"/><line class="cls-3" x1="395.73" y1="147.48" x2="379.7" y2="140.02"/><line class="cls-3" x1="378.84" y1="141.88" x2="367.89" y2="136.78"/><line class="cls-3" x1="379.7" y1="140.02" x2="378.84" y2="141.88"/><line class="cls-3" x1="359.74" y1="166.58" x2="350.69" y2="186.03"/><line class="cls-3" x1="350.69" y1="186.03" x2="345.99" y2="183.85"/><line class="cls-3" x1="316.76" y1="240.91" x2="316.76" y2="269.04"/><line class="cls-3" x1="336.49" y1="237.17" x2="323.92" y2="231.32"/><line class="cls-3" x1="336.49" y1="237.17" x2="336.49" y2="269.04"/><line class="cls-3" x1="220.6" y1="194.85" x2="220.6" y2="218.15"/><line class="cls-3" x1="220.6" y1="205.12" x2="199.66" y2="205.12"/><line class="cls-3" x1="211.26" y1="205.12" x2="211.26" y2="218.15"/><line class="cls-3" x1="211.26" y1="211.64" x2="199.66" y2="211.64"/><line class="cls-3" x1="232.96" y1="194.85" x2="232.96" y2="218.15"/><line class="cls-3" x1="243.5" y1="194.85" x2="243.5" y2="218.15"/><line class="cls-3" x1="361.26" y1="126.36" x2="319.08" y2="217.05"/><line class="cls-3" x1="361.26" y1="126.36" x2="361.26" y2="119.2"/><line class="cls-3" x1="303.88" y1="194.85" x2="303.88" y2="199.25"/><line class="cls-3" x1="323.18" y1="208.23" x2="303.88" y2="199.25"/><line class="cls-3" x1="327.62" y1="198.69" x2="306.64" y2="188.93"/><line class="cls-3" x1="332.12" y1="189.01" x2="311.14" y2="179.25"/><line class="cls-3" x1="336.56" y1="179.47" x2="315.58" y2="169.71"/><line class="cls-3" x1="341.09" y1="169.74" x2="320.11" y2="159.98"/><line class="cls-3" x1="345.52" y1="160.22" x2="324.53" y2="150.46"/><line class="cls-3" x1="350" y1="150.57" x2="329.02" y2="140.81"/><line class="cls-3" x1="339.51" y1="129.95" x2="333.49" y2="142.89"/><line class="cls-3" x1="339.51" y1="129.95" x2="339.51" y2="119.2"/><line class="cls-3" x1="248.29" y1="103.13" x2="248.29" y2="119.2"/><line class="cls-4" x1="248.29" y1="109" x2="248.29" y2="117.93"/><line class="cls-3" x1="248.29" y1="103.13" x2="233.54" y2="103.13"/><line class="cls-3" x1="233.54" y1="103.13" x2="233.54" y2="108.3"/><line class="cls-3" x1="233.54" y1="108.3" x2="230.61" y2="108.3"/><line class="cls-3" x1="255.23" y1="202.27" x2="265.96" y2="202.27"/><line class="cls-3" x1="255.23" y1="132.6" x2="265.96" y2="132.6"/><line class="cls-3" x1="165.86" y1="108.35" x2="165.86" y2="119.2"/><line class="cls-3" x1="360.84" y1="151.94" x2="351.41" y2="147.55"/><line class="cls-4" x1="255.83" y1="132.6" x2="265.36" y2="132.6"/><line class="cls-4" x1="255.83" y1="202.27" x2="265.36" y2="202.27"/><line class="cls-4" x1="224.76" y1="96.75" x2="229.86" y2="96.75"/><line class="cls-4" x1="223.36" y1="119.2" x2="228.46" y2="119.2"/><line class="cls-4" x1="215.06" y1="119.2" x2="220.16" y2="119.2"/><line class="cls-4" x1="204.54" y1="119.2" x2="209.64" y2="119.2"/><line class="cls-4" x1="192.56" y1="96.75" x2="197.66" y2="96.75"/><line class="cls-4" x1="185.28" y1="96.75" x2="190.38" y2="96.75"/><line class="cls-4" x1="171.06" y1="108.35" x2="176.16" y2="108.35"/><line class="cls-4" x1="151.46" y1="108.35" x2="156.56" y2="108.35"/><line class="cls-4" x1="119.53" y1="108.35" x2="124.63" y2="108.35"/><line class="cls-4" x1="119.53" y1="140.6" x2="124.63" y2="140.6"/><line class="cls-4" x1="165.86" y1="117.93" x2="165.86" y2="109"/><line class="cls-4" x1="255.66" y1="95.13" x2="261.66" y2="95.13"/><line class="cls-4" x1="117.33" y1="134.3" x2="117.33" y2="129.03"/><line class="cls-4" x1="151.82" y1="136.53" x2="151.82" y2="131.27"/><line class="cls-4" x1="141.13" y1="146.93" x2="141.13" y2="141.67"/><line class="cls-4" x1="151.82" y1="166.73" x2="151.82" y2="161.46"/><line class="cls-4" x1="151.82" y1="173.87" x2="151.82" y2="168.6"/><line class="cls-4" x1="141.13" y1="180.33" x2="141.13" y2="175.07"/><line class="cls-4" x1="141.13" y1="204.62" x2="141.13" y2="210.93"/><line class="cls-4" x1="127.96" y1="214.77" x2="127.96" y2="219.77"/><line class="cls-4" x1="127.96" y1="223" x2="127.96" y2="228"/><line class="cls-4" x1="128.84" y1="229.43" x2="133.74" y2="229.43"/><line class="cls-4" x1="184.47" y1="229.43" x2="189.37" y2="229.43"/><line class="cls-4" x1="202.1" y1="229.43" x2="207" y2="229.43"/><line class="cls-4" x1="199.66" y1="218.7" x2="199.66" y2="228.88"/><line class="cls-4" x1="215.28" y1="218.15" x2="220.18" y2="218.15"/><line class="cls-4" x1="226.75" y1="218.15" x2="231.65" y2="218.15"/><line class="cls-4" x1="237.43" y1="218.15" x2="242.33" y2="218.15"/><line class="cls-4" x1="238.28" y1="229.43" x2="243.18" y2="229.43"/><line class="cls-4" x1="247.1" y1="218.15" x2="252" y2="218.15"/><line class="cls-4" x1="255.98" y1="229.43" x2="260.88" y2="229.43"/><line class="cls-4" x1="267.38" y1="213.5" x2="272.28" y2="213.5"/><line class="cls-4" x1="298.68" y1="217.05" x2="303.58" y2="217.05"/><line class="cls-4" x1="303.15" y1="240.91" x2="308.05" y2="240.91"/><line class="cls-4" x1="321.27" y1="237.01" x2="323.38" y2="232.47"/><line class="cls-4" x1="325.12" y1="228.73" x2="327.23" y2="224.19"/><line class="cls-4" x1="323.75" y1="207.01" x2="325.87" y2="202.47"/><line class="cls-4" x1="328.14" y1="197.58" x2="330.25" y2="193.04"/><line class="cls-4" x1="333.95" y1="185.09" x2="336.06" y2="180.56"/><line class="cls-4" x1="342.63" y1="191.09" x2="344.74" y2="186.55"/><line class="cls-4" x1="338.46" y1="175.4" x2="340.57" y2="170.86"/><line class="cls-4" x1="342.52" y1="166.67" x2="344.63" y2="162.13"/><line class="cls-4" x1="347.33" y1="156.31" x2="349.44" y2="151.77"/><line class="cls-4" x1="356.76" y1="160.7" x2="358.87" y2="156.16"/><line class="cls-4" x1="354.86" y1="140.12" x2="356.98" y2="135.58"/><line class="cls-4" x1="368.64" y1="135.17" x2="370.75" y2="130.64"/><line class="cls-4" x1="351.83" y1="147.75" x2="360.42" y2="151.74"/><line class="cls-4" x1="285" y1="246.78" x2="285" y2="251.8"/><line class="cls-4" x1="302" y1="246.78" x2="302" y2="251.8"/><line class="cls-4" x1="318.81" y1="119.2" x2="323.71" y2="119.2"/><line class="cls-4" x1="380.86" y1="89.1" x2="380.86" y2="94"/><line class="cls-3" x1="372.45" y1="87.83" x2="372.45" y2="49.3"/><line class="cls-4" x1="366.46" y1="87.83" x2="371.36" y2="87.83"/><line class="cls-4" x1="373.48" y1="87.83" x2="378.38" y2="87.83"/><line class="cls-4" x1="211.26" y1="216.88" x2="211.26" y2="212.78"/><line class="cls-4" x1="211.26" y1="210.42" x2="211.26" y2="206.32"/><line class="cls-4" x1="215.2" y1="205.12" x2="220.11" y2="205.12"/><line class="cls-5" x1="220.6" y1="253.06" x2="160.56" y2="253.06"/><line class="cls-5" x1="220.6" y1="269.04" x2="351.52" y2="269.04"/><line class="cls-5" x1="351.52" y1="269.04" x2="406.62" y2="150.66"/><line class="cls-5" x1="406.62" y1="150.66" x2="406.62" y2="106.93"/><line class="cls-5" x1="406.62" y1="106.93" x2="434.76" y2="106.93"/><line class="cls-5" x1="434.76" y1="106.93" x2="444.84" y2="85.25"/><line class="cls-5" x1="444.84" y1="85.25" x2="444.84" y2="64.88"/><line class="cls-5" x1="125.06" y1="80.6" x2="66.66" y2="80.6"/><line class="cls-5" x1="220.6" y1="269.04" x2="220.6" y2="253.06"/><line class="cls-5" x1="406.62" y1="64.88" x2="406.62" y2="49.3"/><line class="cls-5" x1="406.62" y1="49.3" x2="339.36" y2="49.3"/><line class="cls-5" x1="339.36" y1="49.3" x2="339.36" y2="64.88"/><line class="cls-5" x1="406.62" y1="64.88" x2="444.84" y2="64.88"/><line class="cls-5" x1="84.41" y1="269.7" x2="84.41" y2="172.97"/><line class="cls-5" x1="339.36" y1="64.88" x2="255.93" y2="64.88"/><line class="cls-5" x1="160.56" y1="253.06" x2="160.56" y2="269.7"/><line class="cls-5" x1="160.56" y1="269.7" x2="84.41" y2="269.7"/><line class="cls-5" x1="84.41" y1="172.97" x2="66.66" y2="172.97"/><line class="cls-5" x1="66.66" y1="172.97" x2="66.66" y2="80.6"/><line class="cls-5" x1="125.06" y1="80.6" x2="125.06" y2="64.88"/><line class="cls-5" x1="188.73" y1="49.43" x2="188.73" y2="64.88"/><line class="cls-5" x1="255.93" y1="64.88" x2="255.93" y2="49.43"/><line class="cls-5" x1="255.93" y1="49.43" x2="188.73" y2="49.43"/><line class="cls-5" x1="125.06" y1="64.88" x2="188.73" y2="64.88"/></svg>