<svg id="Layer_3" data-name="Layer 3" xmlns="http://www.w3.org/2000/svg" viewBox="0 0 497.61 313.77"><defs><style>.cls-1{fill:#fff;}.cls-2{fill:#999;stroke:#999;}.cls-2,.cls-3,.cls-4,.cls-5{stroke-linecap:round;}.cls-2,.cls-6,.cls-7{stroke-linejoin:round;}.cls-2,.cls-3,.cls-4,.cls-7{stroke-width:0.5px;}.cls-3,.cls-4,.cls-5,.cls-6,.cls-7{fill:none;}.cls-3{stroke:#ff931e;}.cls-3,.cls-4,.cls-5{stroke-miterlimit:10;}.cls-4{stroke:#666;}.cls-5{stroke:#000;}.cls-6,.cls-7{stroke:#3fa9f5;}</style></defs><title>USS F0</title><polygon class="cls-1" points="272.63 268.79 272.63 252.81 85.34 252.81 85.34 80.84 160.03 80.84 160.03 65.13 445.27 65.13 445.27 85.2 435.28 106.68 407.05 106.68 407.05 150.6 352.05 268.79 272.63 268.79"/><path class="cls-1" d="M445,65.38V85.14l-9.9,21.29H406.8v44.12l-27.5,59.09-27.41,58.9h-79v-16H85.59V81.09h74.69V65.38H445m.5-.5H159.78V80.59H85.09V253.06H272.38v16h79.83L407.3,150.66V106.93h28.14l10.08-21.68V64.88Z"/><rect class="cls-2" x="356.74" y="211.68" width="7.13" height="13.17" transform="translate(125.64 -131.58) rotate(24.94)"/><rect class="cls-2" x="338.77" y="193.67" width="13.06" height="17.69" transform="translate(117.59 -126.72) rotate(24.94)"/><rect class="cls-2" x="351.38" y="163.04" width="4.28" height="21.61" transform="translate(106.27 -132.86) rotate(24.94)"/><rect class="cls-2" x="334.63" y="163.57" width="7.51" height="19.27" transform="translate(104.59 -126.53) rotate(24.94)"/><rect class="cls-2" x="254" y="137" width="1.9" height="2.5"/><rect class="cls-2" x="221.15" y="193.5" width="8.4" height="13.14"/><path class="cls-2" d="M445.52,85.25l-3,6.45H422.45V64.88h23.07Z"/><path class="cls-2" d="M343.42,64.88h-5.77V71h2.6q-1.61,3.45-3.19,6.91h6.36Z"/><path class="cls-2" d="M325,106.23h-1c.34-.75.69-1.5,1-2.25Z"/><path class="cls-2" d="M269.45,106.23h24.1V64.88h-6.07V92.7H262.85v2.87h6.6Z"/><rect class="cls-2" x="264.42" y="75.58" width="13.15" height="7.18"/><path class="cls-2" d="M194.75,193.5h26.4v4.35H199.3v17.58h-4.55Z"/><rect class="cls-2" x="178.95" y="193.5" width="3.55" height="21.93"/><rect class="cls-2" x="142.21" y="228.2" width="17.57" height="24.86"/><path class="cls-2" d="M159.78,152.5h-3v8.77h3v41.18h-21v-5.82H120.87v5.82h-2.66V184.63H85.09V136.37h74.69Z"/><rect class="cls-2" x="95.12" y="194.6" width="13.15" height="7.18"/><line class="cls-3" x1="290.07" y1="202.25" x2="315.28" y2="213.97"/><line class="cls-3" x1="298.33" y1="227.86" x2="306.95" y2="231.87"/><line class="cls-4" x1="159.78" y1="161.27" x2="159.78" y2="253.06"/><line class="cls-4" x1="159.78" y1="161.27" x2="156.81" y2="161.27"/><line class="cls-4" x1="156.81" y1="152.5" x2="156.81" y2="161.27"/><line class="cls-4" x1="156.81" y1="152.5" x2="159.78" y2="152.5"/><line class="cls-4" x1="159.78" y1="80.59" x2="159.78" y2="152.5"/><line class="cls-4" x1="159.78" y1="136.37" x2="85.09" y2="136.37"/><line class="cls-4" x1="85.09" y1="184.63" x2="118.21" y2="184.63"/><line class="cls-4" x1="85.09" y1="211.63" x2="142.21" y2="211.63"/><line class="cls-4" x1="118.21" y1="184.63" x2="118.21" y2="202.45"/><line class="cls-4" x1="118.21" y1="202.45" x2="120.87" y2="202.45"/><line class="cls-4" x1="120.87" y1="211.63" x2="120.87" y2="196.63"/><line class="cls-4" x1="120.87" y1="196.63" x2="138.75" y2="196.63"/><line class="cls-4" x1="138.75" y1="196.63" x2="138.75" y2="202.45"/><line class="cls-4" x1="138.75" y1="202.45" x2="159.78" y2="202.45"/><line class="cls-4" x1="142.21" y1="253.06" x2="142.21" y2="210.75"/><line class="cls-4" x1="142.21" y1="210.75" x2="143.87" y2="210.75"/><line class="cls-4" x1="143.87" y1="210.75" x2="143.87" y2="202.45"/><line class="cls-4" x1="142.21" y1="220.23" x2="159.78" y2="220.23"/><line class="cls-4" x1="142.21" y1="228.2" x2="159.78" y2="228.2"/><line class="cls-4" x1="95.12" y1="201.78" x2="108.27" y2="201.78"/><line class="cls-4" x1="108.27" y1="201.78" x2="108.27" y2="194.6"/><line class="cls-4" x1="108.27" y1="194.6" x2="95.12" y2="194.6"/><line class="cls-4" x1="95.12" y1="194.6" x2="95.12" y2="201.78"/><line class="cls-4" x1="177.55" y1="64.88" x2="177.55" y2="123"/><line class="cls-4" x1="177.55" y1="120.58" x2="159.78" y2="120.58"/><line class="cls-4" x1="215.88" y1="123" x2="175.37" y2="123"/><line class="cls-4" x1="175.37" y1="123" x2="175.37" y2="139.5"/><line class="cls-4" x1="175.37" y1="139.5" x2="177.55" y2="139.5"/><line class="cls-4" x1="215.88" y1="123" x2="215.88" y2="64.88"/><line class="cls-4" x1="215.4" y1="123" x2="215.4" y2="137.18"/><line class="cls-4" x1="188.41" y1="123" x2="188.41" y2="139.5"/><line class="cls-4" x1="186.11" y1="139.5" x2="198.38" y2="139.5"/><line class="cls-4" x1="198.38" y1="139.5" x2="198.38" y2="137.18"/><line class="cls-4" x1="198.38" y1="137.18" x2="224.85" y2="137.18"/><line class="cls-4" x1="224.85" y1="137.18" x2="224.85" y2="139.5"/><line class="cls-4" x1="215.4" y1="129.23" x2="223.01" y2="129.23"/><line class="cls-4" x1="223.01" y1="123" x2="223.01" y2="129.23"/><line class="cls-4" x1="223.01" y1="123" x2="255.9" y2="123"/><line class="cls-4" x1="224.85" y1="139.5" x2="245.5" y2="139.5"/><line class="cls-4" x1="244.95" y1="139.5" x2="244.95" y2="123"/><line class="cls-4" x1="255.9" y1="123" x2="255.9" y2="139.5"/><line class="cls-4" x1="255.9" y1="139.5" x2="254" y2="139.5"/><line class="cls-4" x1="254" y1="139.5" x2="254" y2="137"/><line class="cls-4" x1="254" y1="137" x2="255.9" y2="137"/><line class="cls-4" x1="159.78" y1="96.33" x2="177.55" y2="96.33"/><line class="cls-4" x1="254" y1="123" x2="254" y2="64.88"/><line class="cls-4" x1="254" y1="92.7" x2="287.48" y2="92.7"/><line class="cls-4" x1="287.48" y1="92.7" x2="287.48" y2="64.88"/><line class="cls-4" x1="262.85" y1="92.7" x2="262.85" y2="95.57"/><line class="cls-4" x1="262.85" y1="95.57" x2="269.45" y2="95.57"/><line class="cls-4" x1="269.45" y1="95.57" x2="269.45" y2="106.23"/><line class="cls-4" x1="301.55" y1="106.23" x2="263.55" y2="106.23"/><line class="cls-4" x1="263.55" y1="106.23" x2="263.55" y2="108"/><line class="cls-4" x1="263.55" y1="108" x2="254" y2="108"/><line class="cls-4" x1="293.55" y1="106.23" x2="293.55" y2="64.88"/><line class="cls-4" x1="301.55" y1="92.7" x2="301.55" y2="121.45"/><line class="cls-4" x1="284.4" y1="106.23" x2="284.4" y2="121.45"/><line class="cls-4" x1="255.9" y1="124.6" x2="266.65" y2="124.6"/><line class="cls-4" x1="266.65" y1="121.45" x2="306.5" y2="121.45"/><line class="cls-4" x1="266.65" y1="121.45" x2="266.65" y2="140.6"/><line class="cls-4" x1="306.5" y1="121.45" x2="306.5" y2="140.6"/><line class="cls-4" x1="306.5" y1="140.6" x2="266.65" y2="140.6"/><line class="cls-4" x1="286.57" y1="140.6" x2="286.57" y2="121.45"/><line class="cls-4" x1="313.95" y1="64.88" x2="313.95" y2="97.5"/><line class="cls-4" x1="301.55" y1="97.5" x2="314.88" y2="97.5"/><line class="cls-4" x1="314.88" y1="97.5" x2="314.88" y2="140.6"/><line class="cls-4" x1="314.88" y1="106.23" x2="324.99" y2="106.23"/><line class="cls-4" x1="323.95" y1="106.23" x2="340.25" y2="70.95"/><line class="cls-4" x1="340.25" y1="70.95" x2="337.65" y2="70.95"/><line class="cls-4" x1="337.65" y1="70.95" x2="337.65" y2="64.88"/><line class="cls-4" x1="337.06" y1="77.86" x2="343.42" y2="77.86"/><line class="cls-4" x1="343.42" y1="77.86" x2="343.42" y2="64.88"/><line class="cls-4" x1="324.99" y1="103.98" x2="324.99" y2="119.45"/><line class="cls-4" x1="341.78" y1="119.45" x2="314.88" y2="119.45"/><line class="cls-4" x1="359.24" y1="119.45" x2="407.3" y2="119.45"/><line class="cls-4" x1="407.3" y1="106.93" x2="404.31" y2="106.93"/><line class="cls-4" x1="404.31" y1="86.03" x2="404.31" y2="106.93"/><line class="cls-4" x1="394.55" y1="86.03" x2="422.45" y2="86.03"/><line class="cls-4" x1="394.55" y1="86.03" x2="394.55" y2="64.88"/><line class="cls-4" x1="422.45" y1="64.88" x2="422.45" y2="91.7"/><path class="cls-4" d="M422.45,91.7h20.07"/><line class="cls-4" x1="264.42" y1="82.75" x2="277.57" y2="82.75"/><line class="cls-4" x1="277.57" y1="82.75" x2="277.57" y2="75.58"/><line class="cls-4" x1="277.57" y1="75.58" x2="264.42" y2="75.58"/><line class="cls-4" x1="264.42" y1="75.58" x2="264.42" y2="82.75"/><line class="cls-4" x1="159.78" y1="237.37" x2="216.21" y2="237.37"/><line class="cls-4" x1="216.21" y1="237.37" x2="229.55" y2="208.6"/><line class="cls-4" x1="229.55" y1="208.6" x2="229.55" y2="193.5"/><line class="cls-4" x1="178.95" y1="237.37" x2="178.95" y2="193.5"/><line class="cls-4" x1="178.95" y1="193.5" x2="268.01" y2="193.5"/><line class="cls-4" x1="194.75" y1="215.43" x2="226.38" y2="215.43"/><line class="cls-4" x1="194.75" y1="215.43" x2="194.75" y2="193.5"/><line class="cls-4" x1="178.95" y1="215.43" x2="182.5" y2="215.43"/><line class="cls-4" x1="182.5" y1="215.43" x2="182.5" y2="193.5"/><line class="cls-4" x1="199.3" y1="215.43" x2="199.3" y2="197.85"/><line class="cls-4" x1="199.3" y1="197.85" x2="221.15" y2="197.85"/><line class="cls-4" x1="221.15" y1="197.85" x2="221.15" y2="206.64"/><line class="cls-4" x1="229.55" y1="206.64" x2="208.25" y2="206.64"/><line class="cls-4" x1="208.25" y1="197.85" x2="208.25" y2="215.43"/><line class="cls-4" x1="214.7" y1="197.85" x2="214.7" y2="206.64"/><line class="cls-4" x1="359.24" y1="119.45" x2="341.98" y2="156.56"/><line class="cls-4" x1="355.28" y1="127.95" x2="406.73" y2="151.88"/><line class="cls-4" x1="306.95" y1="231.87" x2="358.37" y2="255.79"/><line class="cls-4" x1="341.98" y1="156.56" x2="393.43" y2="180.49"/><line class="cls-4" x1="321.29" y1="218.36" x2="366.1" y2="239.2"/><line class="cls-4" x1="321.9" y1="217.05" x2="313.58" y2="234.95"/><line class="cls-4" x1="315.34" y1="214" x2="321.9" y2="217.05"/><line class="cls-4" x1="335.15" y1="224.81" x2="327.43" y2="241.4"/><line class="cls-4" x1="342.82" y1="248.55" x2="333.29" y2="269.04"/><line class="cls-4" x1="338.72" y1="257.38" x2="354.26" y2="264.62"/><line class="cls-4" x1="320.49" y1="202.77" x2="334.87" y2="209.46"/><line class="cls-4" x1="343.11" y1="191.74" x2="333.02" y2="213.42"/><line class="cls-4" x1="330.98" y1="212.48" x2="333.02" y2="213.42"/><line class="cls-4" x1="330.98" y1="212.48" x2="327.01" y2="221.02"/><line class="cls-4" x1="343.11" y1="191.74" x2="380.16" y2="208.97"/><line class="cls-4" x1="361.1" y1="184.02" x2="340.89" y2="227.48"/><line class="cls-4" x1="361.1" y1="184.02" x2="386.31" y2="195.75"/><line class="cls-4" x1="369.14" y1="169.19" x2="362.04" y2="184.46"/><line class="cls-4" x1="360.02" y1="164.96" x2="350.91" y2="184.55"/><line class="cls-4" x1="347.03" y1="182.74" x2="350.91" y2="184.55"/><line class="cls-4" x1="356.14" y1="163.15" x2="347.03" y2="182.74"/><line class="cls-4" x1="345.85" y1="166.05" x2="337.73" y2="183.52"/><line class="cls-4" x1="339.04" y1="162.88" x2="345.85" y2="166.05"/><line class="cls-4" x1="330.91" y1="180.35" x2="337.73" y2="183.52"/><line class="cls-4" x1="356.23" y1="173.11" x2="365.34" y2="177.35"/><line class="cls-4" x1="335.65" y1="207.77" x2="347.49" y2="213.28"/><line class="cls-4" x1="335.22" y1="188.91" x2="327.3" y2="205.94"/><line class="cls-4" x1="328.41" y1="185.74" x2="335.22" y2="188.91"/><line class="cls-4" x1="320.89" y1="238.35" x2="306.61" y2="269.04"/><line class="cls-4" x1="341.78" y1="119.45" x2="356.13" y2="126.13"/><line class="cls-4" x1="373.57" y1="119.45" x2="367.06" y2="133.43"/><line class="cls-4" x1="394.41" y1="119.45" x2="384.2" y2="141.4"/><line class="cls-4" x1="213.44" y1="147.23" x2="240.85" y2="159.98"/><line class="cls-4" x1="207.03" y1="161.01" x2="234.44" y2="173.76"/><line class="cls-4" x1="213.44" y1="147.23" x2="207.03" y2="161.01"/><line class="cls-4" x1="366.33" y1="213.82" x2="360.79" y2="225.74"/><line class="cls-4" x1="359.82" y1="210.8" x2="366.33" y2="213.82"/><line class="cls-4" x1="359.82" y1="210.8" x2="354.28" y2="222.72"/><line class="cls-4" x1="354.28" y1="222.72" x2="360.79" y2="225.74"/><line class="cls-3" x1="283.11" y1="217.22" x2="298.32" y2="224.3"/><line class="cls-3" x1="298.33" y1="227.86" x2="298.33" y2="224.3"/><line class="cls-3" x1="283.11" y1="217.22" x2="290.07" y2="202.25"/><line class="cls-4" x1="301.55" y1="92.7" x2="293.55" y2="92.7"/><line class="cls-5" x1="272.38" y1="253.06" x2="85.09" y2="253.06"/><line class="cls-5" x1="272.38" y1="253.06" x2="272.38" y2="269.04"/><line class="cls-5" x1="272.38" y1="269.04" x2="352.21" y2="269.04"/><line class="cls-5" x1="352.21" y1="269.04" x2="407.3" y2="150.66"/><line class="cls-5" x1="407.3" y1="150.66" x2="407.3" y2="106.93"/><line class="cls-5" x1="407.3" y1="106.93" x2="435.44" y2="106.93"/><line class="cls-5" x1="435.44" y1="106.93" x2="445.52" y2="85.25"/><line class="cls-5" x1="445.52" y1="85.25" x2="445.52" y2="64.88"/><line class="cls-5" x1="445.52" y1="64.88" x2="159.78" y2="64.88"/><line class="cls-5" x1="159.78" y1="64.88" x2="159.78" y2="80.59"/><line class="cls-5" x1="159.78" y1="80.59" x2="85.09" y2="80.59"/><line class="cls-5" x1="85.09" y1="253.06" x2="85.09" y2="80.59"/><line class="cls-6" x1="231.97" y1="253.06" x2="238.3" y2="253.06"/><line class="cls-6" x1="240.07" y1="253.06" x2="253.57" y2="253.06"/><line class="cls-6" x1="256.47" y1="253.06" x2="269.97" y2="253.06"/><line class="cls-7" x1="161.55" y1="237.37" x2="170.11" y2="237.37"/><line class="cls-7" x1="152.85" y1="220.23" x2="159.15" y2="220.23"/><line class="cls-7" x1="142.21" y1="218.73" x2="142.21" y2="213.83"/><line class="cls-7" x1="143.87" y1="209.75" x2="143.87" y2="203.15"/><line class="cls-7" x1="120.87" y1="203.23" x2="120.87" y2="209.53"/><line class="cls-7" x1="178.95" y1="217.25" x2="178.95" y2="222.15"/><line class="cls-7" x1="208.25" y1="213.98" x2="208.25" y2="209.6"/><line class="cls-7" x1="209.15" y1="206.64" x2="213.25" y2="206.64"/><line class="cls-7" x1="215.57" y1="206.64" x2="219.67" y2="206.64"/><line class="cls-7" x1="229.08" y1="209.6" x2="226.94" y2="214.22"/><line class="cls-7" x1="162.77" y1="120.58" x2="169.87" y2="120.58"/><line class="cls-7" x1="177.55" y1="118.13" x2="177.55" y2="111.03"/><line class="cls-7" x1="159.78" y1="97.65" x2="159.78" y2="104.82"/><line class="cls-7" x1="176.32" y1="96.33" x2="171.42" y2="96.33"/><line class="cls-7" x1="178.85" y1="123" x2="185.91" y2="123"/><line class="cls-7" x1="188.41" y1="127.73" x2="188.41" y2="136.48"/><line class="cls-7" x1="244.95" y1="126.77" x2="244.95" y2="135.43"/><line class="cls-7" x1="245.93" y1="123" x2="253.05" y2="123"/><line class="cls-7" x1="258.31" y1="124.6" x2="264.85" y2="124.6"/><line class="cls-7" x1="256.35" y1="108" x2="262.35" y2="108"/><line class="cls-7" x1="256.35" y1="92.7" x2="262.35" y2="92.7"/><line class="cls-7" x1="275.15" y1="140.6" x2="281.47" y2="140.6"/><line class="cls-7" x1="291.75" y1="140.6" x2="298" y2="140.6"/><line class="cls-7" x1="301.55" y1="117.62" x2="301.55" y2="112.73"/><line class="cls-7" x1="301.55" y1="103.98" x2="301.55" y2="99.83"/><line class="cls-7" x1="302.72" y1="97.5" x2="307.71" y2="97.5"/><line class="cls-7" x1="314.88" y1="104.6" x2="314.88" y2="99.73"/><line class="cls-7" x1="347.97" y1="143.68" x2="350.2" y2="138.89"/><line class="cls-7" x1="365.7" y1="119.45" x2="369.83" y2="119.45"/><line class="cls-7" x1="380.21" y1="119.45" x2="388.96" y2="119.45"/><line class="cls-7" x1="398.7" y1="119.45" x2="402.83" y2="119.45"/><line class="cls-7" x1="394.55" y1="73.57" x2="394.55" y2="78.5"/><line class="cls-7" x1="420.27" y1="86.03" x2="415.42" y2="86.03"/><line class="cls-7" x1="357.07" y1="173.5" x2="361.48" y2="175.56"/><line class="cls-7" x1="362.6" y1="183.24" x2="364.64" y2="178.86"/><line class="cls-7" x1="355.59" y1="195.86" x2="357.72" y2="191.3"/><line class="cls-7" x1="341.71" y1="225.71" x2="344.48" y2="219.76"/><line class="cls-7" x1="327.81" y1="219.31" x2="330.57" y2="213.36"/><line class="cls-7" x1="328.35" y1="206.43" x2="332.81" y2="208.5"/><line class="cls-7" x1="330.6" y1="198.84" x2="332.34" y2="195.1"/><line class="cls-7" x1="321.92" y1="218.65" x2="326.48" y2="220.78"/><line class="cls-7" x1="315.53" y1="235.86" x2="320.18" y2="238.03"/><line class="cls-7" x1="314.19" y1="252.75" x2="317.2" y2="246.27"/><line class="cls-7" x1="336.15" y1="262.9" x2="338.28" y2="258.31"/><line class="cls-7" x1="339.21" y1="256.32" x2="341.34" y2="251.73"/><line class="cls-7" x1="335.39" y1="245.1" x2="339.95" y2="247.22"/><line class="cls-4" x1="339.04" y1="162.88" x2="330.91" y2="180.35"/><line class="cls-4" x1="328.41" y1="185.74" x2="306.95" y2="231.87"/><line class="cls-7" x1="311.3" y1="222.52" x2="313.28" y2="218.26"/><line class="cls-4" x1="381.75" y1="84.47" x2="381.75" y2="99.27"/><line class="cls-4" x1="377.31" y1="80" x2="358.98" y2="80"/><line class="cls-4" x1="354.88" y1="82.55" x2="352.46" y2="87.83"/><line class="cls-4" x1="354.67" y1="93.75" x2="375.4" y2="103.4"/><path class="cls-4" d="M377.31,80a4.47,4.47,0,0,1,4.44,4.47"/><path class="cls-4" d="M375.4,103.4a4.44,4.44,0,0,0,6.35-4.13"/><path class="cls-4" d="M352.46,87.83a4.56,4.56,0,0,0,2.21,5.92"/><path class="cls-4" d="M354.88,82.55A4.36,4.36,0,0,1,359,80"/><line class="cls-7" x1="352.83" y1="87.03" x2="354.67" y2="83.01"/><line class="cls-4" x1="324.99" y1="112.84" x2="314.88" y2="112.84"/><line class="cls-7" x1="314.88" y1="111.96" x2="314.88" y2="107.07"/><line class="cls-7" x1="314.88" y1="118.59" x2="314.88" y2="113.7"/></svg>