<svg id="Layer_3" data-name="Layer 3" xmlns="http://www.w3.org/2000/svg" viewBox="0 0 497.61 313.77"><defs><style>.cls-1{fill:#fff;}.cls-2{fill:#999;stroke:#999;}.cls-2,.cls-3,.cls-5{stroke-linecap:round;}.cls-2,.cls-4{stroke-linejoin:round;}.cls-2,.cls-3,.cls-4{stroke-width:0.5px;}.cls-3,.cls-4,.cls-5{fill:none;}.cls-3{stroke:#666;}.cls-3,.cls-5{stroke-miterlimit:10;}.cls-4{stroke:#3fa9f5;}.cls-5{stroke:#000;}</style></defs><title>USS F3</title><polygon class="cls-1" points="84.66 269.45 84.66 172.72 66.91 172.72 66.91 80.84 125.31 80.84 125.31 65.13 188.98 65.13 188.98 49.68 255.68 49.68 255.68 65.13 339.61 65.13 339.61 49.55 406.37 49.55 406.37 65.13 444.59 65.13 444.59 85.2 434.6 106.68 406.37 106.68 406.37 150.6 351.36 268.79 220.85 268.79 220.85 252.81 160.31 252.81 160.31 269.45 84.66 269.45"/><path class="cls-1" d="M406.12,49.8V65.38h38.22V85.14l-5,10.74-4.9,10.55H406.12v44.12l-27.5,59.09-27.42,58.9H221.1v-16h-61V269.2H84.91V172.47H67.16V81.09h58.4V65.38h63.67V49.93h66.2V65.38h84.43V49.8h66.26m.5-.5H339.36V64.88H255.93V49.43h-67.2V64.88H125.06V80.59H66.66V173H84.41V269.7h76.15V253.06h60v16H351.52l55.1-118.38V106.93h28.14l10.08-21.68V64.88H406.62V49.3Z"/><rect class="cls-2" x="356.06" y="211.68" width="7.13" height="13.17" transform="translate(125.57 -131.29) rotate(24.94)"/><path class="cls-2" d="M76.71,170.05h12v5.3H84.41V173h-7.7Z"/><rect class="cls-2" x="321.51" y="97.88" width="4.58" height="3.35"/><rect class="cls-2" x="342.09" y="97.88" width="5.11" height="3.35"/><rect class="cls-2" x="339.36" y="64.88" width="6.37" height="13.22"/><rect class="cls-2" x="157.16" y="85.1" width="8.7" height="2.53"/><rect class="cls-2" x="177.71" y="194.85" width="3.55" height="23.3"/><rect class="cls-2" x="193.56" y="194.85" width="17.7" height="23.3"/><path class="cls-2" d="M351.52,269H319.33V253.63h39.32Q355.08,261.34,351.52,269Z"/><line class="cls-3" x1="265.96" y1="108.3" x2="253.31" y2="108.3"/><path class="cls-2" d="M303.88,194.85H177.71V173.63h4.95v-29.8H266V140.6h63.23Q316.53,167.72,303.88,194.85Z"/><path class="cls-2" d="M392.19,181.67,382,176.94l23.25-50h1.35v23.69Z"/><path class="cls-2" d="M350.69,186l-4.7-2.18q4.53-9.72,9.05-19.45l4.7,2.18Q355.21,176.3,350.69,186Z"/><path class="cls-2" d="M344.64,212.43l-9.81-4.57q3.75-8.07,7.51-16.16l11.93,5.55L344,219.42l-2.11-1Q343.24,215.43,344.64,212.43Z"/><path class="cls-2" d="M268.4,92.7h18.4V64.88h5V92.7h1.06v13.83H268.4V95.13h-5.79V92.7Z"/><path class="cls-2" d="M141.13,196.62H120.19v5.83h-2.66V184.63h8.73V180.9h14.87Z"/><path class="cls-2" d="M444.84,85.25l-10.08,21.68H406.62V64.88h38.22Z"/><line class="cls-3" x1="265.96" y1="121.45" x2="344.1" y2="121.45"/><line class="cls-3" x1="265.96" y1="121.45" x2="265.96" y2="143.83"/><line class="cls-3" x1="305.81" y1="121.45" x2="305.81" y2="140.6"/><line class="cls-3" x1="329.19" y1="140.6" x2="265.96" y2="140.6"/><line class="cls-3" x1="285.89" y1="140.6" x2="285.89" y2="121.45"/><line class="cls-4" x1="274.46" y1="121.45" x2="280.79" y2="121.45"/><line class="cls-4" x1="291.06" y1="121.45" x2="297.31" y2="121.45"/><line class="cls-3" x1="303.88" y1="194.85" x2="177.71" y2="194.85"/><line class="cls-3" x1="303.88" y1="194.85" x2="329.19" y2="140.6"/><line class="cls-3" x1="126.26" y1="180.9" x2="126.26" y2="184.63"/><line class="cls-3" x1="126.26" y1="180.9" x2="141.13" y2="180.9"/><line class="cls-3" x1="330.29" y1="212.87" x2="326.47" y2="221.09"/><line class="cls-3" x1="332.11" y1="213.71" x2="330.29" y2="212.87"/><line class="cls-3" x1="362.67" y1="148.01" x2="332.11" y2="213.71"/><line class="cls-3" x1="344.64" y1="212.43" x2="334.83" y2="207.86"/><line class="cls-3" x1="265.96" y1="108.3" x2="265.96" y2="106.53"/><line class="cls-3" x1="265.96" y1="106.53" x2="305.53" y2="106.53"/><line class="cls-3" x1="339.36" y1="64.88" x2="345.73" y2="64.88"/><line class="cls-3" x1="345.73" y1="64.88" x2="345.73" y2="78.1"/><line class="cls-3" x1="305.53" y1="106.53" x2="305.53" y2="92.7"/><line class="cls-3" x1="406.62" y1="64.88" x2="406.62" y2="106.93"/><line class="cls-3" x1="317.13" y1="92.7" x2="317.13" y2="64.88"/><line class="cls-3" x1="347.2" y1="92.7" x2="291.8" y2="92.7"/><line class="cls-3" x1="291.8" y1="92.7" x2="291.8" y2="64.88"/><line class="cls-3" x1="292.86" y1="92.7" x2="292.86" y2="106.53"/><line class="cls-3" x1="268.4" y1="95.13" x2="268.4" y2="106.53"/><line class="cls-4" x1="327.12" y1="219.69" x2="329.96" y2="213.58"/><line class="cls-4" x1="305.53" y1="100.25" x2="305.53" y2="105.23"/><line class="cls-4" x1="255.46" y1="108.3" x2="261.99" y2="108.3"/><rect class="cls-2" x="94.44" y="194.6" width="13.15" height="7.18"/><line class="cls-3" x1="84.41" y1="184.63" x2="126.26" y2="184.63"/><line class="cls-3" x1="84.41" y1="211.63" x2="159.61" y2="211.63"/><line class="cls-3" x1="117.53" y1="184.63" x2="117.53" y2="202.45"/><line class="cls-3" x1="117.53" y1="202.45" x2="120.19" y2="202.45"/><line class="cls-3" x1="120.19" y1="211.63" x2="120.19" y2="196.62"/><line class="cls-3" x1="94.44" y1="201.78" x2="107.59" y2="201.78"/><line class="cls-3" x1="107.59" y1="201.78" x2="107.59" y2="194.6"/><line class="cls-3" x1="107.59" y1="194.6" x2="94.44" y2="194.6"/><line class="cls-3" x1="94.44" y1="194.6" x2="94.44" y2="201.78"/><line class="cls-4" x1="120.19" y1="204.62" x2="120.19" y2="210.93"/><line class="cls-3" x1="120.19" y1="196.62" x2="141.13" y2="196.62"/><rect class="cls-2" x="263.74" y="75.58" width="13.15" height="7.18"/><line class="cls-3" x1="253.31" y1="112.43" x2="253.31" y2="64.88"/><line class="cls-3" x1="262.61" y1="92.7" x2="286.8" y2="92.7"/><line class="cls-3" x1="286.8" y1="92.7" x2="286.8" y2="64.88"/><line class="cls-3" x1="263.74" y1="82.75" x2="276.89" y2="82.75"/><line class="cls-3" x1="276.89" y1="82.75" x2="276.89" y2="75.58"/><line class="cls-3" x1="276.89" y1="75.58" x2="263.74" y2="75.58"/><line class="cls-3" x1="263.74" y1="75.58" x2="263.74" y2="82.75"/><line class="cls-3" x1="268.4" y1="95.13" x2="253.31" y2="95.13"/><line class="cls-3" x1="262.61" y1="92.7" x2="262.61" y2="95.13"/><line class="cls-3" x1="326.47" y1="221.09" x2="365.42" y2="239.2"/><line class="cls-3" x1="342.34" y1="191.7" x2="379.48" y2="208.97"/><line class="cls-3" x1="354.27" y1="197.25" x2="343.95" y2="219.42"/><line class="cls-3" x1="365.65" y1="213.82" x2="360.1" y2="225.75"/><line class="cls-3" x1="359.14" y1="210.8" x2="365.65" y2="213.82"/><line class="cls-3" x1="359.14" y1="210.8" x2="353.6" y2="222.72"/><line class="cls-3" x1="353.6" y1="222.72" x2="360.1" y2="225.75"/><line class="cls-3" x1="344.59" y1="212.53" x2="338.09" y2="226.49"/><line class="cls-3" x1="343.95" y1="219.42" x2="341.84" y2="218.43"/><line class="cls-4" x1="338.82" y1="224.93" x2="341.58" y2="218.99"/><line class="cls-3" x1="345.73" y1="78.1" x2="339.36" y2="78.1"/><line class="cls-3" x1="191.51" y1="129.13" x2="191.51" y2="64.88"/><line class="cls-3" x1="325.18" y1="229.43" x2="177.71" y2="229.43"/><line class="cls-3" x1="190.58" y1="229.43" x2="190.58" y2="253.06"/><line class="cls-3" x1="177.71" y1="218.15" x2="223.6" y2="218.15"/><line class="cls-3" x1="199.66" y1="229.43" x2="199.66" y2="218.15"/><line class="cls-3" x1="223.6" y1="213.5" x2="286.01" y2="213.5"/><line class="cls-3" x1="286.01" y1="194.85" x2="286.01" y2="217.05"/><line class="cls-3" x1="286.01" y1="217.05" x2="319.08" y2="217.05"/><line class="cls-3" x1="191.51" y1="64.88" x2="188.73" y2="64.88"/><line class="cls-3" x1="255.93" y1="64.88" x2="253.31" y2="64.88"/><line class="cls-3" x1="405.27" y1="126.97" x2="382.02" y2="176.94"/><line class="cls-3" x1="392.19" y1="181.67" x2="355.04" y2="164.4"/><line class="cls-3" x1="359.74" y1="166.58" x2="350.69" y2="186.03"/><line class="cls-3" x1="350.69" y1="186.03" x2="345.99" y2="183.85"/><line class="cls-3" x1="211.26" y1="194.85" x2="211.26" y2="218.15"/><line class="cls-3" x1="355.23" y1="139.33" x2="319.08" y2="217.05"/><line class="cls-3" x1="327.62" y1="198.69" x2="306.64" y2="188.93"/><line class="cls-3" x1="332.12" y1="189.01" x2="311.14" y2="179.25"/><line class="cls-3" x1="345.52" y1="160.22" x2="324.53" y2="150.46"/><line class="cls-3" x1="350" y1="150.57" x2="329.02" y2="140.81"/><line class="cls-3" x1="228.86" y1="129.13" x2="265.96" y2="129.13"/><line class="cls-3" x1="165.86" y1="85.1" x2="165.86" y2="153.8"/><line class="cls-3" x1="359.83" y1="154.1" x2="350.4" y2="149.71"/><line class="cls-4" x1="255.83" y1="129.13" x2="265.36" y2="129.13"/><line class="cls-4" x1="255.66" y1="95.13" x2="261.66" y2="95.13"/><line class="cls-4" x1="199.66" y1="218.7" x2="199.66" y2="228.88"/><line class="cls-4" x1="215.28" y1="218.15" x2="220.18" y2="218.15"/><line class="cls-4" x1="319.71" y1="215.71" x2="321.82" y2="211.17"/><line class="cls-4" x1="328.14" y1="197.58" x2="330.25" y2="193.04"/><line class="cls-4" x1="333.2" y1="186.71" x2="335.31" y2="182.17"/><line class="cls-4" x1="342.63" y1="191.09" x2="344.74" y2="186.55"/><line class="cls-4" x1="347.55" y1="155.85" x2="349.66" y2="151.31"/><line class="cls-4" x1="356.76" y1="160.7" x2="358.87" y2="156.16"/><line class="cls-4" x1="350.82" y1="149.91" x2="359.41" y2="153.9"/><line class="cls-3" x1="191.51" y1="112.43" x2="255.23" y2="112.43"/><line class="cls-3" x1="255.23" y1="112.43" x2="255.23" y2="129.13"/><line class="cls-3" x1="228.86" y1="129.13" x2="228.86" y2="112.43"/><line class="cls-3" x1="213.01" y1="112.43" x2="213.01" y2="129.13"/><line class="cls-3" x1="213.01" y1="129.13" x2="191.51" y2="129.13"/><line class="cls-3" x1="213.01" y1="123.9" x2="228.86" y2="123.9"/><line class="cls-3" x1="174.53" y1="129.13" x2="182.66" y2="129.13"/><line class="cls-3" x1="182.66" y1="120.37" x2="182.66" y2="129.13"/><line class="cls-3" x1="182.66" y1="120.37" x2="191.51" y2="120.37"/><line class="cls-3" x1="174.53" y1="129.13" x2="174.53" y2="64.88"/><line class="cls-3" x1="157.16" y1="85.1" x2="191.51" y2="85.1"/><line class="cls-3" x1="157.16" y1="85.1" x2="157.16" y2="87.63"/><line class="cls-3" x1="157.16" y1="87.63" x2="165.86" y2="87.63"/><line class="cls-3" x1="158.2" y1="85.1" x2="158.2" y2="64.88"/><line class="cls-3" x1="165.86" y1="153.8" x2="137.46" y2="153.8"/><line class="cls-3" x1="137.46" y1="153.8" x2="137.46" y2="80.6"/><line class="cls-3" x1="125.06" y1="80.6" x2="137.46" y2="80.6"/><line class="cls-3" x1="137.46" y1="96.1" x2="165.86" y2="96.1"/><line class="cls-3" x1="137.46" y1="110.3" x2="165.86" y2="105.2"/><line class="cls-3" x1="137.46" y1="121" x2="165.86" y2="121"/><line class="cls-3" x1="137.46" y1="135.65" x2="165.86" y2="140.75"/><line class="cls-3" x1="141.13" y1="202.45" x2="141.13" y2="153.8"/><line class="cls-3" x1="160.91" y1="153.8" x2="160.91" y2="168.15"/><line class="cls-3" x1="141.13" y1="168.15" x2="165.86" y2="168.15"/><line class="cls-3" x1="128.71" y1="180.9" x2="128.71" y2="170.05"/><line class="cls-3" x1="141.13" y1="173.75" x2="128.71" y2="173.75"/><line class="cls-3" x1="128.71" y1="170.05" x2="76.71" y2="170.05"/><line class="cls-3" x1="76.71" y1="170.05" x2="76.71" y2="172.97"/><line class="cls-3" x1="84.41" y1="175.35" x2="88.66" y2="175.35"/><line class="cls-3" x1="88.66" y1="175.35" x2="88.66" y2="170.05"/><line class="cls-3" x1="165.86" y1="168.15" x2="165.86" y2="195.7"/><line class="cls-3" x1="165.86" y1="195.7" x2="159.61" y2="195.7"/><line class="cls-3" x1="159.61" y1="211.63" x2="159.61" y2="195.5"/><line class="cls-3" x1="141.13" y1="202.45" x2="159.61" y2="202.45"/><line class="cls-3" x1="141.13" y1="178.73" x2="165.86" y2="183.07"/><line class="cls-3" x1="160.56" y1="253.06" x2="142.6" y2="253.06"/><line class="cls-3" x1="142.6" y1="253.06" x2="142.6" y2="211.63"/><line class="cls-3" x1="155.06" y1="211.63" x2="155.06" y2="232.05"/><line class="cls-3" x1="142.6" y1="228.55" x2="155.06" y2="228.55"/><line class="cls-3" x1="155.06" y1="232.05" x2="177.71" y2="232.05"/><line class="cls-3" x1="177.71" y1="229.43" x2="177.71" y2="232.05"/><line class="cls-3" x1="193.56" y1="218.15" x2="193.56" y2="194.85"/><line class="cls-3" x1="181.26" y1="218.15" x2="181.26" y2="194.85"/><line class="cls-3" x1="223.6" y1="218.15" x2="223.6" y2="194.85"/><line class="cls-3" x1="223.6" y1="229.43" x2="223.6" y2="253.06"/><line class="cls-3" x1="223.6" y1="253.06" x2="220.6" y2="253.06"/><line class="cls-3" x1="328.6" y1="222.08" x2="325.18" y2="229.43"/><line class="cls-3" x1="258.53" y1="229.43" x2="258.53" y2="240.5"/><line class="cls-3" x1="281.63" y1="229.43" x2="281.63" y2="240.5"/><line class="cls-3" x1="284.35" y1="240.5" x2="255.81" y2="240.5"/><line class="cls-3" x1="270.08" y1="240.5" x2="270.08" y2="269.04"/><line class="cls-3" x1="255.81" y1="240.5" x2="250.51" y2="269.04"/><line class="cls-3" x1="284.35" y1="240.5" x2="289.61" y2="269.04"/><line class="cls-3" x1="319.33" y1="229.43" x2="319.33" y2="269.04"/><line class="cls-3" x1="319.33" y1="253.63" x2="358.65" y2="253.63"/><line class="cls-3" x1="314.3" y1="217.05" x2="303.73" y2="196.47"/><line class="cls-3" x1="303.73" y1="196.47" x2="303.73" y2="194.85"/><line class="cls-3" x1="254.41" y1="213.5" x2="254.41" y2="194.85"/><line class="cls-3" x1="237.06" y1="213.5" x2="240.41" y2="194.85"/><line class="cls-3" x1="271.41" y1="213.5" x2="267.96" y2="194.85"/><line class="cls-3" x1="355.23" y1="139.33" x2="344.1" y2="121.45"/><line class="cls-3" x1="326.96" y1="121.45" x2="326.96" y2="140.6"/><line class="cls-3" x1="369.11" y1="151" x2="362.67" y2="148.01"/><line class="cls-3" x1="381.47" y1="124.42" x2="369.11" y2="151"/><line class="cls-3" x1="391.73" y1="156.06" x2="371.2" y2="146.51"/><line class="cls-3" x1="402.01" y1="133.97" x2="381.47" y2="124.42"/><line class="cls-3" x1="381.11" y1="125.19" x2="371.73" y2="120.83"/><line class="cls-3" x1="377.01" y1="109.46" x2="371.73" y2="120.83"/><line class="cls-3" x1="362.66" y1="109.46" x2="406.62" y2="109.46"/><line class="cls-3" x1="362.66" y1="109.46" x2="359.93" y2="115.34"/><line class="cls-3" x1="372.21" y1="119.79" x2="360.41" y2="114.3"/><line class="cls-3" x1="359.93" y1="115.34" x2="341" y2="106.53"/><line class="cls-3" x1="339.36" y1="64.88" x2="339.36" y2="92.7"/><line class="cls-3" x1="347.2" y1="92.7" x2="347.2" y2="106.53"/><line class="cls-3" x1="335.6" y1="92.7" x2="335.6" y2="106.53"/><line class="cls-3" x1="335.6" y1="99.62" x2="342.09" y2="99.62"/><line class="cls-3" x1="342.09" y1="97.88" x2="342.09" y2="101.23"/><line class="cls-3" x1="342.09" y1="97.88" x2="347.2" y2="97.88"/><line class="cls-3" x1="342.09" y1="101.23" x2="347.2" y2="101.23"/><line class="cls-3" x1="326.1" y1="92.7" x2="326.1" y2="106.53"/><line class="cls-3" x1="314.86" y1="106.53" x2="326.1" y2="106.53"/><line class="cls-3" x1="335.6" y1="106.53" x2="347.2" y2="106.53"/><line class="cls-3" x1="314.86" y1="106.53" x2="314.86" y2="92.7"/><line class="cls-3" x1="314.86" y1="99.55" x2="321.51" y2="99.55"/><line class="cls-3" x1="321.51" y1="97.88" x2="321.51" y2="101.23"/><line class="cls-3" x1="321.51" y1="97.88" x2="326.1" y2="97.88"/><line class="cls-3" x1="321.51" y1="101.23" x2="326.1" y2="101.23"/><line class="cls-3" x1="321.51" y1="106.53" x2="321.51" y2="121.45"/><line class="cls-3" x1="265.96" y1="143.83" x2="182.66" y2="143.83"/><line class="cls-3" x1="182.66" y1="143.83" x2="182.66" y2="173.63"/><line class="cls-3" x1="177.71" y1="218.15" x2="177.71" y2="173.63"/><line class="cls-3" x1="177.71" y1="173.63" x2="182.66" y2="173.63"/><line class="cls-3" x1="165.86" y1="177.87" x2="177.71" y2="177.87"/><line class="cls-4" x1="231.26" y1="129.13" x2="236.18" y2="129.13"/><line class="cls-4" x1="218.41" y1="123.9" x2="227.11" y2="123.9"/><line class="cls-4" x1="218.41" y1="112.43" x2="227.11" y2="112.43"/><line class="cls-4" x1="182.66" y1="122.5" x2="182.66" y2="127.38"/><line class="cls-4" x1="168.81" y1="85.1" x2="173.76" y2="85.1"/><line class="cls-4" x1="165.86" y1="94.38" x2="165.86" y2="89.5"/><line class="cls-4" x1="165.86" y1="103.83" x2="165.86" y2="98.95"/><line class="cls-4" x1="165.86" y1="114.5" x2="165.86" y2="109.63"/><line class="cls-4" x1="165.86" y1="127.7" x2="165.86" y2="122.83"/><line class="cls-4" x1="165.86" y1="152.04" x2="165.86" y2="147.17"/><line class="cls-4" x1="160.91" y1="156.17" x2="160.91" y2="164.93"/><line class="cls-4" x1="141.13" y1="164.93" x2="141.13" y2="156.17"/><line class="cls-4" x1="165.86" y1="174.81" x2="165.86" y2="169.93"/><line class="cls-4" x1="166.5" y1="177.87" x2="176.9" y2="177.87"/><line class="cls-4" x1="165.86" y1="192.11" x2="165.86" y2="187.23"/><line class="cls-4" x1="159.61" y1="204.09" x2="159.61" y2="210.39"/><line class="cls-4" x1="155.06" y1="214.53" x2="155.06" y2="223.27"/><line class="cls-4" x1="142.6" y1="214.53" x2="142.6" y2="223.27"/><line class="cls-4" x1="181.26" y1="229.43" x2="188.5" y2="229.43"/><line class="cls-4" x1="185.31" y1="218.15" x2="190.26" y2="218.15"/><line class="cls-4" x1="216.73" y1="229.43" x2="221.56" y2="229.43"/><line class="cls-4" x1="230.56" y1="213.5" x2="235.56" y2="213.5"/><line class="cls-4" x1="247.41" y1="213.5" x2="252.41" y2="213.5"/><line class="cls-4" x1="263.13" y1="213.5" x2="268.13" y2="213.5"/><line class="cls-4" x1="278.06" y1="213.5" x2="283.06" y2="213.5"/><line class="cls-4" x1="266.53" y1="229.43" x2="273.63" y2="229.43"/><line class="cls-4" x1="258.53" y1="231.47" x2="258.53" y2="238.6"/><line class="cls-4" x1="281.63" y1="231.47" x2="281.63" y2="238.6"/><line class="cls-4" x1="263.3" y1="240.5" x2="268.3" y2="240.5"/><line class="cls-4" x1="271.76" y1="240.5" x2="276.76" y2="240.5"/><line class="cls-4" x1="327.78" y1="223.84" x2="325.72" y2="228.26"/><line class="cls-4" x1="288.31" y1="217.05" x2="293.31" y2="217.05"/><line class="cls-4" x1="345.63" y1="123.9" x2="348.56" y2="128.61"/><line class="cls-4" x1="362.02" y1="115.05" x2="370.6" y2="119.04"/><line class="cls-4" x1="365.66" y1="109.46" x2="374.37" y2="109.46"/><line class="cls-4" x1="375.4" y1="122.54" x2="379.88" y2="124.62"/><line class="cls-4" x1="378.56" y1="130.69" x2="380.61" y2="126.28"/><line class="cls-4" x1="326.96" y1="132.43" x2="326.96" y2="139.6"/><line class="cls-4" x1="335.6" y1="101.37" x2="335.6" y2="105.45"/><line class="cls-4" x1="327.28" y1="92.7" x2="332.15" y2="92.7"/><line class="cls-4" x1="335.6" y1="93.48" x2="335.6" y2="97.57"/><line class="cls-4" x1="314.86" y1="93.48" x2="314.86" y2="97.57"/><line class="cls-4" x1="314.86" y1="101.37" x2="314.86" y2="105.45"/><line class="cls-4" x1="306.81" y1="92.7" x2="311.68" y2="92.7"/><line class="cls-4" x1="200.06" y1="129.13" x2="204.98" y2="129.13"/><line class="cls-4" x1="191.51" y1="69.93" x2="191.51" y2="83.97"/><line class="cls-4" x1="108.91" y1="170.05" x2="117.66" y2="170.05"/><line class="cls-4" x1="128.71" y1="174.85" x2="128.71" y2="179.73"/><line class="cls-4" x1="321.51" y1="107.63" x2="321.51" y2="118"/><line class="cls-5" x1="220.6" y1="253.06" x2="160.56" y2="253.06"/><line class="cls-5" x1="220.6" y1="269.04" x2="351.52" y2="269.04"/><line class="cls-5" x1="351.52" y1="269.04" x2="406.62" y2="150.66"/><line class="cls-5" x1="406.62" y1="150.66" x2="406.62" y2="106.93"/><line class="cls-5" x1="406.62" y1="106.93" x2="434.76" y2="106.93"/><line class="cls-5" x1="434.76" y1="106.93" x2="444.84" y2="85.25"/><line class="cls-5" x1="444.84" y1="85.25" x2="444.84" y2="64.88"/><line class="cls-5" x1="125.06" y1="80.6" x2="66.66" y2="80.6"/><line class="cls-5" x1="220.6" y1="269.04" x2="220.6" y2="253.06"/><line class="cls-5" x1="406.62" y1="64.88" x2="406.62" y2="49.3"/><line class="cls-5" x1="406.62" y1="49.3" x2="339.36" y2="49.3"/><line class="cls-5" x1="339.36" y1="49.3" x2="339.36" y2="64.88"/><line class="cls-5" x1="406.62" y1="64.88" x2="444.84" y2="64.88"/><line class="cls-5" x1="84.41" y1="269.7" x2="84.41" y2="172.97"/><line class="cls-5" x1="339.36" y1="64.88" x2="255.93" y2="64.88"/><line class="cls-5" x1="160.56" y1="253.06" x2="160.56" y2="269.7"/><line class="cls-5" x1="160.56" y1="269.7" x2="84.41" y2="269.7"/><line class="cls-5" x1="84.41" y1="172.97" x2="66.66" y2="172.97"/><line class="cls-5" x1="66.66" y1="172.97" x2="66.66" y2="80.59"/><line class="cls-5" x1="125.06" y1="80.6" x2="125.06" y2="64.88"/><line class="cls-5" x1="188.73" y1="49.43" x2="188.73" y2="64.88"/><line class="cls-5" x1="255.93" y1="64.88" x2="255.93" y2="49.43"/><line class="cls-5" x1="255.93" y1="49.43" x2="188.73" y2="49.43"/><line class="cls-5" x1="125.06" y1="64.88" x2="188.73" y2="64.88"/></svg>