<svg id="Layer_3" data-name="Layer 3" xmlns="http://www.w3.org/2000/svg" viewBox="0 0 497.61 313.77"><defs><style>.cls-1{fill:#fff;}.cls-2{fill:#999;stroke:#999;}.cls-2,.cls-3,.cls-5{stroke-linecap:round;}.cls-2,.cls-4{stroke-linejoin:round;}.cls-2,.cls-3,.cls-4{stroke-width:0.5px;}.cls-3,.cls-4,.cls-5{fill:none;}.cls-3{stroke:#666;}.cls-3,.cls-5{stroke-miterlimit:10;}.cls-4{stroke:#3fa9f5;}.cls-5{stroke:#000;}</style></defs><title>USS F1</title><polygon class="cls-1" points="220.85 268.79 220.85 252.81 84.66 252.81 84.66 80.84 159.35 80.84 159.35 65.13 339.61 65.13 339.61 49.55 406.37 49.55 406.37 65.13 444.59 65.13 444.59 85.2 434.6 106.68 406.37 106.68 406.37 150.6 351.36 268.79 220.85 268.79"/><path class="cls-1" d="M406.12,49.8V65.38h38.22V85.14l-9.9,21.29H406.12v44.12L376.63,213.9,351.2,268.54H221.1v-16H84.91V81.09H159.6V65.38H339.86V49.8h66.26m.5-.5H339.36V64.88H159.1V80.59H84.41V253.06H220.6v16H351.52l55.1-118.38V106.93h28.14l10.08-21.68V64.88H406.62V49.3Z"/><rect class="cls-2" x="356.06" y="211.68" width="7.13" height="13.17" transform="translate(125.57 -131.29) rotate(24.94)"/><path class="cls-2" d="M344.64,212.43l-9.81-4.57q3.75-8.07,7.51-16.16l11.93,5.55L344,219.42l-2.11-1Q343.24,215.43,344.64,212.43Z"/><path class="cls-2" d="M268.4,92.7h18.4V64.88h5V92.7h1.06v13.83H268.4V95.13h-5.79V92.7Z"/><path class="cls-2" d="M141.13,196.62H120.19v5.83h-2.66V184.63h8.73V180.9h14.87V185h18v9.34h-18Z"/><rect class="cls-2" x="84.41" y="172.87" width="15.02" height="11.77"/><line class="cls-3" x1="99.43" y1="172.87" x2="84.41" y2="172.87"/><path class="cls-2" d="M299.16,205l-21.63-10.1H177.71V184.2l14-30,42,19.54,15.48-33.16H314.5l12.06,5.63Q312.87,175.6,299.16,205Z"/><rect class="cls-2" x="340.13" y="115.77" width="2.57" height="5.13"/><rect class="cls-2" x="177.71" y="194.85" width="23.7" height="21.35"/><path class="cls-2" d="M444.84,85.25l-10.08,21.68H406.62V64.88h38.22Z"/><rect class="cls-2" x="328.36" y="97.25" width="11.77" height="9.28"/><line class="cls-3" x1="198.18" y1="140.46" x2="240.17" y2="159.98"/><line class="cls-3" x1="191.75" y1="154.22" x2="233.76" y2="173.76"/><line class="cls-3" x1="253.31" y1="121.45" x2="328.36" y2="121.45"/><line class="cls-3" x1="265.96" y1="121.45" x2="265.96" y2="140.6"/><line class="cls-3" x1="305.81" y1="121.45" x2="305.81" y2="140.6"/><line class="cls-3" x1="314.5" y1="140.6" x2="249.24" y2="140.6"/><line class="cls-3" x1="285.89" y1="140.6" x2="285.89" y2="121.45"/><line class="cls-4" x1="274.46" y1="121.45" x2="280.79" y2="121.45"/><line class="cls-4" x1="291.06" y1="121.45" x2="297.31" y2="121.45"/><line class="cls-3" x1="240.17" y1="159.98" x2="249.24" y2="140.6"/><line class="cls-3" x1="191.75" y1="154.22" x2="177.71" y2="184.2"/><line class="cls-3" x1="177.71" y1="184.2" x2="177.71" y2="216.2"/><line class="cls-3" x1="277.53" y1="194.85" x2="177.71" y2="194.85"/><line class="cls-3" x1="277.53" y1="194.85" x2="299.16" y2="204.95"/><line class="cls-3" x1="314.5" y1="140.6" x2="326.56" y2="146.23"/><line class="cls-3" x1="299.16" y1="204.95" x2="326.56" y2="146.23"/><line class="cls-3" x1="177.71" y1="216.2" x2="223.51" y2="216.2"/><line class="cls-3" x1="223.51" y1="216.2" x2="223.51" y2="194.85"/><line class="cls-3" x1="201.41" y1="194.85" x2="201.41" y2="216.2"/><line class="cls-3" x1="211.41" y1="194.85" x2="211.41" y2="216.2"/><line class="cls-3" x1="201.41" y1="208.43" x2="211.41" y2="208.43"/><line class="cls-3" x1="201.41" y1="201.97" x2="211.41" y2="201.97"/><line class="cls-3" x1="159.1" y1="194.37" x2="141.13" y2="194.37"/><line class="cls-3" x1="141.13" y1="194.37" x2="141.13" y2="211.63"/><line class="cls-3" x1="126.26" y1="180.9" x2="126.26" y2="184.63"/><line class="cls-3" x1="126.26" y1="180.9" x2="141.13" y2="180.9"/><line class="cls-3" x1="141.13" y1="180.9" x2="141.13" y2="185.03"/><line class="cls-3" x1="141.13" y1="185.03" x2="159.1" y2="185.03"/><line class="cls-3" x1="126.6" y1="211.63" x2="126.6" y2="253.06"/><line class="cls-3" x1="126.6" y1="226.97" x2="275.73" y2="226.97"/><line class="cls-3" x1="275.73" y1="226.97" x2="275.73" y2="269.04"/><line class="cls-3" x1="275.73" y1="232.33" x2="286.53" y2="232.33"/><line class="cls-3" x1="286.53" y1="226.97" x2="286.53" y2="232.33"/><line class="cls-3" x1="286.53" y1="226.97" x2="325.94" y2="226.97"/><line class="cls-3" x1="328.14" y1="222.24" x2="325.94" y2="226.97"/><line class="cls-3" x1="330.29" y1="212.87" x2="326.47" y2="221.09"/><line class="cls-3" x1="332.11" y1="213.71" x2="330.29" y2="212.87"/><line class="cls-3" x1="342.34" y1="191.7" x2="332.11" y2="213.71"/><line class="cls-3" x1="344.64" y1="212.43" x2="334.83" y2="207.86"/><line class="cls-3" x1="359.36" y1="165.27" x2="346.22" y2="193.5"/><line class="cls-3" x1="350.23" y1="184.88" x2="333.17" y2="176.95"/><line class="cls-3" x1="342.3" y1="157.33" x2="333.17" y2="176.95"/><line class="cls-3" x1="359.36" y1="165.27" x2="342.3" y2="157.33"/><line class="cls-3" x1="361.76" y1="149.97" x2="355.48" y2="163.46"/><line class="cls-3" x1="398.9" y1="167.24" x2="349.18" y2="144.12"/><line class="cls-3" x1="406.62" y1="128.13" x2="356.61" y2="128.13"/><line class="cls-3" x1="356.61" y1="128.13" x2="349.18" y2="144.12"/><line class="cls-3" x1="247.91" y1="269.04" x2="247.91" y2="226.97"/><line class="cls-3" x1="217.01" y1="253.06" x2="217.01" y2="226.97"/><line class="cls-3" x1="171.31" y1="253.06" x2="171.31" y2="226.97"/><line class="cls-3" x1="148.41" y1="185.03" x2="148.41" y2="173.25"/><line class="cls-3" x1="148.41" y1="173.25" x2="159.1" y2="173.25"/><line class="cls-3" x1="159.1" y1="80.6" x2="159.1" y2="211.63"/><line class="cls-3" x1="181.33" y1="121.45" x2="181.33" y2="114.27"/><line class="cls-3" x1="181.33" y1="114.27" x2="190.8" y2="114.27"/><line class="cls-3" x1="190.8" y1="121.45" x2="190.8" y2="64.88"/><line class="cls-3" x1="212.9" y1="114.27" x2="212.9" y2="121.45"/><line class="cls-3" x1="212.9" y1="114.27" x2="222.43" y2="114.27"/><line class="cls-3" x1="222.43" y1="121.45" x2="222.43" y2="64.88"/><line class="cls-3" x1="242.93" y1="114.27" x2="253.31" y2="114.27"/><line class="cls-3" x1="242.93" y1="121.45" x2="242.93" y2="114.27"/><line class="cls-3" x1="242.93" y1="121.45" x2="222.43" y2="121.45"/><line class="cls-3" x1="212.9" y1="121.45" x2="190.8" y2="121.45"/><line class="cls-3" x1="181.33" y1="121.45" x2="159.1" y2="121.45"/><line class="cls-3" x1="265.96" y1="108.3" x2="253.31" y2="108.3"/><line class="cls-3" x1="265.96" y1="108.3" x2="265.96" y2="106.53"/><line class="cls-3" x1="265.96" y1="106.53" x2="340.13" y2="106.53"/><line class="cls-3" x1="311.86" y1="106.53" x2="311.86" y2="121.45"/><line class="cls-3" x1="340.13" y1="97.25" x2="340.13" y2="120.9"/><line class="cls-3" x1="340.13" y1="120.9" x2="342.7" y2="120.9"/><line class="cls-3" x1="342.7" y1="120.9" x2="342.7" y2="115.77"/><line class="cls-3" x1="340.13" y1="115.77" x2="350.7" y2="115.77"/><line class="cls-3" x1="350.7" y1="115.77" x2="350.7" y2="119.7"/><line class="cls-3" x1="350.7" y1="119.7" x2="371.21" y2="119.7"/><line class="cls-3" x1="371.21" y1="119.7" x2="371.21" y2="128.13"/><line class="cls-3" x1="328.36" y1="97.25" x2="342.46" y2="97.25"/><line class="cls-3" x1="339.36" y1="64.88" x2="342.46" y2="64.88"/><line class="cls-3" x1="342.46" y1="64.88" x2="342.46" y2="97.25"/><line class="cls-3" x1="328.36" y1="106.53" x2="328.36" y2="97.25"/><line class="cls-3" x1="321.43" y1="106.53" x2="321.43" y2="97.25"/><line class="cls-3" x1="321.43" y1="97.25" x2="305.53" y2="97.25"/><line class="cls-3" x1="305.53" y1="106.53" x2="305.53" y2="92.7"/><line class="cls-3" x1="329.26" y1="185.37" x2="309.91" y2="226.97"/><line class="cls-3" x1="406.62" y1="64.88" x2="406.62" y2="106.93"/><line class="cls-3" x1="317.13" y1="97.25" x2="317.13" y2="64.88"/><line class="cls-3" x1="305.53" y1="92.7" x2="291.8" y2="92.7"/><line class="cls-3" x1="291.8" y1="92.7" x2="291.8" y2="64.88"/><line class="cls-3" x1="292.86" y1="92.7" x2="292.86" y2="106.53"/><line class="cls-3" x1="268.4" y1="95.13" x2="268.4" y2="106.53"/><line class="cls-5" x1="220.6" y1="253.06" x2="84.41" y2="253.06"/><line class="cls-5" x1="220.6" y1="269.04" x2="351.52" y2="269.04"/><line class="cls-5" x1="406.62" y1="150.66" x2="406.62" y2="106.93"/><line class="cls-5" x1="406.62" y1="106.93" x2="434.76" y2="106.93"/><line class="cls-5" x1="434.76" y1="106.93" x2="444.84" y2="85.25"/><line class="cls-5" x1="444.84" y1="85.25" x2="444.84" y2="64.88"/><line class="cls-5" x1="159.1" y1="64.88" x2="159.1" y2="80.6"/><line class="cls-5" x1="159.1" y1="80.6" x2="84.41" y2="80.6"/><line class="cls-5" x1="220.6" y1="269.04" x2="220.6" y2="253.06"/><line class="cls-5" x1="406.62" y1="64.88" x2="406.62" y2="49.3"/><line class="cls-5" x1="406.62" y1="49.3" x2="339.36" y2="49.3"/><line class="cls-5" x1="339.36" y1="49.3" x2="339.36" y2="64.88"/><line class="cls-5" x1="406.62" y1="64.88" x2="444.84" y2="64.88"/><line class="cls-4" x1="159.1" y1="174.88" x2="159.1" y2="183.7"/><line class="cls-4" x1="148.41" y1="174.88" x2="148.41" y2="183.7"/><line class="cls-4" x1="126.6" y1="213.77" x2="126.6" y2="218.8"/><line class="cls-4" x1="165.21" y1="226.97" x2="170.14" y2="226.97"/><line class="cls-4" x1="172.61" y1="226.97" x2="177.54" y2="226.97"/><line class="cls-4" x1="241.41" y1="226.97" x2="246.34" y2="226.97"/><line class="cls-4" x1="269.54" y1="226.97" x2="274.46" y2="226.97"/><line class="cls-4" x1="214.71" y1="216.2" x2="219.64" y2="216.2"/><line class="cls-4" x1="211.41" y1="214.05" x2="211.41" y2="209.92"/><line class="cls-4" x1="211.41" y1="207.22" x2="211.41" y2="203.08"/><line class="cls-4" x1="211.41" y1="200.75" x2="211.41" y2="196.62"/><line class="cls-4" x1="277.66" y1="232.33" x2="284.81" y2="232.33"/><line class="cls-4" x1="327.12" y1="219.69" x2="329.96" y2="213.58"/><line class="cls-4" x1="335.11" y1="177.85" x2="339.63" y2="179.95"/><line class="cls-4" x1="356.01" y1="162.32" x2="358.08" y2="157.86"/><line class="cls-4" x1="350.72" y1="144.84" x2="355.26" y2="146.95"/><line class="cls-4" x1="371.21" y1="126.95" x2="371.21" y2="122"/><line class="cls-4" x1="343.83" y1="115.77" x2="348.75" y2="115.77"/><line class="cls-4" x1="311.86" y1="108.5" x2="311.86" y2="118.55"/><line class="cls-4" x1="313.48" y1="106.53" x2="319.91" y2="106.53"/><line class="cls-4" x1="321.43" y1="105.23" x2="321.43" y2="100.25"/><line class="cls-4" x1="306.75" y1="97.25" x2="311.66" y2="97.25"/><line class="cls-4" x1="305.53" y1="100.25" x2="305.53" y2="105.23"/><line class="cls-4" x1="255.46" y1="108.3" x2="261.99" y2="108.3"/><line class="cls-4" x1="255.46" y1="121.45" x2="261.99" y2="121.45"/><line class="cls-4" x1="244.2" y1="114.27" x2="249.13" y2="114.27"/><line class="cls-4" x1="214.23" y1="114.27" x2="219.08" y2="114.27"/><line class="cls-4" x1="182.56" y1="114.27" x2="187.5" y2="114.27"/><rect class="cls-2" x="94.44" y="194.6" width="13.15" height="7.18"/><line class="cls-3" x1="84.41" y1="184.63" x2="126.26" y2="184.63"/><line class="cls-3" x1="84.41" y1="211.63" x2="141.13" y2="211.63"/><line class="cls-3" x1="117.53" y1="184.63" x2="117.53" y2="202.45"/><line class="cls-3" x1="117.53" y1="202.45" x2="120.19" y2="202.45"/><line class="cls-3" x1="120.19" y1="211.63" x2="120.19" y2="196.62"/><line class="cls-3" x1="94.44" y1="201.78" x2="107.59" y2="201.78"/><line class="cls-3" x1="107.59" y1="201.78" x2="107.59" y2="194.6"/><line class="cls-3" x1="107.59" y1="194.6" x2="94.44" y2="194.6"/><line class="cls-3" x1="94.44" y1="194.6" x2="94.44" y2="201.78"/><line class="cls-4" x1="120.19" y1="203.22" x2="120.19" y2="209.53"/><line class="cls-5" x1="84.41" y1="253.06" x2="84.41" y2="80.6"/><line class="cls-3" x1="120.19" y1="196.62" x2="141.13" y2="196.62"/><line class="cls-4" x1="130.19" y1="211.63" x2="136.76" y2="211.63"/><line class="cls-3" x1="99.43" y1="172.87" x2="99.43" y2="184.63"/><rect class="cls-2" x="263.74" y="75.58" width="13.15" height="7.18"/><line class="cls-3" x1="253.31" y1="121.45" x2="253.31" y2="64.88"/><line class="cls-3" x1="253.31" y1="92.7" x2="286.8" y2="92.7"/><line class="cls-3" x1="286.8" y1="92.7" x2="286.8" y2="64.88"/><line class="cls-3" x1="263.74" y1="82.75" x2="276.89" y2="82.75"/><line class="cls-3" x1="276.89" y1="82.75" x2="276.89" y2="75.58"/><line class="cls-3" x1="276.89" y1="75.58" x2="263.74" y2="75.58"/><line class="cls-3" x1="263.74" y1="75.58" x2="263.74" y2="82.75"/><line class="cls-4" x1="255.66" y1="92.7" x2="261.66" y2="92.7"/><line class="cls-5" x1="339.36" y1="64.88" x2="159.1" y2="64.88"/><line class="cls-3" x1="268.4" y1="95.13" x2="262.61" y2="95.13"/><line class="cls-3" x1="262.61" y1="92.7" x2="262.61" y2="95.13"/><line class="cls-3" x1="326.47" y1="221.09" x2="365.42" y2="239.2"/><line class="cls-3" x1="342.34" y1="191.7" x2="379.48" y2="208.97"/><line class="cls-3" x1="354.27" y1="197.25" x2="343.95" y2="219.42"/><line class="cls-3" x1="365.65" y1="213.82" x2="360.1" y2="225.75"/><line class="cls-3" x1="359.14" y1="210.8" x2="365.65" y2="213.82"/><line class="cls-3" x1="359.14" y1="210.8" x2="353.6" y2="222.72"/><line class="cls-3" x1="353.6" y1="222.72" x2="360.1" y2="225.75"/><line class="cls-3" x1="344.59" y1="212.53" x2="338.09" y2="226.49"/><line class="cls-3" x1="343.95" y1="219.42" x2="341.84" y2="218.43"/><line class="cls-4" x1="338.82" y1="224.93" x2="341.58" y2="218.99"/><line class="cls-5" x1="351.52" y1="269.04" x2="406.62" y2="150.66"/></svg>